<svg width="511" height="160" viewBox="0 0 511 160" fill="none" xmlns="http://www.w3.org/2000/svg">
<rect width="511" height="160" fill="white"/>
<path d="M45.982 144.088H49.986V144.97H47.228V155.246H49.986V156.128H45.982V144.088ZM54.6565 146.188L54.6145 144.396H56.5745L56.5325 146.188L56.1125 149.422H55.0765L54.6565 146.188ZM60.8111 150.57C60.8111 150.001 60.9137 149.492 61.1191 149.044C61.3337 148.596 61.6184 148.218 61.9731 147.91C62.3277 147.602 62.7431 147.369 63.2191 147.21C63.6951 147.042 64.1944 146.958 64.7171 146.958C65.2771 146.958 65.7671 147.051 66.1871 147.238C66.6164 147.425 66.9757 147.653 67.2651 147.924L66.4951 148.932C66.2244 148.717 65.9491 148.554 65.6691 148.442C65.3984 148.33 65.1091 148.274 64.8011 148.274C64.1104 148.274 63.5504 148.484 63.1211 148.904C62.6917 149.315 62.4771 149.87 62.4771 150.57C62.4771 150.915 62.5331 151.228 62.6451 151.508C62.7571 151.788 62.9111 152.031 63.1071 152.236C63.3124 152.432 63.5551 152.586 63.8351 152.698C64.1151 152.801 64.4231 152.852 64.7591 152.852C65.1511 152.852 65.5057 152.777 65.8231 152.628C66.1497 152.479 66.4484 152.301 66.7191 152.096L67.3911 153.132C66.9991 153.477 66.5604 153.739 66.0751 153.916C65.5897 154.084 65.0997 154.168 64.6051 154.168C64.0637 154.168 63.5597 154.089 63.0931 153.93C62.6357 153.771 62.2344 153.538 61.8891 153.23C61.5531 152.922 61.2871 152.544 61.0911 152.096C60.9044 151.648 60.8111 151.139 60.8111 150.57ZM68.9256 150.57C68.9256 150.001 69.0189 149.492 69.2056 149.044C69.4016 148.596 69.6583 148.218 69.9756 147.91C70.2929 147.602 70.6616 147.369 71.0816 147.21C71.5016 147.042 71.9356 146.958 72.3836 146.958C72.8316 146.958 73.2656 147.042 73.6856 147.21C74.1056 147.369 74.4743 147.602 74.7916 147.91C75.1089 148.218 75.3609 148.596 75.5476 149.044C75.7436 149.492 75.8416 150.001 75.8416 150.57C75.8416 151.139 75.7436 151.648 75.5476 152.096C75.3609 152.544 75.1089 152.922 74.7916 153.23C74.4743 153.538 74.1056 153.771 73.6856 153.93C73.2656 154.089 72.8316 154.168 72.3836 154.168C71.9356 154.168 71.5016 154.089 71.0816 153.93C70.6616 153.771 70.2929 153.538 69.9756 153.23C69.6583 152.922 69.4016 152.544 69.2056 152.096C69.0189 151.648 68.9256 151.139 68.9256 150.57ZM70.5916 150.57C70.5916 151.261 70.7503 151.816 71.0676 152.236C71.3849 152.647 71.8236 152.852 72.3836 152.852C72.9436 152.852 73.3823 152.647 73.6996 152.236C74.0169 151.816 74.1756 151.261 74.1756 150.57C74.1756 149.87 74.0169 149.315 73.6996 148.904C73.3823 148.484 72.9436 148.274 72.3836 148.274C71.8236 148.274 71.3849 148.484 71.0676 148.904C70.7503 149.315 70.5916 149.87 70.5916 150.57ZM77.5721 144.116H81.3521V151.578C81.3521 152.045 81.4688 152.376 81.7021 152.572C81.9355 152.759 82.2295 152.852 82.5841 152.852C82.9201 152.852 83.3121 152.763 83.7601 152.586L84.1381 153.776C83.8115 153.888 83.5035 153.981 83.2141 154.056C82.9341 154.131 82.5935 154.168 82.1921 154.168C81.3801 154.168 80.7688 153.935 80.3581 153.468C79.9475 153.001 79.7421 152.343 79.7421 151.494V145.39H77.5721V144.116ZM92.5327 154.868V156.128H85.8127V154.868H92.5327ZM100.829 152.684V154H94.6272V152.684H97.0352V146.832H95.1732V145.824C95.6772 145.74 96.1065 145.642 96.4612 145.53C96.8252 145.409 97.1612 145.264 97.4692 145.096H98.6452V152.684H100.829ZM105.024 146.188L104.982 144.396H106.942L106.9 146.188L106.48 149.422H105.444L105.024 146.188ZM112.802 156.044C113.988 155.568 114.585 154.849 114.594 153.888C114.548 153.897 114.482 153.902 114.398 153.902C114.044 153.902 113.736 153.799 113.474 153.594C113.213 153.379 113.082 153.067 113.082 152.656C113.082 152.264 113.213 151.961 113.474 151.746C113.745 151.522 114.062 151.41 114.426 151.41C114.93 151.41 115.308 151.597 115.56 151.97C115.812 152.343 115.938 152.857 115.938 153.51C115.938 154.369 115.705 155.092 115.238 155.68C114.772 156.277 114.1 156.721 113.222 157.01L112.802 156.044ZM130.207 146.188L130.165 144.396H132.125L132.083 146.188L131.663 149.422H130.627L130.207 146.188ZM136.362 150.57C136.362 150.001 136.465 149.492 136.67 149.044C136.885 148.596 137.169 148.218 137.524 147.91C137.879 147.602 138.294 147.369 138.77 147.21C139.246 147.042 139.745 146.958 140.268 146.958C140.828 146.958 141.318 147.051 141.738 147.238C142.167 147.425 142.527 147.653 142.816 147.924L142.046 148.932C141.775 148.717 141.5 148.554 141.22 148.442C140.949 148.33 140.66 148.274 140.352 148.274C139.661 148.274 139.101 148.484 138.672 148.904C138.243 149.315 138.028 149.87 138.028 150.57C138.028 150.915 138.084 151.228 138.196 151.508C138.308 151.788 138.462 152.031 138.658 152.236C138.863 152.432 139.106 152.586 139.386 152.698C139.666 152.801 139.974 152.852 140.31 152.852C140.702 152.852 141.057 152.777 141.374 152.628C141.701 152.479 141.999 152.301 142.27 152.096L142.942 153.132C142.55 153.477 142.111 153.739 141.626 153.916C141.141 154.084 140.651 154.168 140.156 154.168C139.615 154.168 139.111 154.089 138.644 153.93C138.187 153.771 137.785 153.538 137.44 153.23C137.104 152.922 136.838 152.544 136.642 152.096C136.455 151.648 136.362 151.139 136.362 150.57ZM144.476 150.57C144.476 150.001 144.57 149.492 144.756 149.044C144.952 148.596 145.209 148.218 145.526 147.91C145.844 147.602 146.212 147.369 146.632 147.21C147.052 147.042 147.486 146.958 147.934 146.958C148.382 146.958 148.816 147.042 149.236 147.21C149.656 147.369 150.025 147.602 150.342 147.91C150.66 148.218 150.912 148.596 151.098 149.044C151.294 149.492 151.392 150.001 151.392 150.57C151.392 151.139 151.294 151.648 151.098 152.096C150.912 152.544 150.66 152.922 150.342 153.23C150.025 153.538 149.656 153.771 149.236 153.93C148.816 154.089 148.382 154.168 147.934 154.168C147.486 154.168 147.052 154.089 146.632 153.93C146.212 153.771 145.844 153.538 145.526 153.23C145.209 152.922 144.952 152.544 144.756 152.096C144.57 151.648 144.476 151.139 144.476 150.57ZM146.142 150.57C146.142 151.261 146.301 151.816 146.618 152.236C146.936 152.647 147.374 152.852 147.934 152.852C148.494 152.852 148.933 152.647 149.25 152.236C149.568 151.816 149.726 151.261 149.726 150.57C149.726 149.87 149.568 149.315 149.25 148.904C148.933 148.484 148.494 148.274 147.934 148.274C147.374 148.274 146.936 148.484 146.618 148.904C146.301 149.315 146.142 149.87 146.142 150.57ZM153.123 144.116H156.903V151.578C156.903 152.045 157.02 152.376 157.253 152.572C157.486 152.759 157.78 152.852 158.135 152.852C158.471 152.852 158.863 152.763 159.311 152.586L159.689 153.776C159.362 153.888 159.054 153.981 158.765 154.056C158.485 154.131 158.144 154.168 157.743 154.168C156.931 154.168 156.32 153.935 155.909 153.468C155.498 153.001 155.293 152.343 155.293 151.494V145.39H153.123V144.116ZM168.083 154.868V156.128H161.363V154.868H168.083ZM169.828 153.062C170.528 152.465 171.153 151.919 171.704 151.424C172.255 150.92 172.721 150.453 173.104 150.024C173.496 149.595 173.795 149.193 174 148.82C174.205 148.447 174.308 148.087 174.308 147.742C174.308 147.266 174.163 146.893 173.874 146.622C173.585 146.342 173.16 146.202 172.6 146.202C172.208 146.202 171.849 146.3 171.522 146.496C171.205 146.692 170.911 146.925 170.64 147.196L169.758 146.3C170.187 145.861 170.64 145.525 171.116 145.292C171.592 145.049 172.157 144.928 172.81 144.928C173.267 144.928 173.683 144.993 174.056 145.124C174.429 145.255 174.747 145.441 175.008 145.684C175.279 145.917 175.484 146.202 175.624 146.538C175.773 146.874 175.848 147.247 175.848 147.658C175.848 148.05 175.75 148.451 175.554 148.862C175.367 149.263 175.111 149.674 174.784 150.094C174.457 150.505 174.065 150.929 173.608 151.368C173.16 151.807 172.679 152.259 172.166 152.726C172.427 152.707 172.703 152.689 172.992 152.67C173.281 152.642 173.547 152.628 173.79 152.628H176.31V154H169.828V153.062ZM180.575 146.188L180.533 144.396H182.493L182.451 146.188L182.031 149.422H180.995L180.575 146.188ZM188.353 156.044C189.538 155.568 190.136 154.849 190.145 153.888C190.098 153.897 190.033 153.902 189.949 153.902C189.594 153.902 189.286 153.799 189.025 153.594C188.764 153.379 188.633 153.067 188.633 152.656C188.633 152.264 188.764 151.961 189.025 151.746C189.296 151.522 189.613 151.41 189.977 151.41C190.481 151.41 190.859 151.597 191.111 151.97C191.363 152.343 191.489 152.857 191.489 153.51C191.489 154.369 191.256 155.092 190.789 155.68C190.322 156.277 189.65 156.721 188.773 157.01L188.353 156.044ZM205.758 146.188L205.716 144.396H207.676L207.634 146.188L207.214 149.422H206.178L205.758 146.188ZM211.913 150.57C211.913 150.001 212.015 149.492 212.221 149.044C212.435 148.596 212.72 148.218 213.075 147.91C213.429 147.602 213.845 147.369 214.321 147.21C214.797 147.042 215.296 146.958 215.819 146.958C216.379 146.958 216.869 147.051 217.289 147.238C217.718 147.425 218.077 147.653 218.367 147.924L217.597 148.932C217.326 148.717 217.051 148.554 216.771 148.442C216.5 148.33 216.211 148.274 215.903 148.274C215.212 148.274 214.652 148.484 214.223 148.904C213.793 149.315 213.579 149.87 213.579 150.57C213.579 150.915 213.635 151.228 213.747 151.508C213.859 151.788 214.013 152.031 214.209 152.236C214.414 152.432 214.657 152.586 214.937 152.698C215.217 152.801 215.525 152.852 215.861 152.852C216.253 152.852 216.607 152.777 216.925 152.628C217.251 152.479 217.55 152.301 217.821 152.096L218.493 153.132C218.101 153.477 217.662 153.739 217.177 153.916C216.691 154.084 216.201 154.168 215.707 154.168C215.165 154.168 214.661 154.089 214.195 153.93C213.737 153.771 213.336 153.538 212.991 153.23C212.655 152.922 212.389 152.544 212.193 152.096C212.006 151.648 211.913 151.139 211.913 150.57ZM220.027 150.57C220.027 150.001 220.12 149.492 220.307 149.044C220.503 148.596 220.76 148.218 221.077 147.91C221.394 147.602 221.763 147.369 222.183 147.21C222.603 147.042 223.037 146.958 223.485 146.958C223.933 146.958 224.367 147.042 224.787 147.21C225.207 147.369 225.576 147.602 225.893 147.91C226.21 148.218 226.462 148.596 226.649 149.044C226.845 149.492 226.943 150.001 226.943 150.57C226.943 151.139 226.845 151.648 226.649 152.096C226.462 152.544 226.21 152.922 225.893 153.23C225.576 153.538 225.207 153.771 224.787 153.93C224.367 154.089 223.933 154.168 223.485 154.168C223.037 154.168 222.603 154.089 222.183 153.93C221.763 153.771 221.394 153.538 221.077 153.23C220.76 152.922 220.503 152.544 220.307 152.096C220.12 151.648 220.027 151.139 220.027 150.57ZM221.693 150.57C221.693 151.261 221.852 151.816 222.169 152.236C222.486 152.647 222.925 152.852 223.485 152.852C224.045 152.852 224.484 152.647 224.801 152.236C225.118 151.816 225.277 151.261 225.277 150.57C225.277 149.87 225.118 149.315 224.801 148.904C224.484 148.484 224.045 148.274 223.485 148.274C222.925 148.274 222.486 148.484 222.169 148.904C221.852 149.315 221.693 149.87 221.693 150.57ZM228.674 144.116H232.454V151.578C232.454 152.045 232.57 152.376 232.804 152.572C233.037 152.759 233.331 152.852 233.686 152.852C234.022 152.852 234.414 152.763 234.862 152.586L235.24 153.776C234.913 153.888 234.605 153.981 234.316 154.056C234.036 154.131 233.695 154.168 233.294 154.168C232.482 154.168 231.87 153.935 231.46 153.468C231.049 153.001 230.844 152.343 230.844 151.494V145.39H228.674V144.116ZM243.634 154.868V156.128H236.914V154.868H243.634ZM245.925 151.872C246.223 152.143 246.569 152.376 246.961 152.572C247.362 152.759 247.805 152.852 248.291 152.852C248.841 152.852 249.294 152.735 249.649 152.502C250.013 152.259 250.195 151.928 250.195 151.508C250.195 151.275 250.143 151.065 250.041 150.878C249.938 150.691 249.77 150.533 249.537 150.402C249.313 150.271 249.009 150.173 248.627 150.108C248.253 150.033 247.791 149.996 247.241 149.996V148.82C247.717 148.82 248.123 148.787 248.459 148.722C248.795 148.647 249.065 148.549 249.271 148.428C249.485 148.297 249.639 148.143 249.733 147.966C249.835 147.789 249.887 147.597 249.887 147.392C249.887 147.019 249.742 146.729 249.453 146.524C249.173 146.309 248.795 146.202 248.319 146.202C247.927 146.202 247.563 146.281 247.227 146.44C246.9 146.589 246.587 146.79 246.289 147.042L245.449 146.048C245.859 145.712 246.307 145.441 246.793 145.236C247.278 145.031 247.81 144.928 248.389 144.928C248.846 144.928 249.266 144.979 249.649 145.082C250.031 145.185 250.358 145.339 250.629 145.544C250.909 145.74 251.123 145.987 251.273 146.286C251.431 146.575 251.511 146.907 251.511 147.28C251.511 147.784 251.347 148.204 251.021 148.54C250.694 148.876 250.255 149.137 249.705 149.324V149.38C249.994 149.455 250.265 149.557 250.517 149.688C250.778 149.809 251.002 149.963 251.189 150.15C251.385 150.337 251.539 150.551 251.651 150.794C251.763 151.037 251.819 151.303 251.819 151.592C251.819 152.003 251.725 152.367 251.539 152.684C251.361 153.001 251.119 153.272 250.811 153.496C250.503 153.711 250.143 153.879 249.733 154C249.322 154.112 248.888 154.168 248.431 154.168C247.665 154.168 247.012 154.047 246.471 153.804C245.929 153.561 245.495 153.263 245.169 152.908L245.925 151.872ZM256.125 146.188L256.083 144.396H258.043L258.001 146.188L257.581 149.422H256.545L256.125 146.188ZM263.904 156.044C265.089 155.568 265.686 154.849 265.696 153.888C265.649 153.897 265.584 153.902 265.5 153.902C265.145 153.902 264.837 153.799 264.576 153.594C264.314 153.379 264.184 153.067 264.184 152.656C264.184 152.264 264.314 151.961 264.576 151.746C264.846 151.522 265.164 151.41 265.528 151.41C266.032 151.41 266.41 151.597 266.662 151.97C266.914 152.343 267.04 152.857 267.04 153.51C267.04 154.369 266.806 155.092 266.34 155.68C265.873 156.277 265.201 156.721 264.324 157.01L263.904 156.044ZM281.309 146.188L281.267 144.396H283.227L283.185 146.188L282.765 149.422H281.729L281.309 146.188ZM287.463 150.57C287.463 150.001 287.566 149.492 287.771 149.044C287.986 148.596 288.271 148.218 288.625 147.91C288.98 147.602 289.395 147.369 289.871 147.21C290.347 147.042 290.847 146.958 291.369 146.958C291.929 146.958 292.419 147.051 292.839 147.238C293.269 147.425 293.628 147.653 293.917 147.924L293.147 148.932C292.877 148.717 292.601 148.554 292.321 148.442C292.051 148.33 291.761 148.274 291.453 148.274C290.763 148.274 290.203 148.484 289.773 148.904C289.344 149.315 289.129 149.87 289.129 150.57C289.129 150.915 289.185 151.228 289.297 151.508C289.409 151.788 289.563 152.031 289.759 152.236C289.965 152.432 290.207 152.586 290.487 152.698C290.767 152.801 291.075 152.852 291.411 152.852C291.803 152.852 292.158 152.777 292.475 152.628C292.802 152.479 293.101 152.301 293.371 152.096L294.043 153.132C293.651 153.477 293.213 153.739 292.727 153.916C292.242 154.084 291.752 154.168 291.257 154.168C290.716 154.168 290.212 154.089 289.745 153.93C289.288 153.771 288.887 153.538 288.541 153.23C288.205 152.922 287.939 152.544 287.743 152.096C287.557 151.648 287.463 151.139 287.463 150.57ZM295.578 150.57C295.578 150.001 295.671 149.492 295.858 149.044C296.054 148.596 296.311 148.218 296.628 147.91C296.945 147.602 297.314 147.369 297.734 147.21C298.154 147.042 298.588 146.958 299.036 146.958C299.484 146.958 299.918 147.042 300.338 147.21C300.758 147.369 301.127 147.602 301.444 147.91C301.761 148.218 302.013 148.596 302.2 149.044C302.396 149.492 302.494 150.001 302.494 150.57C302.494 151.139 302.396 151.648 302.2 152.096C302.013 152.544 301.761 152.922 301.444 153.23C301.127 153.538 300.758 153.771 300.338 153.93C299.918 154.089 299.484 154.168 299.036 154.168C298.588 154.168 298.154 154.089 297.734 153.93C297.314 153.771 296.945 153.538 296.628 153.23C296.311 152.922 296.054 152.544 295.858 152.096C295.671 151.648 295.578 151.139 295.578 150.57ZM297.244 150.57C297.244 151.261 297.403 151.816 297.72 152.236C298.037 152.647 298.476 152.852 299.036 152.852C299.596 152.852 300.035 152.647 300.352 152.236C300.669 151.816 300.828 151.261 300.828 150.57C300.828 149.87 300.669 149.315 300.352 148.904C300.035 148.484 299.596 148.274 299.036 148.274C298.476 148.274 298.037 148.484 297.72 148.904C297.403 149.315 297.244 149.87 297.244 150.57ZM304.224 144.116H308.004V151.578C308.004 152.045 308.121 152.376 308.354 152.572C308.588 152.759 308.882 152.852 309.236 152.852C309.572 152.852 309.964 152.763 310.412 152.586L310.79 153.776C310.464 153.888 310.156 153.981 309.866 154.056C309.586 154.131 309.246 154.168 308.844 154.168C308.032 154.168 307.421 153.935 307.01 153.468C306.6 153.001 306.394 152.343 306.394 151.494V145.39H304.224V144.116ZM319.185 154.868V156.128H312.465V154.868H319.185ZM324.976 150.458V148.33C324.985 148.059 324.994 147.765 325.004 147.448C325.022 147.131 325.041 146.837 325.06 146.566H324.99C324.84 146.799 324.686 147.033 324.528 147.266C324.369 147.499 324.21 147.737 324.052 147.98L322.176 150.458H324.976ZM327.748 151.704H326.488V154H324.976V151.704H320.538V150.612L324.626 145.082H326.488V150.458H327.748V151.704ZM331.676 146.188L331.634 144.396H333.594L333.552 146.188L333.132 149.422H332.096L331.676 146.188ZM340.981 155.246V144.97H338.237V144.088H342.241V156.128H338.237V155.246H340.981Z" fill="#2E383C"/>
<path d="M40 88H470.473V130H40V88Z" fill="#F1F4F8"/>
<path d="M48.732 102.243C48.732 101.673 48.8346 101.165 49.04 100.717C49.2546 100.269 49.5393 99.8905 49.894 99.5825C50.2486 99.2745 50.664 99.0412 51.14 98.8825C51.616 98.7145 52.1153 98.6305 52.638 98.6305C53.198 98.6305 53.688 98.7239 54.108 98.9105C54.5373 99.0972 54.8966 99.3259 55.186 99.5965L54.416 100.605C54.1453 100.39 53.87 100.227 53.59 100.115C53.3193 100.003 53.03 99.9465 52.722 99.9465C52.0313 99.9465 51.4713 100.157 51.042 100.577C50.6126 100.987 50.398 101.543 50.398 102.243C50.398 102.588 50.454 102.901 50.566 103.181C50.678 103.461 50.832 103.703 51.028 103.909C51.2333 104.105 51.476 104.259 51.756 104.371C52.036 104.473 52.344 104.525 52.68 104.525C53.072 104.525 53.4266 104.45 53.744 104.301C54.0706 104.151 54.3693 103.974 54.64 103.769L55.312 104.805C54.92 105.15 54.4813 105.411 53.996 105.589C53.5106 105.757 53.0206 105.841 52.526 105.841C51.9846 105.841 51.4806 105.761 51.014 105.603C50.5566 105.444 50.1553 105.211 49.81 104.903C49.474 104.595 49.208 104.217 49.012 103.769C48.8253 103.321 48.732 102.812 48.732 102.243ZM56.8465 102.243C56.8465 101.673 56.9398 101.165 57.1265 100.717C57.3225 100.269 57.5792 99.8905 57.8965 99.5825C58.2138 99.2745 58.5825 99.0412 59.0025 98.8825C59.4225 98.7145 59.8565 98.6305 60.3045 98.6305C60.7525 98.6305 61.1865 98.7145 61.6065 98.8825C62.0265 99.0412 62.3952 99.2745 62.7125 99.5825C63.0298 99.8905 63.2818 100.269 63.4685 100.717C63.6645 101.165 63.7625 101.673 63.7625 102.243C63.7625 102.812 63.6645 103.321 63.4685 103.769C63.2818 104.217 63.0298 104.595 62.7125 104.903C62.3952 105.211 62.0265 105.444 61.6065 105.603C61.1865 105.761 60.7525 105.841 60.3045 105.841C59.8565 105.841 59.4225 105.761 59.0025 105.603C58.5825 105.444 58.2138 105.211 57.8965 104.903C57.5792 104.595 57.3225 104.217 57.1265 103.769C56.9398 103.321 56.8465 102.812 56.8465 102.243ZM58.5125 102.243C58.5125 102.933 58.6712 103.489 58.9885 103.909C59.3058 104.319 59.7445 104.525 60.3045 104.525C60.8645 104.525 61.3032 104.319 61.6205 103.909C61.9378 103.489 62.0965 102.933 62.0965 102.243C62.0965 101.543 61.9378 100.987 61.6205 100.577C61.3032 100.157 60.8645 99.9465 60.3045 99.9465C59.7445 99.9465 59.3058 100.157 58.9885 100.577C58.6712 100.987 58.5125 101.543 58.5125 102.243ZM65.493 95.7885H69.273V103.251C69.273 103.717 69.3897 104.049 69.623 104.245C69.8564 104.431 70.1504 104.525 70.505 104.525C70.841 104.525 71.233 104.436 71.681 104.259L72.059 105.449C71.7324 105.561 71.4244 105.654 71.135 105.729C70.855 105.803 70.5144 105.841 70.113 105.841C69.301 105.841 68.6897 105.607 68.279 105.141C67.8684 104.674 67.663 104.016 67.663 103.167V97.0625H65.493V95.7885ZM74.5176 103.755C74.9096 104.025 75.3156 104.24 75.7356 104.399C76.1649 104.548 76.6456 104.623 77.1776 104.623C77.7189 104.623 78.1156 104.548 78.3676 104.399C78.6196 104.24 78.7456 104.039 78.7456 103.797C78.7456 103.554 78.5822 103.353 78.2556 103.195C77.9289 103.027 77.4156 102.849 76.7156 102.663C76.3889 102.579 76.0716 102.476 75.7636 102.355C75.4556 102.233 75.1849 102.093 74.9516 101.935C74.7182 101.776 74.5316 101.594 74.3916 101.389C74.2516 101.183 74.1816 100.95 74.1816 100.689C74.1816 100.082 74.4429 99.5872 74.9656 99.2045C75.4882 98.8219 76.2396 98.6305 77.2196 98.6305C77.7796 98.6305 78.3069 98.7239 78.8016 98.9105C79.2962 99.0972 79.7209 99.3072 80.0756 99.5405L79.3336 100.535C79.0256 100.329 78.6942 100.166 78.3396 100.045C77.9942 99.9139 77.6256 99.8485 77.2336 99.8485C76.7016 99.8485 76.3282 99.9232 76.1136 100.073C75.8989 100.213 75.7916 100.39 75.7916 100.605C75.7916 100.726 75.8382 100.838 75.9316 100.941C76.0342 101.034 76.1696 101.123 76.3376 101.207C76.5149 101.281 76.7202 101.356 76.9536 101.431C77.1869 101.505 77.4436 101.575 77.7236 101.641C78.1249 101.743 78.4842 101.86 78.8016 101.991C79.1282 102.112 79.4036 102.252 79.6276 102.411C79.8609 102.569 80.0382 102.756 80.1596 102.971C80.2902 103.185 80.3556 103.433 80.3556 103.713C80.3556 104.011 80.2856 104.291 80.1456 104.553C80.0056 104.805 79.8002 105.029 79.5296 105.225C79.2589 105.411 78.9229 105.561 78.5216 105.673C78.1202 105.785 77.6582 105.841 77.1356 105.841C76.4916 105.841 75.8756 105.738 75.2876 105.533C74.6996 105.327 74.1909 105.075 73.7616 104.777L74.5176 103.755Z" fill="#009E73"/>
<path d="M90.7746 98.8965H96.9906V100.073H90.7746V98.8965ZM90.7746 102.019H96.9906V103.195H90.7746V102.019ZM109.454 95.7605H113.458V96.6425H110.7V106.919H113.458V107.801H109.454V95.7605ZM438.03 106.919V96.6425H435.286V95.7605H439.29V107.801H435.286V106.919H438.03ZM50.482 123.233V125.389H48.858V115.799H50.188L50.314 116.583H50.356C50.6546 116.312 50.9953 116.088 51.378 115.911C51.77 115.724 52.162 115.631 52.554 115.631C53.002 115.631 53.3986 115.715 53.744 115.883C54.0986 116.041 54.3926 116.275 54.626 116.583C54.8686 116.891 55.0506 117.259 55.172 117.689C55.3026 118.118 55.368 118.599 55.368 119.131C55.368 119.719 55.284 120.246 55.116 120.713C54.948 121.17 54.7193 121.557 54.43 121.875C54.15 122.183 53.8233 122.421 53.45 122.589C53.086 122.757 52.708 122.841 52.316 122.841C51.9986 122.841 51.672 122.771 51.336 122.631C51.0093 122.491 50.706 122.29 50.426 122.029L50.482 123.233ZM50.482 120.881C50.734 121.114 50.9906 121.277 51.252 121.371C51.5226 121.464 51.7653 121.511 51.98 121.511C52.4746 121.511 52.8853 121.315 53.212 120.923C53.5386 120.521 53.702 119.929 53.702 119.145C53.702 118.454 53.576 117.917 53.324 117.535C53.072 117.152 52.666 116.961 52.106 116.961C51.8446 116.961 51.5786 117.026 51.308 117.157C51.0373 117.287 50.762 117.497 50.482 117.787V120.881ZM57.9245 115.799H59.2545L59.3945 117.353H59.4365C59.7912 116.793 60.2158 116.368 60.7105 116.079C61.2145 115.78 61.7652 115.631 62.3625 115.631C62.6425 115.631 62.8805 115.654 63.0765 115.701C63.2818 115.738 63.4872 115.808 63.6925 115.911L63.3565 117.269C63.1325 117.194 62.9318 117.143 62.7545 117.115C62.5865 117.077 62.3718 117.059 62.1105 117.059C61.6345 117.059 61.1772 117.194 60.7385 117.465C60.2998 117.735 59.9032 118.207 59.5485 118.879V122.673H57.9245V115.799ZM65.675 115.799H70.267V122.673H68.657V117.073H65.675V115.799ZM69.343 114.595C69.0164 114.595 68.741 114.497 68.517 114.301C68.3024 114.105 68.195 113.843 68.195 113.517C68.195 113.19 68.3024 112.929 68.517 112.733C68.741 112.527 69.0164 112.425 69.343 112.425C69.679 112.425 69.9544 112.527 70.169 112.733C70.3837 112.929 70.491 113.19 70.491 113.517C70.491 113.843 70.3837 114.105 70.169 114.301C69.9544 114.497 69.679 114.595 69.343 114.595ZM74.0416 115.799H75.3716L75.4976 116.835H75.5536C75.8802 116.508 76.2396 116.228 76.6316 115.995C77.0329 115.752 77.4996 115.631 78.0316 115.631C78.8249 115.631 79.4082 115.873 79.7816 116.359C80.1549 116.835 80.3416 117.521 80.3416 118.417V122.673H78.7176V118.627C78.7176 118.067 78.6196 117.661 78.4236 117.409C78.2369 117.147 77.9056 117.017 77.4296 117.017C77.0936 117.017 76.7949 117.096 76.5336 117.255C76.2722 117.413 75.9829 117.656 75.6656 117.983V122.673H74.0416V115.799ZM83.9481 117.073H82.1141V115.869L84.0181 115.799L84.2281 113.923H85.5581V115.799H88.6941V117.073H85.5581V119.901C85.5581 120.47 85.6748 120.89 85.9081 121.161C86.1414 121.422 86.5521 121.553 87.1401 121.553C87.4388 121.553 87.7094 121.529 87.9521 121.483C88.1948 121.427 88.4281 121.357 88.6521 121.273L88.9601 122.449C88.6521 122.551 88.3114 122.64 87.9381 122.715C87.5648 122.799 87.1681 122.841 86.7481 122.841C86.2254 122.841 85.7868 122.771 85.4321 122.631C85.0774 122.491 84.7881 122.295 84.5641 122.043C84.3494 121.781 84.1908 121.469 84.0881 121.105C83.9948 120.741 83.9481 120.339 83.9481 119.901V117.073ZM95.4506 125.151C94.508 124.367 93.7613 123.443 93.2106 122.379C92.6693 121.315 92.3986 120.115 92.3986 118.781C92.3986 117.446 92.6693 116.247 93.2106 115.183C93.7613 114.119 94.508 113.195 95.4506 112.411L96.3466 113.153C95.46 113.955 94.8113 114.809 94.4006 115.715C93.99 116.62 93.7846 117.642 93.7846 118.781C93.7846 119.919 93.99 120.941 94.4006 121.847C94.8113 122.752 95.46 123.606 96.3466 124.409L95.4506 125.151ZM99.0991 119.243C99.0991 118.673 99.2018 118.165 99.4071 117.717C99.6218 117.269 99.9065 116.891 100.261 116.583C100.616 116.275 101.031 116.041 101.507 115.883C101.983 115.715 102.482 115.631 103.005 115.631C103.565 115.631 104.055 115.724 104.475 115.911C104.904 116.097 105.264 116.326 105.553 116.597L104.783 117.605C104.512 117.39 104.237 117.227 103.957 117.115C103.686 117.003 103.397 116.947 103.089 116.947C102.398 116.947 101.838 117.157 101.409 117.577C100.98 117.987 100.765 118.543 100.765 119.243C100.765 119.588 100.821 119.901 100.933 120.181C101.045 120.461 101.199 120.703 101.395 120.909C101.6 121.105 101.843 121.259 102.123 121.371C102.403 121.473 102.711 121.525 103.047 121.525C103.439 121.525 103.794 121.45 104.111 121.301C104.438 121.151 104.736 120.974 105.007 120.769L105.679 121.805C105.287 122.15 104.848 122.411 104.363 122.589C103.878 122.757 103.388 122.841 102.893 122.841C102.352 122.841 101.848 122.761 101.381 122.603C100.924 122.444 100.522 122.211 100.177 121.903C99.8411 121.595 99.5751 121.217 99.3791 120.769C99.1925 120.321 99.0991 119.812 99.0991 119.243ZM107.214 119.243C107.214 118.673 107.307 118.165 107.494 117.717C107.69 117.269 107.946 116.891 108.264 116.583C108.581 116.275 108.95 116.041 109.37 115.883C109.79 115.715 110.224 115.631 110.672 115.631C111.12 115.631 111.554 115.715 111.974 115.883C112.394 116.041 112.762 116.275 113.08 116.583C113.397 116.891 113.649 117.269 113.836 117.717C114.032 118.165 114.13 118.673 114.13 119.243C114.13 119.812 114.032 120.321 113.836 120.769C113.649 121.217 113.397 121.595 113.08 121.903C112.762 122.211 112.394 122.444 111.974 122.603C111.554 122.761 111.12 122.841 110.672 122.841C110.224 122.841 109.79 122.761 109.37 122.603C108.95 122.444 108.581 122.211 108.264 121.903C107.946 121.595 107.69 121.217 107.494 120.769C107.307 120.321 107.214 119.812 107.214 119.243ZM108.88 119.243C108.88 119.933 109.038 120.489 109.356 120.909C109.673 121.319 110.112 121.525 110.672 121.525C111.232 121.525 111.67 121.319 111.988 120.909C112.305 120.489 112.464 119.933 112.464 119.243C112.464 118.543 112.305 117.987 111.988 117.577C111.67 117.157 111.232 116.947 110.672 116.947C110.112 116.947 109.673 117.157 109.356 117.577C109.038 117.987 108.88 118.543 108.88 119.243ZM115.86 112.789H119.64V120.251C119.64 120.717 119.757 121.049 119.99 121.245C120.224 121.431 120.518 121.525 120.872 121.525C121.208 121.525 121.6 121.436 122.048 121.259L122.426 122.449C122.1 122.561 121.792 122.654 121.502 122.729C121.222 122.803 120.882 122.841 120.48 122.841C119.668 122.841 119.057 122.607 118.646 122.141C118.236 121.674 118.03 121.016 118.03 120.167V114.063H115.86V112.789ZM124.885 120.755C125.277 121.025 125.683 121.24 126.103 121.399C126.532 121.548 127.013 121.623 127.545 121.623C128.086 121.623 128.483 121.548 128.735 121.399C128.987 121.24 129.113 121.039 129.113 120.797C129.113 120.554 128.949 120.353 128.623 120.195C128.296 120.027 127.783 119.849 127.083 119.663C126.756 119.579 126.439 119.476 126.131 119.355C125.823 119.233 125.552 119.093 125.319 118.935C125.085 118.776 124.899 118.594 124.759 118.389C124.619 118.183 124.549 117.95 124.549 117.689C124.549 117.082 124.81 116.587 125.333 116.205C125.855 115.822 126.607 115.631 127.587 115.631C128.147 115.631 128.674 115.724 129.169 115.911C129.663 116.097 130.088 116.307 130.443 116.541L129.701 117.535C129.393 117.329 129.061 117.166 128.707 117.045C128.361 116.914 127.993 116.849 127.601 116.849C127.069 116.849 126.695 116.923 126.481 117.073C126.266 117.213 126.159 117.39 126.159 117.605C126.159 117.726 126.205 117.838 126.299 117.941C126.401 118.034 126.537 118.123 126.705 118.207C126.882 118.281 127.087 118.356 127.321 118.431C127.554 118.505 127.811 118.575 128.091 118.641C128.492 118.743 128.851 118.86 129.169 118.991C129.495 119.112 129.771 119.252 129.995 119.411C130.228 119.569 130.405 119.756 130.527 119.971C130.657 120.185 130.723 120.433 130.723 120.713C130.723 121.011 130.653 121.291 130.513 121.553C130.373 121.805 130.167 122.029 129.897 122.225C129.626 122.411 129.29 122.561 128.889 122.673C128.487 122.785 128.025 122.841 127.503 122.841C126.859 122.841 126.243 122.738 125.655 122.533C125.067 122.327 124.558 122.075 124.129 121.777L124.885 120.755ZM133.391 124.409C134.278 123.606 134.927 122.752 135.337 121.847C135.748 120.941 135.953 119.919 135.953 118.781C135.953 117.642 135.748 116.62 135.337 115.715C134.927 114.809 134.278 113.955 133.391 113.153L134.287 112.411C135.23 113.195 135.972 114.119 136.513 115.183C137.064 116.247 137.339 117.446 137.339 118.781C137.339 120.115 137.064 121.315 136.513 122.379C135.972 123.443 135.23 124.367 134.287 125.151L133.391 124.409Z" fill="#2E383C"/>
<path d="M116.406 97.8605L116.364 96.0685H118.324L118.282 97.8605L117.862 101.095H116.826L116.406 97.8605ZM119.864 97.8605L119.822 96.0685H121.782L121.74 97.8605L121.32 101.095H120.284L119.864 97.8605ZM124.283 102.243C124.283 101.673 124.385 101.165 124.591 100.717C124.805 100.269 125.09 99.8905 125.445 99.5825C125.799 99.2745 126.215 99.0412 126.691 98.8825C127.167 98.7145 127.666 98.6305 128.189 98.6305C128.749 98.6305 129.239 98.7239 129.659 98.9105C130.088 99.0972 130.447 99.3259 130.737 99.5965L129.967 100.605C129.696 100.39 129.421 100.227 129.141 100.115C128.87 100.003 128.581 99.9465 128.273 99.9465C127.582 99.9465 127.022 100.157 126.593 100.577C126.163 100.987 125.949 101.543 125.949 102.243C125.949 102.588 126.005 102.901 126.117 103.181C126.229 103.461 126.383 103.703 126.579 103.909C126.784 104.105 127.027 104.259 127.307 104.371C127.587 104.473 127.895 104.525 128.231 104.525C128.623 104.525 128.977 104.45 129.295 104.301C129.621 104.151 129.92 103.974 130.191 103.769L130.863 104.805C130.471 105.15 130.032 105.411 129.547 105.589C129.061 105.757 128.571 105.841 128.077 105.841C127.535 105.841 127.031 105.761 126.565 105.603C126.107 105.444 125.706 105.211 125.361 104.903C125.025 104.595 124.759 104.217 124.563 103.769C124.376 103.321 124.283 102.812 124.283 102.243ZM132.397 102.243C132.397 101.673 132.491 101.165 132.677 100.717C132.873 100.269 133.13 99.8905 133.447 99.5825C133.765 99.2745 134.133 99.0412 134.553 98.8825C134.973 98.7145 135.407 98.6305 135.855 98.6305C136.303 98.6305 136.737 98.7145 137.157 98.8825C137.577 99.0412 137.946 99.2745 138.263 99.5825C138.581 99.8905 138.833 100.269 139.019 100.717C139.215 101.165 139.313 101.673 139.313 102.243C139.313 102.812 139.215 103.321 139.019 103.769C138.833 104.217 138.581 104.595 138.263 104.903C137.946 105.211 137.577 105.444 137.157 105.603C136.737 105.761 136.303 105.841 135.855 105.841C135.407 105.841 134.973 105.761 134.553 105.603C134.133 105.444 133.765 105.211 133.447 104.903C133.13 104.595 132.873 104.217 132.677 103.769C132.491 103.321 132.397 102.812 132.397 102.243ZM134.063 102.243C134.063 102.933 134.222 103.489 134.539 103.909C134.857 104.319 135.295 104.525 135.855 104.525C136.415 104.525 136.854 104.319 137.171 103.909C137.489 103.489 137.647 102.933 137.647 102.243C137.647 101.543 137.489 100.987 137.171 100.577C136.854 100.157 136.415 99.9465 135.855 99.9465C135.295 99.9465 134.857 100.157 134.539 100.577C134.222 100.987 134.063 101.543 134.063 102.243ZM141.044 95.7885H144.824V103.251C144.824 103.717 144.94 104.049 145.174 104.245C145.407 104.431 145.701 104.525 146.056 104.525C146.392 104.525 146.784 104.436 147.232 104.259L147.61 105.449C147.283 105.561 146.975 105.654 146.686 105.729C146.406 105.803 146.065 105.841 145.664 105.841C144.852 105.841 144.24 105.607 143.83 105.141C143.419 104.674 143.214 104.016 143.214 103.167V97.0625H141.044V95.7885ZM156.004 106.541V107.801H149.284V106.541H156.004ZM160.255 105.869C160.255 105.617 160.26 105.388 160.269 105.183C160.288 104.968 160.306 104.763 160.325 104.567C160.344 104.371 160.358 104.175 160.367 103.979C160.386 103.773 160.395 103.554 160.395 103.321C160.395 103.199 160.367 103.078 160.311 102.957C160.255 102.826 160.152 102.714 160.003 102.621C159.854 102.518 159.648 102.434 159.387 102.369C159.135 102.303 158.813 102.271 158.421 102.271V101.291C158.813 101.291 159.135 101.258 159.387 101.193C159.648 101.127 159.854 101.048 160.003 100.955C160.152 100.852 160.255 100.74 160.311 100.619C160.367 100.497 160.395 100.371 160.395 100.241C160.395 99.8019 160.372 99.3912 160.325 99.0085C160.278 98.6165 160.255 98.1779 160.255 97.6925C160.255 97.3192 160.306 97.0112 160.409 96.7685C160.512 96.5165 160.67 96.3159 160.885 96.1665C161.1 96.0172 161.37 95.9145 161.697 95.8585C162.024 95.7932 162.411 95.7605 162.859 95.7605H163.825V96.6425H163.181C162.854 96.6425 162.588 96.6612 162.383 96.6985C162.178 96.7359 162.014 96.8012 161.893 96.8945C161.781 96.9785 161.702 97.0952 161.655 97.2445C161.618 97.3845 161.599 97.5572 161.599 97.7625C161.599 98.1545 161.608 98.5465 161.627 98.9385C161.655 99.3305 161.669 99.7412 161.669 100.171C161.669 100.665 161.571 101.034 161.375 101.277C161.179 101.51 160.834 101.669 160.339 101.753V101.809C160.834 101.893 161.179 102.056 161.375 102.299C161.571 102.532 161.669 102.896 161.669 103.391C161.669 103.839 161.655 104.249 161.627 104.623C161.608 104.996 161.599 105.388 161.599 105.799C161.599 106.013 161.618 106.191 161.655 106.331C161.702 106.471 161.781 106.583 161.893 106.667C162.014 106.76 162.178 106.825 162.383 106.863C162.588 106.9 162.854 106.919 163.181 106.919H163.825V107.801H162.859C162.411 107.801 162.024 107.768 161.697 107.703C161.37 107.647 161.1 107.544 160.885 107.395C160.67 107.245 160.512 107.045 160.409 106.793C160.306 106.55 160.255 106.242 160.255 105.869ZM167.305 106.919C167.623 106.919 167.884 106.9 168.089 106.863C168.295 106.825 168.458 106.76 168.579 106.667C168.701 106.583 168.78 106.471 168.817 106.331C168.864 106.191 168.887 106.013 168.887 105.799C168.887 105.388 168.873 104.996 168.845 104.623C168.827 104.249 168.817 103.839 168.817 103.391C168.817 102.896 168.911 102.532 169.097 102.299C169.293 102.056 169.643 101.893 170.147 101.809V101.753C169.643 101.669 169.293 101.51 169.097 101.277C168.911 101.034 168.817 100.665 168.817 100.171C168.817 99.7412 168.827 99.3305 168.845 98.9385C168.873 98.5465 168.887 98.1545 168.887 97.7625C168.887 97.5572 168.864 97.3845 168.817 97.2445C168.78 97.0952 168.701 96.9785 168.579 96.8945C168.458 96.8012 168.295 96.7359 168.089 96.6985C167.884 96.6612 167.623 96.6425 167.305 96.6425H166.661V95.7605H167.627C168.075 95.7605 168.458 95.7932 168.775 95.8585C169.102 95.9145 169.373 96.0172 169.587 96.1665C169.802 96.3159 169.961 96.5165 170.063 96.7685C170.166 97.0112 170.217 97.3192 170.217 97.6925C170.217 98.1779 170.194 98.6165 170.147 99.0085C170.101 99.3912 170.077 99.8019 170.077 100.241C170.077 100.371 170.105 100.497 170.161 100.619C170.217 100.74 170.32 100.852 170.469 100.955C170.619 101.048 170.819 101.127 171.071 101.193C171.333 101.258 171.659 101.291 172.051 101.291V102.271C171.659 102.271 171.333 102.303 171.071 102.369C170.819 102.434 170.619 102.518 170.469 102.621C170.32 102.714 170.217 102.826 170.161 102.957C170.105 103.078 170.077 103.199 170.077 103.321C170.077 103.554 170.082 103.773 170.091 103.979C170.11 104.175 170.129 104.371 170.147 104.567C170.166 104.763 170.18 104.968 170.189 105.183C170.208 105.388 170.217 105.617 170.217 105.869C170.217 106.242 170.166 106.55 170.063 106.793C169.961 107.045 169.802 107.245 169.587 107.395C169.373 107.544 169.102 107.647 168.775 107.703C168.458 107.768 168.075 107.801 167.627 107.801H166.661V106.919H167.305ZM175.168 97.8605L175.126 96.0685H177.086L177.044 97.8605L176.624 101.095H175.588L175.168 97.8605ZM178.626 97.8605L178.584 96.0685H180.544L180.502 97.8605L180.082 101.095H179.046L178.626 97.8605ZM184.836 104.427C184.836 104.016 184.967 103.68 185.228 103.419C185.49 103.148 185.821 103.013 186.222 103.013C186.624 103.013 186.955 103.148 187.216 103.419C187.478 103.68 187.608 104.016 187.608 104.427C187.608 104.837 187.478 105.178 187.216 105.449C186.955 105.71 186.624 105.841 186.222 105.841C185.821 105.841 185.49 105.71 185.228 105.449C184.967 105.178 184.836 104.837 184.836 104.427ZM198.229 97.1885C197.977 97.0859 197.73 97.0112 197.487 96.9645C197.254 96.9179 196.997 96.8945 196.717 96.8945C196.185 96.8945 195.798 97.0252 195.555 97.2865C195.322 97.5385 195.205 97.9072 195.205 98.3925V98.7985H197.823V100.073H195.205V105.673H193.609V100.073H191.705V98.8685L193.609 98.7985V98.4205C193.609 98.0192 193.665 97.6459 193.777 97.3005C193.889 96.9552 194.062 96.6612 194.295 96.4185C194.538 96.1665 194.841 95.9705 195.205 95.8305C195.578 95.6905 196.017 95.6205 196.521 95.6205C196.894 95.6205 197.249 95.6532 197.585 95.7185C197.93 95.7839 198.257 95.8772 198.565 95.9985L198.229 97.1885ZM199.554 102.243C199.554 101.673 199.647 101.165 199.834 100.717C200.03 100.269 200.286 99.8905 200.604 99.5825C200.921 99.2745 201.29 99.0412 201.71 98.8825C202.13 98.7145 202.564 98.6305 203.012 98.6305C203.46 98.6305 203.894 98.7145 204.314 98.8825C204.734 99.0412 205.102 99.2745 205.42 99.5825C205.737 99.8905 205.989 100.269 206.176 100.717C206.372 101.165 206.47 101.673 206.47 102.243C206.47 102.812 206.372 103.321 206.176 103.769C205.989 104.217 205.737 104.595 205.42 104.903C205.102 105.211 204.734 105.444 204.314 105.603C203.894 105.761 203.46 105.841 203.012 105.841C202.564 105.841 202.13 105.761 201.71 105.603C201.29 105.444 200.921 105.211 200.604 104.903C200.286 104.595 200.03 104.217 199.834 103.769C199.647 103.321 199.554 102.812 199.554 102.243ZM201.22 102.243C201.22 102.933 201.378 103.489 201.696 103.909C202.013 104.319 202.452 104.525 203.012 104.525C203.572 104.525 204.01 104.319 204.328 103.909C204.645 103.489 204.804 102.933 204.804 102.243C204.804 101.543 204.645 100.987 204.328 100.577C204.01 100.157 203.572 99.9465 203.012 99.9465C202.452 99.9465 202.013 100.157 201.696 100.577C201.378 100.987 201.22 101.543 201.22 102.243ZM209.026 98.7985H210.356L210.496 100.353H210.538C210.893 99.7925 211.317 99.3679 211.812 99.0785C212.316 98.7799 212.867 98.6305 213.464 98.6305C213.744 98.6305 213.982 98.6539 214.178 98.7005C214.383 98.7379 214.589 98.8079 214.794 98.9105L214.458 100.269C214.234 100.194 214.033 100.143 213.856 100.115C213.688 100.077 213.473 100.059 213.212 100.059C212.736 100.059 212.279 100.194 211.84 100.465C211.401 100.735 211.005 101.207 210.65 101.879V105.673H209.026V98.7985ZM216.273 98.7985H217.491L217.617 99.6805H217.659C217.817 99.3819 218.009 99.1345 218.233 98.9385C218.466 98.7332 218.779 98.6305 219.171 98.6305C219.843 98.6305 220.263 99.0132 220.431 99.7785C220.589 99.4519 220.79 99.1812 221.033 98.9665C221.285 98.7425 221.602 98.6305 221.985 98.6305C222.47 98.6305 222.843 98.8219 223.105 99.2045C223.375 99.5779 223.511 100.11 223.511 100.801V105.673H221.985V100.927C221.985 100.32 221.793 100.017 221.411 100.017C221.224 100.017 221.061 100.087 220.921 100.227C220.781 100.367 220.645 100.581 220.515 100.871V105.673H219.255V100.927C219.255 100.32 219.059 100.017 218.667 100.017C218.48 100.017 218.321 100.087 218.191 100.227C218.06 100.367 217.929 100.581 217.799 100.871V105.673H216.273V98.7985ZM224.989 103.825C224.989 103.442 225.078 103.106 225.255 102.817C225.432 102.518 225.712 102.266 226.095 102.061C226.478 101.855 226.968 101.687 227.565 101.557C228.162 101.426 228.886 101.333 229.735 101.277C229.707 100.885 229.567 100.563 229.315 100.311C229.063 100.059 228.657 99.9325 228.097 99.9325C227.705 99.9325 227.318 100.007 226.935 100.157C226.562 100.297 226.198 100.465 225.843 100.661L225.255 99.5825C225.675 99.3399 226.156 99.1205 226.697 98.9245C227.238 98.7285 227.803 98.6305 228.391 98.6305C229.352 98.6305 230.085 98.8872 230.589 99.4005C231.093 99.9045 231.345 100.637 231.345 101.599V105.673H230.029L229.903 104.819H229.861C229.497 105.099 229.091 105.341 228.643 105.547C228.204 105.743 227.752 105.841 227.285 105.841C226.949 105.841 226.641 105.789 226.361 105.687C226.081 105.593 225.838 105.458 225.633 105.281C225.428 105.103 225.269 104.893 225.157 104.651C225.045 104.399 224.989 104.123 224.989 103.825ZM226.543 103.699C226.543 104.007 226.66 104.231 226.893 104.371C227.136 104.511 227.43 104.581 227.775 104.581C228.12 104.581 228.452 104.506 228.769 104.357C229.096 104.198 229.418 103.993 229.735 103.741V102.285C229.119 102.331 228.606 102.397 228.195 102.481C227.784 102.555 227.458 102.653 227.215 102.775C226.972 102.896 226.8 103.036 226.697 103.195C226.594 103.344 226.543 103.512 226.543 103.699ZM235.05 100.073H233.216V98.8685L235.12 98.7985L235.33 96.9225H236.66V98.7985H239.796V100.073H236.66V102.901C236.66 103.47 236.776 103.89 237.01 104.161C237.243 104.422 237.654 104.553 238.242 104.553C238.54 104.553 238.811 104.529 239.054 104.483C239.296 104.427 239.53 104.357 239.754 104.273L240.062 105.449C239.754 105.551 239.413 105.64 239.04 105.715C238.666 105.799 238.27 105.841 237.85 105.841C237.327 105.841 236.888 105.771 236.534 105.631C236.179 105.491 235.89 105.295 235.666 105.043C235.451 104.781 235.292 104.469 235.19 104.105C235.096 103.741 235.05 103.339 235.05 102.901V100.073ZM246.552 108.151C245.61 107.367 244.863 106.443 244.312 105.379C243.771 104.315 243.5 103.115 243.5 101.781C243.5 100.446 243.771 99.2465 244.312 98.1825C244.863 97.1185 245.61 96.1945 246.552 95.4105L247.448 96.1525C246.562 96.9552 245.913 97.8092 245.502 98.7145C245.092 99.6199 244.886 100.642 244.886 101.781C244.886 102.919 245.092 103.941 245.502 104.847C245.913 105.752 246.562 106.606 247.448 107.409L246.552 108.151ZM250.355 98.7985H254.947V105.673H253.337V100.073H250.355V98.7985ZM254.023 97.5945C253.696 97.5945 253.421 97.4965 253.197 97.3005C252.982 97.1045 252.875 96.8432 252.875 96.5165C252.875 96.1899 252.982 95.9285 253.197 95.7325C253.421 95.5272 253.696 95.4245 254.023 95.4245C254.359 95.4245 254.634 95.5272 254.849 95.7325C255.063 95.9285 255.171 96.1899 255.171 96.5165C255.171 96.8432 255.063 97.1045 254.849 97.3005C254.634 97.4965 254.359 97.5945 254.023 97.5945ZM259.309 107.409C260.196 106.606 260.845 105.752 261.255 104.847C261.666 103.941 261.871 102.919 261.871 101.781C261.871 100.642 261.666 99.6199 261.255 98.7145C260.845 97.8092 260.196 96.9552 259.309 96.1525L260.205 95.4105C261.148 96.1945 261.89 97.1185 262.431 98.1825C262.982 99.2465 263.257 100.446 263.257 101.781C263.257 103.115 262.982 104.315 262.431 105.379C261.89 106.443 261.148 107.367 260.205 108.151L259.309 107.409Z" fill="#EB5757"/>
<path d="M282.174 97.1885C281.922 97.0859 281.675 97.0112 281.432 96.9645C281.199 96.9179 280.942 96.8945 280.662 96.8945C280.13 96.8945 279.743 97.0252 279.5 97.2865C279.267 97.5385 279.15 97.9072 279.15 98.3925V98.7985H281.768V100.073H279.15V105.673H277.554V100.073H275.65V98.8685L277.554 98.7985V98.4205C277.554 98.0192 277.61 97.6459 277.722 97.3005C277.834 96.9552 278.007 96.6612 278.24 96.4185C278.483 96.1665 278.786 95.9705 279.15 95.8305C279.524 95.6905 279.962 95.6205 280.466 95.6205C280.84 95.6205 281.194 95.6532 281.53 95.7185C281.876 95.7839 282.202 95.8772 282.51 95.9985L282.174 97.1885ZM283.499 102.243C283.499 101.673 283.592 101.165 283.779 100.717C283.975 100.269 284.232 99.8905 284.549 99.5825C284.866 99.2745 285.235 99.0412 285.655 98.8825C286.075 98.7145 286.509 98.6305 286.957 98.6305C287.405 98.6305 287.839 98.7145 288.259 98.8825C288.679 99.0412 289.048 99.2745 289.365 99.5825C289.682 99.8905 289.934 100.269 290.121 100.717C290.317 101.165 290.415 101.673 290.415 102.243C290.415 102.812 290.317 103.321 290.121 103.769C289.934 104.217 289.682 104.595 289.365 104.903C289.048 105.211 288.679 105.444 288.259 105.603C287.839 105.761 287.405 105.841 286.957 105.841C286.509 105.841 286.075 105.761 285.655 105.603C285.235 105.444 284.866 105.211 284.549 104.903C284.232 104.595 283.975 104.217 283.779 103.769C283.592 103.321 283.499 102.812 283.499 102.243ZM285.165 102.243C285.165 102.933 285.324 103.489 285.641 103.909C285.958 104.319 286.397 104.525 286.957 104.525C287.517 104.525 287.956 104.319 288.273 103.909C288.59 103.489 288.749 102.933 288.749 102.243C288.749 101.543 288.59 100.987 288.273 100.577C287.956 100.157 287.517 99.9465 286.957 99.9465C286.397 99.9465 285.958 100.157 285.641 100.577C285.324 100.987 285.165 101.543 285.165 102.243ZM292.971 98.7985H294.301L294.441 100.353H294.483C294.838 99.7925 295.263 99.3679 295.757 99.0785C296.261 98.7799 296.812 98.6305 297.409 98.6305C297.689 98.6305 297.927 98.6539 298.123 98.7005C298.329 98.7379 298.534 98.8079 298.739 98.9105L298.403 100.269C298.179 100.194 297.979 100.143 297.801 100.115C297.633 100.077 297.419 100.059 297.157 100.059C296.681 100.059 296.224 100.194 295.785 100.465C295.347 100.735 294.95 101.207 294.595 101.879V105.673H292.971V98.7985ZM309.116 98.7985H313.708V105.673H312.098V100.073H309.116V98.7985ZM312.784 97.5945C312.458 97.5945 312.182 97.4965 311.958 97.3005C311.744 97.1045 311.636 96.8432 311.636 96.5165C311.636 96.1899 311.744 95.9285 311.958 95.7325C312.182 95.5272 312.458 95.4245 312.784 95.4245C313.12 95.4245 313.396 95.5272 313.61 95.7325C313.825 95.9285 313.932 96.1899 313.932 96.5165C313.932 96.8432 313.825 97.1045 313.61 97.3005C313.396 97.4965 313.12 97.5945 312.784 97.5945ZM325.905 98.7985H330.497V105.673H328.887V100.073H325.905V98.7985ZM329.573 97.5945C329.247 97.5945 328.971 97.4965 328.747 97.3005C328.533 97.1045 328.425 96.8432 328.425 96.5165C328.425 96.1899 328.533 95.9285 328.747 95.7325C328.971 95.5272 329.247 95.4245 329.573 95.4245C329.909 95.4245 330.185 95.5272 330.399 95.7325C330.614 95.9285 330.721 96.1899 330.721 96.5165C330.721 96.8432 330.614 97.1045 330.399 97.3005C330.185 97.4965 329.909 97.5945 329.573 97.5945ZM334.272 98.7985H335.602L335.728 99.8345H335.784C336.111 99.5079 336.47 99.2279 336.862 98.9945C337.263 98.7519 337.73 98.6305 338.262 98.6305C339.055 98.6305 339.639 98.8732 340.012 99.3585C340.385 99.8345 340.572 100.521 340.572 101.417V105.673H338.948V101.627C338.948 101.067 338.85 100.661 338.654 100.409C338.467 100.147 338.136 100.017 337.66 100.017C337.324 100.017 337.025 100.096 336.764 100.255C336.503 100.413 336.213 100.656 335.896 100.983V105.673H334.272V98.7985ZM351.733 98.7985H353.063L353.203 100.353H353.245C353.6 99.7925 354.024 99.3679 354.519 99.0785C355.023 98.7799 355.574 98.6305 356.171 98.6305C356.451 98.6305 356.689 98.6539 356.885 98.7005C357.09 98.7379 357.296 98.8079 357.501 98.9105L357.165 100.269C356.941 100.194 356.74 100.143 356.563 100.115C356.395 100.077 356.18 100.059 355.919 100.059C355.443 100.059 354.986 100.194 354.547 100.465C354.108 100.735 353.712 101.207 353.357 101.879V105.673H351.733V98.7985ZM359.302 103.825C359.302 103.442 359.39 103.106 359.568 102.817C359.745 102.518 360.025 102.266 360.408 102.061C360.79 101.855 361.28 101.687 361.878 101.557C362.475 101.426 363.198 101.333 364.048 101.277C364.02 100.885 363.88 100.563 363.628 100.311C363.376 100.059 362.97 99.9325 362.41 99.9325C362.018 99.9325 361.63 100.007 361.248 100.157C360.874 100.297 360.51 100.465 360.156 100.661L359.568 99.5825C359.988 99.3399 360.468 99.1205 361.01 98.9245C361.551 98.7285 362.116 98.6305 362.704 98.6305C363.665 98.6305 364.398 98.8872 364.902 99.4005C365.406 99.9045 365.658 100.637 365.658 101.599V105.673H364.342L364.216 104.819H364.174C363.81 105.099 363.404 105.341 362.956 105.547C362.517 105.743 362.064 105.841 361.598 105.841C361.262 105.841 360.954 105.789 360.674 105.687C360.394 105.593 360.151 105.458 359.946 105.281C359.74 105.103 359.582 104.893 359.47 104.651C359.358 104.399 359.302 104.123 359.302 103.825ZM360.856 103.699C360.856 104.007 360.972 104.231 361.206 104.371C361.448 104.511 361.742 104.581 362.088 104.581C362.433 104.581 362.764 104.506 363.082 104.357C363.408 104.198 363.73 103.993 364.048 103.741V102.285C363.432 102.331 362.918 102.397 362.508 102.481C362.097 102.555 361.77 102.653 361.528 102.775C361.285 102.896 361.112 103.036 361.01 103.195C360.907 103.344 360.856 103.512 360.856 103.699ZM367.85 98.7985H369.18L369.306 99.8345H369.362C369.689 99.5079 370.048 99.2279 370.44 98.9945C370.841 98.7519 371.308 98.6305 371.84 98.6305C372.633 98.6305 373.217 98.8732 373.59 99.3585C373.963 99.8345 374.15 100.521 374.15 101.417V105.673H372.526V101.627C372.526 101.067 372.428 100.661 372.232 100.409C372.045 100.147 371.714 100.017 371.238 100.017C370.902 100.017 370.603 100.096 370.342 100.255C370.081 100.413 369.791 100.656 369.474 100.983V105.673H367.85V98.7985ZM377.309 106.667C377.309 106.975 377.477 107.217 377.813 107.395C378.158 107.572 378.653 107.661 379.297 107.661C379.633 107.661 379.936 107.628 380.207 107.563C380.477 107.507 380.711 107.427 380.907 107.325C381.103 107.222 381.252 107.101 381.355 106.961C381.457 106.83 381.509 106.69 381.509 106.541C381.509 106.27 381.392 106.088 381.159 105.995C380.925 105.911 380.58 105.869 380.123 105.869H379.031C378.807 105.869 378.606 105.859 378.429 105.841C378.261 105.831 378.111 105.803 377.981 105.757C377.738 105.906 377.565 106.055 377.463 106.205C377.36 106.354 377.309 106.508 377.309 106.667ZM375.965 106.877C375.965 106.606 376.058 106.345 376.245 106.093C376.431 105.841 376.702 105.621 377.057 105.435V105.379C376.87 105.276 376.707 105.131 376.567 104.945C376.427 104.758 376.357 104.52 376.357 104.231C376.357 103.997 376.431 103.769 376.581 103.545C376.73 103.311 376.931 103.106 377.183 102.929V102.873C376.94 102.705 376.73 102.471 376.553 102.173C376.385 101.874 376.301 101.519 376.301 101.109C376.301 100.717 376.375 100.367 376.525 100.059C376.683 99.7505 376.889 99.4939 377.141 99.2885C377.402 99.0739 377.701 98.9105 378.037 98.7985C378.382 98.6865 378.746 98.6305 379.129 98.6305C379.539 98.6305 379.899 98.6865 380.207 98.7985H383.021V99.9885H381.411C381.532 100.129 381.639 100.301 381.733 100.507C381.826 100.703 381.873 100.922 381.873 101.165C381.873 101.547 381.803 101.883 381.663 102.173C381.523 102.462 381.327 102.705 381.075 102.901C380.832 103.097 380.543 103.246 380.207 103.349C379.871 103.442 379.511 103.489 379.129 103.489C378.783 103.489 378.433 103.428 378.079 103.307C377.799 103.484 377.659 103.694 377.659 103.937C377.659 104.375 378.093 104.595 378.961 104.595H380.361C381.257 104.595 381.929 104.725 382.377 104.987C382.834 105.248 383.063 105.677 383.063 106.275C383.063 106.611 382.969 106.928 382.783 107.227C382.596 107.525 382.33 107.782 381.985 107.997C381.649 108.221 381.233 108.393 380.739 108.515C380.253 108.645 379.707 108.711 379.101 108.711C378.625 108.711 378.195 108.673 377.813 108.599C377.43 108.524 377.099 108.407 376.819 108.249C376.548 108.099 376.338 107.908 376.189 107.675C376.039 107.451 375.965 107.185 375.965 106.877ZM379.129 102.481C379.483 102.481 379.791 102.364 380.053 102.131C380.314 101.888 380.445 101.547 380.445 101.109C380.445 100.689 380.314 100.357 380.053 100.115C379.791 99.8625 379.483 99.7365 379.129 99.7365C378.774 99.7365 378.466 99.8625 378.205 100.115C377.953 100.357 377.827 100.689 377.827 101.109C377.827 101.547 377.953 101.888 378.205 102.131C378.466 102.364 378.774 102.481 379.129 102.481ZM384.359 102.243C384.359 101.683 384.457 101.179 384.653 100.731C384.859 100.283 385.125 99.9045 385.451 99.5965C385.778 99.2792 386.151 99.0412 386.571 98.8825C387.001 98.7145 387.439 98.6305 387.887 98.6305C388.401 98.6305 388.853 98.7145 389.245 98.8825C389.647 99.0412 389.983 99.2652 390.253 99.5545C390.524 99.8345 390.729 100.175 390.869 100.577C391.009 100.978 391.079 101.417 391.079 101.893C391.079 102.051 391.07 102.201 391.051 102.341C391.042 102.481 391.028 102.593 391.009 102.677H386.011C386.067 103.293 386.31 103.769 386.739 104.105C387.169 104.431 387.696 104.595 388.321 104.595C388.676 104.595 389.007 104.548 389.315 104.455C389.623 104.352 389.936 104.212 390.253 104.035L390.799 105.043C390.426 105.276 390.011 105.467 389.553 105.617C389.096 105.766 388.615 105.841 388.111 105.841C387.589 105.841 387.099 105.761 386.641 105.603C386.184 105.435 385.787 105.197 385.451 104.889C385.115 104.581 384.849 104.207 384.653 103.769C384.457 103.321 384.359 102.812 384.359 102.243ZM389.595 101.585C389.595 101.053 389.455 100.637 389.175 100.339C388.895 100.031 388.48 99.8765 387.929 99.8765C387.463 99.8765 387.047 100.021 386.683 100.311C386.319 100.6 386.091 101.025 385.997 101.585H389.595ZM397.654 108.151C396.711 107.367 395.964 106.443 395.414 105.379C394.872 104.315 394.602 103.115 394.602 101.781C394.602 100.446 394.872 99.2465 395.414 98.1825C395.964 97.1185 396.711 96.1945 397.654 95.4105L398.55 96.1525C397.663 96.9552 397.014 97.8092 396.604 98.7145C396.193 99.6199 395.988 100.642 395.988 101.781C395.988 102.919 396.193 103.941 396.604 104.847C397.014 105.752 397.663 106.606 398.55 107.409L397.654 108.151ZM407.742 104.357V105.673H401.54V104.357H403.948V98.5045H402.086V97.4965C402.59 97.4125 403.02 97.3145 403.374 97.2025C403.738 97.0812 404.074 96.9365 404.382 96.7685H405.558V104.357H407.742ZM411.321 107.717C412.506 107.241 413.103 106.522 413.113 105.561C413.066 105.57 413.001 105.575 412.917 105.575C412.562 105.575 412.254 105.472 411.993 105.267C411.731 105.052 411.601 104.739 411.601 104.329C411.601 103.937 411.731 103.633 411.993 103.419C412.263 103.195 412.581 103.083 412.945 103.083C413.449 103.083 413.827 103.269 414.079 103.643C414.331 104.016 414.457 104.529 414.457 105.183C414.457 106.041 414.223 106.765 413.757 107.353C413.29 107.95 412.618 108.393 411.741 108.683L411.321 107.717ZM418.525 103.573C418.824 103.825 419.155 104.049 419.519 104.245C419.893 104.431 420.336 104.525 420.849 104.525C421.409 104.525 421.876 104.375 422.249 104.077C422.632 103.778 422.823 103.358 422.823 102.817C422.823 102.285 422.646 101.874 422.291 101.585C421.946 101.295 421.489 101.151 420.919 101.151C420.593 101.151 420.313 101.193 420.079 101.277C419.846 101.351 419.575 101.477 419.267 101.655L418.497 101.165L418.777 96.7685H424.027V98.1265H420.177L419.981 100.283C420.215 100.189 420.439 100.119 420.653 100.073C420.868 100.017 421.111 99.9885 421.381 99.9885C421.801 99.9885 422.198 100.045 422.571 100.157C422.945 100.269 423.267 100.441 423.537 100.675C423.817 100.899 424.037 101.188 424.195 101.543C424.363 101.888 424.447 102.299 424.447 102.775C424.447 103.26 424.354 103.694 424.167 104.077C423.981 104.459 423.729 104.781 423.411 105.043C423.094 105.304 422.73 105.505 422.319 105.645C421.918 105.775 421.493 105.841 421.045 105.841C420.261 105.841 419.608 105.719 419.085 105.477C418.572 105.225 418.138 104.935 417.783 104.609L418.525 103.573ZM427.2 107.409C428.087 106.606 428.735 105.752 429.146 104.847C429.557 103.941 429.762 102.919 429.762 101.781C429.762 100.642 429.557 99.6199 429.146 98.7145C428.735 97.8092 428.087 96.9552 427.2 96.1525L428.096 95.4105C429.039 96.1945 429.781 97.1185 430.322 98.1825C430.873 99.2465 431.148 100.446 431.148 101.781C431.148 103.115 430.873 104.315 430.322 105.379C429.781 106.443 429.039 107.367 428.096 108.151L427.2 107.409Z" fill="#9B51E0"/>
<path d="M40 7H470V64H40V7Z" fill="#F1F4F8"/>
<path d="M48.7235 19.8399C48.7235 19.2706 48.8262 18.7619 49.0315 18.3139C49.2462 17.8659 49.5309 17.4879 49.8855 17.1799C50.2402 16.8719 50.6555 16.6386 51.1315 16.4799C51.6075 16.3119 52.1069 16.2279 52.6295 16.2279C53.1895 16.2279 53.6795 16.3212 54.0995 16.5079C54.5289 16.6946 54.8882 16.9232 55.1775 17.1939L54.4075 18.2019C54.1369 17.9872 53.8615 17.8239 53.5815 17.7119C53.3109 17.5999 53.0215 17.5439 52.7135 17.5439C52.0229 17.5439 51.4629 17.7539 51.0335 18.1739C50.6042 18.5846 50.3895 19.1399 50.3895 19.8399C50.3895 20.1852 50.4455 20.4979 50.5575 20.7779C50.6695 21.0579 50.8235 21.3006 51.0195 21.5059C51.2249 21.7019 51.4675 21.8559 51.7475 21.9679C52.0275 22.0706 52.3355 22.1219 52.6715 22.1219C53.0635 22.1219 53.4182 22.0472 53.7355 21.8979C54.0622 21.7486 54.3609 21.5712 54.6315 21.3659L55.3035 22.4019C54.9115 22.7472 54.4729 23.0086 53.9875 23.1859C53.5022 23.3539 53.0122 23.4379 52.5175 23.4379C51.9762 23.4379 51.4722 23.3586 51.0055 23.1999C50.5482 23.0412 50.1469 22.8079 49.8015 22.4999C49.4655 22.1919 49.1995 21.8139 49.0035 21.3659C48.8169 20.9179 48.7235 20.4092 48.7235 19.8399ZM56.8381 19.8399C56.8381 19.2706 56.9314 18.7619 57.1181 18.3139C57.3141 17.8659 57.5707 17.4879 57.8881 17.1799C58.2054 16.8719 58.5741 16.6386 58.9941 16.4799C59.4141 16.3119 59.8481 16.2279 60.2961 16.2279C60.7441 16.2279 61.1781 16.3119 61.5981 16.4799C62.0181 16.6386 62.3867 16.8719 62.7041 17.1799C63.0214 17.4879 63.2734 17.8659 63.4601 18.3139C63.6561 18.7619 63.7541 19.2706 63.7541 19.8399C63.7541 20.4092 63.6561 20.9179 63.4601 21.3659C63.2734 21.8139 63.0214 22.1919 62.7041 22.4999C62.3867 22.8079 62.0181 23.0412 61.5981 23.1999C61.1781 23.3586 60.7441 23.4379 60.2961 23.4379C59.8481 23.4379 59.4141 23.3586 58.9941 23.1999C58.5741 23.0412 58.2054 22.8079 57.8881 22.4999C57.5707 22.1919 57.3141 21.8139 57.1181 21.3659C56.9314 20.9179 56.8381 20.4092 56.8381 19.8399ZM58.5041 19.8399C58.5041 20.5306 58.6627 21.0859 58.9801 21.5059C59.2974 21.9166 59.7361 22.1219 60.2961 22.1219C60.8561 22.1219 61.2947 21.9166 61.6121 21.5059C61.9294 21.0859 62.0881 20.5306 62.0881 19.8399C62.0881 19.1399 61.9294 18.5846 61.6121 18.1739C61.2947 17.7539 60.8561 17.5439 60.2961 17.5439C59.7361 17.5439 59.2974 17.7539 58.9801 18.1739C58.6627 18.5846 58.5041 19.1399 58.5041 19.8399ZM65.4846 13.3859H69.2646V20.8479C69.2646 21.3146 69.3813 21.6459 69.6146 21.8419C69.8479 22.0286 70.1419 22.1219 70.4966 22.1219C70.8326 22.1219 71.2246 22.0332 71.6726 21.8559L72.0506 23.0459C71.7239 23.1579 71.4159 23.2512 71.1266 23.3259C70.8466 23.4006 70.5059 23.4379 70.1046 23.4379C69.2926 23.4379 68.6813 23.2046 68.2706 22.7379C67.8599 22.2712 67.6546 21.6132 67.6546 20.7639V14.6599H65.4846V13.3859ZM74.5091 21.3519C74.9011 21.6226 75.3071 21.8372 75.7271 21.9959C76.1565 22.1452 76.6371 22.2199 77.1691 22.2199C77.7105 22.2199 78.1071 22.1452 78.3591 21.9959C78.6111 21.8372 78.7371 21.6366 78.7371 21.3939C78.7371 21.1512 78.5738 20.9506 78.2471 20.7919C77.9205 20.6239 77.4071 20.4466 76.7071 20.2599C76.3805 20.1759 76.0631 20.0732 75.7551 19.9519C75.4471 19.8306 75.1765 19.6906 74.9431 19.5319C74.7098 19.3732 74.5231 19.1912 74.3831 18.9859C74.2431 18.7806 74.1731 18.5472 74.1731 18.2859C74.1731 17.6792 74.4345 17.1846 74.9571 16.8019C75.4798 16.4192 76.2311 16.2279 77.2111 16.2279C77.7711 16.2279 78.2985 16.3212 78.7931 16.5079C79.2878 16.6946 79.7125 16.9046 80.0671 17.1379L79.3251 18.1319C79.0171 17.9266 78.6858 17.7632 78.3311 17.6419C77.9858 17.5112 77.6171 17.4459 77.2251 17.4459C76.6931 17.4459 76.3198 17.5206 76.1051 17.6699C75.8905 17.8099 75.7831 17.9872 75.7831 18.2019C75.7831 18.3232 75.8298 18.4352 75.9231 18.5379C76.0258 18.6312 76.1611 18.7199 76.3291 18.8039C76.5065 18.8786 76.7118 18.9532 76.9451 19.0279C77.1785 19.1026 77.4351 19.1726 77.7151 19.2379C78.1165 19.3406 78.4758 19.4572 78.7931 19.5879C79.1198 19.7092 79.3951 19.8492 79.6191 20.0079C79.8525 20.1666 80.0298 20.3532 80.1511 20.5679C80.2818 20.7826 80.3471 21.0299 80.3471 21.3099C80.3471 21.6086 80.2771 21.8886 80.1371 22.1499C79.9971 22.4019 79.7918 22.6259 79.5211 22.8219C79.2505 23.0086 78.9145 23.1579 78.5131 23.2699C78.1118 23.3819 77.6498 23.4379 77.1271 23.4379C76.4831 23.4379 75.8671 23.3352 75.2791 23.1299C74.6911 22.9246 74.1825 22.6726 73.7531 22.3739L74.5091 21.3519Z" fill="#009E73"/>
<path d="M90.7662 16.4939H96.9822V17.6699H90.7662V16.4939ZM90.7662 19.6159H96.9822V20.7919H90.7662V19.6159ZM109.445 13.3579H113.449V14.2399H110.691V24.5159H113.449V25.3979H109.445V13.3579ZM119.03 24.5159V14.2399H116.286V13.3579H120.29V25.3979H116.286V24.5159H119.03ZM210.012 35.2639C210.012 34.8532 210.142 34.5172 210.404 34.2559C210.665 33.9852 210.996 33.8499 211.398 33.8499C211.799 33.8499 212.13 33.9852 212.392 34.2559C212.653 34.5172 212.784 34.8532 212.784 35.2639C212.784 35.6746 212.653 36.0152 212.392 36.2859C212.13 36.5472 211.799 36.6779 211.398 36.6779C210.996 36.6779 210.665 36.5472 210.404 36.2859C210.142 36.0152 210.012 35.6746 210.012 35.2639ZM210.012 40.0239C210.012 39.6132 210.142 39.2772 210.404 39.0159C210.665 38.7452 210.996 38.6099 211.398 38.6099C211.799 38.6099 212.13 38.7452 212.392 39.0159C212.653 39.2772 212.784 39.6132 212.784 40.0239C212.784 40.4346 212.653 40.7752 212.392 41.0459C212.13 41.3072 211.799 41.4379 211.398 41.4379C210.996 41.4379 210.665 41.3072 210.404 41.0459C210.142 40.7752 210.012 40.4346 210.012 40.0239ZM82.3017 54.8399C82.3017 54.2706 82.4043 53.7619 82.6097 53.3139C82.8243 52.8659 83.109 52.4879 83.4637 52.1799C83.8183 51.8719 84.2337 51.6386 84.7097 51.4799C85.1857 51.3119 85.685 51.2279 86.2077 51.2279C86.7677 51.2279 87.2577 51.3212 87.6777 51.5079C88.107 51.6946 88.4663 51.9232 88.7557 52.1939L87.9857 53.2019C87.715 52.9872 87.4397 52.8239 87.1597 52.7119C86.889 52.5999 86.5997 52.5439 86.2917 52.5439C85.601 52.5439 85.041 52.7539 84.6117 53.1739C84.1823 53.5846 83.9677 54.1399 83.9677 54.8399C83.9677 55.1852 84.0237 55.4979 84.1357 55.7779C84.2477 56.0579 84.4017 56.3006 84.5977 56.5059C84.803 56.7019 85.0457 56.8559 85.3257 56.9679C85.6057 57.0706 85.9137 57.1219 86.2497 57.1219C86.6417 57.1219 86.9963 57.0472 87.3137 56.8979C87.6403 56.7486 87.939 56.5712 88.2097 56.3659L88.8817 57.4019C88.4897 57.7472 88.051 58.0086 87.5657 58.1859C87.0803 58.3539 86.5903 58.4379 86.0957 58.4379C85.5543 58.4379 85.0503 58.3586 84.5837 58.1999C84.1263 58.0412 83.725 57.8079 83.3797 57.4999C83.0437 57.1919 82.7777 56.8139 82.5817 56.3659C82.395 55.9179 82.3017 55.4092 82.3017 54.8399ZM90.4162 54.8399C90.4162 54.2706 90.5095 53.7619 90.6962 53.3139C90.8922 52.8659 91.1489 52.4879 91.4662 52.1799C91.7835 51.8719 92.1522 51.6386 92.5722 51.4799C92.9922 51.3119 93.4262 51.2279 93.8742 51.2279C94.3222 51.2279 94.7562 51.3119 95.1762 51.4799C95.5962 51.6386 95.9649 51.8719 96.2822 52.1799C96.5995 52.4879 96.8515 52.8659 97.0382 53.3139C97.2342 53.7619 97.3322 54.2706 97.3322 54.8399C97.3322 55.4092 97.2342 55.9179 97.0382 56.3659C96.8515 56.8139 96.5995 57.1919 96.2822 57.4999C95.9649 57.8079 95.5962 58.0412 95.1762 58.1999C94.7562 58.3586 94.3222 58.4379 93.8742 58.4379C93.4262 58.4379 92.9922 58.3586 92.5722 58.1999C92.1522 58.0412 91.7835 57.8079 91.4662 57.4999C91.1489 57.1919 90.8922 56.8139 90.6962 56.3659C90.5095 55.9179 90.4162 55.4092 90.4162 54.8399ZM92.0822 54.8399C92.0822 55.5306 92.2409 56.0859 92.5582 56.5059C92.8755 56.9166 93.3142 57.1219 93.8742 57.1219C94.4342 57.1219 94.8729 56.9166 95.1902 56.5059C95.5075 56.0859 95.6662 55.5306 95.6662 54.8399C95.6662 54.1399 95.5075 53.5846 95.1902 53.1739C94.8729 52.7539 94.4342 52.5439 93.8742 52.5439C93.3142 52.5439 92.8755 52.7539 92.5582 53.1739C92.2409 53.5846 92.0822 54.1399 92.0822 54.8399ZM99.0627 48.3859H102.843V55.8479C102.843 56.3146 102.959 56.6459 103.193 56.8419C103.426 57.0286 103.72 57.1219 104.075 57.1219C104.411 57.1219 104.803 57.0332 105.251 56.8559L105.629 58.0459C105.302 58.1579 104.994 58.2512 104.705 58.3259C104.425 58.4006 104.084 58.4379 103.683 58.4379C102.871 58.4379 102.259 58.2046 101.849 57.7379C101.438 57.2712 101.233 56.6132 101.233 55.7639V49.6599H99.0627V48.3859ZM108.087 56.3519C108.479 56.6226 108.885 56.8372 109.305 56.9959C109.735 57.1452 110.215 57.2199 110.747 57.2199C111.289 57.2199 111.685 57.1452 111.937 56.9959C112.189 56.8372 112.315 56.6366 112.315 56.3939C112.315 56.1512 112.152 55.9506 111.825 55.7919C111.499 55.6239 110.985 55.4466 110.285 55.2599C109.959 55.1759 109.641 55.0732 109.333 54.9519C109.025 54.8306 108.755 54.6906 108.521 54.5319C108.288 54.3732 108.101 54.1912 107.961 53.9859C107.821 53.7806 107.751 53.5472 107.751 53.2859C107.751 52.6792 108.013 52.1846 108.535 51.8019C109.058 51.4192 109.809 51.2279 110.789 51.2279C111.349 51.2279 111.877 51.3212 112.371 51.5079C112.866 51.6946 113.291 51.9046 113.645 52.1379L112.903 53.1319C112.595 52.9266 112.264 52.7632 111.909 52.6419C111.564 52.5112 111.195 52.4459 110.803 52.4459C110.271 52.4459 109.898 52.5206 109.683 52.6699C109.469 52.8099 109.361 52.9872 109.361 53.2019C109.361 53.3232 109.408 53.4352 109.501 53.5379C109.604 53.6312 109.739 53.7199 109.907 53.8039C110.085 53.8786 110.29 53.9532 110.523 54.0279C110.757 54.1026 111.013 54.1726 111.293 54.2379C111.695 54.3406 112.054 54.4572 112.371 54.5879C112.698 54.7092 112.973 54.8492 113.197 55.0079C113.431 55.1666 113.608 55.3532 113.729 55.5679C113.86 55.7826 113.925 56.0299 113.925 56.3099C113.925 56.6086 113.855 56.8886 113.715 57.1499C113.575 57.4019 113.37 57.6259 113.099 57.8219C112.829 58.0086 112.493 58.1579 112.091 58.2699C111.69 58.3819 111.228 58.4379 110.705 58.4379C110.061 58.4379 109.445 58.3352 108.857 58.1299C108.269 57.9246 107.761 57.6726 107.331 57.3739L108.087 56.3519ZM117.672 57.0239C117.672 56.6132 117.802 56.2772 118.064 56.0159C118.325 55.7452 118.656 55.6099 119.058 55.6099C119.459 55.6099 119.79 55.7452 120.052 56.0159C120.313 56.2772 120.444 56.6132 120.444 57.0239C120.444 57.4346 120.313 57.7752 120.052 58.0459C119.79 58.3072 119.459 58.4379 119.058 58.4379C118.656 58.4379 118.325 58.3072 118.064 58.0459C117.802 57.7752 117.672 57.4346 117.672 57.0239ZM124.246 56.4219C124.246 56.0392 124.335 55.7032 124.512 55.4139C124.69 55.1152 124.97 54.8632 125.352 54.6579C125.735 54.4526 126.225 54.2846 126.822 54.1539C127.42 54.0232 128.143 53.9299 128.992 53.8739C128.964 53.4819 128.824 53.1599 128.572 52.9079C128.32 52.6559 127.914 52.5299 127.354 52.5299C126.962 52.5299 126.575 52.6046 126.192 52.7539C125.819 52.8939 125.455 53.0619 125.1 53.2579L124.512 52.1799C124.932 51.9372 125.413 51.7179 125.954 51.5219C126.496 51.3259 127.06 51.2279 127.648 51.2279C128.61 51.2279 129.342 51.4846 129.846 51.9979C130.35 52.5019 130.602 53.2346 130.602 54.1959V58.2699H129.286L129.16 57.4159H129.118C128.754 57.6959 128.348 57.9386 127.9 58.1439C127.462 58.3399 127.009 58.4379 126.542 58.4379C126.206 58.4379 125.898 58.3866 125.618 58.2839C125.338 58.1906 125.096 58.0552 124.89 57.8779C124.685 57.7006 124.526 57.4906 124.414 57.2479C124.302 56.9959 124.246 56.7206 124.246 56.4219ZM125.8 56.2959C125.8 56.6039 125.917 56.8279 126.15 56.9679C126.393 57.1079 126.687 57.1779 127.032 57.1779C127.378 57.1779 127.709 57.1032 128.026 56.9539C128.353 56.7952 128.675 56.5899 128.992 56.3379V54.8819C128.376 54.9286 127.863 54.9939 127.452 55.0779C127.042 55.1526 126.715 55.2506 126.472 55.3719C126.23 55.4932 126.057 55.6332 125.954 55.7919C125.852 55.9412 125.8 56.1092 125.8 56.2959ZM134.419 58.8299V60.9859H132.795V51.3959H134.125L134.251 52.1799H134.293C134.592 51.9092 134.932 51.6852 135.315 51.5079C135.707 51.3212 136.099 51.2279 136.491 51.2279C136.939 51.2279 137.336 51.3119 137.681 51.4799C138.036 51.6386 138.33 51.8719 138.563 52.1799C138.806 52.4879 138.988 52.8566 139.109 53.2859C139.24 53.7152 139.305 54.1959 139.305 54.7279C139.305 55.3159 139.221 55.8432 139.053 56.3099C138.885 56.7672 138.656 57.1546 138.367 57.4719C138.087 57.7799 137.76 58.0179 137.387 58.1859C137.023 58.3539 136.645 58.4379 136.253 58.4379C135.936 58.4379 135.609 58.3679 135.273 58.2279C134.946 58.0879 134.643 57.8872 134.363 57.6259L134.419 58.8299ZM134.419 56.4779C134.671 56.7112 134.928 56.8746 135.189 56.9679C135.46 57.0612 135.702 57.1079 135.917 57.1079C136.412 57.1079 136.822 56.9119 137.149 56.5199C137.476 56.1186 137.639 55.5259 137.639 54.7419C137.639 54.0512 137.513 53.5146 137.261 53.1319C137.009 52.7492 136.603 52.5579 136.043 52.5579C135.782 52.5579 135.516 52.6232 135.245 52.7539C134.974 52.8846 134.699 53.0946 134.419 53.3839V56.4779ZM142.813 58.8299V60.9859H141.189V51.3959H142.519L142.645 52.1799H142.687C142.986 51.9092 143.327 51.6852 143.709 51.5079C144.101 51.3212 144.493 51.2279 144.885 51.2279C145.333 51.2279 145.73 51.3119 146.075 51.4799C146.43 51.6386 146.724 51.8719 146.957 52.1799C147.2 52.4879 147.382 52.8566 147.503 53.2859C147.634 53.7152 147.699 54.1959 147.699 54.7279C147.699 55.3159 147.615 55.8432 147.447 56.3099C147.279 56.7672 147.051 57.1546 146.761 57.4719C146.481 57.7799 146.155 58.0179 145.781 58.1859C145.417 58.3539 145.039 58.4379 144.647 58.4379C144.33 58.4379 144.003 58.3679 143.667 58.2279C143.341 58.0879 143.037 57.8872 142.757 57.6259L142.813 58.8299ZM142.813 56.4779C143.065 56.7112 143.322 56.8746 143.583 56.9679C143.854 57.0612 144.097 57.1079 144.311 57.1079C144.806 57.1079 145.217 56.9119 145.543 56.5199C145.87 56.1186 146.033 55.5259 146.033 54.7419C146.033 54.0512 145.907 53.5146 145.655 53.1319C145.403 52.7492 144.997 52.5579 144.437 52.5579C144.176 52.5579 143.91 52.6232 143.639 52.7539C143.369 52.8846 143.093 53.0946 142.813 53.3839V56.4779ZM149.304 54.8399C149.304 54.2799 149.402 53.7759 149.598 53.3279C149.803 52.8799 150.069 52.5019 150.396 52.1939C150.723 51.8766 151.096 51.6386 151.516 51.4799C151.945 51.3119 152.384 51.2279 152.832 51.2279C153.345 51.2279 153.798 51.3119 154.19 51.4799C154.591 51.6386 154.927 51.8626 155.198 52.1519C155.469 52.4319 155.674 52.7726 155.814 53.1739C155.954 53.5752 156.024 54.0139 156.024 54.4899C156.024 54.6486 156.015 54.7979 155.996 54.9379C155.987 55.0779 155.973 55.1899 155.954 55.2739H150.956C151.012 55.8899 151.255 56.3659 151.684 56.7019C152.113 57.0286 152.641 57.1919 153.266 57.1919C153.621 57.1919 153.952 57.1452 154.26 57.0519C154.568 56.9492 154.881 56.8092 155.198 56.6319L155.744 57.6399C155.371 57.8732 154.955 58.0646 154.498 58.2139C154.041 58.3632 153.56 58.4379 153.056 58.4379C152.533 58.4379 152.043 58.3586 151.586 58.1999C151.129 58.0319 150.732 57.7939 150.396 57.4859C150.06 57.1779 149.794 56.8046 149.598 56.3659C149.402 55.9179 149.304 55.4092 149.304 54.8399ZM154.54 54.1819C154.54 53.6499 154.4 53.2346 154.12 52.9359C153.84 52.6279 153.425 52.4739 152.874 52.4739C152.407 52.4739 151.992 52.6186 151.628 52.9079C151.264 53.1972 151.035 53.6219 150.942 54.1819H154.54ZM157.978 51.3959H159.308L159.434 52.4319H159.49C159.817 52.1052 160.176 51.8252 160.568 51.5919C160.97 51.3492 161.436 51.2279 161.968 51.2279C162.762 51.2279 163.345 51.4706 163.718 51.9559C164.092 52.4319 164.278 53.1179 164.278 54.0139V58.2699H162.654V54.2239C162.654 53.6639 162.556 53.2579 162.36 53.0059C162.174 52.7446 161.842 52.6139 161.366 52.6139C161.03 52.6139 160.732 52.6932 160.47 52.8519C160.209 53.0106 159.92 53.2532 159.602 53.5799V58.2699H157.978V51.3959ZM165.967 54.8399C165.967 54.2799 166.051 53.7759 166.219 53.3279C166.387 52.8799 166.611 52.5019 166.891 52.1939C167.18 51.8859 167.507 51.6479 167.871 51.4799C168.235 51.3119 168.613 51.2279 169.005 51.2279C169.416 51.2279 169.766 51.3026 170.055 51.4519C170.354 51.5919 170.643 51.7879 170.923 52.0399L170.853 50.8779V48.3859H172.477V58.2699H171.147L171.021 57.4719H170.979C170.708 57.7426 170.391 57.9712 170.027 58.1579C169.672 58.3446 169.299 58.4379 168.907 58.4379C168.468 58.4379 168.067 58.3586 167.703 58.1999C167.339 58.0319 167.026 57.7939 166.765 57.4859C166.513 57.1779 166.317 56.8046 166.177 56.3659C166.037 55.9179 165.967 55.4092 165.967 54.8399ZM167.633 54.8259C167.633 55.5726 167.778 56.1419 168.067 56.5339C168.356 56.9166 168.767 57.1079 169.299 57.1079C169.868 57.1079 170.386 56.8326 170.853 56.2819V53.1879C170.61 52.9546 170.368 52.7912 170.125 52.6979C169.882 52.6046 169.635 52.5579 169.383 52.5579C169.14 52.5579 168.912 52.6092 168.697 52.7119C168.492 52.8146 168.31 52.9639 168.151 53.1599C167.992 53.3466 167.866 53.5799 167.773 53.8599C167.68 54.1399 167.633 54.4619 167.633 54.8259ZM179.388 60.7479C178.445 59.9639 177.698 59.0399 177.148 57.9759C176.606 56.9119 176.336 55.7126 176.336 54.3779C176.336 53.0432 176.606 51.8439 177.148 50.7799C177.698 49.7159 178.445 48.7919 179.388 48.0079L180.284 48.7499C179.397 49.5526 178.748 50.4066 178.338 51.3119C177.927 52.2172 177.722 53.2392 177.722 54.3779C177.722 55.5166 177.927 56.5386 178.338 57.4439C178.748 58.3492 179.397 59.2032 180.284 60.0059L179.388 60.7479ZM334.852 60.0059C335.738 59.2032 336.387 58.3492 336.798 57.4439C337.208 56.5386 337.414 55.5166 337.414 54.3779C337.414 53.2392 337.208 52.2172 336.798 51.3119C336.387 50.4066 335.738 49.5526 334.852 48.7499L335.748 48.0079C336.69 48.7919 337.432 49.7159 337.974 50.7799C338.524 51.8439 338.8 53.0432 338.8 54.3779C338.8 55.7126 338.524 56.9119 337.974 57.9759C337.432 59.0399 336.69 59.9639 335.748 60.7479L334.852 60.0059Z" fill="#2E383C"/>
<path d="M55.5135 32.7859C55.2615 32.6832 55.0142 32.6086 54.7715 32.5619C54.5382 32.5152 54.2815 32.4919 54.0015 32.4919C53.4695 32.4919 53.0822 32.6226 52.8395 32.8839C52.6062 33.1359 52.4895 33.5046 52.4895 33.9899V34.3959H55.1075V35.6699H52.4895V41.2699H50.8935V35.6699H48.9895V34.4659L50.8935 34.3959V34.0179C50.8935 33.6166 50.9495 33.2432 51.0615 32.8979C51.1735 32.5526 51.3462 32.2586 51.5795 32.0159C51.8222 31.7639 52.1255 31.5679 52.4895 31.4279C52.8629 31.2879 53.3015 31.2179 53.8055 31.2179C54.1789 31.2179 54.5335 31.2506 54.8695 31.3159C55.2149 31.3812 55.5415 31.4746 55.8495 31.5959L55.5135 32.7859ZM56.8381 37.8399C56.8381 37.2706 56.9314 36.7619 57.1181 36.3139C57.3141 35.8659 57.5707 35.4879 57.8881 35.1799C58.2054 34.8719 58.5741 34.6386 58.9941 34.4799C59.4141 34.3119 59.8481 34.2279 60.2961 34.2279C60.7441 34.2279 61.1781 34.3119 61.5981 34.4799C62.0181 34.6386 62.3867 34.8719 62.7041 35.1799C63.0214 35.4879 63.2734 35.8659 63.4601 36.3139C63.6561 36.7619 63.7541 37.2706 63.7541 37.8399C63.7541 38.4092 63.6561 38.9179 63.4601 39.3659C63.2734 39.8139 63.0214 40.1919 62.7041 40.4999C62.3867 40.8079 62.0181 41.0412 61.5981 41.1999C61.1781 41.3586 60.7441 41.4379 60.2961 41.4379C59.8481 41.4379 59.4141 41.3586 58.9941 41.1999C58.5741 41.0412 58.2054 40.8079 57.8881 40.4999C57.5707 40.1919 57.3141 39.8139 57.1181 39.3659C56.9314 38.9179 56.8381 38.4092 56.8381 37.8399ZM58.5041 37.8399C58.5041 38.5306 58.6627 39.0859 58.9801 39.5059C59.2974 39.9166 59.7361 40.1219 60.2961 40.1219C60.8561 40.1219 61.2947 39.9166 61.6121 39.5059C61.9294 39.0859 62.0881 38.5306 62.0881 37.8399C62.0881 37.1399 61.9294 36.5846 61.6121 36.1739C61.2947 35.7539 60.8561 35.5439 60.2961 35.5439C59.7361 35.5439 59.2974 35.7539 58.9801 36.1739C58.6627 36.5846 58.5041 37.1399 58.5041 37.8399ZM66.3106 34.3959H67.6406L67.7806 35.9499H67.8226C68.1773 35.3899 68.6019 34.9652 69.0966 34.6759C69.6006 34.3772 70.1513 34.2279 70.7486 34.2279C71.0286 34.2279 71.2666 34.2512 71.4626 34.2979C71.6679 34.3352 71.8733 34.4052 72.0786 34.5079L71.7426 35.8659C71.5186 35.7912 71.3179 35.7399 71.1406 35.7119C70.9726 35.6746 70.7579 35.6559 70.4966 35.6559C70.0206 35.6559 69.5633 35.7912 69.1246 36.0619C68.6859 36.3326 68.2893 36.8039 67.9346 37.4759V41.2699H66.3106V34.3959ZM82.4557 34.3959H87.0477V41.2699H85.4377V35.6699H82.4557V34.3959ZM86.1237 33.1919C85.797 33.1919 85.5217 33.0939 85.2977 32.8979C85.083 32.7019 84.9757 32.4406 84.9757 32.1139C84.9757 31.7872 85.083 31.5259 85.2977 31.3299C85.5217 31.1246 85.797 31.0219 86.1237 31.0219C86.4597 31.0219 86.735 31.1246 86.9497 31.3299C87.1643 31.5259 87.2717 31.7872 87.2717 32.1139C87.2717 32.4406 87.1643 32.7019 86.9497 32.8979C86.735 33.0939 86.4597 33.1919 86.1237 33.1919ZM99.2447 34.3959H103.837V41.2699H102.227V35.6699H99.2447V34.3959ZM102.913 33.1919C102.586 33.1919 102.311 33.0939 102.087 32.8979C101.872 32.7019 101.765 32.4406 101.765 32.1139C101.765 31.7872 101.872 31.5259 102.087 31.3299C102.311 31.1246 102.586 31.0219 102.913 31.0219C103.249 31.0219 103.524 31.1246 103.739 31.3299C103.953 31.5259 104.061 31.7872 104.061 32.1139C104.061 32.4406 103.953 32.7019 103.739 32.8979C103.524 33.0939 103.249 33.1919 102.913 33.1919ZM107.611 34.3959H108.941L109.067 35.4319H109.123C109.45 35.1052 109.809 34.8252 110.201 34.5919C110.603 34.3492 111.069 34.2279 111.601 34.2279C112.395 34.2279 112.978 34.4706 113.351 34.9559C113.725 35.4319 113.911 36.1179 113.911 37.0139V41.2699H112.287V37.2239C112.287 36.6639 112.189 36.2579 111.993 36.0059C111.807 35.7446 111.475 35.6139 110.999 35.6139C110.663 35.6139 110.365 35.6932 110.103 35.8519C109.842 36.0106 109.553 36.2532 109.235 36.5799V41.2699H107.611V34.3959ZM125.072 34.3959H126.402L126.542 35.9499H126.584C126.939 35.3899 127.364 34.9652 127.858 34.6759C128.362 34.3772 128.913 34.2279 129.51 34.2279C129.79 34.2279 130.028 34.2512 130.224 34.2979C130.43 34.3352 130.635 34.4052 130.84 34.5079L130.504 35.8659C130.28 35.7912 130.08 35.7399 129.902 35.7119C129.734 35.6746 129.52 35.6559 129.258 35.6559C128.782 35.6559 128.325 35.7912 127.886 36.0619C127.448 36.3326 127.051 36.8039 126.696 37.4759V41.2699H125.072V34.3959ZM132.641 39.4219C132.641 39.0392 132.73 38.7032 132.907 38.4139C133.084 38.1152 133.364 37.8632 133.747 37.6579C134.13 37.4526 134.62 37.2846 135.217 37.1539C135.814 37.0232 136.538 36.9299 137.387 36.8739C137.359 36.4819 137.219 36.1599 136.967 35.9079C136.715 35.6559 136.309 35.5299 135.749 35.5299C135.357 35.5299 134.97 35.6046 134.587 35.7539C134.214 35.8939 133.85 36.0619 133.495 36.2579L132.907 35.1799C133.327 34.9372 133.808 34.7179 134.349 34.5219C134.89 34.3259 135.455 34.2279 136.043 34.2279C137.004 34.2279 137.737 34.4846 138.241 34.9979C138.745 35.5019 138.997 36.2346 138.997 37.1959V41.2699H137.681L137.555 40.4159H137.513C137.149 40.6959 136.743 40.9386 136.295 41.1439C135.856 41.3399 135.404 41.4379 134.937 41.4379C134.601 41.4379 134.293 41.3866 134.013 41.2839C133.733 41.1906 133.49 41.0552 133.285 40.8779C133.08 40.7006 132.921 40.4906 132.809 40.2479C132.697 39.9959 132.641 39.7206 132.641 39.4219ZM134.195 39.2959C134.195 39.6039 134.312 39.8279 134.545 39.9679C134.788 40.1079 135.082 40.1779 135.427 40.1779C135.772 40.1779 136.104 40.1032 136.421 39.9539C136.748 39.7952 137.07 39.5899 137.387 39.3379V37.8819C136.771 37.9286 136.258 37.9939 135.847 38.0779C135.436 38.1526 135.11 38.2506 134.867 38.3719C134.624 38.4932 134.452 38.6332 134.349 38.7919C134.246 38.9412 134.195 39.1092 134.195 39.2959ZM141.189 34.3959H142.519L142.645 35.4319H142.701C143.028 35.1052 143.387 34.8252 143.779 34.5919C144.181 34.3492 144.647 34.2279 145.179 34.2279C145.973 34.2279 146.556 34.4706 146.929 34.9559C147.303 35.4319 147.489 36.1179 147.489 37.0139V41.2699H145.865V37.2239C145.865 36.6639 145.767 36.2579 145.571 36.0059C145.385 35.7446 145.053 35.6139 144.577 35.6139C144.241 35.6139 143.943 35.6932 143.681 35.8519C143.42 36.0106 143.131 36.2532 142.813 36.5799V41.2699H141.189V34.3959ZM150.648 42.2639C150.648 42.5719 150.816 42.8146 151.152 42.9919C151.497 43.1692 151.992 43.2579 152.636 43.2579C152.972 43.2579 153.275 43.2252 153.546 43.1599C153.817 43.1039 154.05 43.0246 154.246 42.9219C154.442 42.8192 154.591 42.6979 154.694 42.5579C154.797 42.4272 154.848 42.2872 154.848 42.1379C154.848 41.8672 154.731 41.6852 154.498 41.5919C154.265 41.5079 153.919 41.4659 153.462 41.4659H152.37C152.146 41.4659 151.945 41.4566 151.768 41.4379C151.6 41.4286 151.451 41.4006 151.32 41.3539C151.077 41.5032 150.905 41.6526 150.802 41.8019C150.699 41.9512 150.648 42.1052 150.648 42.2639ZM149.304 42.4739C149.304 42.2032 149.397 41.9419 149.584 41.6899C149.771 41.4379 150.041 41.2186 150.396 41.0319V40.9759C150.209 40.8732 150.046 40.7286 149.906 40.5419C149.766 40.3552 149.696 40.1172 149.696 39.8279C149.696 39.5946 149.771 39.3659 149.92 39.1419C150.069 38.9086 150.27 38.7032 150.522 38.5259V38.4699C150.279 38.3019 150.069 38.0686 149.892 37.7699C149.724 37.4712 149.64 37.1166 149.64 36.7059C149.64 36.3139 149.715 35.9639 149.864 35.6559C150.023 35.3479 150.228 35.0912 150.48 34.8859C150.741 34.6712 151.04 34.5079 151.376 34.3959C151.721 34.2839 152.085 34.2279 152.468 34.2279C152.879 34.2279 153.238 34.2839 153.546 34.3959H156.36V35.5859H154.75C154.871 35.7259 154.979 35.8986 155.072 36.1039C155.165 36.2999 155.212 36.5192 155.212 36.7619C155.212 37.1446 155.142 37.4806 155.002 37.7699C154.862 38.0592 154.666 38.3019 154.414 38.4979C154.171 38.6939 153.882 38.8432 153.546 38.9459C153.21 39.0392 152.851 39.0859 152.468 39.0859C152.123 39.0859 151.773 39.0252 151.418 38.9039C151.138 39.0812 150.998 39.2912 150.998 39.5339C150.998 39.9726 151.432 40.1919 152.3 40.1919H153.7C154.596 40.1919 155.268 40.3226 155.716 40.5839C156.173 40.8452 156.402 41.2746 156.402 41.8719C156.402 42.2079 156.309 42.5252 156.122 42.8239C155.935 43.1226 155.669 43.3792 155.324 43.5939C154.988 43.8179 154.573 43.9906 154.078 44.1119C153.593 44.2426 153.047 44.3079 152.44 44.3079C151.964 44.3079 151.535 44.2706 151.152 44.1959C150.769 44.1212 150.438 44.0046 150.158 43.8459C149.887 43.6966 149.677 43.5052 149.528 43.2719C149.379 43.0479 149.304 42.7819 149.304 42.4739ZM152.468 38.0779C152.823 38.0779 153.131 37.9612 153.392 37.7279C153.653 37.4852 153.784 37.1446 153.784 36.7059C153.784 36.2859 153.653 35.9546 153.392 35.7119C153.131 35.4599 152.823 35.3339 152.468 35.3339C152.113 35.3339 151.805 35.4599 151.544 35.7119C151.292 35.9546 151.166 36.2859 151.166 36.7059C151.166 37.1446 151.292 37.4852 151.544 37.7279C151.805 37.9612 152.113 38.0779 152.468 38.0779ZM157.698 37.8399C157.698 37.2799 157.796 36.7759 157.992 36.3279C158.198 35.8799 158.464 35.5019 158.79 35.1939C159.117 34.8766 159.49 34.6386 159.91 34.4799C160.34 34.3119 160.778 34.2279 161.226 34.2279C161.74 34.2279 162.192 34.3119 162.584 34.4799C162.986 34.6386 163.322 34.8626 163.592 35.1519C163.863 35.4319 164.068 35.7726 164.208 36.1739C164.348 36.5752 164.418 37.0139 164.418 37.4899C164.418 37.6486 164.409 37.7979 164.39 37.9379C164.381 38.0779 164.367 38.1899 164.348 38.2739H159.35C159.406 38.8899 159.649 39.3659 160.078 39.7019C160.508 40.0286 161.035 40.1919 161.66 40.1919C162.015 40.1919 162.346 40.1452 162.654 40.0519C162.962 39.9492 163.275 39.8092 163.592 39.6319L164.138 40.6399C163.765 40.8732 163.35 41.0646 162.892 41.2139C162.435 41.3632 161.954 41.4379 161.45 41.4379C160.928 41.4379 160.438 41.3586 159.98 41.1999C159.523 41.0319 159.126 40.7939 158.79 40.4859C158.454 40.1779 158.188 39.8046 157.992 39.3659C157.796 38.9179 157.698 38.4092 157.698 37.8399ZM162.934 37.1819C162.934 36.6499 162.794 36.2346 162.514 35.9359C162.234 35.6279 161.819 35.4739 161.268 35.4739C160.802 35.4739 160.386 35.6186 160.022 35.9079C159.658 36.1972 159.43 36.6219 159.336 37.1819H162.934ZM170.993 43.7479C170.05 42.9639 169.304 42.0399 168.753 40.9759C168.212 39.9119 167.941 38.7126 167.941 37.3779C167.941 36.0432 168.212 34.8439 168.753 33.7799C169.304 32.7159 170.05 31.7919 170.993 31.0079L171.889 31.7499C171.002 32.5526 170.354 33.4066 169.943 34.3119C169.532 35.2172 169.327 36.2392 169.327 37.3779C169.327 38.5166 169.532 39.5386 169.943 40.4439C170.354 41.3492 171.002 42.2032 171.889 43.0059L170.993 43.7479ZM181.082 39.9539V41.2699H174.88V39.9539H177.288V34.1019H175.426V33.0939C175.93 33.0099 176.359 32.9119 176.714 32.7999C177.078 32.6786 177.414 32.5339 177.722 32.3659H178.898V39.9539H181.082ZM184.66 43.3139C185.845 42.8379 186.443 42.1192 186.452 41.1579C186.405 41.1672 186.34 41.1719 186.256 41.1719C185.901 41.1719 185.593 41.0692 185.332 40.8639C185.071 40.6492 184.94 40.3366 184.94 39.9259C184.94 39.5339 185.071 39.2306 185.332 39.0159C185.603 38.7919 185.92 38.6799 186.284 38.6799C186.788 38.6799 187.166 38.8666 187.418 39.2399C187.67 39.6132 187.796 40.1266 187.796 40.7799C187.796 41.6386 187.563 42.3619 187.096 42.9499C186.629 43.5472 185.957 43.9906 185.08 44.2799L184.66 43.3139ZM191.865 39.1699C192.163 39.4219 192.495 39.6459 192.859 39.8419C193.232 40.0286 193.675 40.1219 194.189 40.1219C194.749 40.1219 195.215 39.9726 195.589 39.6739C195.971 39.3752 196.163 38.9552 196.163 38.4139C196.163 37.8819 195.985 37.4712 195.631 37.1819C195.285 36.8926 194.828 36.7479 194.259 36.7479C193.932 36.7479 193.652 36.7899 193.419 36.8739C193.185 36.9486 192.915 37.0746 192.607 37.2519L191.837 36.7619L192.117 32.3659H197.367V33.7239H193.517L193.321 35.8799C193.554 35.7866 193.778 35.7166 193.993 35.6699C194.207 35.6139 194.45 35.5859 194.721 35.5859C195.141 35.5859 195.537 35.6419 195.911 35.7539C196.284 35.8659 196.606 36.0386 196.877 36.2719C197.157 36.4959 197.376 36.7852 197.535 37.1399C197.703 37.4852 197.787 37.8959 197.787 38.3719C197.787 38.8572 197.693 39.2912 197.507 39.6739C197.32 40.0566 197.068 40.3786 196.751 40.6399C196.433 40.9012 196.069 41.1019 195.659 41.2419C195.257 41.3726 194.833 41.4379 194.385 41.4379C193.601 41.4379 192.947 41.3166 192.425 41.0739C191.911 40.8219 191.477 40.5326 191.123 40.2059L191.865 39.1699ZM200.539 43.0059C201.426 42.2032 202.074 41.3492 202.485 40.4439C202.896 39.5386 203.101 38.5166 203.101 37.3779C203.101 36.2392 202.896 35.2172 202.485 34.3119C202.074 33.4066 201.426 32.5526 200.539 31.7499L201.435 31.0079C202.378 31.7919 203.12 32.7159 203.661 33.7799C204.212 34.8439 204.487 36.0432 204.487 37.3779C204.487 38.7126 204.212 39.9119 203.661 40.9759C203.12 42.0399 202.378 42.9639 201.435 43.7479L200.539 43.0059Z" fill="#9B51E0"/>
<path d="M183.554 50.4579L183.512 48.6659H185.472L185.43 50.4579L185.01 53.6919H183.974L183.554 50.4579ZM187.012 50.4579L186.97 48.6659H188.93L188.888 50.4579L188.468 53.6919H187.432L187.012 50.4579ZM191.431 54.8399C191.431 54.2706 191.533 53.7619 191.739 53.3139C191.953 52.8659 192.238 52.4879 192.593 52.1799C192.947 51.8719 193.363 51.6386 193.839 51.4799C194.315 51.3119 194.814 51.2279 195.337 51.2279C195.897 51.2279 196.387 51.3212 196.807 51.5079C197.236 51.6946 197.595 51.9232 197.885 52.1939L197.115 53.2019C196.844 52.9872 196.569 52.8239 196.289 52.7119C196.018 52.5999 195.729 52.5439 195.421 52.5439C194.73 52.5439 194.17 52.7539 193.741 53.1739C193.311 53.5846 193.097 54.1399 193.097 54.8399C193.097 55.1852 193.153 55.4979 193.265 55.7779C193.377 56.0579 193.531 56.3006 193.727 56.5059C193.932 56.7019 194.175 56.8559 194.455 56.9679C194.735 57.0706 195.043 57.1219 195.379 57.1219C195.771 57.1219 196.125 57.0472 196.443 56.8979C196.769 56.7486 197.068 56.5712 197.339 56.3659L198.011 57.4019C197.619 57.7472 197.18 58.0086 196.695 58.1859C196.209 58.3539 195.719 58.4379 195.225 58.4379C194.683 58.4379 194.179 58.3586 193.713 58.1999C193.255 58.0412 192.854 57.8079 192.509 57.4999C192.173 57.1919 191.907 56.8139 191.711 56.3659C191.524 55.9179 191.431 55.4092 191.431 54.8399ZM199.545 54.8399C199.545 54.2706 199.638 53.7619 199.825 53.3139C200.021 52.8659 200.278 52.4879 200.595 52.1799C200.912 51.8719 201.281 51.6386 201.701 51.4799C202.121 51.3119 202.555 51.2279 203.003 51.2279C203.451 51.2279 203.885 51.3119 204.305 51.4799C204.725 51.6386 205.094 51.8719 205.411 52.1799C205.728 52.4879 205.98 52.8659 206.167 53.3139C206.363 53.7619 206.461 54.2706 206.461 54.8399C206.461 55.4092 206.363 55.9179 206.167 56.3659C205.98 56.8139 205.728 57.1919 205.411 57.4999C205.094 57.8079 204.725 58.0412 204.305 58.1999C203.885 58.3586 203.451 58.4379 203.003 58.4379C202.555 58.4379 202.121 58.3586 201.701 58.1999C201.281 58.0412 200.912 57.8079 200.595 57.4999C200.278 57.1919 200.021 56.8139 199.825 56.3659C199.638 55.9179 199.545 55.4092 199.545 54.8399ZM201.211 54.8399C201.211 55.5306 201.37 56.0859 201.687 56.5059C202.004 56.9166 202.443 57.1219 203.003 57.1219C203.563 57.1219 204.002 56.9166 204.319 56.5059C204.636 56.0859 204.795 55.5306 204.795 54.8399C204.795 54.1399 204.636 53.5846 204.319 53.1739C204.002 52.7539 203.563 52.5439 203.003 52.5439C202.443 52.5439 202.004 52.7539 201.687 53.1739C201.37 53.5846 201.211 54.1399 201.211 54.8399ZM208.192 48.3859H211.972V55.8479C211.972 56.3146 212.088 56.6459 212.322 56.8419C212.555 57.0286 212.849 57.1219 213.204 57.1219C213.54 57.1219 213.932 57.0332 214.38 56.8559L214.758 58.0459C214.431 58.1579 214.123 58.2512 213.834 58.3259C213.554 58.4006 213.213 58.4379 212.812 58.4379C212 58.4379 211.388 58.2046 210.978 57.7379C210.567 57.2712 210.362 56.6132 210.362 55.7639V49.6599H208.192V48.3859ZM223.152 59.1379V60.3979H216.432V59.1379H223.152ZM227.403 58.4659C227.403 58.2139 227.407 57.9852 227.417 57.7799C227.435 57.5652 227.454 57.3599 227.473 57.1639C227.491 56.9679 227.505 56.7719 227.515 56.5759C227.533 56.3706 227.543 56.1512 227.543 55.9179C227.543 55.7966 227.515 55.6752 227.459 55.5539C227.403 55.4232 227.3 55.3112 227.151 55.2179C227.001 55.1152 226.796 55.0312 226.535 54.9659C226.283 54.9006 225.961 54.8679 225.569 54.8679V53.8879C225.961 53.8879 226.283 53.8552 226.535 53.7899C226.796 53.7246 227.001 53.6452 227.151 53.5519C227.3 53.4492 227.403 53.3372 227.459 53.2159C227.515 53.0946 227.543 52.9686 227.543 52.8379C227.543 52.3992 227.519 51.9886 227.473 51.6059C227.426 51.2139 227.403 50.7752 227.403 50.2899C227.403 49.9166 227.454 49.6086 227.557 49.3659C227.659 49.1139 227.818 48.9132 228.033 48.7639C228.247 48.6146 228.518 48.5119 228.845 48.4559C229.171 48.3906 229.559 48.3579 230.007 48.3579H230.973V49.2399H230.329C230.002 49.2399 229.736 49.2586 229.531 49.2959C229.325 49.3332 229.162 49.3986 229.041 49.4919C228.929 49.5759 228.849 49.6926 228.803 49.8419C228.765 49.9819 228.747 50.1546 228.747 50.3599C228.747 50.7519 228.756 51.1439 228.775 51.5359C228.803 51.9279 228.817 52.3386 228.817 52.7679C228.817 53.2626 228.719 53.6312 228.523 53.8739C228.327 54.1072 227.981 54.2659 227.487 54.3499V54.4059C227.981 54.4899 228.327 54.6532 228.523 54.8959C228.719 55.1292 228.817 55.4932 228.817 55.9879C228.817 56.4359 228.803 56.8466 228.775 57.2199C228.756 57.5932 228.747 57.9852 228.747 58.3959C228.747 58.6106 228.765 58.7879 228.803 58.9279C228.849 59.0679 228.929 59.1799 229.041 59.2639C229.162 59.3572 229.325 59.4226 229.531 59.4599C229.736 59.4972 230.002 59.5159 230.329 59.5159H230.973V60.3979H230.007C229.559 60.3979 229.171 60.3652 228.845 60.2999C228.518 60.2439 228.247 60.1412 228.033 59.9919C227.818 59.8426 227.659 59.6419 227.557 59.3899C227.454 59.1472 227.403 58.8392 227.403 58.4659ZM234.453 59.5159C234.771 59.5159 235.032 59.4972 235.237 59.4599C235.443 59.4226 235.606 59.3572 235.727 59.2639C235.849 59.1799 235.928 59.0679 235.965 58.9279C236.012 58.7879 236.035 58.6106 236.035 58.3959C236.035 57.9852 236.021 57.5932 235.993 57.2199C235.975 56.8466 235.965 56.4359 235.965 55.9879C235.965 55.4932 236.059 55.1292 236.245 54.8959C236.441 54.6532 236.791 54.4899 237.295 54.4059V54.3499C236.791 54.2659 236.441 54.1072 236.245 53.8739C236.059 53.6312 235.965 53.2626 235.965 52.7679C235.965 52.3386 235.975 51.9279 235.993 51.5359C236.021 51.1439 236.035 50.7519 236.035 50.3599C236.035 50.1546 236.012 49.9819 235.965 49.8419C235.928 49.6926 235.849 49.5759 235.727 49.4919C235.606 49.3986 235.443 49.3332 235.237 49.2959C235.032 49.2586 234.771 49.2399 234.453 49.2399H233.809V48.3579H234.775C235.223 48.3579 235.606 48.3906 235.923 48.4559C236.25 48.5119 236.521 48.6146 236.735 48.7639C236.95 48.9132 237.109 49.1139 237.211 49.3659C237.314 49.6086 237.365 49.9166 237.365 50.2899C237.365 50.7752 237.342 51.2139 237.295 51.6059C237.249 51.9886 237.225 52.3992 237.225 52.8379C237.225 52.9686 237.253 53.0946 237.309 53.2159C237.365 53.3372 237.468 53.4492 237.617 53.5519C237.767 53.6452 237.967 53.7246 238.219 53.7899C238.481 53.8552 238.807 53.8879 239.199 53.8879V54.8679C238.807 54.8679 238.481 54.9006 238.219 54.9659C237.967 55.0312 237.767 55.1152 237.617 55.2179C237.468 55.3112 237.365 55.4232 237.309 55.5539C237.253 55.6752 237.225 55.7966 237.225 55.9179C237.225 56.1512 237.23 56.3706 237.239 56.5759C237.258 56.7719 237.277 56.9679 237.295 57.1639C237.314 57.3599 237.328 57.5652 237.337 57.7799C237.356 57.9852 237.365 58.2139 237.365 58.4659C237.365 58.8392 237.314 59.1472 237.211 59.3899C237.109 59.6419 236.95 59.8426 236.735 59.9919C236.521 60.1412 236.25 60.2439 235.923 60.2999C235.606 60.3652 235.223 60.3979 234.775 60.3979H233.809V59.5159H234.453ZM242.316 50.4579L242.274 48.6659H244.234L244.192 50.4579L243.772 53.6919H242.736L242.316 50.4579ZM245.774 50.4579L245.732 48.6659H247.692L247.65 50.4579L247.23 53.6919H246.194L245.774 50.4579ZM251.984 57.0239C251.984 56.6132 252.115 56.2772 252.376 56.0159C252.638 55.7452 252.969 55.6099 253.37 55.6099C253.772 55.6099 254.103 55.7452 254.364 56.0159C254.626 56.2772 254.756 56.6132 254.756 57.0239C254.756 57.4346 254.626 57.7752 254.364 58.0459C254.103 58.3072 253.772 58.4379 253.37 58.4379C252.969 58.4379 252.638 58.3072 252.376 58.0459C252.115 57.7752 251.984 57.4346 251.984 57.0239ZM265.377 49.7859C265.125 49.6832 264.877 49.6086 264.635 49.5619C264.401 49.5152 264.145 49.4919 263.865 49.4919C263.333 49.4919 262.945 49.6226 262.703 49.8839C262.469 50.1359 262.353 50.5046 262.353 50.9899V51.3959H264.971V52.6699H262.353V58.2699H260.757V52.6699H258.853V51.4659L260.757 51.3959V51.0179C260.757 50.6166 260.813 50.2432 260.925 49.8979C261.037 49.5526 261.209 49.2586 261.443 49.0159C261.685 48.7639 261.989 48.5679 262.353 48.4279C262.726 48.2879 263.165 48.2179 263.669 48.2179C264.042 48.2179 264.397 48.2506 264.733 48.3159C265.078 48.3812 265.405 48.4746 265.713 48.5959L265.377 49.7859ZM266.701 54.8399C266.701 54.2706 266.795 53.7619 266.981 53.3139C267.177 52.8659 267.434 52.4879 267.751 52.1799C268.069 51.8719 268.437 51.6386 268.857 51.4799C269.277 51.3119 269.711 51.2279 270.159 51.2279C270.607 51.2279 271.041 51.3119 271.461 51.4799C271.881 51.6386 272.25 51.8719 272.567 52.1799C272.885 52.4879 273.137 52.8659 273.323 53.3139C273.519 53.7619 273.617 54.2706 273.617 54.8399C273.617 55.4092 273.519 55.9179 273.323 56.3659C273.137 56.8139 272.885 57.1919 272.567 57.4999C272.25 57.8079 271.881 58.0412 271.461 58.1999C271.041 58.3586 270.607 58.4379 270.159 58.4379C269.711 58.4379 269.277 58.3586 268.857 58.1999C268.437 58.0412 268.069 57.8079 267.751 57.4999C267.434 57.1919 267.177 56.8139 266.981 56.3659C266.795 55.9179 266.701 55.4092 266.701 54.8399ZM268.367 54.8399C268.367 55.5306 268.526 56.0859 268.843 56.5059C269.161 56.9166 269.599 57.1219 270.159 57.1219C270.719 57.1219 271.158 56.9166 271.475 56.5059C271.793 56.0859 271.951 55.5306 271.951 54.8399C271.951 54.1399 271.793 53.5846 271.475 53.1739C271.158 52.7539 270.719 52.5439 270.159 52.5439C269.599 52.5439 269.161 52.7539 268.843 53.1739C268.526 53.5846 268.367 54.1399 268.367 54.8399ZM276.174 51.3959H277.504L277.644 52.9499H277.686C278.041 52.3899 278.465 51.9652 278.96 51.6759C279.464 51.3772 280.015 51.2279 280.612 51.2279C280.892 51.2279 281.13 51.2512 281.326 51.2979C281.531 51.3352 281.737 51.4052 281.942 51.5079L281.606 52.8659C281.382 52.7912 281.181 52.7399 281.004 52.7119C280.836 52.6746 280.621 52.6559 280.36 52.6559C279.884 52.6559 279.427 52.7912 278.988 53.0619C278.549 53.3326 278.153 53.8039 277.798 54.4759V58.2699H276.174V51.3959ZM283.42 51.3959H284.638L284.764 52.2779H284.806C284.965 51.9792 285.156 51.7319 285.38 51.5359C285.614 51.3306 285.926 51.2279 286.318 51.2279C286.99 51.2279 287.41 51.6106 287.578 52.3759C287.737 52.0492 287.938 51.7786 288.18 51.5639C288.432 51.3399 288.75 51.2279 289.132 51.2279C289.618 51.2279 289.991 51.4192 290.252 51.8019C290.523 52.1752 290.658 52.7072 290.658 53.3979V58.2699H289.132V53.5239C289.132 52.9172 288.941 52.6139 288.558 52.6139C288.372 52.6139 288.208 52.6839 288.068 52.8239C287.928 52.9639 287.793 53.1786 287.662 53.4679V58.2699H286.402V53.5239C286.402 52.9172 286.206 52.6139 285.814 52.6139C285.628 52.6139 285.469 52.6839 285.338 52.8239C285.208 52.9639 285.077 53.1786 284.946 53.4679V58.2699H283.42V51.3959ZM292.137 56.4219C292.137 56.0392 292.226 55.7032 292.403 55.4139C292.58 55.1152 292.86 54.8632 293.243 54.6579C293.626 54.4526 294.116 54.2846 294.713 54.1539C295.31 54.0232 296.034 53.9299 296.883 53.8739C296.855 53.4819 296.715 53.1599 296.463 52.9079C296.211 52.6559 295.805 52.5299 295.245 52.5299C294.853 52.5299 294.466 52.6046 294.083 52.7539C293.71 52.8939 293.346 53.0619 292.991 53.2579L292.403 52.1799C292.823 51.9372 293.304 51.7179 293.845 51.5219C294.386 51.3259 294.951 51.2279 295.539 51.2279C296.5 51.2279 297.233 51.4846 297.737 51.9979C298.241 52.5019 298.493 53.2346 298.493 54.1959V58.2699H297.177L297.051 57.4159H297.009C296.645 57.6959 296.239 57.9386 295.791 58.1439C295.352 58.3399 294.9 58.4379 294.433 58.4379C294.097 58.4379 293.789 58.3866 293.509 58.2839C293.229 58.1906 292.986 58.0552 292.781 57.8779C292.576 57.7006 292.417 57.4906 292.305 57.2479C292.193 56.9959 292.137 56.7206 292.137 56.4219ZM293.691 56.2959C293.691 56.6039 293.808 56.8279 294.041 56.9679C294.284 57.1079 294.578 57.1779 294.923 57.1779C295.268 57.1779 295.6 57.1032 295.917 56.9539C296.244 56.7952 296.566 56.5899 296.883 56.3379V54.8819C296.267 54.9286 295.754 54.9939 295.343 55.0779C294.932 55.1526 294.606 55.2506 294.363 55.3719C294.12 55.4932 293.948 55.6332 293.845 55.7919C293.742 55.9412 293.691 56.1092 293.691 56.2959ZM302.197 52.6699H300.363V51.4659L302.267 51.3959L302.477 49.5199H303.807V51.3959H306.943V52.6699H303.807V55.4979C303.807 56.0672 303.924 56.4872 304.157 56.7579C304.391 57.0192 304.801 57.1499 305.389 57.1499C305.688 57.1499 305.959 57.1266 306.201 57.0799C306.444 57.0239 306.677 56.9539 306.901 56.8699L307.209 58.0459C306.901 58.1486 306.561 58.2372 306.187 58.3119C305.814 58.3959 305.417 58.4379 304.997 58.4379C304.475 58.4379 304.036 58.3679 303.681 58.2279C303.327 58.0879 303.037 57.8919 302.813 57.6399C302.599 57.3786 302.44 57.0659 302.337 56.7019C302.244 56.3379 302.197 55.9366 302.197 55.4979V52.6699ZM313.7 60.7479C312.757 59.9639 312.011 59.0399 311.46 57.9759C310.919 56.9119 310.648 55.7126 310.648 54.3779C310.648 53.0432 310.919 51.8439 311.46 50.7799C312.011 49.7159 312.757 48.7919 313.7 48.0079L314.596 48.7499C313.709 49.5526 313.061 50.4066 312.65 51.3119C312.239 52.2172 312.034 53.2392 312.034 54.3779C312.034 55.5166 312.239 56.5386 312.65 57.4439C313.061 58.3492 313.709 59.2032 314.596 60.0059L313.7 60.7479ZM317.503 51.3959H322.095V58.2699H320.485V52.6699H317.503V51.3959ZM321.171 50.1919C320.844 50.1919 320.569 50.0939 320.345 49.8979C320.13 49.7019 320.023 49.4406 320.023 49.1139C320.023 48.7872 320.13 48.5259 320.345 48.3299C320.569 48.1246 320.844 48.0219 321.171 48.0219C321.507 48.0219 321.782 48.1246 321.997 48.3299C322.211 48.5259 322.319 48.7872 322.319 49.1139C322.319 49.4406 322.211 49.7019 321.997 49.8979C321.782 50.0939 321.507 50.1919 321.171 50.1919ZM326.457 60.0059C327.344 59.2032 327.992 58.3492 328.403 57.4439C328.814 56.5386 329.019 55.5166 329.019 54.3779C329.019 53.2392 328.814 52.2172 328.403 51.3119C327.992 50.4066 327.344 49.5526 326.457 48.7499L327.353 48.0079C328.296 48.7919 329.038 49.7159 329.579 50.7799C330.13 51.8439 330.405 53.0432 330.405 54.3779C330.405 55.7126 330.13 56.9119 329.579 57.9759C329.038 59.0399 328.296 59.9639 327.353 60.7479L326.457 60.0059Z" fill="#EB5757"/>
</svg>
