<svg width="1022" height="392" viewBox="0 0 1022 392" fill="none" xmlns="http://www.w3.org/2000/svg">
<rect width="1022" height="392" fill="white"/>
<path d="M800 146C800 142.686 797.314 140 794 140H676C672.686 140 670 142.686 670 146V335C670 338.314 672.686 341 676 341H794C797.314 341 800 338.314 800 335V146Z" fill="#FFFAF5"/>
<path d="M800 146C800 142.686 797.314 140 794 140H676C672.686 140 670 142.686 670 146V179C670 182.314 672.686 185 676 185H794C797.314 185 800 182.314 800 179V146Z" fill="#F1F4F8"/>
<path d="M510 146C510 142.686 507.314 140 504 140H386C382.686 140 380 142.686 380 146V335C380 338.314 382.686 341 386 341H504C507.314 341 510 338.314 510 335V146Z" fill="#FFFAF5"/>
<path d="M510 146C510 142.686 507.314 140 504 140H386C382.686 140 380 142.686 380 146V179C380 182.314 382.686 185 386 185H504C507.314 185 510 182.314 510 179V146Z" fill="#F1F4F8"/>
<path d="M655 146C655 142.686 652.314 140 649 140H531C527.686 140 525 142.686 525 146V335C525 338.314 527.686 341 531 341H649C652.314 341 655 338.314 655 335V146Z" fill="#FFFAF5"/>
<path d="M398.77 196.789H393.285V212H391.047V196.789H385.574V194.938H398.77V196.789ZM403.129 200.855C404.09 199.676 405.34 199.086 406.879 199.086C409.559 199.086 410.91 200.598 410.934 203.621V212H408.766V203.609C408.758 202.695 408.547 202.02 408.133 201.582C407.727 201.145 407.09 200.926 406.223 200.926C405.52 200.926 404.902 201.113 404.371 201.488C403.84 201.863 403.426 202.355 403.129 202.965V212H400.961V194H403.129V200.855ZM419.441 212.234C417.723 212.234 416.324 211.672 415.246 210.547C414.168 209.414 413.629 207.902 413.629 206.012V205.613C413.629 204.355 413.867 203.234 414.344 202.25C414.828 201.258 415.5 200.484 416.359 199.93C417.227 199.367 418.164 199.086 419.172 199.086C420.82 199.086 422.102 199.629 423.016 200.715C423.93 201.801 424.387 203.355 424.387 205.379V206.281H415.797C415.828 207.531 416.191 208.543 416.887 209.316C417.59 210.082 418.48 210.465 419.559 210.465C420.324 210.465 420.973 210.309 421.504 209.996C422.035 209.684 422.5 209.27 422.898 208.754L424.223 209.785C423.16 211.418 421.566 212.234 419.441 212.234ZM419.172 200.867C418.297 200.867 417.562 201.188 416.969 201.828C416.375 202.461 416.008 203.352 415.867 204.5H422.219V204.336C422.156 203.234 421.859 202.383 421.328 201.781C420.797 201.172 420.078 200.867 419.172 200.867ZM394.023 236.637C394.023 236.051 393.801 235.598 393.355 235.277C392.918 234.949 392.148 234.668 391.047 234.434C389.953 234.199 389.082 233.918 388.434 233.59C387.793 233.262 387.316 232.871 387.004 232.418C386.699 231.965 386.547 231.426 386.547 230.801C386.547 229.762 386.984 228.883 387.859 228.164C388.742 227.445 389.867 227.086 391.234 227.086C392.672 227.086 393.836 227.457 394.727 228.199C395.625 228.941 396.074 229.891 396.074 231.047H393.895C393.895 230.453 393.641 229.941 393.133 229.512C392.633 229.082 392 228.867 391.234 228.867C390.445 228.867 389.828 229.039 389.383 229.383C388.938 229.727 388.715 230.176 388.715 230.73C388.715 231.254 388.922 231.648 389.336 231.914C389.75 232.18 390.496 232.434 391.574 232.676C392.66 232.918 393.539 233.207 394.211 233.543C394.883 233.879 395.379 234.285 395.699 234.762C396.027 235.23 396.191 235.805 396.191 236.484C396.191 237.617 395.738 238.527 394.832 239.215C393.926 239.895 392.75 240.234 391.305 240.234C390.289 240.234 389.391 240.055 388.609 239.695C387.828 239.336 387.215 238.836 386.77 238.195C386.332 237.547 386.113 236.848 386.113 236.098H388.281C388.32 236.824 388.609 237.402 389.148 237.832C389.695 238.254 390.414 238.465 391.305 238.465C392.125 238.465 392.781 238.301 393.273 237.973C393.773 237.637 394.023 237.191 394.023 236.637ZM406.844 238.746C406 239.738 404.762 240.234 403.129 240.234C401.777 240.234 400.746 239.844 400.035 239.062C399.332 238.273 398.977 237.109 398.969 235.57V227.32H401.137V235.512C401.137 237.434 401.918 238.395 403.48 238.395C405.137 238.395 406.238 237.777 406.785 236.543V227.32H408.953V240H406.891L406.844 238.746ZM422.992 233.801C422.992 235.738 422.547 237.297 421.656 238.477C420.766 239.648 419.57 240.234 418.07 240.234C416.469 240.234 415.23 239.668 414.355 238.535L414.25 240H412.258V222H414.426V228.715C415.301 227.629 416.508 227.086 418.047 227.086C419.586 227.086 420.793 227.668 421.668 228.832C422.551 229.996 422.992 231.59 422.992 233.613V233.801ZM420.824 233.555C420.824 232.078 420.539 230.938 419.969 230.133C419.398 229.328 418.578 228.926 417.508 228.926C416.078 228.926 415.051 229.59 414.426 230.918V236.402C415.09 237.73 416.125 238.395 417.531 238.395C418.57 238.395 419.379 237.992 419.957 237.188C420.535 236.383 420.824 235.172 420.824 233.555ZM433.117 236.637C433.117 236.051 432.895 235.598 432.449 235.277C432.012 234.949 431.242 234.668 430.141 234.434C429.047 234.199 428.176 233.918 427.527 233.59C426.887 233.262 426.41 232.871 426.098 232.418C425.793 231.965 425.641 231.426 425.641 230.801C425.641 229.762 426.078 228.883 426.953 228.164C427.836 227.445 428.961 227.086 430.328 227.086C431.766 227.086 432.93 227.457 433.82 228.199C434.719 228.941 435.168 229.891 435.168 231.047H432.988C432.988 230.453 432.734 229.941 432.227 229.512C431.727 229.082 431.094 228.867 430.328 228.867C429.539 228.867 428.922 229.039 428.477 229.383C428.031 229.727 427.809 230.176 427.809 230.73C427.809 231.254 428.016 231.648 428.43 231.914C428.844 232.18 429.59 232.434 430.668 232.676C431.754 232.918 432.633 233.207 433.305 233.543C433.977 233.879 434.473 234.285 434.793 234.762C435.121 235.23 435.285 235.805 435.285 236.484C435.285 237.617 434.832 238.527 433.926 239.215C433.02 239.895 431.844 240.234 430.398 240.234C429.383 240.234 428.484 240.055 427.703 239.695C426.922 239.336 426.309 238.836 425.863 238.195C425.426 237.547 425.207 236.848 425.207 236.098H427.375C427.414 236.824 427.703 237.402 428.242 237.832C428.789 238.254 429.508 238.465 430.398 238.465C431.219 238.465 431.875 238.301 432.367 237.973C432.867 237.637 433.117 237.191 433.117 236.637ZM441.051 224.25V227.32H443.418V228.996H441.051V236.859C441.051 237.367 441.156 237.75 441.367 238.008C441.578 238.258 441.938 238.383 442.445 238.383C442.695 238.383 443.039 238.336 443.477 238.242V240C442.906 240.156 442.352 240.234 441.812 240.234C440.844 240.234 440.113 239.941 439.621 239.355C439.129 238.77 438.883 237.938 438.883 236.859V228.996H436.574V227.32H438.883V224.25H441.051ZM452.09 229.266C451.762 229.211 451.406 229.184 451.023 229.184C449.602 229.184 448.637 229.789 448.129 231V240H445.961V227.32H448.07L448.105 228.785C448.816 227.652 449.824 227.086 451.129 227.086C451.551 227.086 451.871 227.141 452.09 227.25V229.266ZM456.449 240H454.281V227.32H456.449V240ZM454.105 223.957C454.105 223.605 454.211 223.309 454.422 223.066C454.641 222.824 454.961 222.703 455.383 222.703C455.805 222.703 456.125 222.824 456.344 223.066C456.562 223.309 456.672 223.605 456.672 223.957C456.672 224.309 456.562 224.602 456.344 224.836C456.125 225.07 455.805 225.188 455.383 225.188C454.961 225.188 454.641 225.07 454.422 224.836C454.211 224.602 454.105 224.309 454.105 223.957ZM461.98 227.32L462.051 228.914C463.02 227.695 464.285 227.086 465.848 227.086C468.527 227.086 469.879 228.598 469.902 231.621V240H467.734V231.609C467.727 230.695 467.516 230.02 467.102 229.582C466.695 229.145 466.059 228.926 465.191 228.926C464.488 228.926 463.871 229.113 463.34 229.488C462.809 229.863 462.395 230.355 462.098 230.965V240H459.93V227.32H461.98ZM472.656 233.555C472.656 231.578 473.113 230.008 474.027 228.844C474.941 227.672 476.152 227.086 477.66 227.086C479.207 227.086 480.414 227.633 481.281 228.727L481.387 227.32H483.367V239.695C483.367 241.336 482.879 242.629 481.902 243.574C480.934 244.52 479.629 244.992 477.988 244.992C477.074 244.992 476.18 244.797 475.305 244.406C474.43 244.016 473.762 243.48 473.301 242.801L474.426 241.5C475.355 242.648 476.492 243.223 477.836 243.223C478.891 243.223 479.711 242.926 480.297 242.332C480.891 241.738 481.188 240.902 481.188 239.824V238.734C480.32 239.734 479.137 240.234 477.637 240.234C476.152 240.234 474.949 239.637 474.027 238.441C473.113 237.246 472.656 235.617 472.656 233.555ZM474.836 233.801C474.836 235.23 475.129 236.355 475.715 237.176C476.301 237.988 477.121 238.395 478.176 238.395C479.543 238.395 480.547 237.773 481.188 236.531V230.742C480.523 229.531 479.527 228.926 478.199 228.926C477.145 228.926 476.32 229.336 475.727 230.156C475.133 230.977 474.836 232.191 474.836 233.801Z" fill="black"/>
<path d="M387.136 272.448C387.296 272.496 387.456 272.536 387.616 272.568C387.776 272.6 387.944 272.616 388.12 272.616C388.872 272.616 389.472 272.424 389.92 272.04C390.368 271.672 390.712 271.192 390.952 270.6L391.24 269.856L385.96 258.216H388.72L391.144 264C391.368 264.528 391.584 265.088 391.792 265.68C392 266.272 392.216 266.864 392.44 267.456H392.536C392.712 266.896 392.904 266.32 393.112 265.728C393.32 265.136 393.52 264.56 393.712 264L395.848 258.216H398.464L393.544 270.528C393.288 271.2 393 271.8 392.68 272.328C392.376 272.856 392.016 273.304 391.6 273.672C391.184 274.056 390.704 274.344 390.16 274.536C389.616 274.744 388.992 274.848 388.288 274.848C387.968 274.848 387.664 274.824 387.376 274.776C387.088 274.744 386.832 274.688 386.608 274.608L387.136 272.448ZM403.951 260.4H400.807V258.336L404.071 258.216L404.431 255H406.711V258.216H412.087V260.4H406.711V265.248C406.711 266.224 406.911 266.944 407.311 267.408C407.711 267.856 408.415 268.08 409.423 268.08C409.935 268.08 410.399 268.04 410.815 267.96C411.231 267.864 411.631 267.744 412.015 267.6L412.543 269.616C412.015 269.792 411.431 269.944 410.791 270.072C410.151 270.216 409.471 270.288 408.751 270.288C407.855 270.288 407.103 270.168 406.495 269.928C405.887 269.688 405.391 269.352 405.007 268.92C404.639 268.472 404.367 267.936 404.191 267.312C404.031 266.688 403.951 266 403.951 265.248V260.4ZM415.749 253.056H418.533V257.424L418.365 259.944C418.909 259.4 419.517 258.928 420.189 258.528C420.877 258.128 421.677 257.928 422.589 257.928C423.949 257.928 424.949 258.344 425.589 259.176C426.229 259.992 426.549 261.168 426.549 262.704V270H423.765V263.064C423.765 262.104 423.597 261.408 423.261 260.976C422.941 260.528 422.373 260.304 421.557 260.304C420.981 260.304 420.469 260.44 420.021 260.712C419.573 260.984 419.077 261.4 418.533 261.96V270H415.749V253.056ZM429.444 264.12C429.444 263.144 429.604 262.272 429.924 261.504C430.26 260.736 430.7 260.088 431.244 259.56C431.788 259.032 432.42 258.632 433.14 258.36C433.86 258.072 434.604 257.928 435.372 257.928C436.14 257.928 436.884 258.072 437.604 258.36C438.324 258.632 438.956 259.032 439.5 259.56C440.044 260.088 440.476 260.736 440.796 261.504C441.132 262.272 441.3 263.144 441.3 264.12C441.3 265.096 441.132 265.968 440.796 266.736C440.476 267.504 440.044 268.152 439.5 268.68C438.956 269.208 438.324 269.608 437.604 269.88C436.884 270.152 436.14 270.288 435.372 270.288C434.604 270.288 433.86 270.152 433.14 269.88C432.42 269.608 431.788 269.208 431.244 268.68C430.7 268.152 430.26 267.504 429.924 266.736C429.604 265.968 429.444 265.096 429.444 264.12ZM432.3 264.12C432.3 265.304 432.572 266.256 433.116 266.976C433.66 267.68 434.412 268.032 435.372 268.032C436.332 268.032 437.084 267.68 437.628 266.976C438.172 266.256 438.444 265.304 438.444 264.12C438.444 262.92 438.172 261.968 437.628 261.264C437.084 260.544 436.332 260.184 435.372 260.184C434.412 260.184 433.66 260.544 433.116 261.264C432.572 261.968 432.3 262.92 432.3 264.12ZM444.531 258.216H446.811L447.027 259.992H447.123C447.683 259.432 448.299 258.952 448.971 258.552C449.659 258.136 450.459 257.928 451.371 257.928C452.731 257.928 453.731 258.344 454.371 259.176C455.011 259.992 455.331 261.168 455.331 262.704V270H452.547V263.064C452.547 262.104 452.379 261.408 452.043 260.976C451.723 260.528 451.155 260.304 450.339 260.304C449.763 260.304 449.251 260.44 448.803 260.712C448.355 260.984 447.859 261.4 447.315 261.96V270H444.531V258.216Z" fill="#B82629"/>
<path d="M407.412 171.211C407.572 171.259 407.732 171.299 407.892 171.331C408.052 171.363 408.22 171.379 408.396 171.379C409.148 171.379 409.748 171.187 410.196 170.803C410.644 170.435 410.988 169.955 411.228 169.363L411.516 168.619L406.236 156.979H408.996L411.42 162.763C411.644 163.291 411.86 163.851 412.068 164.443C412.276 165.035 412.492 165.627 412.716 166.219H412.812C412.988 165.659 413.18 165.083 413.388 164.491C413.596 163.899 413.796 163.323 413.988 162.763L416.124 156.979H418.74L413.82 169.291C413.564 169.963 413.276 170.563 412.956 171.091C412.652 171.619 412.292 172.067 411.876 172.435C411.46 172.819 410.98 173.107 410.436 173.299C409.892 173.507 409.268 173.611 408.564 173.611C408.244 173.611 407.94 173.587 407.652 173.539C407.364 173.507 407.108 173.451 406.884 173.371L407.412 171.211ZM424.227 159.163H421.083V157.099L424.347 156.979L424.707 153.763H426.987V156.979H432.363V159.163H426.987V164.011C426.987 164.987 427.187 165.707 427.587 166.171C427.987 166.619 428.691 166.843 429.699 166.843C430.211 166.843 430.675 166.803 431.091 166.723C431.507 166.627 431.907 166.507 432.291 166.363L432.819 168.379C432.291 168.555 431.707 168.707 431.067 168.835C430.427 168.979 429.747 169.051 429.027 169.051C428.131 169.051 427.379 168.931 426.771 168.691C426.163 168.451 425.667 168.115 425.283 167.683C424.915 167.235 424.643 166.699 424.467 166.075C424.307 165.451 424.227 164.763 424.227 164.011V159.163ZM436.026 151.819H438.81V156.187L438.642 158.707C439.186 158.163 439.794 157.691 440.466 157.291C441.154 156.891 441.954 156.691 442.866 156.691C444.226 156.691 445.226 157.107 445.866 157.939C446.506 158.755 446.826 159.931 446.826 161.467V168.763H444.042V161.827C444.042 160.867 443.874 160.171 443.538 159.739C443.218 159.291 442.65 159.067 441.834 159.067C441.258 159.067 440.746 159.203 440.298 159.475C439.85 159.747 439.354 160.163 438.81 160.723V168.763H436.026V151.819ZM449.72 162.883C449.72 161.907 449.88 161.035 450.2 160.267C450.536 159.499 450.976 158.851 451.52 158.323C452.064 157.795 452.696 157.395 453.416 157.123C454.136 156.835 454.88 156.691 455.648 156.691C456.416 156.691 457.16 156.835 457.88 157.123C458.6 157.395 459.232 157.795 459.776 158.323C460.32 158.851 460.752 159.499 461.072 160.267C461.408 161.035 461.576 161.907 461.576 162.883C461.576 163.859 461.408 164.731 461.072 165.499C460.752 166.267 460.32 166.915 459.776 167.443C459.232 167.971 458.6 168.371 457.88 168.643C457.16 168.915 456.416 169.051 455.648 169.051C454.88 169.051 454.136 168.915 453.416 168.643C452.696 168.371 452.064 167.971 451.52 167.443C450.976 166.915 450.536 166.267 450.2 165.499C449.88 164.731 449.72 163.859 449.72 162.883ZM452.576 162.883C452.576 164.067 452.848 165.019 453.392 165.739C453.936 166.443 454.688 166.795 455.648 166.795C456.608 166.795 457.36 166.443 457.904 165.739C458.448 165.019 458.72 164.067 458.72 162.883C458.72 161.683 458.448 160.731 457.904 160.027C457.36 159.307 456.608 158.947 455.648 158.947C454.688 158.947 453.936 159.307 453.392 160.027C452.848 160.731 452.576 161.683 452.576 162.883ZM464.807 156.979H467.087L467.303 158.755H467.399C467.959 158.195 468.575 157.715 469.247 157.315C469.935 156.899 470.735 156.691 471.647 156.691C473.007 156.691 474.007 157.107 474.647 157.939C475.287 158.755 475.607 159.931 475.607 161.467V168.763H472.823V161.827C472.823 160.867 472.655 160.171 472.319 159.739C471.999 159.291 471.431 159.067 470.615 159.067C470.039 159.067 469.527 159.203 469.079 159.475C468.631 159.747 468.135 160.163 467.591 160.723V168.763H464.807V156.979Z" fill="#B82629"/>
<path d="M690.105 204.02C690.105 205.691 689.824 207.152 689.262 208.402C688.699 209.645 687.902 210.594 686.871 211.25C685.84 211.906 684.637 212.234 683.262 212.234C681.918 212.234 680.727 211.906 679.688 211.25C678.648 210.586 677.84 209.645 677.262 208.426C676.691 207.199 676.398 205.781 676.383 204.172V202.941C676.383 201.301 676.668 199.852 677.238 198.594C677.809 197.336 678.613 196.375 679.652 195.711C680.699 195.039 681.895 194.703 683.238 194.703C684.605 194.703 685.809 195.035 686.848 195.699C687.895 196.355 688.699 197.312 689.262 198.57C689.824 199.82 690.105 201.277 690.105 202.941V204.02ZM687.867 202.918C687.867 200.895 687.461 199.344 686.648 198.266C685.836 197.18 684.699 196.637 683.238 196.637C681.816 196.637 680.695 197.18 679.875 198.266C679.062 199.344 678.645 200.844 678.621 202.766V204.02C678.621 205.98 679.031 207.523 679.852 208.648C680.68 209.766 681.816 210.324 683.262 210.324C684.715 210.324 685.84 209.797 686.637 208.742C687.434 207.68 687.844 206.16 687.867 204.184V202.918ZM695.191 199.32L695.262 200.914C696.23 199.695 697.496 199.086 699.059 199.086C701.738 199.086 703.09 200.598 703.113 203.621V212H700.945V203.609C700.938 202.695 700.727 202.02 700.312 201.582C699.906 201.145 699.27 200.926 698.402 200.926C697.699 200.926 697.082 201.113 696.551 201.488C696.02 201.863 695.605 202.355 695.309 202.965V212H693.141V199.32H695.191ZM711.645 212.234C709.926 212.234 708.527 211.672 707.449 210.547C706.371 209.414 705.832 207.902 705.832 206.012V205.613C705.832 204.355 706.07 203.234 706.547 202.25C707.031 201.258 707.703 200.484 708.562 199.93C709.43 199.367 710.367 199.086 711.375 199.086C713.023 199.086 714.305 199.629 715.219 200.715C716.133 201.801 716.59 203.355 716.59 205.379V206.281H708C708.031 207.531 708.395 208.543 709.09 209.316C709.793 210.082 710.684 210.465 711.762 210.465C712.527 210.465 713.176 210.309 713.707 209.996C714.238 209.684 714.703 209.27 715.102 208.754L716.426 209.785C715.363 211.418 713.77 212.234 711.645 212.234ZM711.375 200.867C710.5 200.867 709.766 201.188 709.172 201.828C708.578 202.461 708.211 203.352 708.07 204.5H714.422V204.336C714.359 203.234 714.062 202.383 713.531 201.781C713 201.172 712.281 200.867 711.375 200.867ZM724.488 205.543C724.488 204.301 724.73 203.184 725.215 202.191C725.707 201.199 726.387 200.434 727.254 199.895C728.129 199.355 729.125 199.086 730.242 199.086C731.969 199.086 733.363 199.684 734.426 200.879C735.496 202.074 736.031 203.664 736.031 205.648V205.801C736.031 207.035 735.793 208.145 735.316 209.129C734.848 210.105 734.172 210.867 733.289 211.414C732.414 211.961 731.406 212.234 730.266 212.234C728.547 212.234 727.152 211.637 726.082 210.441C725.02 209.246 724.488 207.664 724.488 205.695V205.543ZM726.668 205.801C726.668 207.207 726.992 208.336 727.641 209.188C728.297 210.039 729.172 210.465 730.266 210.465C731.367 210.465 732.242 210.035 732.891 209.176C733.539 208.309 733.863 207.098 733.863 205.543C733.863 204.152 733.531 203.027 732.867 202.168C732.211 201.301 731.336 200.867 730.242 200.867C729.172 200.867 728.309 201.293 727.652 202.145C726.996 202.996 726.668 204.215 726.668 205.801ZM744.879 201.266C744.551 201.211 744.195 201.184 743.812 201.184C742.391 201.184 741.426 201.789 740.918 203V212H738.75V199.32H740.859L740.895 200.785C741.605 199.652 742.613 199.086 743.918 199.086C744.34 199.086 744.66 199.141 744.879 199.25V201.266ZM678.68 227.32L678.738 228.727C679.668 227.633 680.922 227.086 682.5 227.086C684.273 227.086 685.48 227.766 686.121 229.125C686.543 228.516 687.09 228.023 687.762 227.648C688.441 227.273 689.242 227.086 690.164 227.086C692.945 227.086 694.359 228.559 694.406 231.504V240H692.238V231.633C692.238 230.727 692.031 230.051 691.617 229.605C691.203 229.152 690.508 228.926 689.531 228.926C688.727 228.926 688.059 229.168 687.527 229.652C686.996 230.129 686.688 230.773 686.602 231.586V240H684.422V231.691C684.422 229.848 683.52 228.926 681.715 228.926C680.293 228.926 679.32 229.531 678.797 230.742V240H676.629V227.32H678.68ZM697.113 233.543C697.113 232.301 697.355 231.184 697.84 230.191C698.332 229.199 699.012 228.434 699.879 227.895C700.754 227.355 701.75 227.086 702.867 227.086C704.594 227.086 705.988 227.684 707.051 228.879C708.121 230.074 708.656 231.664 708.656 233.648V233.801C708.656 235.035 708.418 236.145 707.941 237.129C707.473 238.105 706.797 238.867 705.914 239.414C705.039 239.961 704.031 240.234 702.891 240.234C701.172 240.234 699.777 239.637 698.707 238.441C697.645 237.246 697.113 235.664 697.113 233.695V233.543ZM699.293 233.801C699.293 235.207 699.617 236.336 700.266 237.188C700.922 238.039 701.797 238.465 702.891 238.465C703.992 238.465 704.867 238.035 705.516 237.176C706.164 236.309 706.488 235.098 706.488 233.543C706.488 232.152 706.156 231.027 705.492 230.168C704.836 229.301 703.961 228.867 702.867 228.867C701.797 228.867 700.934 229.293 700.277 230.145C699.621 230.996 699.293 232.215 699.293 233.801ZM717.504 229.266C717.176 229.211 716.82 229.184 716.438 229.184C715.016 229.184 714.051 229.789 713.543 231V240H711.375V227.32H713.484L713.52 228.785C714.23 227.652 715.238 227.086 716.543 227.086C716.965 227.086 717.285 227.141 717.504 227.25V229.266ZM724.535 240.234C722.816 240.234 721.418 239.672 720.34 238.547C719.262 237.414 718.723 235.902 718.723 234.012V233.613C718.723 232.355 718.961 231.234 719.438 230.25C719.922 229.258 720.594 228.484 721.453 227.93C722.32 227.367 723.258 227.086 724.266 227.086C725.914 227.086 727.195 227.629 728.109 228.715C729.023 229.801 729.48 231.355 729.48 233.379V234.281H720.891C720.922 235.531 721.285 236.543 721.98 237.316C722.684 238.082 723.574 238.465 724.652 238.465C725.418 238.465 726.066 238.309 726.598 237.996C727.129 237.684 727.594 237.27 727.992 236.754L729.316 237.785C728.254 239.418 726.66 240.234 724.535 240.234ZM724.266 228.867C723.391 228.867 722.656 229.188 722.062 229.828C721.469 230.461 721.102 231.352 720.961 232.5H727.312V232.336C727.25 231.234 726.953 230.383 726.422 229.781C725.891 229.172 725.172 228.867 724.266 228.867ZM737.426 233.555C737.426 231.609 737.887 230.047 738.809 228.867C739.73 227.68 740.938 227.086 742.43 227.086C743.914 227.086 745.09 227.594 745.957 228.609V222H748.125V240H746.133L746.027 238.641C745.16 239.703 743.953 240.234 742.406 240.234C740.938 240.234 739.738 239.633 738.809 238.43C737.887 237.227 737.426 235.656 737.426 233.719V233.555ZM739.594 233.801C739.594 235.238 739.891 236.363 740.484 237.176C741.078 237.988 741.898 238.395 742.945 238.395C744.32 238.395 745.324 237.777 745.957 236.543V230.719C745.309 229.523 744.312 228.926 742.969 228.926C741.906 228.926 741.078 229.336 740.484 230.156C739.891 230.977 739.594 232.191 739.594 233.801ZM753.855 240H751.688V227.32H753.855V240ZM751.512 223.957C751.512 223.605 751.617 223.309 751.828 223.066C752.047 222.824 752.367 222.703 752.789 222.703C753.211 222.703 753.531 222.824 753.75 223.066C753.969 223.309 754.078 223.605 754.078 223.957C754.078 224.309 753.969 224.602 753.75 224.836C753.531 225.07 753.211 225.188 752.789 225.188C752.367 225.188 752.047 225.07 751.828 224.836C751.617 224.602 751.512 224.309 751.512 223.957ZM756.82 233.555C756.82 231.578 757.277 230.008 758.191 228.844C759.105 227.672 760.316 227.086 761.824 227.086C763.371 227.086 764.578 227.633 765.445 228.727L765.551 227.32H767.531V239.695C767.531 241.336 767.043 242.629 766.066 243.574C765.098 244.52 763.793 244.992 762.152 244.992C761.238 244.992 760.344 244.797 759.469 244.406C758.594 244.016 757.926 243.48 757.465 242.801L758.59 241.5C759.52 242.648 760.656 243.223 762 243.223C763.055 243.223 763.875 242.926 764.461 242.332C765.055 241.738 765.352 240.902 765.352 239.824V238.734C764.484 239.734 763.301 240.234 761.801 240.234C760.316 240.234 759.113 239.637 758.191 238.441C757.277 237.246 756.82 235.617 756.82 233.555ZM759 233.801C759 235.23 759.293 236.355 759.879 237.176C760.465 237.988 761.285 238.395 762.34 238.395C763.707 238.395 764.711 237.773 765.352 236.531V230.742C764.688 229.531 763.691 228.926 762.363 228.926C761.309 228.926 760.484 229.336 759.891 230.156C759.297 230.977 759 232.191 759 233.801ZM773.168 240H771V227.32H773.168V240ZM770.824 223.957C770.824 223.605 770.93 223.309 771.141 223.066C771.359 222.824 771.68 222.703 772.102 222.703C772.523 222.703 772.844 222.824 773.062 223.066C773.281 223.309 773.391 223.605 773.391 223.957C773.391 224.309 773.281 224.602 773.062 224.836C772.844 225.07 772.523 225.188 772.102 225.188C771.68 225.188 771.359 225.07 771.141 224.836C770.93 224.602 770.824 224.309 770.824 223.957ZM779.59 224.25V227.32H781.957V228.996H779.59V236.859C779.59 237.367 779.695 237.75 779.906 238.008C780.117 238.258 780.477 238.383 780.984 238.383C781.234 238.383 781.578 238.336 782.016 238.242V240C781.445 240.156 780.891 240.234 780.352 240.234C779.383 240.234 778.652 239.941 778.16 239.355C777.668 238.77 777.422 237.938 777.422 236.859V228.996H775.113V227.32H777.422V224.25H779.59ZM676.066 263.543C676.066 262.301 676.309 261.184 676.793 260.191C677.285 259.199 677.965 258.434 678.832 257.895C679.707 257.355 680.703 257.086 681.82 257.086C683.547 257.086 684.941 257.684 686.004 258.879C687.074 260.074 687.609 261.664 687.609 263.648V263.801C687.609 265.035 687.371 266.145 686.895 267.129C686.426 268.105 685.75 268.867 684.867 269.414C683.992 269.961 682.984 270.234 681.844 270.234C680.125 270.234 678.73 269.637 677.66 268.441C676.598 267.246 676.066 265.664 676.066 263.695V263.543ZM678.246 263.801C678.246 265.207 678.57 266.336 679.219 267.188C679.875 268.039 680.75 268.465 681.844 268.465C682.945 268.465 683.82 268.035 684.469 267.176C685.117 266.309 685.441 265.098 685.441 263.543C685.441 262.152 685.109 261.027 684.445 260.168C683.789 259.301 682.914 258.867 681.82 258.867C680.75 258.867 679.887 259.293 679.23 260.145C678.574 260.996 678.246 262.215 678.246 263.801ZM696.457 259.266C696.129 259.211 695.773 259.184 695.391 259.184C693.969 259.184 693.004 259.789 692.496 261V270H690.328V257.32H692.438L692.473 258.785C693.184 257.652 694.191 257.086 695.496 257.086C695.918 257.086 696.238 257.141 696.457 257.25V259.266ZM681.727 296.465C682.5 296.465 683.176 296.23 683.754 295.762C684.332 295.293 684.652 294.707 684.715 294.004H686.766C686.727 294.73 686.477 295.422 686.016 296.078C685.555 296.734 684.938 297.258 684.164 297.648C683.398 298.039 682.586 298.234 681.727 298.234C680 298.234 678.625 297.66 677.602 296.512C676.586 295.355 676.078 293.777 676.078 291.777V291.414C676.078 290.18 676.305 289.082 676.758 288.121C677.211 287.16 677.859 286.414 678.703 285.883C679.555 285.352 680.559 285.086 681.715 285.086C683.137 285.086 684.316 285.512 685.254 286.363C686.199 287.215 686.703 288.32 686.766 289.68H684.715C684.652 288.859 684.34 288.188 683.777 287.664C683.223 287.133 682.535 286.867 681.715 286.867C680.613 286.867 679.758 287.266 679.148 288.062C678.547 288.852 678.246 289.996 678.246 291.496V291.906C678.246 293.367 678.547 294.492 679.148 295.281C679.75 296.07 680.609 296.465 681.727 296.465ZM691.371 286.855C692.332 285.676 693.582 285.086 695.121 285.086C697.801 285.086 699.152 286.598 699.176 289.621V298H697.008V289.609C697 288.695 696.789 288.02 696.375 287.582C695.969 287.145 695.332 286.926 694.465 286.926C693.762 286.926 693.145 287.113 692.613 287.488C692.082 287.863 691.668 288.355 691.371 288.965V298H689.203V280H691.371V286.855ZM710.25 298C710.125 297.75 710.023 297.305 709.945 296.664C708.938 297.711 707.734 298.234 706.336 298.234C705.086 298.234 704.059 297.883 703.254 297.18C702.457 296.469 702.059 295.57 702.059 294.484C702.059 293.164 702.559 292.141 703.559 291.414C704.566 290.68 705.98 290.312 707.801 290.312H709.91V289.316C709.91 288.559 709.684 287.957 709.23 287.512C708.777 287.059 708.109 286.832 707.227 286.832C706.453 286.832 705.805 287.027 705.281 287.418C704.758 287.809 704.496 288.281 704.496 288.836H702.316C702.316 288.203 702.539 287.594 702.984 287.008C703.438 286.414 704.047 285.945 704.812 285.602C705.586 285.258 706.434 285.086 707.355 285.086C708.816 285.086 709.961 285.453 710.789 286.188C711.617 286.914 712.047 287.918 712.078 289.199V295.035C712.078 296.199 712.227 297.125 712.523 297.812V298H710.25ZM706.652 296.348C707.332 296.348 707.977 296.172 708.586 295.82C709.195 295.469 709.637 295.012 709.91 294.449V291.848H708.211C705.555 291.848 704.227 292.625 704.227 294.18C704.227 294.859 704.453 295.391 704.906 295.773C705.359 296.156 705.941 296.348 706.652 296.348ZM721.605 287.266C721.277 287.211 720.922 287.184 720.539 287.184C719.117 287.184 718.152 287.789 717.645 289V298H715.477V285.32H717.586L717.621 286.785C718.332 285.652 719.34 285.086 720.645 285.086C721.066 285.086 721.387 285.141 721.605 285.25V287.266ZM730.969 298C730.844 297.75 730.742 297.305 730.664 296.664C729.656 297.711 728.453 298.234 727.055 298.234C725.805 298.234 724.777 297.883 723.973 297.18C723.176 296.469 722.777 295.57 722.777 294.484C722.777 293.164 723.277 292.141 724.277 291.414C725.285 290.68 726.699 290.312 728.52 290.312H730.629V289.316C730.629 288.559 730.402 287.957 729.949 287.512C729.496 287.059 728.828 286.832 727.945 286.832C727.172 286.832 726.523 287.027 726 287.418C725.477 287.809 725.215 288.281 725.215 288.836H723.035C723.035 288.203 723.258 287.594 723.703 287.008C724.156 286.414 724.766 285.945 725.531 285.602C726.305 285.258 727.152 285.086 728.074 285.086C729.535 285.086 730.68 285.453 731.508 286.188C732.336 286.914 732.766 287.918 732.797 289.199V295.035C732.797 296.199 732.945 297.125 733.242 297.812V298H730.969ZM727.371 296.348C728.051 296.348 728.695 296.172 729.305 295.82C729.914 295.469 730.355 295.012 730.629 294.449V291.848H728.93C726.273 291.848 724.945 292.625 724.945 294.18C724.945 294.859 725.172 295.391 725.625 295.773C726.078 296.156 726.66 296.348 727.371 296.348ZM741.281 296.465C742.055 296.465 742.73 296.23 743.309 295.762C743.887 295.293 744.207 294.707 744.27 294.004H746.32C746.281 294.73 746.031 295.422 745.57 296.078C745.109 296.734 744.492 297.258 743.719 297.648C742.953 298.039 742.141 298.234 741.281 298.234C739.555 298.234 738.18 297.66 737.156 296.512C736.141 295.355 735.633 293.777 735.633 291.777V291.414C735.633 290.18 735.859 289.082 736.312 288.121C736.766 287.16 737.414 286.414 738.258 285.883C739.109 285.352 740.113 285.086 741.27 285.086C742.691 285.086 743.871 285.512 744.809 286.363C745.754 287.215 746.258 288.32 746.32 289.68H744.27C744.207 288.859 743.895 288.188 743.332 287.664C742.777 287.133 742.09 286.867 741.27 286.867C740.168 286.867 739.312 287.266 738.703 288.062C738.102 288.852 737.801 289.996 737.801 291.496V291.906C737.801 293.367 738.102 294.492 738.703 295.281C739.305 296.07 740.164 296.465 741.281 296.465ZM751.699 282.25V285.32H754.066V286.996H751.699V294.859C751.699 295.367 751.805 295.75 752.016 296.008C752.227 296.258 752.586 296.383 753.094 296.383C753.344 296.383 753.688 296.336 754.125 296.242V298C753.555 298.156 753 298.234 752.461 298.234C751.492 298.234 750.762 297.941 750.27 297.355C749.777 296.77 749.531 295.938 749.531 294.859V286.996H747.223V285.32H749.531V282.25H751.699ZM761.871 298.234C760.152 298.234 758.754 297.672 757.676 296.547C756.598 295.414 756.059 293.902 756.059 292.012V291.613C756.059 290.355 756.297 289.234 756.773 288.25C757.258 287.258 757.93 286.484 758.789 285.93C759.656 285.367 760.594 285.086 761.602 285.086C763.25 285.086 764.531 285.629 765.445 286.715C766.359 287.801 766.816 289.355 766.816 291.379V292.281H758.227C758.258 293.531 758.621 294.543 759.316 295.316C760.02 296.082 760.91 296.465 761.988 296.465C762.754 296.465 763.402 296.309 763.934 295.996C764.465 295.684 764.93 295.27 765.328 294.754L766.652 295.785C765.59 297.418 763.996 298.234 761.871 298.234ZM761.602 286.867C760.727 286.867 759.992 287.188 759.398 287.828C758.805 288.461 758.438 289.352 758.297 290.5H764.648V290.336C764.586 289.234 764.289 288.383 763.758 287.781C763.227 287.172 762.508 286.867 761.602 286.867ZM775.465 287.266C775.137 287.211 774.781 287.184 774.398 287.184C772.977 287.184 772.012 287.789 771.504 289V298H769.336V285.32H771.445L771.48 286.785C772.191 285.652 773.199 285.086 774.504 285.086C774.926 285.086 775.246 285.141 775.465 285.25V287.266ZM784.852 294.637C784.852 294.051 784.629 293.598 784.184 293.277C783.746 292.949 782.977 292.668 781.875 292.434C780.781 292.199 779.91 291.918 779.262 291.59C778.621 291.262 778.145 290.871 777.832 290.418C777.527 289.965 777.375 289.426 777.375 288.801C777.375 287.762 777.812 286.883 778.688 286.164C779.57 285.445 780.695 285.086 782.062 285.086C783.5 285.086 784.664 285.457 785.555 286.199C786.453 286.941 786.902 287.891 786.902 289.047H784.723C784.723 288.453 784.469 287.941 783.961 287.512C783.461 287.082 782.828 286.867 782.062 286.867C781.273 286.867 780.656 287.039 780.211 287.383C779.766 287.727 779.543 288.176 779.543 288.73C779.543 289.254 779.75 289.648 780.164 289.914C780.578 290.18 781.324 290.434 782.402 290.676C783.488 290.918 784.367 291.207 785.039 291.543C785.711 291.879 786.207 292.285 786.527 292.762C786.855 293.23 787.02 293.805 787.02 294.484C787.02 295.617 786.566 296.527 785.66 297.215C784.754 297.895 783.578 298.234 782.133 298.234C781.117 298.234 780.219 298.055 779.438 297.695C778.656 297.336 778.043 296.836 777.598 296.195C777.16 295.547 776.941 294.848 776.941 294.098H779.109C779.148 294.824 779.438 295.402 779.977 295.832C780.523 296.254 781.242 296.465 782.133 296.465C782.953 296.465 783.609 296.301 784.102 295.973C784.602 295.637 784.852 295.191 784.852 294.637Z" fill="black"/>
<path d="M680.597 267.864C680.597 267.16 680.821 266.584 681.269 266.136C681.717 265.672 682.285 265.44 682.973 265.44C683.661 265.44 684.229 265.672 684.677 266.136C685.125 266.584 685.349 267.16 685.349 267.864C685.349 268.568 685.125 269.152 684.677 269.616C684.229 270.064 683.661 270.288 682.973 270.288C682.285 270.288 681.717 270.064 681.269 269.616C680.821 269.152 680.597 268.568 680.597 267.864Z" fill="#A541F8"/>
<path d="M365 146C365 142.686 362.314 140 359 140H241C237.686 140 235 142.686 235 146V335C235 338.314 237.686 341 241 341H359C362.314 341 365 338.314 365 335V146Z" fill="#FFFAF5"/>
<path d="M365 146C365 142.686 362.314 140 359 140H241C237.686 140 235 142.686 235 146V179C235 182.314 237.686 185 241 185H359C362.314 185 365 182.314 365 179V146Z" fill="#F1F4F8"/>
<path d="M253.77 195.789H248.285V211H246.047V195.789H240.574V193.938H253.77V195.789ZM258.129 199.855C259.09 198.676 260.34 198.086 261.879 198.086C264.559 198.086 265.91 199.598 265.934 202.621V211H263.766V202.609C263.758 201.695 263.547 201.02 263.133 200.582C262.727 200.145 262.09 199.926 261.223 199.926C260.52 199.926 259.902 200.113 259.371 200.488C258.84 200.863 258.426 201.355 258.129 201.965V211H255.961V193H258.129V199.855ZM274.441 211.234C272.723 211.234 271.324 210.672 270.246 209.547C269.168 208.414 268.629 206.902 268.629 205.012V204.613C268.629 203.355 268.867 202.234 269.344 201.25C269.828 200.258 270.5 199.484 271.359 198.93C272.227 198.367 273.164 198.086 274.172 198.086C275.82 198.086 277.102 198.629 278.016 199.715C278.93 200.801 279.387 202.355 279.387 204.379V205.281H270.797C270.828 206.531 271.191 207.543 271.887 208.316C272.59 209.082 273.48 209.465 274.559 209.465C275.324 209.465 275.973 209.309 276.504 208.996C277.035 208.684 277.5 208.27 277.898 207.754L279.223 208.785C278.16 210.418 276.566 211.234 274.441 211.234ZM274.172 199.867C273.297 199.867 272.562 200.188 271.969 200.828C271.375 201.461 271.008 202.352 270.867 203.5H277.219V203.336C277.156 202.234 276.859 201.383 276.328 200.781C275.797 200.172 275.078 199.867 274.172 199.867ZM246.727 237.465C247.5 237.465 248.176 237.23 248.754 236.762C249.332 236.293 249.652 235.707 249.715 235.004H251.766C251.727 235.73 251.477 236.422 251.016 237.078C250.555 237.734 249.938 238.258 249.164 238.648C248.398 239.039 247.586 239.234 246.727 239.234C245 239.234 243.625 238.66 242.602 237.512C241.586 236.355 241.078 234.777 241.078 232.777V232.414C241.078 231.18 241.305 230.082 241.758 229.121C242.211 228.16 242.859 227.414 243.703 226.883C244.555 226.352 245.559 226.086 246.715 226.086C248.137 226.086 249.316 226.512 250.254 227.363C251.199 228.215 251.703 229.32 251.766 230.68H249.715C249.652 229.859 249.34 229.188 248.777 228.664C248.223 228.133 247.535 227.867 246.715 227.867C245.613 227.867 244.758 228.266 244.148 229.062C243.547 229.852 243.246 230.996 243.246 232.496V232.906C243.246 234.367 243.547 235.492 244.148 236.281C244.75 237.07 245.609 237.465 246.727 237.465ZM256.371 227.855C257.332 226.676 258.582 226.086 260.121 226.086C262.801 226.086 264.152 227.598 264.176 230.621V239H262.008V230.609C262 229.695 261.789 229.02 261.375 228.582C260.969 228.145 260.332 227.926 259.465 227.926C258.762 227.926 258.145 228.113 257.613 228.488C257.082 228.863 256.668 229.355 256.371 229.965V239H254.203V221H256.371V227.855ZM275.25 239C275.125 238.75 275.023 238.305 274.945 237.664C273.938 238.711 272.734 239.234 271.336 239.234C270.086 239.234 269.059 238.883 268.254 238.18C267.457 237.469 267.059 236.57 267.059 235.484C267.059 234.164 267.559 233.141 268.559 232.414C269.566 231.68 270.98 231.312 272.801 231.312H274.91V230.316C274.91 229.559 274.684 228.957 274.23 228.512C273.777 228.059 273.109 227.832 272.227 227.832C271.453 227.832 270.805 228.027 270.281 228.418C269.758 228.809 269.496 229.281 269.496 229.836H267.316C267.316 229.203 267.539 228.594 267.984 228.008C268.438 227.414 269.047 226.945 269.812 226.602C270.586 226.258 271.434 226.086 272.355 226.086C273.816 226.086 274.961 226.453 275.789 227.188C276.617 227.914 277.047 228.918 277.078 230.199V236.035C277.078 237.199 277.227 238.125 277.523 238.812V239H275.25ZM271.652 237.348C272.332 237.348 272.977 237.172 273.586 236.82C274.195 236.469 274.637 236.012 274.91 235.449V232.848H273.211C270.555 232.848 269.227 233.625 269.227 235.18C269.227 235.859 269.453 236.391 269.906 236.773C270.359 237.156 270.941 237.348 271.652 237.348ZM286.605 228.266C286.277 228.211 285.922 228.184 285.539 228.184C284.117 228.184 283.152 228.789 282.645 230V239H280.477V226.32H282.586L282.621 227.785C283.332 226.652 284.34 226.086 285.645 226.086C286.066 226.086 286.387 226.141 286.605 226.25V228.266ZM295.969 239C295.844 238.75 295.742 238.305 295.664 237.664C294.656 238.711 293.453 239.234 292.055 239.234C290.805 239.234 289.777 238.883 288.973 238.18C288.176 237.469 287.777 236.57 287.777 235.484C287.777 234.164 288.277 233.141 289.277 232.414C290.285 231.68 291.699 231.312 293.52 231.312H295.629V230.316C295.629 229.559 295.402 228.957 294.949 228.512C294.496 228.059 293.828 227.832 292.945 227.832C292.172 227.832 291.523 228.027 291 228.418C290.477 228.809 290.215 229.281 290.215 229.836H288.035C288.035 229.203 288.258 228.594 288.703 228.008C289.156 227.414 289.766 226.945 290.531 226.602C291.305 226.258 292.152 226.086 293.074 226.086C294.535 226.086 295.68 226.453 296.508 227.188C297.336 227.914 297.766 228.918 297.797 230.199V236.035C297.797 237.199 297.945 238.125 298.242 238.812V239H295.969ZM292.371 237.348C293.051 237.348 293.695 237.172 294.305 236.82C294.914 236.469 295.355 236.012 295.629 235.449V232.848H293.93C291.273 232.848 289.945 233.625 289.945 235.18C289.945 235.859 290.172 236.391 290.625 236.773C291.078 237.156 291.66 237.348 292.371 237.348ZM306.281 237.465C307.055 237.465 307.73 237.23 308.309 236.762C308.887 236.293 309.207 235.707 309.27 235.004H311.32C311.281 235.73 311.031 236.422 310.57 237.078C310.109 237.734 309.492 238.258 308.719 238.648C307.953 239.039 307.141 239.234 306.281 239.234C304.555 239.234 303.18 238.66 302.156 237.512C301.141 236.355 300.633 234.777 300.633 232.777V232.414C300.633 231.18 300.859 230.082 301.312 229.121C301.766 228.16 302.414 227.414 303.258 226.883C304.109 226.352 305.113 226.086 306.27 226.086C307.691 226.086 308.871 226.512 309.809 227.363C310.754 228.215 311.258 229.32 311.32 230.68H309.27C309.207 229.859 308.895 229.188 308.332 228.664C307.777 228.133 307.09 227.867 306.27 227.867C305.168 227.867 304.312 228.266 303.703 229.062C303.102 229.852 302.801 230.996 302.801 232.496V232.906C302.801 234.367 303.102 235.492 303.703 236.281C304.305 237.07 305.164 237.465 306.281 237.465ZM316.699 223.25V226.32H319.066V227.996H316.699V235.859C316.699 236.367 316.805 236.75 317.016 237.008C317.227 237.258 317.586 237.383 318.094 237.383C318.344 237.383 318.688 237.336 319.125 237.242V239C318.555 239.156 318 239.234 317.461 239.234C316.492 239.234 315.762 238.941 315.27 238.355C314.777 237.77 314.531 236.938 314.531 235.859V227.996H312.223V226.32H314.531V223.25H316.699ZM326.871 239.234C325.152 239.234 323.754 238.672 322.676 237.547C321.598 236.414 321.059 234.902 321.059 233.012V232.613C321.059 231.355 321.297 230.234 321.773 229.25C322.258 228.258 322.93 227.484 323.789 226.93C324.656 226.367 325.594 226.086 326.602 226.086C328.25 226.086 329.531 226.629 330.445 227.715C331.359 228.801 331.816 230.355 331.816 232.379V233.281H323.227C323.258 234.531 323.621 235.543 324.316 236.316C325.02 237.082 325.91 237.465 326.988 237.465C327.754 237.465 328.402 237.309 328.934 236.996C329.465 236.684 329.93 236.27 330.328 235.754L331.652 236.785C330.59 238.418 328.996 239.234 326.871 239.234ZM326.602 227.867C325.727 227.867 324.992 228.188 324.398 228.828C323.805 229.461 323.438 230.352 323.297 231.5H329.648V231.336C329.586 230.234 329.289 229.383 328.758 228.781C328.227 228.172 327.508 227.867 326.602 227.867ZM340.465 228.266C340.137 228.211 339.781 228.184 339.398 228.184C337.977 228.184 337.012 228.789 336.504 230V239H334.336V226.32H336.445L336.48 227.785C337.191 226.652 338.199 226.086 339.504 226.086C339.926 226.086 340.246 226.141 340.465 226.25V228.266ZM349.852 235.637C349.852 235.051 349.629 234.598 349.184 234.277C348.746 233.949 347.977 233.668 346.875 233.434C345.781 233.199 344.91 232.918 344.262 232.59C343.621 232.262 343.145 231.871 342.832 231.418C342.527 230.965 342.375 230.426 342.375 229.801C342.375 228.762 342.812 227.883 343.688 227.164C344.57 226.445 345.695 226.086 347.062 226.086C348.5 226.086 349.664 226.457 350.555 227.199C351.453 227.941 351.902 228.891 351.902 230.047H349.723C349.723 229.453 349.469 228.941 348.961 228.512C348.461 228.082 347.828 227.867 347.062 227.867C346.273 227.867 345.656 228.039 345.211 228.383C344.766 228.727 344.543 229.176 344.543 229.73C344.543 230.254 344.75 230.648 345.164 230.914C345.578 231.18 346.324 231.434 347.402 231.676C348.488 231.918 349.367 232.207 350.039 232.543C350.711 232.879 351.207 233.285 351.527 233.762C351.855 234.23 352.02 234.805 352.02 235.484C352.02 236.617 351.566 237.527 350.66 238.215C349.754 238.895 348.578 239.234 347.133 239.234C346.117 239.234 345.219 239.055 344.438 238.695C343.656 238.336 343.043 237.836 342.598 237.195C342.16 236.547 341.941 235.848 341.941 235.098H344.109C344.148 235.824 344.438 236.402 344.977 236.832C345.523 237.254 346.242 237.465 347.133 237.465C347.953 237.465 348.609 237.301 349.102 236.973C349.602 236.637 349.852 236.191 349.852 235.637ZM261.41 262.543C261.41 261.301 261.652 260.184 262.137 259.191C262.629 258.199 263.309 257.434 264.176 256.895C265.051 256.355 266.047 256.086 267.164 256.086C268.891 256.086 270.285 256.684 271.348 257.879C272.418 259.074 272.953 260.664 272.953 262.648V262.801C272.953 264.035 272.715 265.145 272.238 266.129C271.77 267.105 271.094 267.867 270.211 268.414C269.336 268.961 268.328 269.234 267.188 269.234C265.469 269.234 264.074 268.637 263.004 267.441C261.941 266.246 261.41 264.664 261.41 262.695V262.543ZM263.59 262.801C263.59 264.207 263.914 265.336 264.562 266.188C265.219 267.039 266.094 267.465 267.188 267.465C268.289 267.465 269.164 267.035 269.812 266.176C270.461 265.309 270.785 264.098 270.785 262.543C270.785 261.152 270.453 260.027 269.789 259.168C269.133 258.301 268.258 257.867 267.164 257.867C266.094 257.867 265.23 258.293 264.574 259.145C263.918 259.996 263.59 261.215 263.59 262.801ZM281.801 258.266C281.473 258.211 281.117 258.184 280.734 258.184C279.312 258.184 278.348 258.789 277.84 260V269H275.672V256.32H277.781L277.816 257.785C278.527 256.652 279.535 256.086 280.84 256.086C281.262 256.086 281.582 256.141 281.801 256.25V258.266Z" fill="black"/>
<path d="M242.088 253.304H247.368C248.232 253.304 249.024 253.384 249.744 253.544C250.48 253.704 251.112 253.976 251.64 254.36C252.184 254.744 252.6 255.248 252.888 255.872C253.192 256.48 253.344 257.24 253.344 258.152C253.344 259.016 253.192 259.768 252.888 260.408C252.584 261.048 252.16 261.584 251.616 262.016C251.088 262.432 250.456 262.744 249.72 262.952C249 263.144 248.216 263.24 247.368 263.24H244.872V269H242.088V253.304ZM247.152 261.008C249.456 261.008 250.608 260.056 250.608 258.152C250.608 257.16 250.32 256.48 249.744 256.112C249.168 255.728 248.304 255.536 247.152 255.536H244.872V261.008H247.152ZM292.869 269.96V273.656H290.085V257.216H292.365L292.581 258.56H292.653C293.165 258.096 293.749 257.712 294.405 257.408C295.077 257.088 295.749 256.928 296.421 256.928C297.189 256.928 297.869 257.072 298.461 257.36C299.069 257.632 299.573 258.032 299.973 258.56C300.389 259.088 300.701 259.72 300.909 260.456C301.133 261.192 301.245 262.016 301.245 262.928C301.245 263.936 301.101 264.84 300.813 265.64C300.525 266.424 300.133 267.088 299.637 267.632C299.157 268.16 298.597 268.568 297.957 268.856C297.333 269.144 296.685 269.288 296.013 269.288C295.469 269.288 294.909 269.168 294.333 268.928C293.773 268.688 293.253 268.344 292.773 267.896L292.869 269.96ZM292.869 265.928C293.301 266.328 293.741 266.608 294.189 266.768C294.653 266.928 295.069 267.008 295.437 267.008C296.285 267.008 296.989 266.672 297.549 266C298.109 265.312 298.389 264.296 298.389 262.952C298.389 261.768 298.173 260.848 297.741 260.192C297.309 259.536 296.613 259.208 295.653 259.208C295.205 259.208 294.749 259.32 294.285 259.544C293.821 259.768 293.349 260.128 292.869 260.624V265.928Z" fill="#B82629"/>
<path d="M272.584 150.771H279.448V152.283H274.72V169.899H279.448V171.411H272.584V150.771ZM317.796 169.899V152.283H313.092V150.771H319.956V171.411H313.092V169.899H317.796Z" fill="#219653"/>
<path d="M283.95 152.067H289.23C290.094 152.067 290.886 152.147 291.606 152.307C292.342 152.467 292.974 152.739 293.502 153.123C294.046 153.507 294.462 154.011 294.75 154.635C295.054 155.243 295.206 156.003 295.206 156.915C295.206 157.779 295.054 158.531 294.75 159.171C294.446 159.811 294.022 160.347 293.478 160.779C292.95 161.195 292.318 161.507 291.582 161.715C290.862 161.907 290.078 162.003 289.23 162.003H286.734V167.763H283.95V152.067ZM289.014 159.771C291.318 159.771 292.47 158.819 292.47 156.915C292.47 155.923 292.182 155.243 291.606 154.875C291.03 154.491 290.166 154.299 289.014 154.299H286.734V159.771H289.014ZM301.005 168.723V172.419H298.221V155.979H300.501L300.717 157.323H300.789C301.301 156.859 301.885 156.475 302.541 156.171C303.213 155.851 303.885 155.691 304.557 155.691C305.325 155.691 306.005 155.835 306.597 156.123C307.205 156.395 307.709 156.795 308.109 157.323C308.525 157.851 308.837 158.483 309.045 159.219C309.269 159.955 309.381 160.779 309.381 161.691C309.381 162.699 309.237 163.603 308.949 164.403C308.661 165.187 308.269 165.851 307.773 166.395C307.293 166.923 306.733 167.331 306.093 167.619C305.469 167.907 304.821 168.051 304.149 168.051C303.605 168.051 303.045 167.931 302.469 167.691C301.909 167.451 301.389 167.107 300.909 166.659L301.005 168.723ZM301.005 164.691C301.437 165.091 301.877 165.371 302.325 165.531C302.789 165.691 303.205 165.771 303.573 165.771C304.421 165.771 305.125 165.435 305.685 164.763C306.245 164.075 306.525 163.059 306.525 161.715C306.525 160.531 306.309 159.611 305.877 158.955C305.445 158.299 304.749 157.971 303.789 157.971C303.341 157.971 302.885 158.083 302.421 158.307C301.957 158.531 301.485 158.891 301.005 159.387V164.691Z" fill="#B82629"/>
<path d="M328 24C328 21.7909 329.791 20 332 20H693.063C695.272 20 697.063 21.7909 697.063 24V64C697.063 66.2091 695.272 68 693.063 68H332C329.791 68 328 66.2091 328 64V24Z" fill="#F1F4F8"/>
<path d="M396.383 54.8V33.3H403.558V34.875H398.633V53.225H403.558V54.8H396.383ZM438.579 54.8V53.225H443.504V34.875H438.579V33.3H445.754V54.8H438.579ZM561.276 54.8V33.3H568.451V34.875H563.526V53.225H568.451V54.8H561.276ZM618.462 54.8V53.225H623.387V34.875H618.462V33.3H625.637V54.8H618.462Z" fill="#219653"/>
<path d="M408.273 51.0001V34.6501H413.648C414.548 34.6501 415.373 34.7334 416.123 34.9001C416.89 35.0668 417.548 35.3501 418.098 35.7501C418.648 36.1501 419.082 36.6751 419.398 37.3251C419.715 37.9584 419.873 38.7501 419.873 39.7001C419.873 40.6001 419.715 41.3834 419.398 42.0501C419.082 42.7168 418.64 43.2751 418.073 43.7251C417.523 44.1584 416.865 44.4834 416.098 44.7001C415.348 44.9001 414.532 45.0001 413.648 45.0001H411.173V51.0001H408.273ZM411.173 42.6751H413.423C415.823 42.6751 417.023 41.6834 417.023 39.7001C417.023 38.6668 416.723 37.9584 416.123 37.5751C415.523 37.1751 414.623 36.9751 413.423 36.9751H411.173V42.6751ZM423.113 55.8501V38.7251H425.488L425.713 40.1251H425.788C426.322 39.6418 426.93 39.2418 427.613 38.9251C428.313 38.5918 429.013 38.4251 429.713 38.4251C430.513 38.4251 431.222 38.5751 431.838 38.8751C432.472 39.1584 432.997 39.5751 433.413 40.1251C433.847 40.6751 434.172 41.3334 434.388 42.1001C434.622 42.8668 434.738 43.7251 434.738 44.6751C434.738 45.7251 434.588 46.6668 434.288 47.5001C433.988 48.3168 433.58 49.0084 433.063 49.5751C432.563 50.1251 431.98 50.5501 431.313 50.8501C430.663 51.1501 429.988 51.3001 429.288 51.3001C428.722 51.3001 428.138 51.1751 427.538 50.9251C426.955 50.6751 426.422 50.3168 425.938 49.8501H425.863L426.013 52.0001V55.8501H423.113ZM428.688 48.9251C429.572 48.9251 430.305 48.5751 430.888 47.8751C431.472 47.1584 431.763 46.1001 431.763 44.7001C431.763 43.4668 431.538 42.5084 431.088 41.8251C430.638 41.1418 429.913 40.8001 428.913 40.8001C428.447 40.8001 427.972 40.9168 427.488 41.1501C427.005 41.3834 426.513 41.7584 426.013 42.2751V47.8001C426.463 48.2168 426.922 48.5084 427.388 48.6751C427.872 48.8418 428.305 48.9251 428.688 48.9251ZM454.469 56.0501C454.136 56.0501 453.819 56.0251 453.519 55.9751C453.219 55.9418 452.952 55.8834 452.719 55.8001L453.269 53.5501C453.436 53.6001 453.602 53.6418 453.769 53.6751C453.936 53.7084 454.111 53.7251 454.294 53.7251C455.077 53.7251 455.702 53.5251 456.169 53.1251C456.636 52.7418 456.994 52.2418 457.244 51.6251L457.544 50.8501L452.044 38.7251H454.919L457.444 44.7501C457.677 45.3001 457.902 45.8834 458.119 46.5001C458.336 47.1168 458.561 47.7334 458.794 48.3501H458.894C459.077 47.7668 459.277 47.1668 459.494 46.5501C459.711 45.9334 459.919 45.3334 460.119 44.7501L462.344 38.7251H465.069L459.944 51.5501C459.677 52.2501 459.377 52.8751 459.044 53.4251C458.727 53.9751 458.352 54.4418 457.919 54.8251C457.486 55.2251 456.986 55.5251 456.419 55.7251C455.852 55.9418 455.202 56.0501 454.469 56.0501ZM475.809 51.3001C474.876 51.3001 474.084 51.1751 473.434 50.9251C472.801 50.6751 472.284 50.3251 471.884 49.8751C471.501 49.4084 471.218 48.8501 471.034 48.2001C470.868 47.5501 470.784 46.8334 470.784 46.0501V41.0001H467.509V38.8501L470.909 38.7251L471.284 34.8751H473.659V38.7251H479.259V41.0001H473.659V46.0501C473.659 47.0668 473.868 47.8168 474.284 48.3001C474.718 48.7668 475.459 49.0001 476.509 49.0001C477.026 49.0001 477.501 48.9584 477.934 48.8751C478.368 48.7751 478.784 48.6501 479.184 48.5001L479.734 50.6001C479.184 50.7834 478.593 50.9418 477.959 51.0751C477.326 51.2251 476.609 51.3001 475.809 51.3001ZM483.074 51.0001V33.3501H485.974V37.9001L485.799 40.5251H485.874C486.408 39.9584 487.024 39.4668 487.724 39.0501C488.424 38.6334 489.249 38.4251 490.199 38.4251C491.616 38.4251 492.658 38.8584 493.324 39.7251C493.991 40.5751 494.324 41.8001 494.324 43.4001V51.0001H491.424V43.7751C491.424 42.7751 491.249 42.0501 490.899 41.6001C490.566 41.1334 489.974 40.9001 489.124 40.9001C488.524 40.9001 487.991 41.0418 487.524 41.3251C487.058 41.6084 486.541 42.0418 485.974 42.6251V51.0001H483.074ZM503.515 51.3001C502.715 51.3001 501.94 51.1584 501.19 50.8751C500.44 50.5918 499.781 50.1751 499.215 49.6251C498.648 49.0751 498.19 48.4001 497.84 47.6001C497.506 46.8001 497.34 45.8918 497.34 44.8751C497.34 43.8584 497.506 42.9501 497.84 42.1501C498.19 41.3501 498.648 40.6751 499.215 40.1251C499.781 39.5751 500.44 39.1584 501.19 38.8751C501.94 38.5751 502.715 38.4251 503.515 38.4251C504.315 38.4251 505.09 38.5751 505.84 38.8751C506.59 39.1584 507.248 39.5751 507.815 40.1251C508.381 40.6751 508.831 41.3501 509.165 42.1501C509.515 42.9501 509.69 43.8584 509.69 44.8751C509.69 45.8918 509.515 46.8001 509.165 47.6001C508.831 48.4001 508.381 49.0751 507.815 49.6251C507.248 50.1751 506.59 50.5918 505.84 50.8751C505.09 51.1584 504.315 51.3001 503.515 51.3001ZM503.515 48.9501C504.515 48.9501 505.298 48.5834 505.865 47.8501C506.431 47.1001 506.715 46.1084 506.715 44.8751C506.715 43.6251 506.431 42.6334 505.865 41.9001C505.298 41.1501 504.515 40.7751 503.515 40.7751C502.515 40.7751 501.731 41.1501 501.165 41.9001C500.598 42.6334 500.315 43.6251 500.315 44.8751C500.315 46.1084 500.598 47.1001 501.165 47.8501C501.731 48.5834 502.515 48.9501 503.515 48.9501ZM513.055 51.0001V38.7251H515.43L515.655 40.5751H515.755C516.338 39.9918 516.98 39.4918 517.68 39.0751C518.397 38.6418 519.23 38.4251 520.18 38.4251C521.597 38.4251 522.638 38.8584 523.305 39.7251C523.972 40.5751 524.305 41.8001 524.305 43.4001V51.0001H521.405V43.7751C521.405 42.7751 521.23 42.0501 520.88 41.6001C520.547 41.1334 519.955 40.9001 519.105 40.9001C518.505 40.9001 517.972 41.0418 517.505 41.3251C517.038 41.6084 516.522 42.0418 515.955 42.6251V51.0001H513.055Z" fill="#B82629"/>
<path d="M546.735 44.9C546.635 44.3333 546.66 43.825 546.81 43.375C546.96 42.925 547.169 42.5167 547.435 42.15C547.702 41.7833 548.01 41.45 548.36 41.15C548.71 40.8333 549.035 40.5249 549.335 40.2249C549.635 39.9249 549.885 39.625 550.085 39.325C550.302 39.0083 550.41 38.6666 550.41 38.2999C550.41 37.6999 550.202 37.2166 549.785 36.8499C549.385 36.4832 548.827 36.2999 548.11 36.2999C547.527 36.2999 547.002 36.4167 546.535 36.65C546.069 36.8833 545.627 37.1999 545.21 37.5999L543.585 36.0999C544.169 35.4666 544.852 34.9499 545.635 34.5499C546.419 34.1499 547.31 33.95 548.31 33.95C549.01 33.95 549.66 34.0416 550.26 34.2249C550.86 34.3916 551.377 34.65 551.81 35C552.244 35.3333 552.577 35.75 552.81 36.25C553.06 36.7333 553.185 37.3 553.185 37.95C553.185 38.5 553.077 38.9916 552.86 39.4249C552.66 39.8416 552.402 40.225 552.085 40.575C551.769 40.9083 551.427 41.2332 551.06 41.5499C550.71 41.8499 550.394 42.1667 550.11 42.5C549.827 42.8167 549.594 43.175 549.41 43.575C549.244 43.9583 549.194 44.4 549.26 44.9H546.735ZM548.135 51.2999C547.519 51.2999 547.002 51.1 546.585 50.7C546.169 50.2833 545.96 49.7332 545.96 49.0499C545.96 48.3832 546.169 47.85 546.585 47.45C547.002 47.05 547.519 46.8499 548.135 46.8499C548.752 46.8499 549.269 47.05 549.685 47.45C550.102 47.85 550.31 48.3832 550.31 49.0499C550.31 49.7332 550.102 50.2833 549.685 50.7C549.269 51.1 548.752 51.2999 548.135 51.2999ZM637.327 48.525V43.7999H632.877V41.7H637.327V36.9749H639.527V41.7H643.977V43.7999H639.527V48.525H637.327Z" fill="#56CCF2"/>
<path d="M581.341 55L573.116 33.25H575.591L583.816 55H581.341ZM592.531 51.3C591.748 51.3 591.031 51.1583 590.381 50.875C589.731 50.575 589.173 50.15 588.706 49.6C588.256 49.05 587.906 48.3833 587.656 47.6C587.406 46.8 587.281 45.8917 587.281 44.875C587.281 43.875 587.431 42.975 587.731 42.175C588.031 41.375 588.431 40.7 588.931 40.15C589.448 39.6 590.031 39.175 590.681 38.875C591.331 38.575 592.006 38.425 592.706 38.425C593.406 38.425 594.023 38.55 594.556 38.8C595.089 39.05 595.598 39.4083 596.081 39.875H596.156L596.006 37.8V33.35H598.906V51H596.531L596.306 49.575H596.231C595.748 50.0583 595.181 50.4667 594.531 50.8C593.898 51.1333 593.231 51.3 592.531 51.3ZM593.231 48.925C594.248 48.925 595.173 48.4333 596.006 47.45V41.925C595.573 41.5083 595.139 41.2167 594.706 41.05C594.273 40.8833 593.831 40.8 593.381 40.8C592.948 40.8 592.539 40.8917 592.156 41.075C591.789 41.2583 591.464 41.525 591.181 41.875C590.898 42.2083 590.673 42.625 590.506 43.125C590.339 43.625 590.256 44.2 590.256 44.85C590.256 46.1833 590.514 47.2 591.031 47.9C591.548 48.5833 592.281 48.925 593.231 48.925Z" fill="#0072B2"/>
<path d="M608.446 51.3C607.73 51.3 607.138 51.0667 606.671 50.6C606.205 50.1167 605.971 49.5083 605.971 48.775C605.971 48.0417 606.205 47.4417 606.671 46.975C607.138 46.4917 607.73 46.25 608.446 46.25C609.163 46.25 609.755 46.4917 610.221 46.975C610.688 47.4417 610.921 48.0417 610.921 48.775C610.921 49.5083 610.688 50.1167 610.221 50.6C609.755 51.0667 609.163 51.3 608.446 51.3Z" fill="#A541F8"/>
<path d="M772.376 166.525V161.8H767.926V159.7H772.376V154.975H774.576V159.7H779.026V161.8H774.576V166.525H772.376Z" fill="#56CCF2"/>
<path d="M696.324 172.8V151.3H703.499V152.875H698.574V171.225H703.499V172.8H696.324ZM753.51 172.8V171.225H758.435V152.875H753.51V151.3H760.685V172.8H753.51Z" fill="#219653"/>
<path d="M716.39 173L708.165 151.25H710.64L718.865 173H716.39ZM727.58 169.3C726.797 169.3 726.08 169.158 725.43 168.875C724.78 168.575 724.222 168.15 723.755 167.6C723.305 167.05 722.955 166.383 722.705 165.6C722.455 164.8 722.33 163.892 722.33 162.875C722.33 161.875 722.48 160.975 722.78 160.175C723.08 159.375 723.48 158.7 723.98 158.15C724.497 157.6 725.08 157.175 725.73 156.875C726.38 156.575 727.055 156.425 727.755 156.425C728.455 156.425 729.072 156.55 729.605 156.8C730.138 157.05 730.647 157.408 731.13 157.875H731.205L731.055 155.8V151.35H733.955V169H731.58L731.355 167.575H731.28C730.797 168.058 730.23 168.467 729.58 168.8C728.947 169.133 728.28 169.3 727.58 169.3ZM728.28 166.925C729.297 166.925 730.222 166.433 731.055 165.45V159.925C730.622 159.508 730.188 159.217 729.755 159.05C729.322 158.883 728.88 158.8 728.43 158.8C727.997 158.8 727.588 158.892 727.205 159.075C726.838 159.258 726.513 159.525 726.23 159.875C725.947 160.208 725.722 160.625 725.555 161.125C725.388 161.625 725.305 162.2 725.305 162.85C725.305 164.183 725.563 165.2 726.08 165.9C726.597 166.583 727.33 166.925 728.28 166.925Z" fill="#0072B2"/>
<path d="M743.495 169.3C742.778 169.3 742.187 169.067 741.72 168.6C741.253 168.117 741.02 167.508 741.02 166.775C741.02 166.042 741.253 165.442 741.72 164.975C742.187 164.492 742.778 164.25 743.495 164.25C744.212 164.25 744.803 164.492 745.27 164.975C745.737 165.442 745.97 166.042 745.97 166.775C745.97 167.508 745.737 168.117 745.27 168.6C744.803 169.067 744.212 169.3 743.495 169.3Z" fill="#A541F8"/>
<path d="M544.391 203.465H537.23V211H534.98V193.938H545.551V195.789H537.23V201.625H544.391V203.465ZM547.074 204.543C547.074 203.301 547.316 202.184 547.801 201.191C548.293 200.199 548.973 199.434 549.84 198.895C550.715 198.355 551.711 198.086 552.828 198.086C554.555 198.086 555.949 198.684 557.012 199.879C558.082 201.074 558.617 202.664 558.617 204.648V204.801C558.617 206.035 558.379 207.145 557.902 208.129C557.434 209.105 556.758 209.867 555.875 210.414C555 210.961 553.992 211.234 552.852 211.234C551.133 211.234 549.738 210.637 548.668 209.441C547.605 208.246 547.074 206.664 547.074 204.695V204.543ZM549.254 204.801C549.254 206.207 549.578 207.336 550.227 208.188C550.883 209.039 551.758 209.465 552.852 209.465C553.953 209.465 554.828 209.035 555.477 208.176C556.125 207.309 556.449 206.098 556.449 204.543C556.449 203.152 556.117 202.027 555.453 201.168C554.797 200.301 553.922 199.867 552.828 199.867C551.758 199.867 550.895 200.293 550.238 201.145C549.582 201.996 549.254 203.215 549.254 204.801ZM563.691 211H561.523V193H563.691V211ZM569.527 211H567.359V193H569.527V211ZM572.434 204.543C572.434 203.301 572.676 202.184 573.16 201.191C573.652 200.199 574.332 199.434 575.199 198.895C576.074 198.355 577.07 198.086 578.188 198.086C579.914 198.086 581.309 198.684 582.371 199.879C583.441 201.074 583.977 202.664 583.977 204.648V204.801C583.977 206.035 583.738 207.145 583.262 208.129C582.793 209.105 582.117 209.867 581.234 210.414C580.359 210.961 579.352 211.234 578.211 211.234C576.492 211.234 575.098 210.637 574.027 209.441C572.965 208.246 572.434 206.664 572.434 204.695V204.543ZM574.613 204.801C574.613 206.207 574.938 207.336 575.586 208.188C576.242 209.039 577.117 209.465 578.211 209.465C579.312 209.465 580.188 209.035 580.836 208.176C581.484 207.309 581.809 206.098 581.809 204.543C581.809 203.152 581.477 202.027 580.812 201.168C580.156 200.301 579.281 199.867 578.188 199.867C577.117 199.867 576.254 200.293 575.598 201.145C574.941 201.996 574.613 203.215 574.613 204.801ZM597.922 208.012L600.359 198.32H602.527L598.836 211H597.078L593.996 201.391L590.996 211H589.238L585.559 198.32H587.715L590.211 207.812L593.164 198.32H594.91L597.922 208.012ZM610.004 211.234C608.285 211.234 606.887 210.672 605.809 209.547C604.73 208.414 604.191 206.902 604.191 205.012V204.613C604.191 203.355 604.43 202.234 604.906 201.25C605.391 200.258 606.062 199.484 606.922 198.93C607.789 198.367 608.727 198.086 609.734 198.086C611.383 198.086 612.664 198.629 613.578 199.715C614.492 200.801 614.949 202.355 614.949 204.379V205.281H606.359C606.391 206.531 606.754 207.543 607.449 208.316C608.152 209.082 609.043 209.465 610.121 209.465C610.887 209.465 611.535 209.309 612.066 208.996C612.598 208.684 613.062 208.27 613.461 207.754L614.785 208.785C613.723 210.418 612.129 211.234 610.004 211.234ZM609.734 199.867C608.859 199.867 608.125 200.188 607.531 200.828C606.938 201.461 606.57 202.352 606.43 203.5H612.781V203.336C612.719 202.234 612.422 201.383 611.891 200.781C611.359 200.172 610.641 199.867 609.734 199.867ZM616.941 204.555C616.941 202.609 617.402 201.047 618.324 199.867C619.246 198.68 620.453 198.086 621.945 198.086C623.43 198.086 624.605 198.594 625.473 199.609V193H627.641V211H625.648L625.543 209.641C624.676 210.703 623.469 211.234 621.922 211.234C620.453 211.234 619.254 210.633 618.324 209.43C617.402 208.227 616.941 206.656 616.941 204.719V204.555ZM619.109 204.801C619.109 206.238 619.406 207.363 620 208.176C620.594 208.988 621.414 209.395 622.461 209.395C623.836 209.395 624.84 208.777 625.473 207.543V201.719C624.824 200.523 623.828 199.926 622.484 199.926C621.422 199.926 620.594 200.336 620 201.156C619.406 201.977 619.109 203.191 619.109 204.801ZM545.375 232.801C545.375 234.738 544.93 236.297 544.039 237.477C543.148 238.648 541.953 239.234 540.453 239.234C538.852 239.234 537.613 238.668 536.738 237.535L536.633 239H534.641V221H536.809V227.715C537.684 226.629 538.891 226.086 540.43 226.086C541.969 226.086 543.176 226.668 544.051 227.832C544.934 228.996 545.375 230.59 545.375 232.613V232.801ZM543.207 232.555C543.207 231.078 542.922 229.938 542.352 229.133C541.781 228.328 540.961 227.926 539.891 227.926C538.461 227.926 537.434 228.59 536.809 229.918V235.402C537.473 236.73 538.508 237.395 539.914 237.395C540.953 237.395 541.762 236.992 542.34 236.188C542.918 235.383 543.207 234.172 543.207 232.555ZM552.125 235.824L555.078 226.32H557.398L552.301 240.957C551.512 243.066 550.258 244.121 548.539 244.121L548.129 244.086L547.32 243.934V242.176L547.906 242.223C548.641 242.223 549.211 242.074 549.617 241.777C550.031 241.48 550.371 240.938 550.637 240.148L551.117 238.859L546.594 226.32H548.961L552.125 235.824ZM573.125 239C573 238.75 572.898 238.305 572.82 237.664C571.812 238.711 570.609 239.234 569.211 239.234C567.961 239.234 566.934 238.883 566.129 238.18C565.332 237.469 564.934 236.57 564.934 235.484C564.934 234.164 565.434 233.141 566.434 232.414C567.441 231.68 568.855 231.312 570.676 231.312H572.785V230.316C572.785 229.559 572.559 228.957 572.105 228.512C571.652 228.059 570.984 227.832 570.102 227.832C569.328 227.832 568.68 228.027 568.156 228.418C567.633 228.809 567.371 229.281 567.371 229.836H565.191C565.191 229.203 565.414 228.594 565.859 228.008C566.312 227.414 566.922 226.945 567.688 226.602C568.461 226.258 569.309 226.086 570.23 226.086C571.691 226.086 572.836 226.453 573.664 227.188C574.492 227.914 574.922 228.918 574.953 230.199V236.035C574.953 237.199 575.102 238.125 575.398 238.812V239H573.125ZM569.527 237.348C570.207 237.348 570.852 237.172 571.461 236.82C572.07 236.469 572.512 236.012 572.785 235.449V232.848H571.086C568.43 232.848 567.102 233.625 567.102 235.18C567.102 235.859 567.328 236.391 567.781 236.773C568.234 237.156 568.816 237.348 569.527 237.348ZM591.688 235.637C591.688 235.051 591.465 234.598 591.02 234.277C590.582 233.949 589.812 233.668 588.711 233.434C587.617 233.199 586.746 232.918 586.098 232.59C585.457 232.262 584.98 231.871 584.668 231.418C584.363 230.965 584.211 230.426 584.211 229.801C584.211 228.762 584.648 227.883 585.523 227.164C586.406 226.445 587.531 226.086 588.898 226.086C590.336 226.086 591.5 226.457 592.391 227.199C593.289 227.941 593.738 228.891 593.738 230.047H591.559C591.559 229.453 591.305 228.941 590.797 228.512C590.297 228.082 589.664 227.867 588.898 227.867C588.109 227.867 587.492 228.039 587.047 228.383C586.602 228.727 586.379 229.176 586.379 229.73C586.379 230.254 586.586 230.648 587 230.914C587.414 231.18 588.16 231.434 589.238 231.676C590.324 231.918 591.203 232.207 591.875 232.543C592.547 232.879 593.043 233.285 593.363 233.762C593.691 234.23 593.855 234.805 593.855 235.484C593.855 236.617 593.402 237.527 592.496 238.215C591.59 238.895 590.414 239.234 588.969 239.234C587.953 239.234 587.055 239.055 586.273 238.695C585.492 238.336 584.879 237.836 584.434 237.195C583.996 236.547 583.777 235.848 583.777 235.098H585.945C585.984 235.824 586.273 236.402 586.812 236.832C587.359 237.254 588.078 237.465 588.969 237.465C589.789 237.465 590.445 237.301 590.938 236.973C591.438 236.637 591.688 236.191 591.688 235.637ZM607.391 232.801C607.391 234.73 606.949 236.285 606.066 237.465C605.184 238.645 603.988 239.234 602.48 239.234C600.941 239.234 599.73 238.746 598.848 237.77V243.875H596.68V226.32H598.66L598.766 227.727C599.648 226.633 600.875 226.086 602.445 226.086C603.969 226.086 605.172 226.66 606.055 227.809C606.945 228.957 607.391 230.555 607.391 232.602V232.801ZM605.223 232.555C605.223 231.125 604.918 229.996 604.309 229.168C603.699 228.34 602.863 227.926 601.801 227.926C600.488 227.926 599.504 228.508 598.848 229.672V235.73C599.496 236.887 600.488 237.465 601.824 237.465C602.863 237.465 603.688 237.055 604.297 236.234C604.914 235.406 605.223 234.18 605.223 232.555ZM617.984 239C617.859 238.75 617.758 238.305 617.68 237.664C616.672 238.711 615.469 239.234 614.07 239.234C612.82 239.234 611.793 238.883 610.988 238.18C610.191 237.469 609.793 236.57 609.793 235.484C609.793 234.164 610.293 233.141 611.293 232.414C612.301 231.68 613.715 231.312 615.535 231.312H617.645V230.316C617.645 229.559 617.418 228.957 616.965 228.512C616.512 228.059 615.844 227.832 614.961 227.832C614.188 227.832 613.539 228.027 613.016 228.418C612.492 228.809 612.23 229.281 612.23 229.836H610.051C610.051 229.203 610.273 228.594 610.719 228.008C611.172 227.414 611.781 226.945 612.547 226.602C613.32 226.258 614.168 226.086 615.09 226.086C616.551 226.086 617.695 226.453 618.523 227.188C619.352 227.914 619.781 228.918 619.812 230.199V236.035C619.812 237.199 619.961 238.125 620.258 238.812V239H617.984ZM614.387 237.348C615.066 237.348 615.711 237.172 616.32 236.82C616.93 236.469 617.371 236.012 617.645 235.449V232.848H615.945C613.289 232.848 611.961 233.625 611.961 235.18C611.961 235.859 612.188 236.391 612.641 236.773C613.094 237.156 613.676 237.348 614.387 237.348ZM628.297 237.465C629.07 237.465 629.746 237.23 630.324 236.762C630.902 236.293 631.223 235.707 631.285 235.004H633.336C633.297 235.73 633.047 236.422 632.586 237.078C632.125 237.734 631.508 238.258 630.734 238.648C629.969 239.039 629.156 239.234 628.297 239.234C626.57 239.234 625.195 238.66 624.172 237.512C623.156 236.355 622.648 234.777 622.648 232.777V232.414C622.648 231.18 622.875 230.082 623.328 229.121C623.781 228.16 624.43 227.414 625.273 226.883C626.125 226.352 627.129 226.086 628.285 226.086C629.707 226.086 630.887 226.512 631.824 227.363C632.77 228.215 633.273 229.32 633.336 230.68H631.285C631.223 229.859 630.91 229.188 630.348 228.664C629.793 228.133 629.105 227.867 628.285 227.867C627.184 227.867 626.328 228.266 625.719 229.062C625.117 229.852 624.816 230.996 624.816 232.496V232.906C624.816 234.367 625.117 235.492 625.719 236.281C626.32 237.07 627.18 237.465 628.297 237.465ZM641.035 239.234C639.316 239.234 637.918 238.672 636.84 237.547C635.762 236.414 635.223 234.902 635.223 233.012V232.613C635.223 231.355 635.461 230.234 635.938 229.25C636.422 228.258 637.094 227.484 637.953 226.93C638.82 226.367 639.758 226.086 640.766 226.086C642.414 226.086 643.695 226.629 644.609 227.715C645.523 228.801 645.98 230.355 645.98 232.379V233.281H637.391C637.422 234.531 637.785 235.543 638.48 236.316C639.184 237.082 640.074 237.465 641.152 237.465C641.918 237.465 642.566 237.309 643.098 236.996C643.629 236.684 644.094 236.27 644.492 235.754L645.816 236.785C644.754 238.418 643.16 239.234 641.035 239.234ZM640.766 227.867C639.891 227.867 639.156 228.188 638.562 228.828C637.969 229.461 637.602 230.352 637.461 231.5H643.812V231.336C643.75 230.234 643.453 229.383 642.922 228.781C642.391 228.172 641.672 227.867 640.766 227.867ZM539.727 265.465C540.5 265.465 541.176 265.23 541.754 264.762C542.332 264.293 542.652 263.707 542.715 263.004H544.766C544.727 263.73 544.477 264.422 544.016 265.078C543.555 265.734 542.938 266.258 542.164 266.648C541.398 267.039 540.586 267.234 539.727 267.234C538 267.234 536.625 266.66 535.602 265.512C534.586 264.355 534.078 262.777 534.078 260.777V260.414C534.078 259.18 534.305 258.082 534.758 257.121C535.211 256.16 535.859 255.414 536.703 254.883C537.555 254.352 538.559 254.086 539.715 254.086C541.137 254.086 542.316 254.512 543.254 255.363C544.199 256.215 544.703 257.32 544.766 258.68H542.715C542.652 257.859 542.34 257.188 541.777 256.664C541.223 256.133 540.535 255.867 539.715 255.867C538.613 255.867 537.758 256.266 537.148 257.062C536.547 257.852 536.246 258.996 536.246 260.496V260.906C536.246 262.367 536.547 263.492 537.148 264.281C537.75 265.07 538.609 265.465 539.727 265.465ZM549.371 255.855C550.332 254.676 551.582 254.086 553.121 254.086C555.801 254.086 557.152 255.598 557.176 258.621V267H555.008V258.609C555 257.695 554.789 257.02 554.375 256.582C553.969 256.145 553.332 255.926 552.465 255.926C551.762 255.926 551.145 256.113 550.613 256.488C550.082 256.863 549.668 257.355 549.371 257.965V267H547.203V249H549.371V255.855ZM568.25 267C568.125 266.75 568.023 266.305 567.945 265.664C566.938 266.711 565.734 267.234 564.336 267.234C563.086 267.234 562.059 266.883 561.254 266.18C560.457 265.469 560.059 264.57 560.059 263.484C560.059 262.164 560.559 261.141 561.559 260.414C562.566 259.68 563.98 259.312 565.801 259.312H567.91V258.316C567.91 257.559 567.684 256.957 567.23 256.512C566.777 256.059 566.109 255.832 565.227 255.832C564.453 255.832 563.805 256.027 563.281 256.418C562.758 256.809 562.496 257.281 562.496 257.836H560.316C560.316 257.203 560.539 256.594 560.984 256.008C561.438 255.414 562.047 254.945 562.812 254.602C563.586 254.258 564.434 254.086 565.355 254.086C566.816 254.086 567.961 254.453 568.789 255.188C569.617 255.914 570.047 256.918 570.078 258.199V264.035C570.078 265.199 570.227 266.125 570.523 266.812V267H568.25ZM564.652 265.348C565.332 265.348 565.977 265.172 566.586 264.82C567.195 264.469 567.637 264.012 567.91 263.449V260.848H566.211C563.555 260.848 562.227 261.625 562.227 263.18C562.227 263.859 562.453 264.391 562.906 264.773C563.359 265.156 563.941 265.348 564.652 265.348ZM579.605 256.266C579.277 256.211 578.922 256.184 578.539 256.184C577.117 256.184 576.152 256.789 575.645 258V267H573.477V254.32H575.586L575.621 255.785C576.332 254.652 577.34 254.086 578.645 254.086C579.066 254.086 579.387 254.141 579.605 254.25V256.266ZM588.969 267C588.844 266.75 588.742 266.305 588.664 265.664C587.656 266.711 586.453 267.234 585.055 267.234C583.805 267.234 582.777 266.883 581.973 266.18C581.176 265.469 580.777 264.57 580.777 263.484C580.777 262.164 581.277 261.141 582.277 260.414C583.285 259.68 584.699 259.312 586.52 259.312H588.629V258.316C588.629 257.559 588.402 256.957 587.949 256.512C587.496 256.059 586.828 255.832 585.945 255.832C585.172 255.832 584.523 256.027 584 256.418C583.477 256.809 583.215 257.281 583.215 257.836H581.035C581.035 257.203 581.258 256.594 581.703 256.008C582.156 255.414 582.766 254.945 583.531 254.602C584.305 254.258 585.152 254.086 586.074 254.086C587.535 254.086 588.68 254.453 589.508 255.188C590.336 255.914 590.766 256.918 590.797 258.199V264.035C590.797 265.199 590.945 266.125 591.242 266.812V267H588.969ZM585.371 265.348C586.051 265.348 586.695 265.172 587.305 264.82C587.914 264.469 588.355 264.012 588.629 263.449V260.848H586.93C584.273 260.848 582.945 261.625 582.945 263.18C582.945 263.859 583.172 264.391 583.625 264.773C584.078 265.156 584.66 265.348 585.371 265.348ZM599.281 265.465C600.055 265.465 600.73 265.23 601.309 264.762C601.887 264.293 602.207 263.707 602.27 263.004H604.32C604.281 263.73 604.031 264.422 603.57 265.078C603.109 265.734 602.492 266.258 601.719 266.648C600.953 267.039 600.141 267.234 599.281 267.234C597.555 267.234 596.18 266.66 595.156 265.512C594.141 264.355 593.633 262.777 593.633 260.777V260.414C593.633 259.18 593.859 258.082 594.312 257.121C594.766 256.16 595.414 255.414 596.258 254.883C597.109 254.352 598.113 254.086 599.27 254.086C600.691 254.086 601.871 254.512 602.809 255.363C603.754 256.215 604.258 257.32 604.32 258.68H602.27C602.207 257.859 601.895 257.188 601.332 256.664C600.777 256.133 600.09 255.867 599.27 255.867C598.168 255.867 597.312 256.266 596.703 257.062C596.102 257.852 595.801 258.996 595.801 260.496V260.906C595.801 262.367 596.102 263.492 596.703 264.281C597.305 265.07 598.164 265.465 599.281 265.465ZM609.699 251.25V254.32H612.066V255.996H609.699V263.859C609.699 264.367 609.805 264.75 610.016 265.008C610.227 265.258 610.586 265.383 611.094 265.383C611.344 265.383 611.688 265.336 612.125 265.242V267C611.555 267.156 611 267.234 610.461 267.234C609.492 267.234 608.762 266.941 608.27 266.355C607.777 265.77 607.531 264.938 607.531 263.859V255.996H605.223V254.32H607.531V251.25H609.699ZM619.871 267.234C618.152 267.234 616.754 266.672 615.676 265.547C614.598 264.414 614.059 262.902 614.059 261.012V260.613C614.059 259.355 614.297 258.234 614.773 257.25C615.258 256.258 615.93 255.484 616.789 254.93C617.656 254.367 618.594 254.086 619.602 254.086C621.25 254.086 622.531 254.629 623.445 255.715C624.359 256.801 624.816 258.355 624.816 260.379V261.281H616.227C616.258 262.531 616.621 263.543 617.316 264.316C618.02 265.082 618.91 265.465 619.988 265.465C620.754 265.465 621.402 265.309 621.934 264.996C622.465 264.684 622.93 264.27 623.328 263.754L624.652 264.785C623.59 266.418 621.996 267.234 619.871 267.234ZM619.602 255.867C618.727 255.867 617.992 256.188 617.398 256.828C616.805 257.461 616.438 258.352 616.297 259.5H622.648V259.336C622.586 258.234 622.289 257.383 621.758 256.781C621.227 256.172 620.508 255.867 619.602 255.867ZM633.465 256.266C633.137 256.211 632.781 256.184 632.398 256.184C630.977 256.184 630.012 256.789 629.504 258V267H627.336V254.32H629.445L629.48 255.785C630.191 254.652 631.199 254.086 632.504 254.086C632.926 254.086 633.246 254.141 633.465 254.25V256.266ZM534.066 288.543C534.066 287.301 534.309 286.184 534.793 285.191C535.285 284.199 535.965 283.434 536.832 282.895C537.707 282.355 538.703 282.086 539.82 282.086C541.547 282.086 542.941 282.684 544.004 283.879C545.074 285.074 545.609 286.664 545.609 288.648V288.801C545.609 290.035 545.371 291.145 544.895 292.129C544.426 293.105 543.75 293.867 542.867 294.414C541.992 294.961 540.984 295.234 539.844 295.234C538.125 295.234 536.73 294.637 535.66 293.441C534.598 292.246 534.066 290.664 534.066 288.695V288.543ZM536.246 288.801C536.246 290.207 536.57 291.336 537.219 292.188C537.875 293.039 538.75 293.465 539.844 293.465C540.945 293.465 541.82 293.035 542.469 292.176C543.117 291.309 543.441 290.098 543.441 288.543C543.441 287.152 543.109 286.027 542.445 285.168C541.789 284.301 540.914 283.867 539.82 283.867C538.75 283.867 537.887 284.293 537.23 285.145C536.574 285.996 536.246 287.215 536.246 288.801ZM554.457 284.266C554.129 284.211 553.773 284.184 553.391 284.184C551.969 284.184 551.004 284.789 550.496 286V295H548.328V282.32H550.438L550.473 283.785C551.184 282.652 552.191 282.086 553.496 282.086C553.918 282.086 554.238 282.141 554.457 282.25V284.266ZM564.465 282.32L564.535 283.914C565.504 282.695 566.77 282.086 568.332 282.086C571.012 282.086 572.363 283.598 572.387 286.621V295H570.219V286.609C570.211 285.695 570 285.02 569.586 284.582C569.18 284.145 568.543 283.926 567.676 283.926C566.973 283.926 566.355 284.113 565.824 284.488C565.293 284.863 564.879 285.355 564.582 285.965V295H562.414V282.32H564.465ZM575.082 288.543C575.082 287.301 575.324 286.184 575.809 285.191C576.301 284.199 576.98 283.434 577.848 282.895C578.723 282.355 579.719 282.086 580.836 282.086C582.562 282.086 583.957 282.684 585.02 283.879C586.09 285.074 586.625 286.664 586.625 288.648V288.801C586.625 290.035 586.387 291.145 585.91 292.129C585.441 293.105 584.766 293.867 583.883 294.414C583.008 294.961 582 295.234 580.859 295.234C579.141 295.234 577.746 294.637 576.676 293.441C575.613 292.246 575.082 290.664 575.082 288.695V288.543ZM577.262 288.801C577.262 290.207 577.586 291.336 578.234 292.188C578.891 293.039 579.766 293.465 580.859 293.465C581.961 293.465 582.836 293.035 583.484 292.176C584.133 291.309 584.457 290.098 584.457 288.543C584.457 287.152 584.125 286.027 583.461 285.168C582.805 284.301 581.93 283.867 580.836 283.867C579.766 283.867 578.902 284.293 578.246 285.145C577.59 285.996 577.262 287.215 577.262 288.801ZM592.285 279.25V282.32H594.652V283.996H592.285V291.859C592.285 292.367 592.391 292.75 592.602 293.008C592.812 293.258 593.172 293.383 593.68 293.383C593.93 293.383 594.273 293.336 594.711 293.242V295C594.141 295.156 593.586 295.234 593.047 295.234C592.078 295.234 591.348 294.941 590.855 294.355C590.363 293.77 590.117 292.938 590.117 291.859V283.996H587.809V282.32H590.117V279.25H592.285ZM599.363 283.855C600.324 282.676 601.574 282.086 603.113 282.086C605.793 282.086 607.145 283.598 607.168 286.621V295H605V286.609C604.992 285.695 604.781 285.02 604.367 284.582C603.961 284.145 603.324 283.926 602.457 283.926C601.754 283.926 601.137 284.113 600.605 284.488C600.074 284.863 599.66 285.355 599.363 285.965V295H597.195V277H599.363V283.855ZM612.77 295H610.602V282.32H612.77V295ZM610.426 278.957C610.426 278.605 610.531 278.309 610.742 278.066C610.961 277.824 611.281 277.703 611.703 277.703C612.125 277.703 612.445 277.824 612.664 278.066C612.883 278.309 612.992 278.605 612.992 278.957C612.992 279.309 612.883 279.602 612.664 279.836C612.445 280.07 612.125 280.188 611.703 280.188C611.281 280.188 610.961 280.07 610.742 279.836C610.531 279.602 610.426 279.309 610.426 278.957ZM618.301 282.32L618.371 283.914C619.34 282.695 620.605 282.086 622.168 282.086C624.848 282.086 626.199 283.598 626.223 286.621V295H624.055V286.609C624.047 285.695 623.836 285.02 623.422 284.582C623.016 284.145 622.379 283.926 621.512 283.926C620.809 283.926 620.191 284.113 619.66 284.488C619.129 284.863 618.715 285.355 618.418 285.965V295H616.25V282.32H618.301ZM628.977 288.555C628.977 286.578 629.434 285.008 630.348 283.844C631.262 282.672 632.473 282.086 633.98 282.086C635.527 282.086 636.734 282.633 637.602 283.727L637.707 282.32H639.688V294.695C639.688 296.336 639.199 297.629 638.223 298.574C637.254 299.52 635.949 299.992 634.309 299.992C633.395 299.992 632.5 299.797 631.625 299.406C630.75 299.016 630.082 298.48 629.621 297.801L630.746 296.5C631.676 297.648 632.812 298.223 634.156 298.223C635.211 298.223 636.031 297.926 636.617 297.332C637.211 296.738 637.508 295.902 637.508 294.824V293.734C636.641 294.734 635.457 295.234 633.957 295.234C632.473 295.234 631.27 294.637 630.348 293.441C629.434 292.246 628.977 290.617 628.977 288.555ZM631.156 288.801C631.156 290.23 631.449 291.355 632.035 292.176C632.621 292.988 633.441 293.395 634.496 293.395C635.863 293.395 636.867 292.773 637.508 291.531V285.742C636.844 284.531 635.848 283.926 634.52 283.926C633.465 283.926 632.641 284.336 632.047 285.156C631.453 285.977 631.156 287.191 631.156 288.801ZM542.469 323C542.344 322.75 542.242 322.305 542.164 321.664C541.156 322.711 539.953 323.234 538.555 323.234C537.305 323.234 536.277 322.883 535.473 322.18C534.676 321.469 534.277 320.57 534.277 319.484C534.277 318.164 534.777 317.141 535.777 316.414C536.785 315.68 538.199 315.312 540.02 315.312H542.129V314.316C542.129 313.559 541.902 312.957 541.449 312.512C540.996 312.059 540.328 311.832 539.445 311.832C538.672 311.832 538.023 312.027 537.5 312.418C536.977 312.809 536.715 313.281 536.715 313.836H534.535C534.535 313.203 534.758 312.594 535.203 312.008C535.656 311.414 536.266 310.945 537.031 310.602C537.805 310.258 538.652 310.086 539.574 310.086C541.035 310.086 542.18 310.453 543.008 311.188C543.836 311.914 544.266 312.918 544.297 314.199V320.035C544.297 321.199 544.445 322.125 544.742 322.812V323H542.469ZM538.871 321.348C539.551 321.348 540.195 321.172 540.805 320.82C541.414 320.469 541.855 320.012 542.129 319.449V316.848H540.43C537.773 316.848 536.445 317.625 536.445 319.18C536.445 319.859 536.672 320.391 537.125 320.773C537.578 321.156 538.16 321.348 538.871 321.348ZM550.637 307.25V310.32H553.004V311.996H550.637V319.859C550.637 320.367 550.742 320.75 550.953 321.008C551.164 321.258 551.523 321.383 552.031 321.383C552.281 321.383 552.625 321.336 553.062 321.242V323C552.492 323.156 551.938 323.234 551.398 323.234C550.43 323.234 549.699 322.941 549.207 322.355C548.715 321.77 548.469 320.938 548.469 319.859V311.996H546.16V310.32H548.469V307.25H550.637ZM569.328 323C569.203 322.75 569.102 322.305 569.023 321.664C568.016 322.711 566.812 323.234 565.414 323.234C564.164 323.234 563.137 322.883 562.332 322.18C561.535 321.469 561.137 320.57 561.137 319.484C561.137 318.164 561.637 317.141 562.637 316.414C563.645 315.68 565.059 315.312 566.879 315.312H568.988V314.316C568.988 313.559 568.762 312.957 568.309 312.512C567.855 312.059 567.188 311.832 566.305 311.832C565.531 311.832 564.883 312.027 564.359 312.418C563.836 312.809 563.574 313.281 563.574 313.836H561.395C561.395 313.203 561.617 312.594 562.062 312.008C562.516 311.414 563.125 310.945 563.891 310.602C564.664 310.258 565.512 310.086 566.434 310.086C567.895 310.086 569.039 310.453 569.867 311.188C570.695 311.914 571.125 312.918 571.156 314.199V320.035C571.156 321.199 571.305 322.125 571.602 322.812V323H569.328ZM565.73 321.348C566.41 321.348 567.055 321.172 567.664 320.82C568.273 320.469 568.715 320.012 568.988 319.449V316.848H567.289C564.633 316.848 563.305 317.625 563.305 319.18C563.305 319.859 563.531 320.391 563.984 320.773C564.438 321.156 565.02 321.348 565.73 321.348ZM576.91 323H574.742V305H576.91V323ZM582.746 323H580.578V305H582.746V323Z" fill="black"/>
<path d="M655 146C655 142.686 652.314 140 649 140H531C527.686 140 525 142.686 525 146V179C525 182.314 527.686 185 531 185H649C652.314 185 655 182.314 655 179V146Z" fill="#F1F4F8"/>
<path d="M607.859 161.375C607.709 161.825 607.684 162.333 607.784 162.9H610.309C610.243 162.4 610.293 161.958 610.459 161.575C610.643 161.175 610.876 160.817 611.159 160.5C611.443 160.167 611.759 159.85 612.109 159.55C612.476 159.233 612.818 158.908 613.134 158.575C613.451 158.225 613.709 157.842 613.909 157.425C614.126 156.992 614.234 156.5 614.234 155.95C614.234 155.3 614.109 154.733 613.859 154.25C613.626 153.75 613.293 153.333 612.859 153C612.426 152.65 611.909 152.392 611.309 152.225C610.709 152.042 610.059 151.95 609.359 151.95C608.359 151.95 607.468 152.15 606.684 152.55C605.901 152.95 605.218 153.467 604.634 154.1L606.259 155.6C606.676 155.2 607.118 154.883 607.584 154.65C608.051 154.417 608.576 154.3 609.159 154.3C609.876 154.3 610.434 154.483 610.834 154.85C611.251 155.217 611.459 155.7 611.459 156.3C611.459 156.667 611.351 157.008 611.134 157.325C610.934 157.625 610.684 157.925 610.384 158.225C610.084 158.525 609.759 158.833 609.409 159.15C609.059 159.45 608.751 159.783 608.484 160.15C608.218 160.517 608.009 160.925 607.859 161.375Z" fill="#56CCF2"/>
<path d="M607.634 168.7C608.051 169.1 608.568 169.3 609.184 169.3C609.801 169.3 610.318 169.1 610.734 168.7C611.151 168.283 611.359 167.733 611.359 167.05C611.359 166.383 611.151 165.85 610.734 165.45C610.318 165.05 609.801 164.85 609.184 164.85C608.568 164.85 608.051 165.05 607.634 165.45C607.218 165.85 607.009 166.383 607.009 167.05C607.009 167.733 607.218 168.283 607.634 168.7Z" fill="#56CCF2"/>
<path d="M308.006 139.888C307.945 140.437 308.34 140.932 308.888 140.994L317.832 141.999C318.381 142.06 318.876 141.665 318.937 141.117C318.999 140.568 318.604 140.073 318.055 140.011L310.105 139.118L310.999 131.168C311.06 130.619 310.665 130.124 310.117 130.063C309.568 130.001 309.073 130.396 309.011 130.945L308.006 139.888ZM408.994 61.1117C409.055 60.5628 408.66 60.0679 408.112 60.0063L399.168 59.0013C398.619 58.9397 398.124 59.3346 398.063 59.8834C398.001 60.4323 398.396 60.9272 398.945 60.9888L406.895 61.8821L406.001 69.8321C405.94 70.3809 406.335 70.8758 406.883 70.9375C407.432 70.9991 407.927 70.6042 407.989 70.0554L408.994 61.1117ZM309.624 140.782L408.624 61.7816L407.376 60.2184L308.376 139.218L309.624 140.782Z" fill="#30394B"/>
<path d="M444.056 140.331C444.239 140.852 444.81 141.126 445.331 140.944L453.824 137.967C454.346 137.785 454.62 137.214 454.437 136.693C454.255 136.172 453.684 135.897 453.163 136.08L445.613 138.726L442.967 131.176C442.785 130.654 442.214 130.38 441.693 130.563C441.172 130.745 440.897 131.316 441.08 131.837L444.056 140.331ZM483.944 60.6693C483.761 60.1481 483.19 59.8736 482.669 60.0563L474.176 63.0327C473.654 63.2153 473.38 63.7859 473.563 64.3071C473.745 64.8283 474.316 65.1028 474.837 64.9201L482.387 62.2744L485.033 69.8243C485.215 70.3455 485.786 70.62 486.307 70.4373C486.828 70.2547 487.103 69.6841 486.92 69.1629L483.944 60.6693ZM445.901 140.433L483.901 61.4335L482.099 60.5665L444.099 139.567L445.901 140.433Z" fill="#30394B"/>
<path d="M585.732 146.963C586.264 147.111 586.815 146.8 586.963 146.268L589.376 137.597C589.524 137.065 589.212 136.514 588.68 136.366C588.148 136.218 587.597 136.529 587.449 137.061L585.305 144.769L577.597 142.624C577.065 142.476 576.514 142.788 576.366 143.32C576.218 143.852 576.529 144.403 577.061 144.551L585.732 146.963ZM538.268 60.0366C537.736 59.8886 537.185 60.1999 537.037 60.732L534.624 69.4027C534.476 69.9348 534.788 70.4861 535.32 70.6341C535.852 70.7822 536.403 70.4708 536.551 69.9387L538.695 62.2314L546.403 64.3756C546.935 64.5236 547.486 64.2122 547.634 63.6802C547.782 63.1481 547.471 62.5968 546.939 62.4487L538.268 60.0366ZM586.871 145.508L538.871 60.5083L537.129 61.4917L585.129 146.492L586.871 145.508Z" fill="#30394B"/>
<path d="M721.22 140.976C721.759 140.854 722.097 140.319 721.976 139.78L719.996 131C719.874 130.462 719.339 130.123 718.8 130.245C718.262 130.366 717.923 130.902 718.045 131.44L719.805 139.244L712 141.004C711.462 141.126 711.123 141.661 711.245 142.2C711.366 142.738 711.902 143.077 712.44 142.955L721.22 140.976ZM595.78 60.0245C595.241 60.146 594.903 60.6812 595.024 61.22L597.004 69.9995C597.126 70.5383 597.661 70.8765 598.2 70.7551C598.738 70.6336 599.077 70.0983 598.955 69.5596L597.195 61.7555L605 59.9958C605.538 59.8743 605.877 59.3391 605.755 58.8003C605.634 58.2616 605.098 57.9233 604.56 58.0448L595.78 60.0245ZM721.534 139.155L596.534 60.1547L595.466 61.8453L720.466 140.845L721.534 139.155Z" fill="#30394B"/>
</svg>
