<svg width="1022" height="368" viewBox="0 0 1022 368" fill="none" xmlns="http://www.w3.org/2000/svg">
<rect width="511" height="184" transform="scale(2)" fill="white"/>
<path d="M512.293 128.7C512.684 129.104 513.316 129.125 513.707 128.747L520.067 122.595C520.457 122.218 520.457 121.585 520.067 121.181C519.677 120.778 519.044 120.757 518.654 121.134L513 126.602L507.346 120.757C506.956 120.354 506.323 120.333 505.933 120.71C505.543 121.088 505.543 121.721 505.933 122.124L512.293 128.7ZM512.001 67.95V127.983L513.999 128.05V68.0167L512.001 67.95Z" fill="#828282"/>
<path d="M339.293 128.707C339.683 129.098 340.317 129.098 340.707 128.707L347.071 122.343C347.462 121.953 347.462 121.319 347.071 120.929C346.681 120.538 346.047 120.538 345.657 120.929L340 126.586L334.343 120.929C333.953 120.538 333.319 120.538 332.929 120.929C332.538 121.319 332.538 121.953 332.929 122.343L339.293 128.707ZM339 112V128H341V112H339Z" fill="#828282"/>
<path d="M470 68V82L340 112V128" stroke="#828282"/>
<path d="M688.707 128.707C688.317 129.098 687.683 129.098 687.293 128.707L680.929 122.343C680.538 121.953 680.538 121.319 680.929 120.929C681.319 120.538 681.953 120.538 682.343 120.929L688 126.586L693.657 120.929C694.047 120.538 694.681 120.538 695.071 120.929C695.462 121.319 695.462 121.953 695.071 122.343L688.707 128.707ZM689 112V128H687V112H689Z" fill="#828282"/>
<path d="M562 68V82L688 112V128" stroke="#828282"/>
<rect x="448" y="140" width="130" height="208" fill="#FFFAF5"/>
<path d="M469.77 196.789H464.285V212H462.047V196.789H456.574V194.938H469.77V196.789ZM474.129 200.855C475.09 199.676 476.34 199.086 477.879 199.086C480.559 199.086 481.91 200.598 481.934 203.621V212H479.766V203.609C479.758 202.695 479.547 202.02 479.133 201.582C478.727 201.145 478.09 200.926 477.223 200.926C476.52 200.926 475.902 201.113 475.371 201.488C474.84 201.863 474.426 202.355 474.129 202.965V212H471.961V194H474.129V200.855ZM490.441 212.234C488.723 212.234 487.324 211.672 486.246 210.547C485.168 209.414 484.629 207.902 484.629 206.012V205.613C484.629 204.355 484.867 203.234 485.344 202.25C485.828 201.258 486.5 200.484 487.359 199.93C488.227 199.367 489.164 199.086 490.172 199.086C491.82 199.086 493.102 199.629 494.016 200.715C494.93 201.801 495.387 203.355 495.387 205.379V206.281H486.797C486.828 207.531 487.191 208.543 487.887 209.316C488.59 210.082 489.48 210.465 490.559 210.465C491.324 210.465 491.973 210.309 492.504 209.996C493.035 209.684 493.5 209.27 493.898 208.754L495.223 209.785C494.16 211.418 492.566 212.234 490.441 212.234ZM490.172 200.867C489.297 200.867 488.562 201.188 487.969 201.828C487.375 202.461 487.008 203.352 486.867 204.5H493.219V204.336C493.156 203.234 492.859 202.383 492.328 201.781C491.797 201.172 491.078 200.867 490.172 200.867ZM462.727 238.465C463.5 238.465 464.176 238.23 464.754 237.762C465.332 237.293 465.652 236.707 465.715 236.004H467.766C467.727 236.73 467.477 237.422 467.016 238.078C466.555 238.734 465.938 239.258 465.164 239.648C464.398 240.039 463.586 240.234 462.727 240.234C461 240.234 459.625 239.66 458.602 238.512C457.586 237.355 457.078 235.777 457.078 233.777V233.414C457.078 232.18 457.305 231.082 457.758 230.121C458.211 229.16 458.859 228.414 459.703 227.883C460.555 227.352 461.559 227.086 462.715 227.086C464.137 227.086 465.316 227.512 466.254 228.363C467.199 229.215 467.703 230.32 467.766 231.68H465.715C465.652 230.859 465.34 230.188 464.777 229.664C464.223 229.133 463.535 228.867 462.715 228.867C461.613 228.867 460.758 229.266 460.148 230.062C459.547 230.852 459.246 231.996 459.246 233.496V233.906C459.246 235.367 459.547 236.492 460.148 237.281C460.75 238.07 461.609 238.465 462.727 238.465ZM472.371 228.855C473.332 227.676 474.582 227.086 476.121 227.086C478.801 227.086 480.152 228.598 480.176 231.621V240H478.008V231.609C478 230.695 477.789 230.02 477.375 229.582C476.969 229.145 476.332 228.926 475.465 228.926C474.762 228.926 474.145 229.113 473.613 229.488C473.082 229.863 472.668 230.355 472.371 230.965V240H470.203V222H472.371V228.855ZM491.25 240C491.125 239.75 491.023 239.305 490.945 238.664C489.938 239.711 488.734 240.234 487.336 240.234C486.086 240.234 485.059 239.883 484.254 239.18C483.457 238.469 483.059 237.57 483.059 236.484C483.059 235.164 483.559 234.141 484.559 233.414C485.566 232.68 486.98 232.312 488.801 232.312H490.91V231.316C490.91 230.559 490.684 229.957 490.23 229.512C489.777 229.059 489.109 228.832 488.227 228.832C487.453 228.832 486.805 229.027 486.281 229.418C485.758 229.809 485.496 230.281 485.496 230.836H483.316C483.316 230.203 483.539 229.594 483.984 229.008C484.438 228.414 485.047 227.945 485.812 227.602C486.586 227.258 487.434 227.086 488.355 227.086C489.816 227.086 490.961 227.453 491.789 228.188C492.617 228.914 493.047 229.918 493.078 231.199V237.035C493.078 238.199 493.227 239.125 493.523 239.812V240H491.25ZM487.652 238.348C488.332 238.348 488.977 238.172 489.586 237.82C490.195 237.469 490.637 237.012 490.91 236.449V233.848H489.211C486.555 233.848 485.227 234.625 485.227 236.18C485.227 236.859 485.453 237.391 485.906 237.773C486.359 238.156 486.941 238.348 487.652 238.348ZM502.605 229.266C502.277 229.211 501.922 229.184 501.539 229.184C500.117 229.184 499.152 229.789 498.645 231V240H496.477V227.32H498.586L498.621 228.785C499.332 227.652 500.34 227.086 501.645 227.086C502.066 227.086 502.387 227.141 502.605 227.25V229.266ZM511.969 240C511.844 239.75 511.742 239.305 511.664 238.664C510.656 239.711 509.453 240.234 508.055 240.234C506.805 240.234 505.777 239.883 504.973 239.18C504.176 238.469 503.777 237.57 503.777 236.484C503.777 235.164 504.277 234.141 505.277 233.414C506.285 232.68 507.699 232.312 509.52 232.312H511.629V231.316C511.629 230.559 511.402 229.957 510.949 229.512C510.496 229.059 509.828 228.832 508.945 228.832C508.172 228.832 507.523 229.027 507 229.418C506.477 229.809 506.215 230.281 506.215 230.836H504.035C504.035 230.203 504.258 229.594 504.703 229.008C505.156 228.414 505.766 227.945 506.531 227.602C507.305 227.258 508.152 227.086 509.074 227.086C510.535 227.086 511.68 227.453 512.508 228.188C513.336 228.914 513.766 229.918 513.797 231.199V237.035C513.797 238.199 513.945 239.125 514.242 239.812V240H511.969ZM508.371 238.348C509.051 238.348 509.695 238.172 510.305 237.82C510.914 237.469 511.355 237.012 511.629 236.449V233.848H509.93C507.273 233.848 505.945 234.625 505.945 236.18C505.945 236.859 506.172 237.391 506.625 237.773C507.078 238.156 507.66 238.348 508.371 238.348ZM522.281 238.465C523.055 238.465 523.73 238.23 524.309 237.762C524.887 237.293 525.207 236.707 525.27 236.004H527.32C527.281 236.73 527.031 237.422 526.57 238.078C526.109 238.734 525.492 239.258 524.719 239.648C523.953 240.039 523.141 240.234 522.281 240.234C520.555 240.234 519.18 239.66 518.156 238.512C517.141 237.355 516.633 235.777 516.633 233.777V233.414C516.633 232.18 516.859 231.082 517.312 230.121C517.766 229.16 518.414 228.414 519.258 227.883C520.109 227.352 521.113 227.086 522.27 227.086C523.691 227.086 524.871 227.512 525.809 228.363C526.754 229.215 527.258 230.32 527.32 231.68H525.27C525.207 230.859 524.895 230.188 524.332 229.664C523.777 229.133 523.09 228.867 522.27 228.867C521.168 228.867 520.312 229.266 519.703 230.062C519.102 230.852 518.801 231.996 518.801 233.496V233.906C518.801 235.367 519.102 236.492 519.703 237.281C520.305 238.07 521.164 238.465 522.281 238.465ZM532.699 224.25V227.32H535.066V228.996H532.699V236.859C532.699 237.367 532.805 237.75 533.016 238.008C533.227 238.258 533.586 238.383 534.094 238.383C534.344 238.383 534.688 238.336 535.125 238.242V240C534.555 240.156 534 240.234 533.461 240.234C532.492 240.234 531.762 239.941 531.27 239.355C530.777 238.77 530.531 237.938 530.531 236.859V228.996H528.223V227.32H530.531V224.25H532.699ZM542.871 240.234C541.152 240.234 539.754 239.672 538.676 238.547C537.598 237.414 537.059 235.902 537.059 234.012V233.613C537.059 232.355 537.297 231.234 537.773 230.25C538.258 229.258 538.93 228.484 539.789 227.93C540.656 227.367 541.594 227.086 542.602 227.086C544.25 227.086 545.531 227.629 546.445 228.715C547.359 229.801 547.816 231.355 547.816 233.379V234.281H539.227C539.258 235.531 539.621 236.543 540.316 237.316C541.02 238.082 541.91 238.465 542.988 238.465C543.754 238.465 544.402 238.309 544.934 237.996C545.465 237.684 545.93 237.27 546.328 236.754L547.652 237.785C546.59 239.418 544.996 240.234 542.871 240.234ZM542.602 228.867C541.727 228.867 540.992 229.188 540.398 229.828C539.805 230.461 539.438 231.352 539.297 232.5H545.648V232.336C545.586 231.234 545.289 230.383 544.758 229.781C544.227 229.172 543.508 228.867 542.602 228.867ZM556.465 229.266C556.137 229.211 555.781 229.184 555.398 229.184C553.977 229.184 553.012 229.789 552.504 231V240H550.336V227.32H552.445L552.48 228.785C553.191 227.652 554.199 227.086 555.504 227.086C555.926 227.086 556.246 227.141 556.465 227.25V229.266ZM565.852 236.637C565.852 236.051 565.629 235.598 565.184 235.277C564.746 234.949 563.977 234.668 562.875 234.434C561.781 234.199 560.91 233.918 560.262 233.59C559.621 233.262 559.145 232.871 558.832 232.418C558.527 231.965 558.375 231.426 558.375 230.801C558.375 229.762 558.812 228.883 559.688 228.164C560.57 227.445 561.695 227.086 563.062 227.086C564.5 227.086 565.664 227.457 566.555 228.199C567.453 228.941 567.902 229.891 567.902 231.047H565.723C565.723 230.453 565.469 229.941 564.961 229.512C564.461 229.082 563.828 228.867 563.062 228.867C562.273 228.867 561.656 229.039 561.211 229.383C560.766 229.727 560.543 230.176 560.543 230.73C560.543 231.254 560.75 231.648 561.164 231.914C561.578 232.18 562.324 232.434 563.402 232.676C564.488 232.918 565.367 233.207 566.039 233.543C566.711 233.879 567.207 234.285 567.527 234.762C567.855 235.23 568.02 235.805 568.02 236.484C568.02 237.617 567.566 238.527 566.66 239.215C565.754 239.895 564.578 240.234 563.133 240.234C562.117 240.234 561.219 240.055 560.438 239.695C559.656 239.336 559.043 238.836 558.598 238.195C558.16 237.547 557.941 236.848 557.941 236.098H560.109C560.148 236.824 560.438 237.402 560.977 237.832C561.523 238.254 562.242 238.465 563.133 238.465C563.953 238.465 564.609 238.301 565.102 237.973C565.602 237.637 565.852 237.191 565.852 236.637ZM477.41 263.543C477.41 262.301 477.652 261.184 478.137 260.191C478.629 259.199 479.309 258.434 480.176 257.895C481.051 257.355 482.047 257.086 483.164 257.086C484.891 257.086 486.285 257.684 487.348 258.879C488.418 260.074 488.953 261.664 488.953 263.648V263.801C488.953 265.035 488.715 266.145 488.238 267.129C487.77 268.105 487.094 268.867 486.211 269.414C485.336 269.961 484.328 270.234 483.188 270.234C481.469 270.234 480.074 269.637 479.004 268.441C477.941 267.246 477.41 265.664 477.41 263.695V263.543ZM479.59 263.801C479.59 265.207 479.914 266.336 480.562 267.188C481.219 268.039 482.094 268.465 483.188 268.465C484.289 268.465 485.164 268.035 485.812 267.176C486.461 266.309 486.785 265.098 486.785 263.543C486.785 262.152 486.453 261.027 485.789 260.168C485.133 259.301 484.258 258.867 483.164 258.867C482.094 258.867 481.23 259.293 480.574 260.145C479.918 260.996 479.59 262.215 479.59 263.801ZM497.801 259.266C497.473 259.211 497.117 259.184 496.734 259.184C495.312 259.184 494.348 259.789 493.84 261V270H491.672V257.32H493.781L493.816 258.785C494.527 257.652 495.535 257.086 496.84 257.086C497.262 257.086 497.582 257.141 497.801 257.25V259.266Z" fill="black"/>
<path d="M457.44 262.2C457.44 260.92 457.624 259.776 457.992 258.768C458.36 257.744 458.864 256.88 459.504 256.176C460.16 255.472 460.928 254.936 461.808 254.568C462.704 254.2 463.672 254.016 464.712 254.016C465.672 254.016 466.528 254.216 467.28 254.616C468.032 255.016 468.664 255.472 469.176 255.984L467.616 257.712C467.232 257.328 466.8 257.024 466.32 256.8C465.856 256.56 465.32 256.44 464.712 256.44C464.056 256.44 463.456 256.576 462.912 256.848C462.368 257.104 461.904 257.48 461.52 257.976C461.136 258.456 460.832 259.048 460.608 259.752C460.4 260.456 460.296 261.248 460.296 262.128C460.296 263.024 460.4 263.832 460.608 264.552C460.832 265.256 461.136 265.856 461.52 266.352C461.92 266.832 462.392 267.208 462.936 267.48C463.496 267.736 464.112 267.864 464.784 267.864C465.424 267.864 465.992 267.728 466.488 267.456C467 267.184 467.48 266.8 467.928 266.304L469.464 268.008C468.824 268.744 468.104 269.312 467.304 269.712C466.504 270.096 465.608 270.288 464.616 270.288C463.608 270.288 462.664 270.112 461.784 269.76C460.92 269.408 460.16 268.888 459.504 268.2C458.864 267.512 458.36 266.664 457.992 265.656C457.624 264.648 457.44 263.496 457.44 262.2ZM505.869 264.12C505.869 263.144 506.045 262.272 506.397 261.504C506.765 260.736 507.253 260.088 507.861 259.56C508.469 259.032 509.181 258.632 509.997 258.36C510.813 258.072 511.669 257.928 512.565 257.928C513.525 257.928 514.365 258.088 515.085 258.408C515.821 258.728 516.437 259.12 516.933 259.584L515.613 261.312C515.149 260.944 514.677 260.664 514.197 260.472C513.733 260.28 513.237 260.184 512.709 260.184C511.525 260.184 510.565 260.544 509.829 261.264C509.093 261.968 508.725 262.92 508.725 264.12C508.725 264.712 508.821 265.248 509.013 265.728C509.205 266.208 509.469 266.624 509.805 266.976C510.157 267.312 510.573 267.576 511.053 267.768C511.533 267.944 512.061 268.032 512.637 268.032C513.309 268.032 513.917 267.904 514.461 267.648C515.021 267.392 515.533 267.088 515.997 266.736L517.149 268.512C516.477 269.104 515.725 269.552 514.893 269.856C514.061 270.144 513.221 270.288 512.373 270.288C511.445 270.288 510.581 270.152 509.781 269.88C508.997 269.608 508.309 269.208 507.717 268.68C507.141 268.152 506.685 267.504 506.349 266.736C506.029 265.968 505.869 265.096 505.869 264.12Z" fill="#B82629"/>
<path d="M488.584 159.771H495.448V161.283H490.72V178.899H495.448V180.411H488.584V159.771ZM533.796 178.899V161.283H529.092V159.771H535.956V180.411H529.092V178.899H533.796Z" fill="#219653"/>
<path d="M499.302 168.963C499.302 167.683 499.486 166.539 499.854 165.531C500.222 164.507 500.726 163.643 501.366 162.939C502.022 162.235 502.79 161.699 503.67 161.331C504.566 160.963 505.534 160.779 506.574 160.779C507.534 160.779 508.39 160.979 509.142 161.379C509.894 161.779 510.526 162.235 511.038 162.747L509.478 164.475C509.094 164.091 508.662 163.787 508.182 163.563C507.718 163.323 507.182 163.203 506.574 163.203C505.918 163.203 505.318 163.339 504.774 163.611C504.23 163.867 503.766 164.243 503.382 164.739C502.998 165.219 502.694 165.811 502.47 166.515C502.262 167.219 502.158 168.011 502.158 168.891C502.158 169.787 502.262 170.595 502.47 171.315C502.694 172.019 502.998 172.619 503.382 173.115C503.782 173.595 504.254 173.971 504.798 174.243C505.358 174.499 505.974 174.627 506.646 174.627C507.286 174.627 507.854 174.491 508.35 174.219C508.862 173.947 509.342 173.563 509.79 173.067L511.326 174.771C510.686 175.507 509.966 176.075 509.166 176.475C508.366 176.859 507.47 177.051 506.478 177.051C505.47 177.051 504.526 176.875 503.646 176.523C502.782 176.171 502.022 175.651 501.366 174.963C500.726 174.275 500.222 173.427 499.854 172.419C499.486 171.411 499.302 170.259 499.302 168.963ZM514.005 170.883C514.005 169.907 514.181 169.035 514.533 168.267C514.901 167.499 515.389 166.851 515.997 166.323C516.605 165.795 517.317 165.395 518.133 165.123C518.949 164.835 519.805 164.691 520.701 164.691C521.661 164.691 522.501 164.851 523.221 165.171C523.957 165.491 524.573 165.883 525.069 166.347L523.749 168.075C523.285 167.707 522.813 167.427 522.333 167.235C521.869 167.043 521.373 166.947 520.845 166.947C519.661 166.947 518.701 167.307 517.965 168.027C517.229 168.731 516.861 169.683 516.861 170.883C516.861 171.475 516.957 172.011 517.149 172.491C517.341 172.971 517.605 173.387 517.941 173.739C518.293 174.075 518.709 174.339 519.189 174.531C519.669 174.707 520.197 174.795 520.773 174.795C521.445 174.795 522.053 174.667 522.597 174.411C523.157 174.155 523.669 173.851 524.133 173.499L525.285 175.275C524.613 175.867 523.861 176.315 523.029 176.619C522.197 176.907 521.357 177.051 520.509 177.051C519.581 177.051 518.717 176.915 517.917 176.643C517.133 176.371 516.445 175.971 515.853 175.443C515.277 174.915 514.821 174.267 514.485 173.499C514.165 172.731 514.005 171.859 514.005 170.883Z" fill="#B82629"/>
<rect x="270" y="140" width="130" height="208" fill="#FFFAF5"/>
<path d="M289.402 207.547H282.254L280.648 212H278.328L284.844 194.938H286.812L293.34 212H291.031L289.402 207.547ZM282.934 205.695H288.734L285.828 197.715L282.934 205.695ZM312.477 209.012L314.914 199.32H317.082L313.391 212H311.633L308.551 202.391L305.551 212H303.793L300.113 199.32H302.27L304.766 208.812L307.719 199.32H309.465L312.477 209.012ZM318.723 205.543C318.723 204.301 318.965 203.184 319.449 202.191C319.941 201.199 320.621 200.434 321.488 199.895C322.363 199.355 323.359 199.086 324.477 199.086C326.203 199.086 327.598 199.684 328.66 200.879C329.73 202.074 330.266 203.664 330.266 205.648V205.801C330.266 207.035 330.027 208.145 329.551 209.129C329.082 210.105 328.406 210.867 327.523 211.414C326.648 211.961 325.641 212.234 324.5 212.234C322.781 212.234 321.387 211.637 320.316 210.441C319.254 209.246 318.723 207.664 318.723 205.695V205.543ZM320.902 205.801C320.902 207.207 321.227 208.336 321.875 209.188C322.531 210.039 323.406 210.465 324.5 210.465C325.602 210.465 326.477 210.035 327.125 209.176C327.773 208.309 328.098 207.098 328.098 205.543C328.098 204.152 327.766 203.027 327.102 202.168C326.445 201.301 325.57 200.867 324.477 200.867C323.406 200.867 322.543 201.293 321.887 202.145C321.23 202.996 320.902 204.215 320.902 205.801ZM339.113 201.266C338.785 201.211 338.43 201.184 338.047 201.184C336.625 201.184 335.66 201.789 335.152 203V212H332.984V199.32H335.094L335.129 200.785C335.84 199.652 336.848 199.086 338.152 199.086C338.574 199.086 338.895 199.141 339.113 199.25V201.266ZM340.355 205.555C340.355 203.609 340.816 202.047 341.738 200.867C342.66 199.68 343.867 199.086 345.359 199.086C346.844 199.086 348.02 199.594 348.887 200.609V194H351.055V212H349.062L348.957 210.641C348.09 211.703 346.883 212.234 345.336 212.234C343.867 212.234 342.668 211.633 341.738 210.43C340.816 209.227 340.355 207.656 340.355 205.719V205.555ZM342.523 205.801C342.523 207.238 342.82 208.363 343.414 209.176C344.008 209.988 344.828 210.395 345.875 210.395C347.25 210.395 348.254 209.777 348.887 208.543V202.719C348.238 201.523 347.242 200.926 345.898 200.926C344.836 200.926 344.008 201.336 343.414 202.156C342.82 202.977 342.523 204.191 342.523 205.801ZM290.375 233.801C290.375 235.738 289.93 237.297 289.039 238.477C288.148 239.648 286.953 240.234 285.453 240.234C283.852 240.234 282.613 239.668 281.738 238.535L281.633 240H279.641V222H281.809V228.715C282.684 227.629 283.891 227.086 285.43 227.086C286.969 227.086 288.176 227.668 289.051 228.832C289.934 229.996 290.375 231.59 290.375 233.613V233.801ZM288.207 233.555C288.207 232.078 287.922 230.938 287.352 230.133C286.781 229.328 285.961 228.926 284.891 228.926C283.461 228.926 282.434 229.59 281.809 230.918V236.402C282.473 237.73 283.508 238.395 284.914 238.395C285.953 238.395 286.762 237.992 287.34 237.188C287.918 236.383 288.207 235.172 288.207 233.555ZM292.543 233.543C292.543 232.301 292.785 231.184 293.27 230.191C293.762 229.199 294.441 228.434 295.309 227.895C296.184 227.355 297.18 227.086 298.297 227.086C300.023 227.086 301.418 227.684 302.48 228.879C303.551 230.074 304.086 231.664 304.086 233.648V233.801C304.086 235.035 303.848 236.145 303.371 237.129C302.902 238.105 302.227 238.867 301.344 239.414C300.469 239.961 299.461 240.234 298.32 240.234C296.602 240.234 295.207 239.637 294.137 238.441C293.074 237.246 292.543 235.664 292.543 233.695V233.543ZM294.723 233.801C294.723 235.207 295.047 236.336 295.695 237.188C296.352 238.039 297.227 238.465 298.32 238.465C299.422 238.465 300.297 238.035 300.945 237.176C301.594 236.309 301.918 235.098 301.918 233.543C301.918 232.152 301.586 231.027 300.922 230.168C300.266 229.301 299.391 228.867 298.297 228.867C297.227 228.867 296.363 229.293 295.707 230.145C295.051 230.996 294.723 232.215 294.723 233.801ZM314.633 238.746C313.789 239.738 312.551 240.234 310.918 240.234C309.566 240.234 308.535 239.844 307.824 239.062C307.121 238.273 306.766 237.109 306.758 235.57V227.32H308.926V235.512C308.926 237.434 309.707 238.395 311.27 238.395C312.926 238.395 314.027 237.777 314.574 236.543V227.32H316.742V240H314.68L314.633 238.746ZM322.098 227.32L322.168 228.914C323.137 227.695 324.402 227.086 325.965 227.086C328.645 227.086 329.996 228.598 330.02 231.621V240H327.852V231.609C327.844 230.695 327.633 230.02 327.219 229.582C326.812 229.145 326.176 228.926 325.309 228.926C324.605 228.926 323.988 229.113 323.457 229.488C322.926 229.863 322.512 230.355 322.215 230.965V240H320.047V227.32H322.098ZM332.762 233.555C332.762 231.609 333.223 230.047 334.145 228.867C335.066 227.68 336.273 227.086 337.766 227.086C339.25 227.086 340.426 227.594 341.293 228.609V222H343.461V240H341.469L341.363 238.641C340.496 239.703 339.289 240.234 337.742 240.234C336.273 240.234 335.074 239.633 334.145 238.43C333.223 237.227 332.762 235.656 332.762 233.719V233.555ZM334.93 233.801C334.93 235.238 335.227 236.363 335.82 237.176C336.414 237.988 337.234 238.395 338.281 238.395C339.656 238.395 340.66 237.777 341.293 236.543V230.719C340.645 229.523 339.648 228.926 338.305 228.926C337.242 228.926 336.414 229.336 335.82 230.156C335.227 230.977 334.93 232.191 334.93 233.801ZM354.664 240C354.539 239.75 354.438 239.305 354.359 238.664C353.352 239.711 352.148 240.234 350.75 240.234C349.5 240.234 348.473 239.883 347.668 239.18C346.871 238.469 346.473 237.57 346.473 236.484C346.473 235.164 346.973 234.141 347.973 233.414C348.98 232.68 350.395 232.312 352.215 232.312H354.324V231.316C354.324 230.559 354.098 229.957 353.645 229.512C353.191 229.059 352.523 228.832 351.641 228.832C350.867 228.832 350.219 229.027 349.695 229.418C349.172 229.809 348.91 230.281 348.91 230.836H346.73C346.73 230.203 346.953 229.594 347.398 229.008C347.852 228.414 348.461 227.945 349.227 227.602C350 227.258 350.848 227.086 351.77 227.086C353.23 227.086 354.375 227.453 355.203 228.188C356.031 228.914 356.461 229.918 356.492 231.199V237.035C356.492 238.199 356.641 239.125 356.938 239.812V240H354.664ZM351.066 238.348C351.746 238.348 352.391 238.172 353 237.82C353.609 237.469 354.051 237.012 354.324 236.449V233.848H352.625C349.969 233.848 348.641 234.625 348.641 236.18C348.641 236.859 348.867 237.391 349.32 237.773C349.773 238.156 350.355 238.348 351.066 238.348ZM366.02 229.266C365.691 229.211 365.336 229.184 364.953 229.184C363.531 229.184 362.566 229.789 362.059 231V240H359.891V227.32H362L362.035 228.785C362.746 227.652 363.754 227.086 365.059 227.086C365.48 227.086 365.801 227.141 366.02 227.25V229.266ZM372.383 236.824L375.336 227.32H377.656L372.559 241.957C371.77 244.066 370.516 245.121 368.797 245.121L368.387 245.086L367.578 244.934V243.176L368.164 243.223C368.898 243.223 369.469 243.074 369.875 242.777C370.289 242.48 370.629 241.938 370.895 241.148L371.375 239.859L366.852 227.32H369.219L372.383 236.824Z" fill="black"/>
<path d="M321.926 157.103H324.302L332.198 177.983H329.822L321.926 157.103ZM336.221 157.199H339.005V161.567L338.909 163.631C339.421 163.151 339.997 162.775 340.637 162.503C341.277 162.215 341.917 162.071 342.557 162.071C343.325 162.071 344.005 162.215 344.597 162.503C345.189 162.775 345.693 163.175 346.109 163.703C346.525 164.215 346.837 164.839 347.045 165.575C347.269 166.311 347.381 167.135 347.381 168.047C347.381 169.055 347.237 169.959 346.949 170.759C346.661 171.543 346.269 172.207 345.773 172.751C345.293 173.295 344.733 173.711 344.093 173.999C343.469 174.287 342.821 174.431 342.149 174.431C341.589 174.431 341.005 174.295 340.397 174.023C339.789 173.751 339.229 173.359 338.717 172.847H338.645L338.405 174.143H336.221V157.199ZM339.005 171.071C339.437 171.471 339.885 171.751 340.349 171.911C340.813 172.071 341.229 172.151 341.597 172.151C342.429 172.151 343.125 171.815 343.685 171.143C344.245 170.455 344.525 169.439 344.525 168.095C344.525 166.911 344.309 165.991 343.877 165.335C343.445 164.679 342.749 164.351 341.789 164.351C341.341 164.351 340.885 164.463 340.421 164.687C339.957 164.911 339.485 165.271 339.005 165.767V171.071Z" fill="#0072B2"/>
<rect x="626" y="140" width="130" height="208" fill="#FFFAF5"/>
<path d="M645.402 207.547H638.254L636.648 212H634.328L640.844 194.938H642.812L649.34 212H647.031L645.402 207.547ZM638.934 205.695H644.734L641.828 197.715L638.934 205.695ZM668.477 209.012L670.914 199.32H673.082L669.391 212H667.633L664.551 202.391L661.551 212H659.793L656.113 199.32H658.27L660.766 208.812L663.719 199.32H665.465L668.477 209.012ZM674.723 205.543C674.723 204.301 674.965 203.184 675.449 202.191C675.941 201.199 676.621 200.434 677.488 199.895C678.363 199.355 679.359 199.086 680.477 199.086C682.203 199.086 683.598 199.684 684.66 200.879C685.73 202.074 686.266 203.664 686.266 205.648V205.801C686.266 207.035 686.027 208.145 685.551 209.129C685.082 210.105 684.406 210.867 683.523 211.414C682.648 211.961 681.641 212.234 680.5 212.234C678.781 212.234 677.387 211.637 676.316 210.441C675.254 209.246 674.723 207.664 674.723 205.695V205.543ZM676.902 205.801C676.902 207.207 677.227 208.336 677.875 209.188C678.531 210.039 679.406 210.465 680.5 210.465C681.602 210.465 682.477 210.035 683.125 209.176C683.773 208.309 684.098 207.098 684.098 205.543C684.098 204.152 683.766 203.027 683.102 202.168C682.445 201.301 681.57 200.867 680.477 200.867C679.406 200.867 678.543 201.293 677.887 202.145C677.23 202.996 676.902 204.215 676.902 205.801ZM695.113 201.266C694.785 201.211 694.43 201.184 694.047 201.184C692.625 201.184 691.66 201.789 691.152 203V212H688.984V199.32H691.094L691.129 200.785C691.84 199.652 692.848 199.086 694.152 199.086C694.574 199.086 694.895 199.141 695.113 199.25V201.266ZM696.355 205.555C696.355 203.609 696.816 202.047 697.738 200.867C698.66 199.68 699.867 199.086 701.359 199.086C702.844 199.086 704.02 199.594 704.887 200.609V194H707.055V212H705.062L704.957 210.641C704.09 211.703 702.883 212.234 701.336 212.234C699.867 212.234 698.668 211.633 697.738 210.43C696.816 209.227 696.355 207.656 696.355 205.719V205.555ZM698.523 205.801C698.523 207.238 698.82 208.363 699.414 209.176C700.008 209.988 700.828 210.395 701.875 210.395C703.25 210.395 704.254 209.777 704.887 208.543V202.719C704.238 201.523 703.242 200.926 701.898 200.926C700.836 200.926 700.008 201.336 699.414 202.156C698.82 202.977 698.523 204.191 698.523 205.801ZM646.375 233.801C646.375 235.738 645.93 237.297 645.039 238.477C644.148 239.648 642.953 240.234 641.453 240.234C639.852 240.234 638.613 239.668 637.738 238.535L637.633 240H635.641V222H637.809V228.715C638.684 227.629 639.891 227.086 641.43 227.086C642.969 227.086 644.176 227.668 645.051 228.832C645.934 229.996 646.375 231.59 646.375 233.613V233.801ZM644.207 233.555C644.207 232.078 643.922 230.938 643.352 230.133C642.781 229.328 641.961 228.926 640.891 228.926C639.461 228.926 638.434 229.59 637.809 230.918V236.402C638.473 237.73 639.508 238.395 640.914 238.395C641.953 238.395 642.762 237.992 643.34 237.188C643.918 236.383 644.207 235.172 644.207 233.555ZM648.543 233.543C648.543 232.301 648.785 231.184 649.27 230.191C649.762 229.199 650.441 228.434 651.309 227.895C652.184 227.355 653.18 227.086 654.297 227.086C656.023 227.086 657.418 227.684 658.48 228.879C659.551 230.074 660.086 231.664 660.086 233.648V233.801C660.086 235.035 659.848 236.145 659.371 237.129C658.902 238.105 658.227 238.867 657.344 239.414C656.469 239.961 655.461 240.234 654.32 240.234C652.602 240.234 651.207 239.637 650.137 238.441C649.074 237.246 648.543 235.664 648.543 233.695V233.543ZM650.723 233.801C650.723 235.207 651.047 236.336 651.695 237.188C652.352 238.039 653.227 238.465 654.32 238.465C655.422 238.465 656.297 238.035 656.945 237.176C657.594 236.309 657.918 235.098 657.918 233.543C657.918 232.152 657.586 231.027 656.922 230.168C656.266 229.301 655.391 228.867 654.297 228.867C653.227 228.867 652.363 229.293 651.707 230.145C651.051 230.996 650.723 232.215 650.723 233.801ZM670.633 238.746C669.789 239.738 668.551 240.234 666.918 240.234C665.566 240.234 664.535 239.844 663.824 239.062C663.121 238.273 662.766 237.109 662.758 235.57V227.32H664.926V235.512C664.926 237.434 665.707 238.395 667.27 238.395C668.926 238.395 670.027 237.777 670.574 236.543V227.32H672.742V240H670.68L670.633 238.746ZM678.098 227.32L678.168 228.914C679.137 227.695 680.402 227.086 681.965 227.086C684.645 227.086 685.996 228.598 686.02 231.621V240H683.852V231.609C683.844 230.695 683.633 230.02 683.219 229.582C682.812 229.145 682.176 228.926 681.309 228.926C680.605 228.926 679.988 229.113 679.457 229.488C678.926 229.863 678.512 230.355 678.215 230.965V240H676.047V227.32H678.098ZM688.762 233.555C688.762 231.609 689.223 230.047 690.145 228.867C691.066 227.68 692.273 227.086 693.766 227.086C695.25 227.086 696.426 227.594 697.293 228.609V222H699.461V240H697.469L697.363 238.641C696.496 239.703 695.289 240.234 693.742 240.234C692.273 240.234 691.074 239.633 690.145 238.43C689.223 237.227 688.762 235.656 688.762 233.719V233.555ZM690.93 233.801C690.93 235.238 691.227 236.363 691.82 237.176C692.414 237.988 693.234 238.395 694.281 238.395C695.656 238.395 696.66 237.777 697.293 236.543V230.719C696.645 229.523 695.648 228.926 694.305 228.926C693.242 228.926 692.414 229.336 691.82 230.156C691.227 230.977 690.93 232.191 690.93 233.801ZM710.664 240C710.539 239.75 710.438 239.305 710.359 238.664C709.352 239.711 708.148 240.234 706.75 240.234C705.5 240.234 704.473 239.883 703.668 239.18C702.871 238.469 702.473 237.57 702.473 236.484C702.473 235.164 702.973 234.141 703.973 233.414C704.98 232.68 706.395 232.312 708.215 232.312H710.324V231.316C710.324 230.559 710.098 229.957 709.645 229.512C709.191 229.059 708.523 228.832 707.641 228.832C706.867 228.832 706.219 229.027 705.695 229.418C705.172 229.809 704.91 230.281 704.91 230.836H702.73C702.73 230.203 702.953 229.594 703.398 229.008C703.852 228.414 704.461 227.945 705.227 227.602C706 227.258 706.848 227.086 707.77 227.086C709.23 227.086 710.375 227.453 711.203 228.188C712.031 228.914 712.461 229.918 712.492 231.199V237.035C712.492 238.199 712.641 239.125 712.938 239.812V240H710.664ZM707.066 238.348C707.746 238.348 708.391 238.172 709 237.82C709.609 237.469 710.051 237.012 710.324 236.449V233.848H708.625C705.969 233.848 704.641 234.625 704.641 236.18C704.641 236.859 704.867 237.391 705.32 237.773C705.773 238.156 706.355 238.348 707.066 238.348ZM722.02 229.266C721.691 229.211 721.336 229.184 720.953 229.184C719.531 229.184 718.566 229.789 718.059 231V240H715.891V227.32H718L718.035 228.785C718.746 227.652 719.754 227.086 721.059 227.086C721.48 227.086 721.801 227.141 722.02 227.25V229.266ZM728.383 236.824L731.336 227.32H733.656L728.559 241.957C727.77 244.066 726.516 245.121 724.797 245.121L724.387 245.086L723.578 244.934V243.176L724.164 243.223C724.898 243.223 725.469 243.074 725.875 242.777C726.289 242.48 726.629 241.938 726.895 241.148L727.375 239.859L722.852 227.32H725.219L728.383 236.824Z" fill="black"/>
<path d="M677.926 157.103H680.302L688.198 177.983H685.822L677.926 157.103ZM692.221 157.199H695.005V161.567L694.909 163.631C695.421 163.151 695.997 162.775 696.637 162.503C697.277 162.215 697.917 162.071 698.557 162.071C699.325 162.071 700.005 162.215 700.597 162.503C701.189 162.775 701.693 163.175 702.109 163.703C702.525 164.215 702.837 164.839 703.045 165.575C703.269 166.311 703.381 167.135 703.381 168.047C703.381 169.055 703.237 169.959 702.949 170.759C702.661 171.543 702.269 172.207 701.773 172.751C701.293 173.295 700.733 173.711 700.093 173.999C699.469 174.287 698.821 174.431 698.149 174.431C697.589 174.431 697.005 174.295 696.397 174.023C695.789 173.751 695.229 173.359 694.717 172.847H694.645L694.405 174.143H692.221V157.199ZM695.005 171.071C695.437 171.471 695.885 171.751 696.349 171.911C696.813 172.071 697.229 172.151 697.597 172.151C698.429 172.151 699.125 171.815 699.685 171.143C700.245 170.455 700.525 169.439 700.525 168.095C700.525 166.911 700.309 165.991 699.877 165.335C699.445 164.679 698.749 164.351 697.789 164.351C697.341 164.351 696.885 164.463 696.421 164.687C695.957 164.911 695.485 165.271 695.005 165.767V171.071Z" fill="#0072B2"/>
<path d="M328 14H697.063V62H328V14Z" fill="#F1F4F8"/>
<path d="M460.78 28.96H463.156L471.052 49.84H468.676L460.78 28.96ZM475.075 29.056H477.859V33.424L477.763 35.488C478.275 35.008 478.851 34.632 479.491 34.36C480.131 34.072 480.771 33.928 481.411 33.928C482.179 33.928 482.859 34.072 483.451 34.36C484.043 34.632 484.547 35.032 484.963 35.56C485.379 36.072 485.691 36.696 485.899 37.432C486.123 38.168 486.235 38.992 486.235 39.904C486.235 40.912 486.091 41.816 485.803 42.616C485.515 43.4 485.123 44.064 484.627 44.608C484.147 45.152 483.587 45.568 482.947 45.856C482.323 46.144 481.675 46.288 481.003 46.288C480.443 46.288 479.859 46.152 479.251 45.88C478.643 45.608 478.083 45.216 477.571 44.704H477.499L477.259 46H475.075V29.056ZM477.859 42.928C478.291 43.328 478.739 43.608 479.203 43.768C479.667 43.928 480.083 44.008 480.451 44.008C481.283 44.008 481.979 43.672 482.539 43C483.099 42.312 483.379 41.296 483.379 39.952C483.379 38.768 483.163 37.848 482.731 37.192C482.299 36.536 481.603 36.208 480.643 36.208C480.195 36.208 479.739 36.32 479.275 36.544C478.811 36.768 478.339 37.128 477.859 37.624V42.928ZM547.124 28.96H549.5L557.396 49.84H555.02L547.124 28.96ZM561.418 29.056H564.202V33.424L564.106 35.488C564.618 35.008 565.194 34.632 565.834 34.36C566.474 34.072 567.114 33.928 567.754 33.928C568.522 33.928 569.202 34.072 569.794 34.36C570.386 34.632 570.89 35.032 571.306 35.56C571.722 36.072 572.034 36.696 572.242 37.432C572.466 38.168 572.578 38.992 572.578 39.904C572.578 40.912 572.434 41.816 572.146 42.616C571.858 43.4 571.466 44.064 570.97 44.608C570.49 45.152 569.93 45.568 569.29 45.856C568.666 46.144 568.018 46.288 567.346 46.288C566.786 46.288 566.202 46.152 565.594 45.88C564.986 45.608 564.426 45.216 563.914 44.704H563.842L563.602 46H561.418V29.056ZM564.202 42.928C564.634 43.328 565.082 43.608 565.546 43.768C566.01 43.928 566.426 44.008 566.794 44.008C567.626 44.008 568.322 43.672 568.882 43C569.442 42.312 569.722 41.296 569.722 39.952C569.722 38.768 569.506 37.848 569.074 37.192C568.642 36.536 567.946 36.208 566.986 36.208C566.538 36.208 566.082 36.32 565.618 36.544C565.154 36.768 564.682 37.128 564.202 37.624V42.928Z" fill="#0072B2"/>
<path d="M492.609 29.008H499.473V30.52H494.745V48.136H499.473V49.648H492.609V29.008ZM537.821 48.136V30.52H533.117V29.008H539.981V49.648H533.117V48.136H537.821Z" fill="#219653"/>
<path d="M503.328 38.2C503.328 36.92 503.512 35.776 503.88 34.768C504.248 33.744 504.752 32.88 505.392 32.176C506.048 31.472 506.816 30.936 507.696 30.568C508.592 30.2 509.56 30.016 510.6 30.016C511.56 30.016 512.416 30.216 513.168 30.616C513.92 31.016 514.552 31.472 515.064 31.984L513.504 33.712C513.12 33.328 512.688 33.024 512.208 32.8C511.744 32.56 511.208 32.44 510.6 32.44C509.944 32.44 509.344 32.576 508.8 32.848C508.256 33.104 507.792 33.48 507.408 33.976C507.024 34.456 506.72 35.048 506.496 35.752C506.288 36.456 506.184 37.248 506.184 38.128C506.184 39.024 506.288 39.832 506.496 40.552C506.72 41.256 507.024 41.856 507.408 42.352C507.808 42.832 508.28 43.208 508.824 43.48C509.384 43.736 510 43.864 510.672 43.864C511.312 43.864 511.88 43.728 512.376 43.456C512.888 43.184 513.368 42.8 513.816 42.304L515.352 44.008C514.712 44.744 513.992 45.312 513.192 45.712C512.392 46.096 511.496 46.288 510.504 46.288C509.496 46.288 508.552 46.112 507.672 45.76C506.808 45.408 506.048 44.888 505.392 44.2C504.752 43.512 504.248 42.664 503.88 41.656C503.512 40.648 503.328 39.496 503.328 38.2ZM518.031 40.12C518.031 39.144 518.207 38.272 518.559 37.504C518.927 36.736 519.415 36.088 520.023 35.56C520.631 35.032 521.343 34.632 522.159 34.36C522.975 34.072 523.831 33.928 524.727 33.928C525.687 33.928 526.527 34.088 527.247 34.408C527.983 34.728 528.599 35.12 529.095 35.584L527.775 37.312C527.311 36.944 526.839 36.664 526.359 36.472C525.895 36.28 525.399 36.184 524.871 36.184C523.687 36.184 522.727 36.544 521.991 37.264C521.255 37.968 520.887 38.92 520.887 40.12C520.887 40.712 520.983 41.248 521.175 41.728C521.367 42.208 521.631 42.624 521.967 42.976C522.319 43.312 522.735 43.576 523.215 43.768C523.695 43.944 524.223 44.032 524.799 44.032C525.471 44.032 526.079 43.904 526.623 43.648C527.183 43.392 527.695 43.088 528.159 42.736L529.311 44.512C528.639 45.104 527.887 45.552 527.055 45.856C526.223 46.144 525.383 46.288 524.535 46.288C523.607 46.288 522.743 46.152 521.943 45.88C521.159 45.608 520.471 45.208 519.879 44.68C519.303 44.152 518.847 43.504 518.511 42.736C518.191 41.968 518.031 41.096 518.031 40.12Z" fill="#B82629"/>
</svg>
