<svg width="511" height="204" viewBox="0 0 511 204" fill="none" xmlns="http://www.w3.org/2000/svg">
<rect width="511" height="204" fill="white"/>
<path d="M44 42H491.287V151H44V42Z" fill="#F1F4F8"/>
<path d="M54.0994 53.88H56.4194V57.52L56.2794 59.62C56.7327 59.1667 57.2394 58.7733 57.7994 58.44C58.3727 58.1067 59.0394 57.94 59.7994 57.94C60.9327 57.94 61.766 58.2867 62.2994 58.98C62.8327 59.66 63.0994 60.64 63.0994 61.92V68H60.7794V62.22C60.7794 61.42 60.6394 60.84 60.3594 60.48C60.0927 60.1067 59.6194 59.92 58.9394 59.92C58.4594 59.92 58.0327 60.0333 57.6594 60.26C57.286 60.4867 56.8727 60.8333 56.4194 61.3V68H54.0994V53.88ZM66.0915 58.18H67.9915L68.1715 59.66H68.2515C68.7182 59.1933 69.2315 58.7933 69.7915 58.46C70.3649 58.1133 71.0315 57.94 71.7915 57.94C72.9249 57.94 73.7582 58.2867 74.2915 58.98C74.8249 59.66 75.0915 60.64 75.0915 61.92V68H72.7715V62.22C72.7715 61.42 72.6315 60.84 72.3515 60.48C72.0849 60.1067 71.6115 59.92 70.9315 59.92C70.4515 59.92 70.0249 60.0333 69.6515 60.26C69.2782 60.4867 68.8649 60.8333 68.4115 61.3V68H66.0915V58.18ZM87.2437 69.24V71.04H77.6437V69.24H87.2437ZM89.8959 63.1C89.8959 62.2867 90.0426 61.56 90.3359 60.92C90.6426 60.28 91.0492 59.74 91.5559 59.3C92.0626 58.86 92.6559 58.5267 93.3359 58.3C94.0159 58.06 94.7292 57.94 95.4759 57.94C96.2759 57.94 96.9759 58.0733 97.5759 58.34C98.1892 58.6067 98.7026 58.9333 99.1159 59.32L98.0159 60.76C97.6292 60.4533 97.2359 60.22 96.8359 60.06C96.4492 59.9 96.0359 59.82 95.5959 59.82C94.6092 59.82 93.8092 60.12 93.1959 60.72C92.5826 61.3067 92.2759 62.1 92.2759 63.1C92.2759 63.5933 92.3559 64.04 92.5159 64.44C92.6759 64.84 92.8959 65.1867 93.1759 65.48C93.4692 65.76 93.8159 65.98 94.2159 66.14C94.6159 66.2867 95.0559 66.36 95.5359 66.36C96.0959 66.36 96.6026 66.2533 97.0559 66.04C97.5226 65.8267 97.9492 65.5733 98.3359 65.28L99.2959 66.76C98.7359 67.2533 98.1092 67.6267 97.4159 67.88C96.7226 68.12 96.0226 68.24 95.3159 68.24C94.5426 68.24 93.8226 68.1267 93.1559 67.9C92.5026 67.6733 91.9292 67.34 91.4359 66.9C90.9559 66.46 90.5759 65.92 90.2959 65.28C90.0292 64.64 89.8959 63.9133 89.8959 63.1ZM101.848 53.88H107.248V64.54C107.248 65.2067 107.415 65.68 107.748 65.96C108.081 66.2267 108.501 66.36 109.008 66.36C109.488 66.36 110.048 66.2333 110.688 65.98L111.228 67.68C110.761 67.84 110.321 67.9733 109.908 68.08C109.508 68.1867 109.021 68.24 108.448 68.24C107.288 68.24 106.415 67.9067 105.828 67.24C105.241 66.5733 104.948 65.6333 104.948 64.42V55.7H101.848V53.88ZM113.66 63.1C113.66 62.3 113.8 61.58 114.08 60.94C114.374 60.3 114.754 59.76 115.22 59.32C115.687 58.8667 116.22 58.5267 116.82 58.3C117.434 58.06 118.06 57.94 118.7 57.94C119.434 57.94 120.08 58.06 120.64 58.3C121.214 58.5267 121.694 58.8467 122.08 59.26C122.467 59.66 122.76 60.1467 122.96 60.72C123.16 61.2933 123.26 61.92 123.26 62.6C123.26 62.8267 123.247 63.04 123.22 63.24C123.207 63.44 123.187 63.6 123.16 63.72H116.02C116.1 64.6 116.447 65.28 117.06 65.76C117.674 66.2267 118.427 66.46 119.32 66.46C119.827 66.46 120.3 66.3933 120.74 66.26C121.18 66.1133 121.627 65.9133 122.08 65.66L122.86 67.1C122.327 67.4333 121.734 67.7067 121.08 67.92C120.427 68.1333 119.74 68.24 119.02 68.24C118.274 68.24 117.574 68.1267 116.92 67.9C116.267 67.66 115.7 67.32 115.22 66.88C114.74 66.44 114.36 65.9067 114.08 65.28C113.8 64.64 113.66 63.9133 113.66 63.1ZM121.14 62.16C121.14 61.4 120.94 60.8067 120.54 60.38C120.14 59.94 119.547 59.72 118.76 59.72C118.094 59.72 117.5 59.9267 116.98 60.34C116.46 60.7533 116.134 61.36 116 62.16H121.14ZM125.832 65.36C125.832 64.8133 125.959 64.3333 126.212 63.92C126.466 63.4933 126.866 63.1333 127.412 62.84C127.959 62.5467 128.659 62.3067 129.512 62.12C130.366 61.9333 131.399 61.8 132.612 61.72C132.572 61.16 132.372 60.7 132.012 60.34C131.652 59.98 131.072 59.8 130.272 59.8C129.712 59.8 129.159 59.9067 128.612 60.12C128.079 60.32 127.559 60.56 127.052 60.84L126.212 59.3C126.812 58.9533 127.499 58.64 128.272 58.36C129.046 58.08 129.852 57.94 130.692 57.94C132.066 57.94 133.112 58.3067 133.832 59.04C134.552 59.76 134.912 60.8067 134.912 62.18V68H133.032L132.852 66.78H132.792C132.272 67.18 131.692 67.5267 131.052 67.82C130.426 68.1 129.779 68.24 129.112 68.24C128.632 68.24 128.192 68.1667 127.792 68.02C127.392 67.8867 127.046 67.6933 126.752 67.44C126.459 67.1867 126.232 66.8867 126.072 66.54C125.912 66.18 125.832 65.7867 125.832 65.36ZM128.052 65.18C128.052 65.62 128.219 65.94 128.552 66.14C128.899 66.34 129.319 66.44 129.812 66.44C130.306 66.44 130.779 66.3333 131.232 66.12C131.699 65.8933 132.159 65.6 132.612 65.24V63.16C131.732 63.2267 130.999 63.32 130.412 63.44C129.826 63.5467 129.359 63.6867 129.012 63.86C128.666 64.0333 128.419 64.2333 128.272 64.46C128.126 64.6733 128.052 64.9133 128.052 65.18ZM138.045 58.18H139.945L140.125 59.66H140.205C140.671 59.1933 141.185 58.7933 141.745 58.46C142.318 58.1133 142.985 57.94 143.745 57.94C144.878 57.94 145.711 58.2867 146.245 58.98C146.778 59.66 147.045 60.64 147.045 61.92V68H144.725V62.22C144.725 61.42 144.585 60.84 144.305 60.48C144.038 60.1067 143.565 59.92 142.885 59.92C142.405 59.92 141.978 60.0333 141.605 60.26C141.231 60.4867 140.818 60.8333 140.365 61.3V68H138.045V58.18Z" fill="#009E73"/>
<path d="M161.949 58.32H170.829V60H161.949V58.32ZM161.949 62.78H170.829V64.46H161.949V62.78ZM188.633 53.84H194.353V55.1H190.413V69.78H194.353V71.04H188.633V53.84ZM202.326 69.78V55.1H198.406V53.84H204.126V71.04H198.406V69.78H202.326ZM188.393 84.42C188.393 83.8333 188.58 83.3533 188.953 82.98C189.327 82.5933 189.8 82.4 190.373 82.4C190.947 82.4 191.42 82.5933 191.793 82.98C192.167 83.3533 192.353 83.8333 192.353 84.42C192.353 85.0067 192.167 85.4933 191.793 85.88C191.42 86.2533 190.947 86.44 190.373 86.44C189.8 86.44 189.327 86.2533 188.953 85.88C188.58 85.4933 188.393 85.0067 188.393 84.42ZM188.393 91.22C188.393 90.6333 188.58 90.1533 188.953 89.78C189.327 89.3933 189.8 89.2 190.373 89.2C190.947 89.2 191.42 89.3933 191.793 89.78C192.167 90.1533 192.353 90.6333 192.353 91.22C192.353 91.8067 192.167 92.2933 191.793 92.68C191.42 93.0533 190.947 93.24 190.373 93.24C189.8 93.24 189.327 93.0533 188.953 92.68C188.58 92.2933 188.393 91.8067 188.393 91.22ZM102.068 108.18H103.968L104.148 109.66H104.228C104.695 109.193 105.208 108.793 105.768 108.46C106.341 108.113 107.008 107.94 107.768 107.94C108.901 107.94 109.735 108.287 110.268 108.98C110.801 109.66 111.068 110.64 111.068 111.92V118H108.748V112.22C108.748 111.42 108.608 110.84 108.328 110.48C108.061 110.107 107.588 109.92 106.908 109.92C106.428 109.92 106.001 110.033 105.628 110.26C105.255 110.487 104.841 110.833 104.388 111.3V118H102.068V108.18ZM113.66 113.1C113.66 112.3 113.8 111.58 114.08 110.94C114.374 110.3 114.754 109.76 115.22 109.32C115.687 108.867 116.22 108.527 116.82 108.3C117.434 108.06 118.06 107.94 118.7 107.94C119.434 107.94 120.08 108.06 120.64 108.3C121.214 108.527 121.694 108.847 122.08 109.26C122.467 109.66 122.76 110.147 122.96 110.72C123.16 111.293 123.26 111.92 123.26 112.6C123.26 112.827 123.247 113.04 123.22 113.24C123.207 113.44 123.187 113.6 123.16 113.72H116.02C116.1 114.6 116.447 115.28 117.06 115.76C117.674 116.227 118.427 116.46 119.32 116.46C119.827 116.46 120.3 116.393 120.74 116.26C121.18 116.113 121.627 115.913 122.08 115.66L122.86 117.1C122.327 117.433 121.734 117.707 121.08 117.92C120.427 118.133 119.74 118.24 119.02 118.24C118.274 118.24 117.574 118.127 116.92 117.9C116.267 117.66 115.7 117.32 115.22 116.88C114.74 116.44 114.36 115.907 114.08 115.28C113.8 114.64 113.66 113.913 113.66 113.1ZM121.14 112.16C121.14 111.4 120.94 110.807 120.54 110.38C120.14 109.94 119.547 109.72 118.76 109.72C118.094 109.72 117.5 109.927 116.98 110.34C116.46 110.753 116.134 111.36 116 112.16H121.14ZM124.532 108.18H126.812L127.712 113.28C127.792 113.747 127.859 114.213 127.912 114.68C127.979 115.147 128.046 115.62 128.112 116.1H128.192C128.259 115.62 128.332 115.147 128.412 114.68C128.492 114.213 128.586 113.747 128.692 113.28L129.612 109.14H131.332L132.252 113.28C132.359 113.747 132.452 114.213 132.532 114.68C132.626 115.147 132.712 115.62 132.792 116.1H132.872C132.952 115.62 133.019 115.147 133.072 114.68C133.139 114.213 133.206 113.747 133.272 113.28L134.172 108.18H136.292L134.472 118H131.772L130.912 113.9C130.832 113.433 130.752 112.967 130.672 112.5C130.606 112.033 130.532 111.547 130.452 111.04H130.372C130.306 111.427 130.239 111.847 130.172 112.3C130.119 112.74 130.039 113.28 129.932 113.92L129.092 118H126.432L124.532 108.18ZM147.205 119.24V121.04H137.605V119.24H147.205ZM149.457 113.1C149.457 112.3 149.577 111.58 149.817 110.94C150.057 110.3 150.377 109.76 150.777 109.32C151.19 108.88 151.657 108.54 152.177 108.3C152.697 108.06 153.237 107.94 153.797 107.94C154.384 107.94 154.884 108.047 155.297 108.26C155.724 108.46 156.137 108.74 156.537 109.1L156.437 107.44V103.88H158.757V118H156.857L156.677 116.86H156.617C156.23 117.247 155.777 117.573 155.257 117.84C154.75 118.107 154.217 118.24 153.657 118.24C153.03 118.24 152.457 118.127 151.937 117.9C151.417 117.66 150.97 117.32 150.597 116.88C150.237 116.44 149.957 115.907 149.757 115.28C149.557 114.64 149.457 113.913 149.457 113.1ZM151.837 113.08C151.837 114.147 152.044 114.96 152.457 115.52C152.87 116.067 153.457 116.34 154.217 116.34C155.03 116.34 155.77 115.947 156.437 115.16V110.74C156.09 110.407 155.744 110.173 155.397 110.04C155.05 109.907 154.697 109.84 154.337 109.84C153.99 109.84 153.664 109.913 153.357 110.06C153.064 110.207 152.804 110.42 152.577 110.7C152.35 110.967 152.17 111.3 152.037 111.7C151.904 112.1 151.837 112.56 151.837 113.08ZM173.941 108.32H182.821V110H173.941V108.32ZM173.941 112.78H182.821V114.46H173.941V112.78ZM102.068 128.88H104.388V132.52L104.248 134.62C104.701 134.167 105.208 133.773 105.768 133.44C106.341 133.107 107.008 132.94 107.768 132.94C108.901 132.94 109.735 133.287 110.268 133.98C110.801 134.66 111.068 135.64 111.068 136.92V143H108.748V137.22C108.748 136.42 108.608 135.84 108.328 135.48C108.061 135.107 107.588 134.92 106.908 134.92C106.428 134.92 106.001 135.033 105.628 135.26C105.255 135.487 104.841 135.833 104.388 136.3V143H102.068V128.88ZM114.06 133.18H115.96L116.14 134.66H116.22C116.687 134.193 117.2 133.793 117.76 133.46C118.334 133.113 119 132.94 119.76 132.94C120.894 132.94 121.727 133.287 122.26 133.98C122.794 134.66 123.06 135.64 123.06 136.92V143H120.74V137.22C120.74 136.42 120.6 135.84 120.32 135.48C120.054 135.107 119.58 134.92 118.9 134.92C118.42 134.92 117.994 135.033 117.62 135.26C117.247 135.487 116.834 135.833 116.38 136.3V143H114.06V133.18ZM135.212 144.24V146.04H125.612V144.24H135.212ZM137.865 138.1C137.865 137.287 138.011 136.56 138.305 135.92C138.611 135.28 139.018 134.74 139.525 134.3C140.031 133.86 140.625 133.527 141.305 133.3C141.985 133.06 142.698 132.94 143.445 132.94C144.245 132.94 144.945 133.073 145.545 133.34C146.158 133.607 146.671 133.933 147.085 134.32L145.985 135.76C145.598 135.453 145.205 135.22 144.805 135.06C144.418 134.9 144.005 134.82 143.565 134.82C142.578 134.82 141.778 135.12 141.165 135.72C140.551 136.307 140.245 137.1 140.245 138.1C140.245 138.593 140.325 139.04 140.485 139.44C140.645 139.84 140.865 140.187 141.145 140.48C141.438 140.76 141.785 140.98 142.185 141.14C142.585 141.287 143.025 141.36 143.505 141.36C144.065 141.36 144.571 141.253 145.025 141.04C145.491 140.827 145.918 140.573 146.305 140.28L147.265 141.76C146.705 142.253 146.078 142.627 145.385 142.88C144.691 143.12 143.991 143.24 143.285 143.24C142.511 143.24 141.791 143.127 141.125 142.9C140.471 142.673 139.898 142.34 139.405 141.9C138.925 141.46 138.545 140.92 138.265 140.28C137.998 139.64 137.865 138.913 137.865 138.1ZM149.817 128.88H155.217V139.54C155.217 140.207 155.384 140.68 155.717 140.96C156.05 141.227 156.47 141.36 156.977 141.36C157.457 141.36 158.017 141.233 158.657 140.98L159.197 142.68C158.73 142.84 158.29 142.973 157.877 143.08C157.477 143.187 156.99 143.24 156.417 143.24C155.257 143.24 154.384 142.907 153.797 142.24C153.21 141.573 152.917 140.633 152.917 139.42V130.7H149.817V128.88ZM161.629 138.1C161.629 137.3 161.769 136.58 162.049 135.94C162.342 135.3 162.722 134.76 163.189 134.32C163.656 133.867 164.189 133.527 164.789 133.3C165.402 133.06 166.029 132.94 166.669 132.94C167.402 132.94 168.049 133.06 168.609 133.3C169.182 133.527 169.662 133.847 170.049 134.26C170.436 134.66 170.729 135.147 170.929 135.72C171.129 136.293 171.229 136.92 171.229 137.6C171.229 137.827 171.216 138.04 171.189 138.24C171.176 138.44 171.156 138.6 171.129 138.72H163.989C164.069 139.6 164.416 140.28 165.029 140.76C165.642 141.227 166.396 141.46 167.289 141.46C167.796 141.46 168.269 141.393 168.709 141.26C169.149 141.113 169.596 140.913 170.049 140.66L170.829 142.1C170.296 142.433 169.702 142.707 169.049 142.92C168.396 143.133 167.709 143.24 166.989 143.24C166.242 143.24 165.542 143.127 164.889 142.9C164.236 142.66 163.669 142.32 163.189 141.88C162.709 141.44 162.329 140.907 162.049 140.28C161.769 139.64 161.629 138.913 161.629 138.1ZM169.109 137.16C169.109 136.4 168.909 135.807 168.509 135.38C168.109 134.94 167.516 134.72 166.729 134.72C166.062 134.72 165.469 134.927 164.949 135.34C164.429 135.753 164.102 136.36 163.969 137.16H169.109ZM173.801 140.36C173.801 139.813 173.928 139.333 174.181 138.92C174.435 138.493 174.835 138.133 175.381 137.84C175.928 137.547 176.628 137.307 177.481 137.12C178.335 136.933 179.368 136.8 180.581 136.72C180.541 136.16 180.341 135.7 179.981 135.34C179.621 134.98 179.041 134.8 178.241 134.8C177.681 134.8 177.128 134.907 176.581 135.12C176.048 135.32 175.528 135.56 175.021 135.84L174.181 134.3C174.781 133.953 175.468 133.64 176.241 133.36C177.015 133.08 177.821 132.94 178.661 132.94C180.035 132.94 181.081 133.307 181.801 134.04C182.521 134.76 182.881 135.807 182.881 137.18V143H181.001L180.821 141.78H180.761C180.241 142.18 179.661 142.527 179.021 142.82C178.395 143.1 177.748 143.24 177.081 143.24C176.601 143.24 176.161 143.167 175.761 143.02C175.361 142.887 175.015 142.693 174.721 142.44C174.428 142.187 174.201 141.887 174.041 141.54C173.881 141.18 173.801 140.787 173.801 140.36ZM176.021 140.18C176.021 140.62 176.188 140.94 176.521 141.14C176.868 141.34 177.288 141.44 177.781 141.44C178.275 141.44 178.748 141.333 179.201 141.12C179.668 140.893 180.128 140.6 180.581 140.24V138.16C179.701 138.227 178.968 138.32 178.381 138.44C177.795 138.547 177.328 138.687 176.981 138.86C176.635 139.033 176.388 139.233 176.241 139.46C176.095 139.673 176.021 139.913 176.021 140.18ZM186.013 133.18H187.913L188.093 134.66H188.173C188.64 134.193 189.153 133.793 189.713 133.46C190.287 133.113 190.953 132.94 191.713 132.94C192.847 132.94 193.68 133.287 194.213 133.98C194.747 134.66 195.013 135.64 195.013 136.92V143H192.693V137.22C192.693 136.42 192.553 135.84 192.273 135.48C192.007 135.107 191.533 134.92 190.853 134.92C190.373 134.92 189.947 135.033 189.573 135.26C189.2 135.487 188.787 135.833 188.333 136.3V143H186.013V133.18ZM200.386 141.22C200.386 140.633 200.572 140.153 200.946 139.78C201.319 139.393 201.792 139.2 202.366 139.2C202.939 139.2 203.412 139.393 203.786 139.78C204.159 140.153 204.346 140.633 204.346 141.22C204.346 141.807 204.159 142.293 203.786 142.68C203.412 143.053 202.939 143.24 202.366 143.24C201.792 143.24 201.319 143.053 200.946 142.68C200.572 142.293 200.386 141.807 200.386 141.22ZM209.778 140.36C209.778 139.813 209.904 139.333 210.158 138.92C210.411 138.493 210.811 138.133 211.358 137.84C211.904 137.547 212.604 137.307 213.458 137.12C214.311 136.933 215.344 136.8 216.558 136.72C216.518 136.16 216.318 135.7 215.958 135.34C215.598 134.98 215.018 134.8 214.218 134.8C213.658 134.8 213.104 134.907 212.558 135.12C212.024 135.32 211.504 135.56 210.998 135.84L210.158 134.3C210.758 133.953 211.444 133.64 212.218 133.36C212.991 133.08 213.798 132.94 214.638 132.94C216.011 132.94 217.058 133.307 217.778 134.04C218.498 134.76 218.858 135.807 218.858 137.18V143H216.978L216.798 141.78H216.738C216.218 142.18 215.638 142.527 214.998 142.82C214.371 143.1 213.724 143.24 213.058 143.24C212.578 143.24 212.138 143.167 211.738 143.02C211.338 142.887 210.991 142.693 210.698 142.44C210.404 142.187 210.178 141.887 210.018 141.54C209.858 141.18 209.778 140.787 209.778 140.36ZM211.998 140.18C211.998 140.62 212.164 140.94 212.498 141.14C212.844 141.34 213.264 141.44 213.758 141.44C214.251 141.44 214.724 141.333 215.178 141.12C215.644 140.893 216.104 140.6 216.558 140.24V138.16C215.678 138.227 214.944 138.32 214.358 138.44C213.771 138.547 213.304 138.687 212.958 138.86C212.611 139.033 212.364 139.233 212.218 139.46C212.071 139.673 211.998 139.913 211.998 140.18ZM224.31 143.8V146.88H221.99V133.18H223.89L224.07 134.3H224.13C224.557 133.913 225.043 133.593 225.59 133.34C226.15 133.073 226.71 132.94 227.27 132.94C227.91 132.94 228.477 133.06 228.97 133.3C229.477 133.527 229.897 133.86 230.23 134.3C230.577 134.74 230.837 135.267 231.01 135.88C231.197 136.493 231.29 137.18 231.29 137.94C231.29 138.78 231.17 139.533 230.93 140.2C230.69 140.853 230.363 141.407 229.95 141.86C229.55 142.3 229.083 142.64 228.55 142.88C228.03 143.12 227.49 143.24 226.93 143.24C226.477 143.24 226.01 143.14 225.53 142.94C225.063 142.74 224.63 142.453 224.23 142.08L224.31 143.8ZM224.31 140.44C224.67 140.773 225.037 141.007 225.41 141.14C225.797 141.273 226.143 141.34 226.45 141.34C227.157 141.34 227.743 141.06 228.21 140.5C228.677 139.927 228.91 139.08 228.91 137.96C228.91 136.973 228.73 136.207 228.37 135.66C228.01 135.113 227.43 134.84 226.63 134.84C226.257 134.84 225.877 134.933 225.49 135.12C225.103 135.307 224.71 135.607 224.31 136.02V140.44ZM236.302 143.8V146.88H233.982V133.18H235.882L236.062 134.3H236.122C236.549 133.913 237.035 133.593 237.582 133.34C238.142 133.073 238.702 132.94 239.262 132.94C239.902 132.94 240.469 133.06 240.962 133.3C241.469 133.527 241.889 133.86 242.222 134.3C242.569 134.74 242.829 135.267 243.002 135.88C243.189 136.493 243.282 137.18 243.282 137.94C243.282 138.78 243.162 139.533 242.922 140.2C242.682 140.853 242.355 141.407 241.942 141.86C241.542 142.3 241.075 142.64 240.542 142.88C240.022 143.12 239.482 143.24 238.922 143.24C238.469 143.24 238.002 143.14 237.522 142.94C237.055 142.74 236.622 142.453 236.222 142.08L236.302 143.8ZM236.302 140.44C236.662 140.773 237.029 141.007 237.402 141.14C237.789 141.273 238.135 141.34 238.442 141.34C239.149 141.34 239.735 141.06 240.202 140.5C240.669 139.927 240.902 139.08 240.902 137.96C240.902 136.973 240.722 136.207 240.362 135.66C240.002 135.113 239.422 134.84 238.622 134.84C238.249 134.84 237.869 134.933 237.482 135.12C237.095 135.307 236.702 135.607 236.302 136.02V140.44ZM245.574 138.1C245.574 137.3 245.714 136.58 245.994 135.94C246.288 135.3 246.668 134.76 247.134 134.32C247.601 133.867 248.134 133.527 248.734 133.3C249.348 133.06 249.974 132.94 250.614 132.94C251.348 132.94 251.994 133.06 252.554 133.3C253.128 133.527 253.608 133.847 253.994 134.26C254.381 134.66 254.674 135.147 254.874 135.72C255.074 136.293 255.174 136.92 255.174 137.6C255.174 137.827 255.161 138.04 255.134 138.24C255.121 138.44 255.101 138.6 255.074 138.72H247.934C248.014 139.6 248.361 140.28 248.974 140.76C249.588 141.227 250.341 141.46 251.234 141.46C251.741 141.46 252.214 141.393 252.654 141.26C253.094 141.113 253.541 140.913 253.994 140.66L254.774 142.1C254.241 142.433 253.648 142.707 252.994 142.92C252.341 143.133 251.654 143.24 250.934 143.24C250.188 143.24 249.488 143.127 248.834 142.9C248.181 142.66 247.614 142.32 247.134 141.88C246.654 141.44 246.274 140.907 245.994 140.28C245.714 139.64 245.574 138.913 245.574 138.1ZM253.054 137.16C253.054 136.4 252.854 135.807 252.454 135.38C252.054 134.94 251.461 134.72 250.674 134.72C250.008 134.72 249.414 134.927 248.894 135.34C248.374 135.753 248.048 136.36 247.914 137.16H253.054ZM257.967 133.18H259.867L260.047 134.66H260.127C260.593 134.193 261.107 133.793 261.667 133.46C262.24 133.113 262.907 132.94 263.667 132.94C264.8 132.94 265.633 133.287 266.167 133.98C266.7 134.66 266.967 135.64 266.967 136.92V143H264.647V137.22C264.647 136.42 264.507 135.84 264.227 135.48C263.96 135.107 263.487 134.92 262.807 134.92C262.327 134.92 261.9 135.033 261.527 135.26C261.153 135.487 260.74 135.833 260.287 136.3V143H257.967V133.18ZM269.379 138.1C269.379 137.3 269.499 136.58 269.739 135.94C269.979 135.3 270.299 134.76 270.699 134.32C271.112 133.88 271.579 133.54 272.099 133.3C272.619 133.06 273.159 132.94 273.719 132.94C274.305 132.94 274.805 133.047 275.219 133.26C275.645 133.46 276.059 133.74 276.459 134.1L276.359 132.44V128.88H278.679V143H276.779L276.599 141.86H276.539C276.152 142.247 275.699 142.573 275.179 142.84C274.672 143.107 274.139 143.24 273.579 143.24C272.952 143.24 272.379 143.127 271.859 142.9C271.339 142.66 270.892 142.32 270.519 141.88C270.159 141.44 269.879 140.907 269.679 140.28C269.479 139.64 269.379 138.913 269.379 138.1ZM271.759 138.08C271.759 139.147 271.965 139.96 272.379 140.52C272.792 141.067 273.379 141.34 274.139 141.34C274.952 141.34 275.692 140.947 276.359 140.16V135.74C276.012 135.407 275.665 135.173 275.319 135.04C274.972 134.907 274.619 134.84 274.259 134.84C273.912 134.84 273.585 134.913 273.279 135.06C272.985 135.207 272.725 135.42 272.499 135.7C272.272 135.967 272.092 136.3 271.959 136.7C271.825 137.1 271.759 137.56 271.759 138.08ZM288.551 146.54C287.204 145.42 286.138 144.1 285.351 142.58C284.578 141.06 284.191 139.347 284.191 137.44C284.191 135.533 284.578 133.82 285.351 132.3C286.138 130.78 287.204 129.46 288.551 128.34L289.831 129.4C288.564 130.547 287.638 131.767 287.051 133.06C286.464 134.353 286.171 135.813 286.171 137.44C286.171 139.067 286.464 140.527 287.051 141.82C287.638 143.113 288.564 144.333 289.831 145.48L288.551 146.54ZM354.744 145.48C356.011 144.333 356.937 143.113 357.524 141.82C358.111 140.527 358.404 139.067 358.404 137.44C358.404 135.813 358.111 134.353 357.524 133.06C356.937 131.767 356.011 130.547 354.744 129.4L356.024 128.34C357.371 129.46 358.431 130.78 359.204 132.3C359.991 133.82 360.384 135.533 360.384 137.44C360.384 139.347 359.991 141.06 359.204 142.58C358.431 144.1 357.371 145.42 356.024 146.54L354.744 145.48Z" fill="#2E383C"/>
<path d="M63.6194 80.88C63.2594 80.7333 62.906 80.6267 62.5594 80.56C62.226 80.4933 61.8594 80.46 61.4594 80.46C60.6994 80.46 60.146 80.6467 59.7994 81.02C59.466 81.38 59.2994 81.9067 59.2994 82.6V83.18H63.0394V85H59.2994V93H57.0194V85H54.2994V83.28L57.0194 83.18V82.64C57.0194 82.0667 57.0994 81.5333 57.2594 81.04C57.4194 80.5467 57.666 80.1267 57.9994 79.78C58.346 79.42 58.7794 79.14 59.2994 78.94C59.8327 78.74 60.4594 78.64 61.1794 78.64C61.7127 78.64 62.2194 78.6867 62.6994 78.78C63.1927 78.8733 63.6594 79.0067 64.0994 79.18L63.6194 80.88ZM65.5115 88.1C65.5115 87.2867 65.6449 86.56 65.9115 85.92C66.1915 85.28 66.5582 84.74 67.0115 84.3C67.4649 83.86 67.9915 83.5267 68.5915 83.3C69.1915 83.06 69.8115 82.94 70.4515 82.94C71.0915 82.94 71.7115 83.06 72.3115 83.3C72.9115 83.5267 73.4382 83.86 73.8915 84.3C74.3449 84.74 74.7049 85.28 74.9715 85.92C75.2515 86.56 75.3915 87.2867 75.3915 88.1C75.3915 88.9133 75.2515 89.64 74.9715 90.28C74.7049 90.92 74.3449 91.46 73.8915 91.9C73.4382 92.34 72.9115 92.6733 72.3115 92.9C71.7115 93.1267 71.0915 93.24 70.4515 93.24C69.8115 93.24 69.1915 93.1267 68.5915 92.9C67.9915 92.6733 67.4649 92.34 67.0115 91.9C66.5582 91.46 66.1915 90.92 65.9115 90.28C65.6449 89.64 65.5115 88.9133 65.5115 88.1ZM67.8915 88.1C67.8915 89.0867 68.1182 89.88 68.5715 90.48C69.0249 91.0667 69.6515 91.36 70.4515 91.36C71.2515 91.36 71.8782 91.0667 72.3315 90.48C72.7849 89.88 73.0115 89.0867 73.0115 88.1C73.0115 87.1 72.7849 86.3067 72.3315 85.72C71.8782 85.12 71.2515 84.82 70.4515 84.82C69.6515 84.82 69.0249 85.12 68.5715 85.72C68.1182 86.3067 67.8915 87.1 67.8915 88.1ZM79.0437 83.18H80.9437L81.1437 85.4H81.2037C81.7104 84.6 82.3171 83.9933 83.0237 83.58C83.7437 83.1533 84.5304 82.94 85.3837 82.94C85.7837 82.94 86.1237 82.9733 86.4037 83.04C86.6971 83.0933 86.9904 83.1933 87.2837 83.34L86.8037 85.28C86.4837 85.1733 86.1971 85.1 85.9437 85.06C85.7037 85.0067 85.3971 84.98 85.0237 84.98C84.3437 84.98 83.6904 85.1733 83.0637 85.56C82.4371 85.9467 81.8704 86.62 81.3637 87.58V93H79.0437V83.18ZM101.488 88.1C101.488 87.3 101.608 86.58 101.848 85.94C102.088 85.3 102.408 84.76 102.808 84.32C103.221 83.88 103.688 83.54 104.208 83.3C104.728 83.06 105.268 82.94 105.828 82.94C106.415 82.94 106.915 83.0467 107.328 83.26C107.755 83.46 108.168 83.74 108.568 84.1L108.468 82.44V78.88H110.788V93H108.888L108.708 91.86H108.648C108.261 92.2467 107.808 92.5733 107.288 92.84C106.781 93.1067 106.248 93.24 105.688 93.24C105.061 93.24 104.488 93.1267 103.968 92.9C103.448 92.66 103.001 92.32 102.628 91.88C102.268 91.44 101.988 90.9067 101.788 90.28C101.588 89.64 101.488 88.9133 101.488 88.1ZM103.868 88.08C103.868 89.1467 104.075 89.96 104.488 90.52C104.901 91.0667 105.488 91.34 106.248 91.34C107.061 91.34 107.801 90.9467 108.468 90.16V85.74C108.121 85.4067 107.775 85.1733 107.428 85.04C107.081 84.9067 106.728 84.84 106.368 84.84C106.021 84.84 105.695 84.9133 105.388 85.06C105.095 85.2067 104.835 85.42 104.608 85.7C104.381 85.9667 104.201 86.3 104.068 86.7C103.935 87.1 103.868 87.56 103.868 88.08ZM126.092 83.18H132.652V93H130.352V85H126.092V83.18ZM131.332 81.46C130.866 81.46 130.472 81.32 130.152 81.04C129.846 80.76 129.692 80.3867 129.692 79.92C129.692 79.4533 129.846 79.08 130.152 78.8C130.472 78.5067 130.866 78.36 131.332 78.36C131.812 78.36 132.206 78.5067 132.512 78.8C132.819 79.08 132.972 79.4533 132.972 79.92C132.972 80.3867 132.819 80.76 132.512 81.04C132.206 81.32 131.812 81.46 131.332 81.46ZM138.045 83.18H139.945L140.125 84.66H140.205C140.671 84.1933 141.185 83.7933 141.745 83.46C142.318 83.1133 142.985 82.94 143.745 82.94C144.878 82.94 145.711 83.2867 146.245 83.98C146.778 84.66 147.045 85.64 147.045 86.92V93H144.725V87.22C144.725 86.42 144.585 85.84 144.305 85.48C144.038 85.1067 143.565 84.92 142.885 84.92C142.405 84.92 141.978 85.0333 141.605 85.26C141.231 85.4867 140.818 85.8333 140.365 86.3V93H138.045V83.18ZM162.029 78.88H164.349V82.52L164.209 84.62C164.662 84.1667 165.169 83.7733 165.729 83.44C166.302 83.1067 166.969 82.94 167.729 82.94C168.862 82.94 169.696 83.2867 170.229 83.98C170.762 84.66 171.029 85.64 171.029 86.92V93H168.709V87.22C168.709 86.42 168.569 85.84 168.289 85.48C168.022 85.1067 167.549 84.92 166.869 84.92C166.389 84.92 165.962 85.0333 165.589 85.26C165.216 85.4867 164.802 85.8333 164.349 86.3V93H162.029V78.88ZM174.021 83.18H175.921L176.101 84.66H176.181C176.648 84.1933 177.161 83.7933 177.721 83.46C178.295 83.1133 178.961 82.94 179.721 82.94C180.855 82.94 181.688 83.2867 182.221 83.98C182.755 84.66 183.021 85.64 183.021 86.92V93H180.701V87.22C180.701 86.42 180.561 85.84 180.281 85.48C180.015 85.1067 179.541 84.92 178.861 84.92C178.381 84.92 177.955 85.0333 177.581 85.26C177.208 85.4867 176.795 85.8333 176.341 86.3V93H174.021V83.18Z" fill="#9B51E0"/>
<path d="M197.426 113.1C197.426 112.3 197.546 111.58 197.786 110.94C198.026 110.3 198.346 109.76 198.746 109.32C199.159 108.88 199.626 108.54 200.146 108.3C200.666 108.06 201.206 107.94 201.766 107.94C202.352 107.94 202.852 108.047 203.266 108.26C203.692 108.46 204.106 108.74 204.506 109.1L204.406 107.44V103.88H206.726V118H204.826L204.646 116.86H204.586C204.199 117.247 203.746 117.573 203.226 117.84C202.719 118.107 202.186 118.24 201.626 118.24C200.999 118.24 200.426 118.127 199.906 117.9C199.386 117.66 198.939 117.32 198.566 116.88C198.206 116.44 197.926 115.907 197.726 115.28C197.526 114.64 197.426 113.913 197.426 113.1ZM199.806 113.08C199.806 114.147 200.012 114.96 200.426 115.52C200.839 116.067 201.426 116.34 202.186 116.34C202.999 116.34 203.739 115.947 204.406 115.16V110.74C204.059 110.407 203.712 110.173 203.366 110.04C203.019 109.907 202.666 109.84 202.306 109.84C201.959 109.84 201.632 109.913 201.326 110.06C201.032 110.207 200.772 110.42 200.546 110.7C200.319 110.967 200.139 111.3 200.006 111.7C199.872 112.1 199.806 112.56 199.806 113.08ZM209.598 113.1C209.598 112.3 209.738 111.58 210.018 110.94C210.311 110.3 210.691 109.76 211.158 109.32C211.624 108.867 212.158 108.527 212.758 108.3C213.371 108.06 213.998 107.94 214.638 107.94C215.371 107.94 216.018 108.06 216.578 108.3C217.151 108.527 217.631 108.847 218.018 109.26C218.404 109.66 218.698 110.147 218.898 110.72C219.098 111.293 219.198 111.92 219.198 112.6C219.198 112.827 219.184 113.04 219.158 113.24C219.144 113.44 219.124 113.6 219.098 113.72H211.958C212.038 114.6 212.384 115.28 212.998 115.76C213.611 116.227 214.364 116.46 215.258 116.46C215.764 116.46 216.238 116.393 216.678 116.26C217.118 116.113 217.564 115.913 218.018 115.66L218.798 117.1C218.264 117.433 217.671 117.707 217.018 117.92C216.364 118.133 215.678 118.24 214.958 118.24C214.211 118.24 213.511 118.127 212.858 117.9C212.204 117.66 211.638 117.32 211.158 116.88C210.678 116.44 210.298 115.907 210.018 115.28C209.738 114.64 209.598 113.913 209.598 113.1ZM217.078 112.16C217.078 111.4 216.878 110.807 216.478 110.38C216.078 109.94 215.484 109.72 214.698 109.72C214.031 109.72 213.438 109.927 212.918 110.34C212.398 110.753 212.071 111.36 211.938 112.16H217.078ZM221.77 103.88H227.17V114.54C227.17 115.207 227.337 115.68 227.67 115.96C228.003 116.227 228.423 116.36 228.93 116.36C229.41 116.36 229.97 116.233 230.61 115.98L231.15 117.68C230.683 117.84 230.243 117.973 229.83 118.08C229.43 118.187 228.943 118.24 228.37 118.24C227.21 118.24 226.337 117.907 225.75 117.24C225.163 116.573 224.87 115.633 224.87 114.42V105.7H221.77V103.88ZM243.142 119.24V121.04H233.542V119.24H243.142ZM246.134 103.88H248.454V112.72H248.534L252.954 108.18H255.514L251.714 112.14L255.934 118H253.414L250.334 113.56L248.454 115.44V118H246.134V103.88ZM257.567 113.1C257.567 112.3 257.707 111.58 257.987 110.94C258.28 110.3 258.66 109.76 259.127 109.32C259.593 108.867 260.127 108.527 260.727 108.3C261.34 108.06 261.967 107.94 262.607 107.94C263.34 107.94 263.987 108.06 264.547 108.3C265.12 108.527 265.6 108.847 265.987 109.26C266.373 109.66 266.667 110.147 266.867 110.72C267.067 111.293 267.167 111.92 267.167 112.6C267.167 112.827 267.153 113.04 267.127 113.24C267.113 113.44 267.093 113.6 267.067 113.72H259.927C260.007 114.6 260.353 115.28 260.967 115.76C261.58 116.227 262.333 116.46 263.227 116.46C263.733 116.46 264.207 116.393 264.647 116.26C265.087 116.113 265.533 115.913 265.987 115.66L266.767 117.1C266.233 117.433 265.64 117.707 264.987 117.92C264.333 118.133 263.647 118.24 262.927 118.24C262.18 118.24 261.48 118.127 260.827 117.9C260.173 117.66 259.607 117.32 259.127 116.88C258.647 116.44 258.267 115.907 257.987 115.28C257.707 114.64 257.567 113.913 257.567 113.1ZM265.047 112.16C265.047 111.4 264.847 110.807 264.447 110.38C264.047 109.94 263.453 109.72 262.667 109.72C262 109.72 261.407 109.927 260.887 110.34C260.367 110.753 260.04 111.36 259.907 112.16H265.047ZM270.099 120.04C270.232 120.08 270.365 120.113 270.499 120.14C270.632 120.167 270.772 120.18 270.919 120.18C271.545 120.18 272.045 120.02 272.419 119.7C272.792 119.393 273.079 118.993 273.279 118.5L273.519 117.88L269.119 108.18H271.419L273.439 113C273.625 113.44 273.805 113.907 273.979 114.4C274.152 114.893 274.332 115.387 274.519 115.88H274.599C274.745 115.413 274.905 114.933 275.079 114.44C275.252 113.947 275.419 113.467 275.579 113L277.359 108.18H279.539L275.439 118.44C275.225 119 274.985 119.5 274.719 119.94C274.465 120.38 274.165 120.753 273.819 121.06C273.472 121.38 273.072 121.62 272.619 121.78C272.165 121.953 271.645 122.04 271.059 122.04C270.792 122.04 270.539 122.02 270.299 121.98C270.059 121.953 269.845 121.907 269.659 121.84L270.099 120.04ZM288.551 121.54C287.204 120.42 286.138 119.1 285.351 117.58C284.578 116.06 284.191 114.347 284.191 112.44C284.191 110.533 284.578 108.82 285.351 107.3C286.138 105.78 287.204 104.46 288.551 103.34L289.831 104.4C288.564 105.547 287.638 106.767 287.051 108.06C286.464 109.353 286.171 110.813 286.171 112.44C286.171 114.067 286.464 115.527 287.051 116.82C287.638 118.113 288.564 119.333 289.831 120.48L288.551 121.54ZM293.363 113.1C293.363 112.3 293.483 111.58 293.723 110.94C293.963 110.3 294.283 109.76 294.683 109.32C295.096 108.88 295.563 108.54 296.083 108.3C296.603 108.06 297.143 107.94 297.703 107.94C298.29 107.94 298.79 108.047 299.203 108.26C299.63 108.46 300.043 108.74 300.443 109.1L300.343 107.44V103.88H302.663V118H300.763L300.583 116.86H300.523C300.136 117.247 299.683 117.573 299.163 117.84C298.656 118.107 298.123 118.24 297.563 118.24C296.936 118.24 296.363 118.127 295.843 117.9C295.323 117.66 294.876 117.32 294.503 116.88C294.143 116.44 293.863 115.907 293.663 115.28C293.463 114.64 293.363 113.913 293.363 113.1ZM295.743 113.08C295.743 114.147 295.95 114.96 296.363 115.52C296.776 116.067 297.363 116.34 298.123 116.34C298.936 116.34 299.676 115.947 300.343 115.16V110.74C299.996 110.407 299.65 110.173 299.303 110.04C298.956 109.907 298.603 109.84 298.243 109.84C297.896 109.84 297.57 109.913 297.263 110.06C296.97 110.207 296.71 110.42 296.483 110.7C296.256 110.967 296.076 111.3 295.943 111.7C295.81 112.1 295.743 112.56 295.743 113.08ZM308.075 120.92C309.769 120.24 310.622 119.213 310.635 117.84C310.569 117.853 310.475 117.86 310.355 117.86C309.849 117.86 309.409 117.713 309.035 117.42C308.662 117.113 308.475 116.667 308.475 116.08C308.475 115.52 308.662 115.087 309.035 114.78C309.422 114.46 309.875 114.3 310.395 114.3C311.115 114.3 311.655 114.567 312.015 115.1C312.375 115.633 312.555 116.367 312.555 117.3C312.555 118.527 312.222 119.56 311.555 120.4C310.889 121.253 309.929 121.887 308.675 122.3L308.075 120.92ZM332.94 106.84L332.88 104.28H335.68L335.62 106.84L335.02 111.46H333.54L332.94 106.84ZM341.732 113.1C341.732 112.287 341.879 111.56 342.172 110.92C342.479 110.28 342.885 109.74 343.392 109.3C343.899 108.86 344.492 108.527 345.172 108.3C345.852 108.06 346.565 107.94 347.312 107.94C348.112 107.94 348.812 108.073 349.412 108.34C350.025 108.607 350.539 108.933 350.952 109.32L349.852 110.76C349.465 110.453 349.072 110.22 348.672 110.06C348.285 109.9 347.872 109.82 347.432 109.82C346.445 109.82 345.645 110.12 345.032 110.72C344.419 111.307 344.112 112.1 344.112 113.1C344.112 113.593 344.192 114.04 344.352 114.44C344.512 114.84 344.732 115.187 345.012 115.48C345.305 115.76 345.652 115.98 346.052 116.14C346.452 116.287 346.892 116.36 347.372 116.36C347.932 116.36 348.439 116.253 348.892 116.04C349.359 115.827 349.785 115.573 350.172 115.28L351.132 116.76C350.572 117.253 349.945 117.627 349.252 117.88C348.559 118.12 347.859 118.24 347.152 118.24C346.379 118.24 345.659 118.127 344.992 117.9C344.339 117.673 343.765 117.34 343.272 116.9C342.792 116.46 342.412 115.92 342.132 115.28C341.865 114.64 341.732 113.913 341.732 113.1ZM354.864 108.18H356.764L356.964 110.4H357.024C357.531 109.6 358.137 108.993 358.844 108.58C359.564 108.153 360.351 107.94 361.204 107.94C361.604 107.94 361.944 107.973 362.224 108.04C362.517 108.093 362.811 108.193 363.104 108.34L362.624 110.28C362.304 110.173 362.017 110.1 361.764 110.06C361.524 110.007 361.217 109.98 360.844 109.98C360.164 109.98 359.511 110.173 358.884 110.56C358.257 110.947 357.691 111.62 357.184 112.58V118H354.864V108.18ZM365.496 113.1C365.496 112.3 365.636 111.58 365.916 110.94C366.21 110.3 366.59 109.76 367.056 109.32C367.523 108.867 368.056 108.527 368.656 108.3C369.27 108.06 369.896 107.94 370.536 107.94C371.27 107.94 371.916 108.06 372.476 108.3C373.05 108.527 373.53 108.847 373.916 109.26C374.303 109.66 374.596 110.147 374.796 110.72C374.996 111.293 375.096 111.92 375.096 112.6C375.096 112.827 375.083 113.04 375.056 113.24C375.043 113.44 375.023 113.6 374.996 113.72H367.856C367.936 114.6 368.283 115.28 368.896 115.76C369.51 116.227 370.263 116.46 371.156 116.46C371.663 116.46 372.136 116.393 372.576 116.26C373.016 116.113 373.463 115.913 373.916 115.66L374.696 117.1C374.163 117.433 373.57 117.707 372.916 117.92C372.263 118.133 371.576 118.24 370.856 118.24C370.11 118.24 369.41 118.127 368.756 117.9C368.103 117.66 367.536 117.32 367.056 116.88C366.576 116.44 366.196 115.907 365.916 115.28C365.636 114.64 365.496 113.913 365.496 113.1ZM372.976 112.16C372.976 111.4 372.776 110.807 372.376 110.38C371.976 109.94 371.383 109.72 370.596 109.72C369.93 109.72 369.336 109.927 368.816 110.34C368.296 110.753 367.97 111.36 367.836 112.16H372.976ZM377.668 115.36C377.668 114.813 377.795 114.333 378.048 113.92C378.302 113.493 378.702 113.133 379.248 112.84C379.795 112.547 380.495 112.307 381.348 112.12C382.202 111.933 383.235 111.8 384.448 111.72C384.408 111.16 384.208 110.7 383.848 110.34C383.488 109.98 382.908 109.8 382.108 109.8C381.548 109.8 380.995 109.907 380.448 110.12C379.915 110.32 379.395 110.56 378.888 110.84L378.048 109.3C378.648 108.953 379.335 108.64 380.108 108.36C380.882 108.08 381.688 107.94 382.528 107.94C383.902 107.94 384.948 108.307 385.668 109.04C386.388 109.76 386.748 110.807 386.748 112.18V118H384.868L384.688 116.78H384.628C384.108 117.18 383.528 117.527 382.888 117.82C382.262 118.1 381.615 118.24 380.948 118.24C380.468 118.24 380.028 118.167 379.628 118.02C379.228 117.887 378.882 117.693 378.588 117.44C378.295 117.187 378.068 116.887 377.908 116.54C377.748 116.18 377.668 115.787 377.668 115.36ZM379.888 115.18C379.888 115.62 380.055 115.94 380.388 116.14C380.735 116.34 381.155 116.44 381.648 116.44C382.142 116.44 382.615 116.333 383.068 116.12C383.535 115.893 383.995 115.6 384.448 115.24V113.16C383.568 113.227 382.835 113.32 382.248 113.44C381.662 113.547 381.195 113.687 380.848 113.86C380.502 114.033 380.255 114.233 380.108 114.46C379.962 114.673 379.888 114.913 379.888 115.18ZM392.041 110H389.421V108.28L392.141 108.18L392.441 105.5H394.341V108.18H398.821V110H394.341V114.04C394.341 114.853 394.507 115.453 394.841 115.84C395.174 116.213 395.761 116.4 396.601 116.4C397.027 116.4 397.414 116.367 397.761 116.3C398.107 116.22 398.441 116.12 398.761 116L399.201 117.68C398.761 117.827 398.274 117.953 397.741 118.06C397.207 118.18 396.641 118.24 396.041 118.24C395.294 118.24 394.667 118.14 394.161 117.94C393.654 117.74 393.241 117.46 392.921 117.1C392.614 116.727 392.387 116.28 392.241 115.76C392.107 115.24 392.041 114.667 392.041 114.04V110ZM401.473 113.1C401.473 112.3 401.613 111.58 401.893 110.94C402.186 110.3 402.566 109.76 403.033 109.32C403.499 108.867 404.033 108.527 404.633 108.3C405.246 108.06 405.873 107.94 406.513 107.94C407.246 107.94 407.893 108.06 408.453 108.3C409.026 108.527 409.506 108.847 409.893 109.26C410.279 109.66 410.573 110.147 410.773 110.72C410.973 111.293 411.073 111.92 411.073 112.6C411.073 112.827 411.059 113.04 411.033 113.24C411.019 113.44 410.999 113.6 410.973 113.72H403.833C403.913 114.6 404.259 115.28 404.873 115.76C405.486 116.227 406.239 116.46 407.133 116.46C407.639 116.46 408.113 116.393 408.553 116.26C408.993 116.113 409.439 115.913 409.893 115.66L410.673 117.1C410.139 117.433 409.546 117.707 408.893 117.92C408.239 118.133 407.553 118.24 406.833 118.24C406.086 118.24 405.386 118.127 404.733 117.9C404.079 117.66 403.513 117.32 403.033 116.88C402.553 116.44 402.173 115.907 401.893 115.28C401.613 114.64 401.473 113.913 401.473 113.1ZM408.953 112.16C408.953 111.4 408.753 110.807 408.353 110.38C407.953 109.94 407.359 109.72 406.573 109.72C405.906 109.72 405.313 109.927 404.793 110.34C404.273 110.753 403.946 111.36 403.813 112.16H408.953ZM413.285 113.1C413.285 112.3 413.405 111.58 413.645 110.94C413.885 110.3 414.205 109.76 414.605 109.32C415.018 108.88 415.485 108.54 416.005 108.3C416.525 108.06 417.065 107.94 417.625 107.94C418.212 107.94 418.712 108.047 419.125 108.26C419.552 108.46 419.965 108.74 420.365 109.1L420.265 107.44V103.88H422.585V118H420.685L420.505 116.86H420.445C420.058 117.247 419.605 117.573 419.085 117.84C418.578 118.107 418.045 118.24 417.485 118.24C416.858 118.24 416.285 118.127 415.765 117.9C415.245 117.66 414.798 117.32 414.425 116.88C414.065 116.44 413.785 115.907 413.585 115.28C413.385 114.64 413.285 113.913 413.285 113.1ZM415.665 113.08C415.665 114.147 415.872 114.96 416.285 115.52C416.698 116.067 417.285 116.34 418.045 116.34C418.858 116.34 419.598 115.947 420.265 115.16V110.74C419.918 110.407 419.572 110.173 419.225 110.04C418.878 109.907 418.525 109.84 418.165 109.84C417.818 109.84 417.492 109.913 417.185 110.06C416.892 110.207 416.632 110.42 416.405 110.7C416.178 110.967 415.998 111.3 415.865 111.7C415.732 112.1 415.665 112.56 415.665 113.08ZM431.837 112.64L431.377 111.04C431.19 110.347 430.997 109.633 430.797 108.9C430.597 108.167 430.404 107.44 430.217 106.72H430.137C429.95 107.453 429.757 108.187 429.557 108.92C429.37 109.64 429.177 110.347 428.977 111.04L428.517 112.64H431.837ZM432.357 114.46H427.997L426.977 118H424.617L428.857 104.92H431.577L435.817 118H433.357L432.357 114.46ZM440.009 110H437.389V108.28L440.109 108.18L440.409 105.5H442.309V108.18H446.789V110H442.309V114.04C442.309 114.853 442.476 115.453 442.809 115.84C443.143 116.213 443.729 116.4 444.569 116.4C444.996 116.4 445.383 116.367 445.729 116.3C446.076 116.22 446.409 116.12 446.729 116L447.169 117.68C446.729 117.827 446.243 117.953 445.709 118.06C445.176 118.18 444.609 118.24 444.009 118.24C443.263 118.24 442.636 118.14 442.129 117.94C441.623 117.74 441.209 117.46 440.889 117.1C440.583 116.727 440.356 116.28 440.209 115.76C440.076 115.24 440.009 114.667 440.009 114.04V110ZM449.882 116.04H453.042V106.88H449.882V104.92H458.522V106.88H455.362V116.04H458.522V118H449.882V116.04ZM464.854 106.84L464.794 104.28H467.594L467.534 106.84L466.934 111.46H465.454L464.854 106.84ZM474.666 120.48C475.933 119.333 476.859 118.113 477.446 116.82C478.033 115.527 478.326 114.067 478.326 112.44C478.326 110.813 478.033 109.353 477.446 108.06C476.859 106.767 475.933 105.547 474.666 104.4L475.946 103.34C477.293 104.46 478.353 105.78 479.126 107.3C479.913 108.82 480.306 110.533 480.306 112.44C480.306 114.347 479.913 116.06 479.126 117.58C478.353 119.1 477.293 120.42 475.946 121.54L474.666 120.48ZM293.943 133.18H295.843L296.023 134.66H296.103C296.57 134.193 297.083 133.793 297.643 133.46C298.216 133.113 298.883 132.94 299.643 132.94C300.776 132.94 301.61 133.287 302.143 133.98C302.676 134.66 302.943 135.64 302.943 136.92V143H300.623V137.22C300.623 136.42 300.483 135.84 300.203 135.48C299.936 135.107 299.463 134.92 298.783 134.92C298.303 134.92 297.876 135.033 297.503 135.26C297.13 135.487 296.716 135.833 296.263 136.3V143H293.943V133.18ZM305.535 138.1C305.535 137.3 305.675 136.58 305.955 135.94C306.249 135.3 306.629 134.76 307.095 134.32C307.562 133.867 308.095 133.527 308.695 133.3C309.309 133.06 309.935 132.94 310.575 132.94C311.309 132.94 311.955 133.06 312.515 133.3C313.089 133.527 313.569 133.847 313.955 134.26C314.342 134.66 314.635 135.147 314.835 135.72C315.035 136.293 315.135 136.92 315.135 137.6C315.135 137.827 315.122 138.04 315.095 138.24C315.082 138.44 315.062 138.6 315.035 138.72H307.895C307.975 139.6 308.322 140.28 308.935 140.76C309.549 141.227 310.302 141.46 311.195 141.46C311.702 141.46 312.175 141.393 312.615 141.26C313.055 141.113 313.502 140.913 313.955 140.66L314.735 142.1C314.202 142.433 313.609 142.707 312.955 142.92C312.302 143.133 311.615 143.24 310.895 143.24C310.149 143.24 309.449 143.127 308.795 142.9C308.142 142.66 307.575 142.32 307.095 141.88C306.615 141.44 306.235 140.907 305.955 140.28C305.675 139.64 305.535 138.913 305.535 138.1ZM313.015 137.16C313.015 136.4 312.815 135.807 312.415 135.38C312.015 134.94 311.422 134.72 310.635 134.72C309.969 134.72 309.375 134.927 308.855 135.34C308.335 135.753 308.009 136.36 307.875 137.16H313.015ZM316.407 133.18H318.687L319.587 138.28C319.667 138.747 319.734 139.213 319.787 139.68C319.854 140.147 319.921 140.62 319.987 141.1H320.067C320.134 140.62 320.207 140.147 320.287 139.68C320.367 139.213 320.461 138.747 320.567 138.28L321.487 134.14H323.207L324.127 138.28C324.234 138.747 324.327 139.213 324.407 139.68C324.501 140.147 324.587 140.62 324.667 141.1H324.747C324.827 140.62 324.894 140.147 324.947 139.68C325.014 139.213 325.081 138.747 325.147 138.28L326.047 133.18H328.167L326.347 143H323.647L322.787 138.9C322.707 138.433 322.627 137.967 322.547 137.5C322.481 137.033 322.407 136.547 322.327 136.04H322.247C322.181 136.427 322.114 136.847 322.047 137.3C321.994 137.74 321.914 138.28 321.807 138.92L320.967 143H318.307L316.407 133.18ZM339.08 144.24V146.04H329.48V144.24H339.08ZM341.332 138.1C341.332 137.3 341.452 136.58 341.692 135.94C341.932 135.3 342.252 134.76 342.652 134.32C343.065 133.88 343.532 133.54 344.052 133.3C344.572 133.06 345.112 132.94 345.672 132.94C346.259 132.94 346.759 133.047 347.172 133.26C347.599 133.46 348.012 133.74 348.412 134.1L348.312 132.44V128.88H350.632V143H348.732L348.552 141.86H348.492C348.105 142.247 347.652 142.573 347.132 142.84C346.625 143.107 346.092 143.24 345.532 143.24C344.905 143.24 344.332 143.127 343.812 142.9C343.292 142.66 342.845 142.32 342.472 141.88C342.112 141.44 341.832 140.907 341.632 140.28C341.432 139.64 341.332 138.913 341.332 138.1ZM343.712 138.08C343.712 139.147 343.919 139.96 344.332 140.52C344.745 141.067 345.332 141.34 346.092 141.34C346.905 141.34 347.645 140.947 348.312 140.16V135.74C347.965 135.407 347.619 135.173 347.272 135.04C346.925 134.907 346.572 134.84 346.212 134.84C345.865 134.84 345.539 134.913 345.232 135.06C344.939 135.207 344.679 135.42 344.452 135.7C344.225 135.967 344.045 136.3 343.912 136.7C343.779 137.1 343.712 137.56 343.712 138.08Z" fill="#EB5757"/>
<path d="M58.083 11.5918H54.1016L52.124 23H50.4805L52.458 11.5918H48.4766L48.7227 10.2031H58.3291L58.083 11.5918ZM62.6006 23C62.5596 22.8301 62.5391 22.6631 62.5391 22.499L62.5654 21.998C61.6924 22.8066 60.7666 23.1992 59.7881 23.1758C58.9502 23.1641 58.2676 22.9004 57.7402 22.3848C57.2188 21.8633 56.9814 21.2129 57.0283 20.4336C57.0869 19.4258 57.5264 18.6406 58.3467 18.0781C59.1729 17.5098 60.2568 17.2256 61.5986 17.2256L63.2598 17.2344L63.3652 16.4785C63.4238 15.9102 63.3125 15.4619 63.0312 15.1338C62.7559 14.7998 62.3398 14.627 61.7832 14.6152C61.2383 14.6035 60.7549 14.7383 60.333 15.0195C59.917 15.2949 59.6621 15.6611 59.5684 16.1182L57.9688 16.127C58.0215 15.5703 58.2383 15.0781 58.6191 14.6504C59 14.2168 59.4893 13.8828 60.0869 13.6484C60.6846 13.4082 61.3027 13.2939 61.9414 13.3057C62.9316 13.3291 63.7021 13.6309 64.2529 14.2109C64.8037 14.7852 65.0352 15.5498 64.9473 16.5049L64.1738 21.2158L64.1299 21.8926C64.1182 22.2148 64.1533 22.5342 64.2354 22.8506L64.2178 23H62.6006ZM60.1045 21.7695C60.6143 21.7812 61.0947 21.6611 61.5459 21.4092C62.0029 21.1514 62.3955 20.7969 62.7236 20.3457L63.0664 18.3857L61.8623 18.377C60.8604 18.377 60.0928 18.5352 59.5596 18.8516C59.0264 19.168 58.7246 19.6162 58.6543 20.1963C58.6016 20.6416 58.7041 21.0137 58.9619 21.3125C59.2256 21.6055 59.6064 21.7578 60.1045 21.7695ZM72.2949 14.9404L71.5479 14.8613C70.5283 14.8613 69.7256 15.3213 69.1396 16.2412L67.9707 23H66.3799L68.0322 13.4902L69.5703 13.4814L69.333 14.5889C70.0068 13.7041 70.8008 13.2734 71.7148 13.2969C71.9082 13.2969 72.1602 13.3408 72.4707 13.4287L72.2949 14.9404ZM72.6641 18.2275C72.8047 17.1904 73.083 16.291 73.499 15.5293C73.9209 14.7617 74.4307 14.1963 75.0283 13.833C75.6318 13.4639 76.291 13.2881 77.0059 13.3057C78.1074 13.3291 78.9395 13.7451 79.502 14.5537L79.8184 13.4902H81.2773L79.6953 22.7979C79.5254 24.0107 79.0332 24.9805 78.2188 25.707C77.4043 26.4395 76.3994 26.7881 75.2041 26.7529C74.5596 26.7412 73.9414 26.5889 73.3496 26.2959C72.7637 26.0029 72.3008 25.6016 71.9609 25.0918L72.8662 24.1162C73.4404 24.9658 74.1992 25.4023 75.1426 25.4258C75.8984 25.4492 76.5371 25.2383 77.0586 24.793C77.5859 24.3477 77.9346 23.7148 78.1045 22.8945L78.2803 22.0508C77.5068 22.8242 76.6016 23.1992 75.5645 23.1758C74.9727 23.1582 74.457 23 74.0176 22.7012C73.584 22.3965 73.2471 21.96 73.0068 21.3916C72.7666 20.8174 72.6348 20.1787 72.6113 19.4756C72.5996 19.1299 72.6172 18.7139 72.6641 18.2275ZM74.2021 19.1328C74.1846 19.9707 74.3281 20.6211 74.6328 21.084C74.9434 21.541 75.4092 21.7812 76.0303 21.8047C76.9795 21.8281 77.7969 21.3623 78.4824 20.4072L79.2295 16.0391C78.8779 15.1719 78.2422 14.7207 77.3223 14.6855C76.4609 14.6621 75.752 15.0137 75.1953 15.7402C74.6445 16.4668 74.3193 17.4482 74.2197 18.6846L74.2021 19.1328ZM86.208 23.1758C85.0244 23.1523 84.0986 22.7158 83.4307 21.8662C82.7627 21.0166 82.4814 19.9297 82.5869 18.6055L82.6309 18.2275C82.7305 17.2842 83.0088 16.4229 83.4658 15.6436C83.9287 14.8643 84.4912 14.2783 85.1533 13.8857C85.8154 13.4873 86.5303 13.2969 87.2979 13.3145C88.2764 13.3379 89.0439 13.6631 89.6006 14.29C90.1572 14.917 90.4619 15.7666 90.5146 16.8389C90.5322 17.2197 90.5205 17.6006 90.4795 17.9814L90.3828 18.7109H84.1689C84.0635 19.5723 84.2041 20.3047 84.5908 20.9082C84.9834 21.5117 85.5664 21.8252 86.3398 21.8486C87.2773 21.8721 88.1445 21.4502 88.9414 20.583L89.8555 21.3564C89.457 21.9307 88.9414 22.3818 88.3086 22.71C87.6816 23.0322 86.9814 23.1875 86.208 23.1758ZM87.2188 14.6416C86.5625 14.624 85.9883 14.8467 85.4961 15.3096C85.0098 15.7725 84.623 16.4609 84.3359 17.375L88.959 17.3838L88.9941 17.2432C89.0879 16.5049 88.9678 15.8926 88.6338 15.4062C88.3057 14.9141 87.834 14.6592 87.2188 14.6416ZM95.6299 11.1875L95.2256 13.4902H96.957L96.7373 14.7471H95.0146L94.0215 20.6621C94.0039 20.8145 94.001 20.9551 94.0127 21.084C94.0537 21.541 94.3027 21.7695 94.7598 21.7695C94.9531 21.7695 95.2109 21.7402 95.5332 21.6816L95.4102 23.0088C95.0293 23.1143 94.6426 23.167 94.25 23.167C93.6172 23.1553 93.1426 22.9238 92.8262 22.4727C92.5098 22.0156 92.3867 21.4033 92.457 20.6357L93.4238 14.7471H91.7451L91.9648 13.4902H93.6436L94.0479 11.1875H95.6299ZM106.414 20.7412L111.608 10.2031H113.472L106.862 23H105.403L102.811 10.2031H104.542L106.414 20.7412ZM118.253 23C118.212 22.8301 118.191 22.6631 118.191 22.499L118.218 21.998C117.345 22.8066 116.419 23.1992 115.44 23.1758C114.603 23.1641 113.92 22.9004 113.393 22.3848C112.871 21.8633 112.634 21.2129 112.681 20.4336C112.739 19.4258 113.179 18.6406 113.999 18.0781C114.825 17.5098 115.909 17.2256 117.251 17.2256L118.912 17.2344L119.018 16.4785C119.076 15.9102 118.965 15.4619 118.684 15.1338C118.408 14.7998 117.992 14.627 117.436 14.6152C116.891 14.6035 116.407 14.7383 115.985 15.0195C115.569 15.2949 115.314 15.6611 115.221 16.1182L113.621 16.127C113.674 15.5703 113.891 15.0781 114.271 14.6504C114.652 14.2168 115.142 13.8828 115.739 13.6484C116.337 13.4082 116.955 13.2939 117.594 13.3057C118.584 13.3291 119.354 13.6309 119.905 14.2109C120.456 14.7852 120.688 15.5498 120.6 16.5049L119.826 21.2158L119.782 21.8926C119.771 22.2148 119.806 22.5342 119.888 22.8506L119.87 23H118.253ZM115.757 21.7695C116.267 21.7812 116.747 21.6611 117.198 21.4092C117.655 21.1514 118.048 20.7969 118.376 20.3457L118.719 18.3857L117.515 18.377C116.513 18.377 115.745 18.5352 115.212 18.8516C114.679 19.168 114.377 19.6162 114.307 20.1963C114.254 20.6416 114.356 21.0137 114.614 21.3125C114.878 21.6055 115.259 21.7578 115.757 21.7695ZM127.947 14.9404L127.2 14.8613C126.181 14.8613 125.378 15.3213 124.792 16.2412L123.623 23H122.032L123.685 13.4902L125.223 13.4814L124.985 14.5889C125.659 13.7041 126.453 13.2734 127.367 13.2969C127.561 13.2969 127.812 13.3408 128.123 13.4287L127.947 14.9404ZM129.749 23H128.167L129.819 13.4902H131.401L129.749 23ZM131.059 10.0186C131.328 10.0068 131.551 10.0889 131.727 10.2646C131.908 10.4346 131.999 10.6602 131.999 10.9414C131.993 11.2168 131.902 11.4424 131.727 11.6182C131.557 11.7939 131.334 11.8877 131.059 11.8994C130.783 11.9111 130.558 11.832 130.382 11.6621C130.206 11.4922 130.121 11.2695 130.127 10.9941C130.133 10.7188 130.221 10.4902 130.391 10.3086C130.561 10.127 130.783 10.0303 131.059 10.0186ZM138.169 23C138.128 22.8301 138.107 22.6631 138.107 22.499L138.134 21.998C137.261 22.8066 136.335 23.1992 135.356 23.1758C134.519 23.1641 133.836 22.9004 133.309 22.3848C132.787 21.8633 132.55 21.2129 132.597 20.4336C132.655 19.4258 133.095 18.6406 133.915 18.0781C134.741 17.5098 135.825 17.2256 137.167 17.2256L138.828 17.2344L138.934 16.4785C138.992 15.9102 138.881 15.4619 138.6 15.1338C138.324 14.7998 137.908 14.627 137.352 14.6152C136.807 14.6035 136.323 14.7383 135.901 15.0195C135.485 15.2949 135.23 15.6611 135.137 16.1182L133.537 16.127C133.59 15.5703 133.807 15.0781 134.188 14.6504C134.568 14.2168 135.058 13.8828 135.655 13.6484C136.253 13.4082 136.871 13.2939 137.51 13.3057C138.5 13.3291 139.271 13.6309 139.821 14.2109C140.372 14.7852 140.604 15.5498 140.516 16.5049L139.742 21.2158L139.698 21.8926C139.687 22.2148 139.722 22.5342 139.804 22.8506L139.786 23H138.169ZM135.673 21.7695C136.183 21.7812 136.663 21.6611 137.114 21.4092C137.571 21.1514 137.964 20.7969 138.292 20.3457L138.635 18.3857L137.431 18.377C136.429 18.377 135.661 18.5352 135.128 18.8516C134.595 19.168 134.293 19.6162 134.223 20.1963C134.17 20.6416 134.272 21.0137 134.53 21.3125C134.794 21.6055 135.175 21.7578 135.673 21.7695ZM150.579 18.2891C150.462 19.2617 150.195 20.1377 149.779 20.917C149.363 21.6963 148.859 22.2734 148.268 22.6484C147.676 23.0234 147.02 23.2021 146.299 23.1846C145.15 23.1611 144.298 22.7305 143.741 21.8926L143.416 23H141.948L144.295 9.5H145.886L144.928 14.5449C145.689 13.7012 146.615 13.291 147.705 13.3145C148.619 13.3379 149.331 13.6748 149.841 14.3252C150.351 14.9756 150.62 15.8721 150.649 17.0146C150.655 17.3896 150.638 17.7529 150.597 18.1045L150.579 18.2891ZM149.067 17.3662C149.085 16.5107 148.941 15.8574 148.637 15.4062C148.332 14.9492 147.866 14.709 147.239 14.6855C146.249 14.6621 145.411 15.1602 144.726 16.1797L144.014 20.3193C144.365 21.2861 145.024 21.7812 145.991 21.8047C146.612 21.8281 147.154 21.6436 147.617 21.251C148.086 20.8584 148.44 20.3105 148.681 19.6074C148.921 18.8984 149.05 18.1514 149.067 17.3662ZM153.567 23H151.985L154.323 9.5H155.914L153.567 23ZM160.282 23.1758C159.099 23.1523 158.173 22.7158 157.505 21.8662C156.837 21.0166 156.556 19.9297 156.661 18.6055L156.705 18.2275C156.805 17.2842 157.083 16.4229 157.54 15.6436C158.003 14.8643 158.565 14.2783 159.228 13.8857C159.89 13.4873 160.604 13.2969 161.372 13.3145C162.351 13.3379 163.118 13.6631 163.675 14.29C164.231 14.917 164.536 15.7666 164.589 16.8389C164.606 17.2197 164.595 17.6006 164.554 17.9814L164.457 18.7109H158.243C158.138 19.5723 158.278 20.3047 158.665 20.9082C159.058 21.5117 159.641 21.8252 160.414 21.8486C161.352 21.8721 162.219 21.4502 163.016 20.583L163.93 21.3564C163.531 21.9307 163.016 22.3818 162.383 22.71C161.756 23.0322 161.056 23.1875 160.282 23.1758ZM161.293 14.6416C160.637 14.624 160.062 14.8467 159.57 15.3096C159.084 15.7725 158.697 16.4609 158.41 17.375L163.033 17.3838L163.068 17.2432C163.162 16.5049 163.042 15.8926 162.708 15.4062C162.38 14.9141 161.908 14.6592 161.293 14.6416Z" fill="black"/>
<path d="M295.083 11.5918H291.102L289.124 23H287.48L289.458 11.5918H285.477L285.723 10.2031H295.329L295.083 11.5918ZM300.031 14.9404L299.284 14.8613C298.265 14.8613 297.462 15.3213 296.876 16.2412L295.707 23H294.116L295.769 13.4902L297.307 13.4814L297.069 14.5889C297.743 13.7041 298.537 13.2734 299.451 13.2969C299.645 13.2969 299.896 13.3408 300.207 13.4287L300.031 14.9404ZM305.577 23C305.536 22.8301 305.516 22.6631 305.516 22.499L305.542 21.998C304.669 22.8066 303.743 23.1992 302.765 23.1758C301.927 23.1641 301.244 22.9004 300.717 22.3848C300.195 21.8633 299.958 21.2129 300.005 20.4336C300.063 19.4258 300.503 18.6406 301.323 18.0781C302.149 17.5098 303.233 17.2256 304.575 17.2256L306.236 17.2344L306.342 16.4785C306.4 15.9102 306.289 15.4619 306.008 15.1338C305.732 14.7998 305.316 14.627 304.76 14.6152C304.215 14.6035 303.731 14.7383 303.31 15.0195C302.894 15.2949 302.639 15.6611 302.545 16.1182L300.945 16.127C300.998 15.5703 301.215 15.0781 301.596 14.6504C301.977 14.2168 302.466 13.8828 303.063 13.6484C303.661 13.4082 304.279 13.2939 304.918 13.3057C305.908 13.3291 306.679 13.6309 307.229 14.2109C307.78 14.7852 308.012 15.5498 307.924 16.5049L307.15 21.2158L307.106 21.8926C307.095 22.2148 307.13 22.5342 307.212 22.8506L307.194 23H305.577ZM303.081 21.7695C303.591 21.7812 304.071 21.6611 304.522 21.4092C304.979 21.1514 305.372 20.7969 305.7 20.3457L306.043 18.3857L304.839 18.377C303.837 18.377 303.069 18.5352 302.536 18.8516C302.003 19.168 301.701 19.6162 301.631 20.1963C301.578 20.6416 301.681 21.0137 301.938 21.3125C302.202 21.6055 302.583 21.7578 303.081 21.7695ZM312.512 13.4814L312.283 14.6855C313.139 13.748 314.111 13.291 315.201 13.3145C316.098 13.3379 316.76 13.6484 317.188 14.2461C317.615 14.8438 317.773 15.6846 317.662 16.7686L316.625 23H315.034L316.08 16.7422C316.115 16.4551 316.118 16.1885 316.089 15.9424C315.989 15.1221 315.506 14.7031 314.639 14.6855C313.684 14.668 312.846 15.1777 312.125 16.2148L310.947 23H309.356L311.009 13.4902L312.512 13.4814ZM324.966 20.4248C325.054 19.7686 324.693 19.3057 323.885 19.0361L322.232 18.5527C320.838 18.0723 320.164 17.2754 320.211 16.1621C320.252 15.3242 320.633 14.6387 321.354 14.1055C322.08 13.5664 322.933 13.3027 323.911 13.3145C324.872 13.3262 325.651 13.6074 326.249 14.1582C326.853 14.7031 327.143 15.415 327.119 16.2939L325.537 16.2852C325.549 15.8105 325.399 15.4238 325.089 15.125C324.778 14.8262 324.365 14.6709 323.85 14.6592C323.299 14.6475 322.824 14.7822 322.426 15.0635C322.057 15.3271 321.843 15.6729 321.784 16.1006C321.708 16.6514 322.045 17.0527 322.795 17.3047L323.595 17.5244C324.685 17.8057 325.458 18.1719 325.915 18.623C326.372 19.0742 326.583 19.6338 326.548 20.3018C326.513 20.8936 326.319 21.4092 325.968 21.8486C325.616 22.2881 325.147 22.625 324.562 22.8594C323.976 23.0879 323.352 23.1934 322.689 23.1758C321.682 23.1641 320.85 22.8711 320.193 22.2969C319.537 21.7168 319.221 20.9727 319.244 20.0645L320.835 20.0732C320.835 20.6064 321.005 21.0342 321.345 21.3564C321.685 21.6787 322.15 21.8398 322.742 21.8398C323.322 21.8516 323.823 21.7314 324.245 21.4795C324.667 21.2217 324.907 20.8701 324.966 20.4248ZM328.938 23L330.38 14.7471H328.912L329.132 13.4902H330.591L330.749 12.3652C330.901 11.4102 331.271 10.6631 331.856 10.124C332.472 9.56152 333.257 9.28613 334.212 9.29785C334.511 9.29785 334.889 9.34766 335.346 9.44727L335.152 10.7744C334.871 10.7158 334.587 10.6807 334.3 10.6689C333.749 10.6689 333.301 10.8418 332.955 11.1875C332.615 11.5273 332.404 11.9814 332.322 12.5498L332.182 13.4902H334.15L333.931 14.7471H331.962L330.529 23H328.938ZM339.6 13.3145C340.396 13.3262 341.079 13.543 341.647 13.9648C342.216 14.3867 342.635 14.9697 342.904 15.7139C343.18 16.4521 343.273 17.2607 343.186 18.1396L343.168 18.333C343.057 19.2588 342.781 20.0967 342.342 20.8467C341.902 21.5908 341.334 22.1709 340.637 22.5869C339.939 23.0029 339.175 23.1992 338.343 23.1758C337.552 23.1641 336.869 22.9473 336.295 22.5254C335.727 22.1035 335.311 21.5293 335.047 20.8027C334.783 20.0762 334.689 19.2764 334.766 18.4033C334.854 17.4189 335.12 16.5342 335.565 15.749C336.011 14.9639 336.582 14.3574 337.279 13.9297C337.982 13.4961 338.756 13.291 339.6 13.3145ZM336.365 18.4121C336.324 18.7812 336.324 19.165 336.365 19.5635C336.424 20.2549 336.629 20.8057 336.98 21.2158C337.338 21.626 337.812 21.8398 338.404 21.8574C338.932 21.875 339.418 21.7461 339.863 21.4707C340.309 21.1895 340.684 20.7676 340.988 20.2051C341.293 19.6426 341.489 19.0186 341.577 18.333C341.624 17.7939 341.633 17.3398 341.604 16.9707C341.533 16.2617 341.319 15.7021 340.962 15.292C340.604 14.8818 340.13 14.665 339.538 14.6416C338.718 14.624 338.021 14.9463 337.446 15.6084C336.872 16.2705 336.518 17.1377 336.383 18.21L336.365 18.4121ZM350.287 14.9404L349.54 14.8613C348.521 14.8613 347.718 15.3213 347.132 16.2412L345.963 23H344.372L346.024 13.4902L347.562 13.4814L347.325 14.5889C347.999 13.7041 348.793 13.2734 349.707 13.2969C349.9 13.2969 350.152 13.3408 350.463 13.4287L350.287 14.9404ZM353.504 13.4814L353.302 14.5449C354.099 13.7012 355.062 13.291 356.193 13.3145C356.797 13.3262 357.307 13.4639 357.723 13.7275C358.145 13.9912 358.435 14.3633 358.593 14.8438C359.483 13.8008 360.535 13.291 361.748 13.3145C362.697 13.3379 363.397 13.6572 363.849 14.2725C364.3 14.8877 364.467 15.7139 364.35 16.751L363.304 23H361.722L362.759 16.7334C362.794 16.4287 362.794 16.1504 362.759 15.8984C362.647 15.1016 362.126 14.6943 361.194 14.6768C360.614 14.665 360.087 14.8467 359.612 15.2217C359.144 15.5908 358.842 16.0771 358.707 16.6807L357.626 23H356.026L357.081 16.7422C357.157 16.0918 357.058 15.5908 356.782 15.2393C356.513 14.8877 356.091 14.7061 355.517 14.6943C354.526 14.6709 353.738 15.1221 353.152 16.0479L351.948 23H350.357L352.01 13.4902L353.504 13.4814ZM371.583 23C371.542 22.8301 371.521 22.6631 371.521 22.499L371.548 21.998C370.675 22.8066 369.749 23.1992 368.771 23.1758C367.933 23.1641 367.25 22.9004 366.723 22.3848C366.201 21.8633 365.964 21.2129 366.011 20.4336C366.069 19.4258 366.509 18.6406 367.329 18.0781C368.155 17.5098 369.239 17.2256 370.581 17.2256L372.242 17.2344L372.348 16.4785C372.406 15.9102 372.295 15.4619 372.014 15.1338C371.738 14.7998 371.322 14.627 370.766 14.6152C370.221 14.6035 369.737 14.7383 369.315 15.0195C368.899 15.2949 368.645 15.6611 368.551 16.1182L366.951 16.127C367.004 15.5703 367.221 15.0781 367.602 14.6504C367.982 14.2168 368.472 13.8828 369.069 13.6484C369.667 13.4082 370.285 13.2939 370.924 13.3057C371.914 13.3291 372.685 13.6309 373.235 14.2109C373.786 14.7852 374.018 15.5498 373.93 16.5049L373.156 21.2158L373.112 21.8926C373.101 22.2148 373.136 22.5342 373.218 22.8506L373.2 23H371.583ZM369.087 21.7695C369.597 21.7812 370.077 21.6611 370.528 21.4092C370.985 21.1514 371.378 20.7969 371.706 20.3457L372.049 18.3857L370.845 18.377C369.843 18.377 369.075 18.5352 368.542 18.8516C368.009 19.168 367.707 19.6162 367.637 20.1963C367.584 20.6416 367.687 21.0137 367.944 21.3125C368.208 21.6055 368.589 21.7578 369.087 21.7695ZM379.563 11.1875L379.159 13.4902H380.891L380.671 14.7471H378.948L377.955 20.6621C377.938 20.8145 377.935 20.9551 377.946 21.084C377.987 21.541 378.236 21.7695 378.693 21.7695C378.887 21.7695 379.145 21.7402 379.467 21.6816L379.344 23.0088C378.963 23.1143 378.576 23.167 378.184 23.167C377.551 23.1553 377.076 22.9238 376.76 22.4727C376.443 22.0156 376.32 21.4033 376.391 20.6357L377.357 14.7471H375.679L375.898 13.4902H377.577L377.981 11.1875H379.563ZM382.886 23H381.304L382.956 13.4902H384.538L382.886 23ZM384.195 10.0186C384.465 10.0068 384.688 10.0889 384.863 10.2646C385.045 10.4346 385.136 10.6602 385.136 10.9414C385.13 11.2168 385.039 11.4424 384.863 11.6182C384.693 11.7939 384.471 11.8877 384.195 11.8994C383.92 11.9111 383.694 11.832 383.519 11.6621C383.343 11.4922 383.258 11.2695 383.264 10.9941C383.27 10.7188 383.357 10.4902 383.527 10.3086C383.697 10.127 383.92 10.0303 384.195 10.0186ZM390.77 13.3145C391.566 13.3262 392.249 13.543 392.817 13.9648C393.386 14.3867 393.805 14.9697 394.074 15.7139C394.35 16.4521 394.443 17.2607 394.355 18.1396L394.338 18.333C394.227 19.2588 393.951 20.0967 393.512 20.8467C393.072 21.5908 392.504 22.1709 391.807 22.5869C391.109 23.0029 390.345 23.1992 389.513 23.1758C388.722 23.1641 388.039 22.9473 387.465 22.5254C386.896 22.1035 386.48 21.5293 386.217 20.8027C385.953 20.0762 385.859 19.2764 385.936 18.4033C386.023 17.4189 386.29 16.5342 386.735 15.749C387.181 14.9639 387.752 14.3574 388.449 13.9297C389.152 13.4961 389.926 13.291 390.77 13.3145ZM387.535 18.4121C387.494 18.7812 387.494 19.165 387.535 19.5635C387.594 20.2549 387.799 20.8057 388.15 21.2158C388.508 21.626 388.982 21.8398 389.574 21.8574C390.102 21.875 390.588 21.7461 391.033 21.4707C391.479 21.1895 391.854 20.7676 392.158 20.2051C392.463 19.6426 392.659 19.0186 392.747 18.333C392.794 17.7939 392.803 17.3398 392.773 16.9707C392.703 16.2617 392.489 15.7021 392.132 15.292C391.774 14.8818 391.3 14.665 390.708 14.6416C389.888 14.624 389.19 14.9463 388.616 15.6084C388.042 16.2705 387.688 17.1377 387.553 18.21L387.535 18.4121ZM398.697 13.4814L398.469 14.6855C399.324 13.748 400.297 13.291 401.387 13.3145C402.283 13.3379 402.945 13.6484 403.373 14.2461C403.801 14.8438 403.959 15.6846 403.848 16.7686L402.811 23H401.22L402.266 16.7422C402.301 16.4551 402.304 16.1885 402.274 15.9424C402.175 15.1221 401.691 14.7031 400.824 14.6855C399.869 14.668 399.031 15.1777 398.311 16.2148L397.133 23H395.542L397.194 13.4902L398.697 13.4814Z" fill="black"/>
<path d="M55.731 174.427H50.5278L49.5435 180.078H47.8911L50.1147 167.282H57.814L57.5679 168.67H51.521L50.7651 173.047H55.9771L55.731 174.427ZM62.4722 170.393C63.269 170.405 63.9517 170.621 64.52 171.043C65.0884 171.465 65.5073 172.048 65.7769 172.792C66.0522 173.531 66.146 174.339 66.0581 175.218L66.0405 175.411C65.9292 176.337 65.6538 177.175 65.2144 177.925C64.7749 178.669 64.2065 179.249 63.5093 179.665C62.812 180.081 62.0474 180.278 61.2153 180.254C60.4243 180.242 59.7417 180.026 59.1675 179.604C58.5991 179.182 58.1831 178.608 57.9194 177.881C57.6558 177.155 57.562 176.355 57.6382 175.482C57.7261 174.497 57.9927 173.613 58.438 172.827C58.8833 172.042 59.4546 171.436 60.1519 171.008C60.855 170.575 61.6284 170.369 62.4722 170.393ZM59.2378 175.491C59.1968 175.86 59.1968 176.243 59.2378 176.642C59.2964 177.333 59.5015 177.884 59.853 178.294C60.2104 178.704 60.6851 178.918 61.2769 178.936C61.8042 178.953 62.2905 178.825 62.7358 178.549C63.1812 178.268 63.5562 177.846 63.8608 177.284C64.1655 176.721 64.3618 176.097 64.4497 175.411C64.4966 174.872 64.5054 174.418 64.4761 174.049C64.4058 173.34 64.1919 172.781 63.8345 172.37C63.4771 171.96 63.0024 171.743 62.4106 171.72C61.5903 171.702 60.8931 172.025 60.3188 172.687C59.7446 173.349 59.3901 174.216 59.2554 175.288L59.2378 175.491ZM73.1597 172.019L72.4126 171.94C71.3931 171.94 70.5903 172.4 70.0044 173.32L68.8354 180.078H67.2446L68.897 170.569L70.4351 170.56L70.1978 171.667C70.8716 170.783 71.6655 170.352 72.5796 170.375C72.7729 170.375 73.0249 170.419 73.3354 170.507L73.1597 172.019ZM85.0864 176.783C85.2153 175.845 84.729 175.159 83.6274 174.726L82.1069 174.172L81.5972 173.952C79.8862 173.173 79.0864 172.077 79.1978 170.665C79.2563 169.956 79.4995 169.329 79.9272 168.784C80.355 168.24 80.9204 167.821 81.6235 167.528C82.3325 167.229 83.0854 167.088 83.8823 167.106C84.6558 167.123 85.3442 167.296 85.9478 167.624C86.5571 167.952 87.02 168.412 87.3364 169.004C87.6528 169.59 87.7935 170.252 87.7583 170.991L86.0972 170.982C86.1558 170.197 85.98 169.59 85.5698 169.162C85.1597 168.729 84.5737 168.506 83.812 168.494C83.0093 168.483 82.3384 168.67 81.7993 169.057C81.2603 169.444 80.9497 169.971 80.8677 170.639C80.7505 171.512 81.2866 172.174 82.4761 172.625L83.7856 173.091L84.4448 173.372C86.0972 174.134 86.8618 175.265 86.7388 176.765C86.6743 177.486 86.4312 178.11 86.0093 178.637C85.5874 179.159 85.0132 179.563 84.2866 179.85C83.5659 180.137 82.7896 180.272 81.9575 180.254C81.1548 180.248 80.4194 180.078 79.7515 179.744C79.0894 179.405 78.5854 178.942 78.2397 178.356C77.894 177.77 77.7417 177.105 77.7827 176.361L79.4351 176.369C79.3823 177.131 79.5874 177.738 80.0503 178.189C80.519 178.634 81.1782 178.863 82.0278 178.874C82.8774 178.886 83.5776 178.701 84.1284 178.321C84.6792 177.94 84.9985 177.427 85.0864 176.783ZM92.311 168.266L91.9067 170.569H93.6382L93.4185 171.826H91.6958L90.7026 177.741C90.6851 177.893 90.6821 178.034 90.6938 178.162C90.7349 178.619 90.9839 178.848 91.4409 178.848C91.6343 178.848 91.8921 178.819 92.2144 178.76L92.0913 180.087C91.7104 180.193 91.3237 180.245 90.9312 180.245C90.2983 180.234 89.8237 180.002 89.5073 179.551C89.1909 179.094 89.0679 178.482 89.1382 177.714L90.105 171.826H88.4263L88.646 170.569H90.3247L90.729 168.266H92.311ZM99.729 180.078C99.688 179.909 99.6675 179.742 99.6675 179.577L99.6938 179.076C98.8208 179.885 97.895 180.278 96.9165 180.254C96.0786 180.242 95.396 179.979 94.8687 179.463C94.3472 178.942 94.1099 178.291 94.1567 177.512C94.2153 176.504 94.6548 175.719 95.4751 175.157C96.3013 174.588 97.3853 174.304 98.7271 174.304L100.388 174.313L100.494 173.557C100.552 172.989 100.441 172.54 100.16 172.212C99.8843 171.878 99.4683 171.705 98.9116 171.694C98.3667 171.682 97.8833 171.817 97.4614 172.098C97.0454 172.373 96.7905 172.74 96.6968 173.197L95.0972 173.205C95.1499 172.649 95.3667 172.157 95.7476 171.729C96.1284 171.295 96.6177 170.961 97.2153 170.727C97.813 170.487 98.4312 170.372 99.0698 170.384C100.06 170.408 100.831 170.709 101.381 171.289C101.932 171.864 102.164 172.628 102.076 173.583L101.302 178.294L101.258 178.971C101.247 179.293 101.282 179.613 101.364 179.929L101.346 180.078H99.729ZM97.2329 178.848C97.7427 178.86 98.2231 178.74 98.6743 178.488C99.1313 178.23 99.5239 177.875 99.8521 177.424L100.195 175.464L98.9907 175.455C97.9888 175.455 97.2212 175.614 96.688 175.93C96.1548 176.246 95.853 176.695 95.7827 177.275C95.73 177.72 95.8325 178.092 96.0903 178.391C96.354 178.684 96.7349 178.836 97.2329 178.848ZM107.709 168.266L107.305 170.569H109.037L108.817 171.826H107.094L106.101 177.741C106.083 177.893 106.081 178.034 106.092 178.162C106.133 178.619 106.382 178.848 106.839 178.848C107.033 178.848 107.291 178.819 107.613 178.76L107.49 180.087C107.109 180.193 106.722 180.245 106.33 180.245C105.697 180.234 105.222 180.002 104.906 179.551C104.589 179.094 104.466 178.482 104.537 177.714L105.503 171.826H103.825L104.044 170.569H105.723L106.127 168.266H107.709ZM113.422 180.254C112.239 180.231 111.313 179.794 110.645 178.945C109.977 178.095 109.696 177.008 109.801 175.684L109.845 175.306C109.945 174.363 110.223 173.501 110.68 172.722C111.143 171.943 111.706 171.357 112.368 170.964C113.03 170.566 113.745 170.375 114.512 170.393C115.491 170.416 116.258 170.742 116.815 171.368C117.372 171.995 117.676 172.845 117.729 173.917C117.747 174.298 117.735 174.679 117.694 175.06L117.597 175.789H111.383C111.278 176.651 111.418 177.383 111.805 177.987C112.198 178.59 112.781 178.904 113.554 178.927C114.492 178.951 115.359 178.529 116.156 177.661L117.07 178.435C116.671 179.009 116.156 179.46 115.523 179.788C114.896 180.111 114.196 180.266 113.422 180.254ZM114.433 171.72C113.777 171.702 113.203 171.925 112.71 172.388C112.224 172.851 111.837 173.539 111.55 174.453L116.173 174.462L116.208 174.322C116.302 173.583 116.182 172.971 115.848 172.485C115.52 171.992 115.048 171.738 114.433 171.72ZM121.781 170.56L121.579 171.623C122.375 170.78 123.339 170.369 124.47 170.393C125.074 170.405 125.583 170.542 126 170.806C126.421 171.07 126.711 171.442 126.87 171.922C127.76 170.879 128.812 170.369 130.025 170.393C130.974 170.416 131.674 170.736 132.125 171.351C132.577 171.966 132.744 172.792 132.626 173.829L131.581 180.078H129.999L131.036 173.812C131.071 173.507 131.071 173.229 131.036 172.977C130.924 172.18 130.403 171.773 129.471 171.755C128.891 171.743 128.364 171.925 127.889 172.3C127.42 172.669 127.119 173.156 126.984 173.759L125.903 180.078H124.303L125.358 173.821C125.434 173.17 125.334 172.669 125.059 172.318C124.79 171.966 124.368 171.784 123.793 171.773C122.803 171.749 122.015 172.201 121.429 173.126L120.225 180.078H118.634L120.287 170.569L121.781 170.56ZM138.155 180.254C136.971 180.231 136.045 179.794 135.377 178.945C134.709 178.095 134.428 177.008 134.534 175.684L134.578 175.306C134.677 174.363 134.956 173.501 135.413 172.722C135.875 171.943 136.438 171.357 137.1 170.964C137.762 170.566 138.477 170.375 139.245 170.393C140.223 170.416 140.991 170.742 141.547 171.368C142.104 171.995 142.409 172.845 142.461 173.917C142.479 174.298 142.467 174.679 142.426 175.06L142.33 175.789H136.116C136.01 176.651 136.151 177.383 136.538 177.987C136.93 178.59 137.513 178.904 138.287 178.927C139.224 178.951 140.091 178.529 140.888 177.661L141.802 178.435C141.404 179.009 140.888 179.46 140.255 179.788C139.628 180.111 138.928 180.266 138.155 180.254ZM139.166 171.72C138.509 171.702 137.935 171.925 137.443 172.388C136.957 172.851 136.57 173.539 136.283 174.453L140.906 174.462L140.941 174.322C141.035 173.583 140.915 172.971 140.581 172.485C140.252 171.992 139.781 171.738 139.166 171.72ZM146.531 170.56L146.302 171.764C147.158 170.826 148.13 170.369 149.22 170.393C150.117 170.416 150.779 170.727 151.207 171.325C151.634 171.922 151.792 172.763 151.681 173.847L150.644 180.078H149.053L150.099 173.821C150.134 173.534 150.137 173.267 150.108 173.021C150.008 172.201 149.525 171.782 148.658 171.764C147.703 171.746 146.865 172.256 146.144 173.293L144.966 180.078H143.375L145.028 170.569L146.531 170.56ZM157.297 168.266L156.893 170.569H158.625L158.405 171.826H156.682L155.689 177.741C155.671 177.893 155.668 178.034 155.68 178.162C155.721 178.619 155.97 178.848 156.427 178.848C156.621 178.848 156.878 178.819 157.201 178.76L157.078 180.087C156.697 180.193 156.31 180.245 155.917 180.245C155.285 180.234 154.81 180.002 154.494 179.551C154.177 179.094 154.054 178.482 154.125 177.714L155.091 171.826H153.413L153.632 170.569H155.311L155.715 168.266H157.297Z" fill="black"/>
<line y1="-1" x2="268" y2="-1" transform="matrix(-1 6.70676e-08 0.0686743 -0.997639 470 97.4839)" stroke="#EB5757" stroke-width="2"/>
<line y1="-1" x2="69.9875" y2="-1" transform="matrix(-2.88046e-07 1 -0.999994 -0.00332708 334.526 28)" stroke="#EB5757" stroke-width="2"/>
<line x1="146" y1="49.6863" x2="50.7451" y2="49.6863" stroke="#009E73" stroke-width="2"/>
<line y1="-1" x2="21.1021" y2="-1" transform="matrix(0 1 -0.998877 -0.0473886 97.5853 27.596)" stroke="#009E73" stroke-width="2"/>
<line y1="-1" x2="136.256" y2="-1" transform="matrix(-1 -5.5993e-08 0.00349752 -0.999994 187 97.3039)" stroke="#9B51E0" stroke-width="2"/>
<line y1="-1" x2="65.0813" y2="-1" transform="matrix(-0.0153654 -0.999882 -1 0 79.4276 163)" stroke="#9B51E0" stroke-width="2"/>
</svg>
