<svg width="511" height="182" viewBox="0 0 511 182" fill="none" xmlns="http://www.w3.org/2000/svg">
<rect width="511" height="182" fill="white"/>
<path d="M57 134H479V169H57V134Z" fill="#F1F4F8"/>
<path d="M65.9782 144.274H71.3782V154.934C71.3782 155.6 71.5449 156.074 71.8782 156.354C72.2115 156.62 72.6315 156.754 73.1382 156.754C73.6182 156.754 74.1782 156.627 74.8182 156.374L75.3582 158.074C74.8915 158.234 74.4515 158.367 74.0382 158.474C73.6382 158.58 73.1515 158.634 72.5782 158.634C71.4182 158.634 70.5449 158.3 69.9582 157.634C69.3715 156.967 69.0782 156.027 69.0782 154.814V146.094H65.9782V144.274ZM80.8104 144.234H86.5304V145.494H82.5904V160.174H86.5304V161.434H80.8104V144.234ZM90.1026 150.954H98.9826V152.634H90.1026V150.954ZM111.195 156.514V158.394H102.335V156.514H105.775V148.154H103.115V146.714C103.835 146.594 104.448 146.454 104.955 146.294C105.475 146.12 105.955 145.914 106.395 145.674H108.075V156.514H111.195ZM118.487 160.174V145.494H114.567V144.234H120.287V161.434H114.567V160.174H118.487Z" fill="#A541F8"/>
<path d="M138.191 148.574H144.751V158.394H142.451V150.394H138.191V148.574ZM143.431 146.854C142.965 146.854 142.571 146.714 142.251 146.434C141.945 146.154 141.791 145.78 141.791 145.314C141.791 144.847 141.945 144.474 142.251 144.194C142.571 143.9 142.965 143.754 143.431 143.754C143.911 143.754 144.305 143.9 144.611 144.194C144.918 144.474 145.071 144.847 145.071 145.314C145.071 145.78 144.918 146.154 144.611 146.434C144.305 146.714 143.911 146.854 143.431 146.854ZM159.664 146.274C159.304 146.127 158.95 146.02 158.604 145.954C158.27 145.887 157.904 145.854 157.504 145.854C156.744 145.854 156.19 146.04 155.844 146.414C155.51 146.774 155.344 147.3 155.344 147.994V148.574H159.084V150.394H155.344V158.394H153.064V150.394H150.344V148.674L153.064 148.574V148.034C153.064 147.46 153.144 146.927 153.304 146.434C153.464 145.94 153.71 145.52 154.044 145.174C154.39 144.814 154.824 144.534 155.344 144.334C155.877 144.134 156.504 144.034 157.224 144.034C157.757 144.034 158.264 144.08 158.744 144.174C159.237 144.267 159.704 144.4 160.144 144.574L159.664 146.274ZM317.634 153.494C317.634 152.694 317.774 151.974 318.054 151.334C318.347 150.694 318.727 150.154 319.194 149.714C319.661 149.26 320.194 148.92 320.794 148.694C321.407 148.454 322.034 148.334 322.674 148.334C323.407 148.334 324.054 148.454 324.614 148.694C325.187 148.92 325.667 149.24 326.054 149.654C326.441 150.054 326.734 150.54 326.934 151.114C327.134 151.687 327.234 152.314 327.234 152.994C327.234 153.22 327.221 153.434 327.194 153.634C327.181 153.834 327.161 153.994 327.134 154.114H319.994C320.074 154.994 320.421 155.674 321.034 156.154C321.647 156.62 322.401 156.854 323.294 156.854C323.801 156.854 324.274 156.787 324.714 156.654C325.154 156.507 325.601 156.307 326.054 156.054L326.834 157.494C326.301 157.827 325.707 158.1 325.054 158.314C324.401 158.527 323.714 158.634 322.994 158.634C322.247 158.634 321.547 158.52 320.894 158.294C320.241 158.054 319.674 157.714 319.194 157.274C318.714 156.834 318.334 156.3 318.054 155.674C317.774 155.034 317.634 154.307 317.634 153.494ZM325.114 152.554C325.114 151.794 324.914 151.2 324.514 150.774C324.114 150.334 323.521 150.114 322.734 150.114C322.067 150.114 321.474 150.32 320.954 150.734C320.434 151.147 320.107 151.754 319.974 152.554H325.114ZM329.806 144.274H335.206V154.934C335.206 155.6 335.373 156.074 335.706 156.354C336.04 156.62 336.46 156.754 336.966 156.754C337.446 156.754 338.006 156.627 338.646 156.374L339.186 158.074C338.72 158.234 338.28 158.367 337.866 158.474C337.466 158.58 336.98 158.634 336.406 158.634C335.246 158.634 334.373 158.3 333.786 157.634C333.2 156.967 332.906 156.027 332.906 154.814V146.094H329.806V144.274ZM342.699 155.654C343.259 156.04 343.839 156.347 344.439 156.574C345.052 156.787 345.739 156.894 346.499 156.894C347.272 156.894 347.839 156.787 348.199 156.574C348.559 156.347 348.739 156.06 348.739 155.714C348.739 155.367 348.505 155.08 348.039 154.854C347.572 154.614 346.839 154.36 345.839 154.094C345.372 153.974 344.919 153.827 344.479 153.654C344.039 153.48 343.652 153.28 343.319 153.054C342.985 152.827 342.719 152.567 342.519 152.274C342.319 151.98 342.219 151.647 342.219 151.274C342.219 150.407 342.592 149.7 343.339 149.154C344.085 148.607 345.159 148.334 346.559 148.334C347.359 148.334 348.112 148.467 348.819 148.734C349.525 149 350.132 149.3 350.639 149.634L349.579 151.054C349.139 150.76 348.665 150.527 348.159 150.354C347.665 150.167 347.139 150.074 346.579 150.074C345.819 150.074 345.285 150.18 344.979 150.394C344.672 150.594 344.519 150.847 344.519 151.154C344.519 151.327 344.585 151.487 344.719 151.634C344.865 151.767 345.059 151.894 345.299 152.014C345.552 152.12 345.845 152.227 346.179 152.334C346.512 152.44 346.879 152.54 347.279 152.634C347.852 152.78 348.365 152.947 348.819 153.134C349.285 153.307 349.679 153.507 349.999 153.734C350.332 153.96 350.585 154.227 350.759 154.534C350.945 154.84 351.039 155.194 351.039 155.594C351.039 156.02 350.939 156.42 350.739 156.794C350.539 157.154 350.245 157.474 349.859 157.754C349.472 158.02 348.992 158.234 348.419 158.394C347.845 158.554 347.185 158.634 346.439 158.634C345.519 158.634 344.639 158.487 343.799 158.194C342.959 157.9 342.232 157.54 341.619 157.114L342.699 155.654ZM353.611 153.494C353.611 152.694 353.751 151.974 354.031 151.334C354.324 150.694 354.704 150.154 355.171 149.714C355.637 149.26 356.171 148.92 356.771 148.694C357.384 148.454 358.011 148.334 358.651 148.334C359.384 148.334 360.031 148.454 360.591 148.694C361.164 148.92 361.644 149.24 362.031 149.654C362.417 150.054 362.711 150.54 362.911 151.114C363.111 151.687 363.211 152.314 363.211 152.994C363.211 153.22 363.197 153.434 363.171 153.634C363.157 153.834 363.137 153.994 363.111 154.114H355.971C356.051 154.994 356.397 155.674 357.011 156.154C357.624 156.62 358.377 156.854 359.271 156.854C359.777 156.854 360.251 156.787 360.691 156.654C361.131 156.507 361.577 156.307 362.031 156.054L362.811 157.494C362.277 157.827 361.684 158.1 361.031 158.314C360.377 158.527 359.691 158.634 358.971 158.634C358.224 158.634 357.524 158.52 356.871 158.294C356.217 158.054 355.651 157.714 355.171 157.274C354.691 156.834 354.311 156.3 354.031 155.674C353.751 155.034 353.611 154.307 353.611 153.494ZM361.091 152.554C361.091 151.794 360.891 151.2 360.491 150.774C360.091 150.334 359.497 150.114 358.711 150.114C358.044 150.114 357.451 150.32 356.931 150.734C356.411 151.147 356.084 151.754 355.951 152.554H361.091Z" fill="#2E383C"/>
<path d="M173.908 144.274H179.308V154.934C179.308 155.6 179.475 156.074 179.808 156.354C180.141 156.62 180.561 156.754 181.068 156.754C181.548 156.754 182.108 156.627 182.748 156.374L183.288 158.074C182.821 158.234 182.381 158.367 181.968 158.474C181.568 158.58 181.081 158.634 180.508 158.634C179.348 158.634 178.475 158.3 177.888 157.634C177.301 156.967 177.008 156.027 177.008 154.814V146.094H173.908V144.274ZM185.72 153.494C185.72 152.694 185.86 151.974 186.14 151.334C186.433 150.694 186.813 150.154 187.28 149.714C187.747 149.26 188.28 148.92 188.88 148.694C189.493 148.454 190.12 148.334 190.76 148.334C191.493 148.334 192.14 148.454 192.7 148.694C193.273 148.92 193.753 149.24 194.14 149.654C194.527 150.054 194.82 150.54 195.02 151.114C195.22 151.687 195.32 152.314 195.32 152.994C195.32 153.22 195.307 153.434 195.28 153.634C195.267 153.834 195.247 153.994 195.22 154.114H188.08C188.16 154.994 188.507 155.674 189.12 156.154C189.733 156.62 190.487 156.854 191.38 156.854C191.887 156.854 192.36 156.787 192.8 156.654C193.24 156.507 193.687 156.307 194.14 156.054L194.92 157.494C194.387 157.827 193.793 158.1 193.14 158.314C192.487 158.527 191.8 158.634 191.08 158.634C190.333 158.634 189.633 158.52 188.98 158.294C188.327 158.054 187.76 157.714 187.28 157.274C186.8 156.834 186.42 156.3 186.14 155.674C185.86 155.034 185.72 154.307 185.72 153.494ZM193.2 152.554C193.2 151.794 193 151.2 192.6 150.774C192.2 150.334 191.607 150.114 190.82 150.114C190.153 150.114 189.56 150.32 189.04 150.734C188.52 151.147 188.193 151.754 188.06 152.554H193.2ZM198.112 148.574H200.012L200.192 150.054H200.272C200.739 149.587 201.252 149.187 201.812 148.854C202.386 148.507 203.052 148.334 203.812 148.334C204.946 148.334 205.779 148.68 206.312 149.374C206.846 150.054 207.112 151.034 207.112 152.314V158.394H204.792V152.614C204.792 151.814 204.652 151.234 204.372 150.874C204.106 150.5 203.632 150.314 202.952 150.314C202.472 150.314 202.046 150.427 201.672 150.654C201.299 150.88 200.886 151.227 200.432 151.694V158.394H198.112V148.574ZM216.704 161.934C215.358 160.814 214.291 159.494 213.504 157.974C212.731 156.454 212.344 154.74 212.344 152.834C212.344 150.927 212.731 149.214 213.504 147.694C214.291 146.174 215.358 144.854 216.704 143.734L217.984 144.794C216.718 145.94 215.791 147.16 215.204 148.454C214.618 149.747 214.324 151.207 214.324 152.834C214.324 154.46 214.618 155.92 215.204 157.214C215.791 158.507 216.718 159.727 217.984 160.874L216.704 161.934ZM221.877 144.274H227.277V154.934C227.277 155.6 227.443 156.074 227.777 156.354C228.11 156.62 228.53 156.754 229.037 156.754C229.517 156.754 230.077 156.627 230.717 156.374L231.257 158.074C230.79 158.234 230.35 158.367 229.937 158.474C229.537 158.58 229.05 158.634 228.477 158.634C227.317 158.634 226.443 158.3 225.857 157.634C225.27 156.967 224.977 156.027 224.977 154.814V146.094H221.877V144.274ZM234.929 160.874C236.195 159.727 237.122 158.507 237.709 157.214C238.295 155.92 238.589 154.46 238.589 152.834C238.589 151.207 238.295 149.747 237.709 148.454C237.122 147.16 236.195 145.94 234.929 144.794L236.209 143.734C237.555 144.854 238.615 146.174 239.389 147.694C240.175 149.214 240.569 150.927 240.569 152.834C240.569 154.74 240.175 156.454 239.389 157.974C238.615 159.494 237.555 160.814 236.209 161.934L234.929 160.874ZM257.993 148.714H266.873V150.394H257.993V148.714ZM257.993 153.174H266.873V154.854H257.993V153.174ZM269.985 148.714H278.865V150.394H269.985V148.714ZM269.985 153.174H278.865V154.854H269.985V153.174ZM299.49 153.334V150.294C299.503 149.907 299.516 149.487 299.53 149.034C299.556 148.58 299.583 148.16 299.61 147.774H299.51C299.296 148.107 299.076 148.44 298.85 148.774C298.623 149.107 298.396 149.447 298.17 149.794L295.49 153.334H299.49ZM303.45 155.114H301.65V158.394H299.49V155.114H293.15V153.554L298.99 145.654H301.65V153.334H303.45V155.114Z" fill="#EB5757"/>
<path d="M377.835 145.314H380.195L383.695 152.674L384.915 155.454H384.975C384.922 154.774 384.855 154.047 384.775 153.274C384.695 152.487 384.655 151.727 384.655 150.994V145.314H386.875V158.394H384.515L381.015 151.014L379.795 148.254H379.735C379.788 148.947 379.855 149.674 379.935 150.434C380.015 151.194 380.055 151.94 380.055 152.674V158.394H377.835V145.314ZM389.407 153.494C389.407 152.68 389.541 151.954 389.807 151.314C390.087 150.674 390.454 150.134 390.907 149.694C391.361 149.254 391.887 148.92 392.487 148.694C393.087 148.454 393.707 148.334 394.347 148.334C394.987 148.334 395.607 148.454 396.207 148.694C396.807 148.92 397.334 149.254 397.787 149.694C398.241 150.134 398.601 150.674 398.867 151.314C399.147 151.954 399.287 152.68 399.287 153.494C399.287 154.307 399.147 155.034 398.867 155.674C398.601 156.314 398.241 156.854 397.787 157.294C397.334 157.734 396.807 158.067 396.207 158.294C395.607 158.52 394.987 158.634 394.347 158.634C393.707 158.634 393.087 158.52 392.487 158.294C391.887 158.067 391.361 157.734 390.907 157.294C390.454 156.854 390.087 156.314 389.807 155.674C389.541 155.034 389.407 154.307 389.407 153.494ZM391.787 153.494C391.787 154.48 392.014 155.274 392.467 155.874C392.921 156.46 393.547 156.754 394.347 156.754C395.147 156.754 395.774 156.46 396.227 155.874C396.681 155.274 396.907 154.48 396.907 153.494C396.907 152.494 396.681 151.7 396.227 151.114C395.774 150.514 395.147 150.214 394.347 150.214C393.547 150.214 392.921 150.514 392.467 151.114C392.014 151.7 391.787 152.494 391.787 153.494ZM401.979 148.574H403.879L404.059 150.054H404.139C404.606 149.587 405.119 149.187 405.679 148.854C406.253 148.507 406.919 148.334 407.679 148.334C408.813 148.334 409.646 148.68 410.179 149.374C410.713 150.054 410.979 151.034 410.979 152.314V158.394H408.659V152.614C408.659 151.814 408.519 151.234 408.239 150.874C407.973 150.5 407.499 150.314 406.819 150.314C406.339 150.314 405.913 150.427 405.539 150.654C405.166 150.88 404.753 151.227 404.299 151.694V158.394H401.979V148.574ZM413.572 153.494C413.572 152.694 413.712 151.974 413.992 151.334C414.285 150.694 414.665 150.154 415.132 149.714C415.598 149.26 416.132 148.92 416.732 148.694C417.345 148.454 417.972 148.334 418.612 148.334C419.345 148.334 419.992 148.454 420.552 148.694C421.125 148.92 421.605 149.24 421.992 149.654C422.378 150.054 422.672 150.54 422.872 151.114C423.072 151.687 423.172 152.314 423.172 152.994C423.172 153.22 423.158 153.434 423.132 153.634C423.118 153.834 423.098 153.994 423.072 154.114H415.932C416.012 154.994 416.358 155.674 416.972 156.154C417.585 156.62 418.338 156.854 419.232 156.854C419.738 156.854 420.212 156.787 420.652 156.654C421.092 156.507 421.538 156.307 421.992 156.054L422.772 157.494C422.238 157.827 421.645 158.1 420.992 158.314C420.338 158.527 419.652 158.634 418.932 158.634C418.185 158.634 417.485 158.52 416.832 158.294C416.178 158.054 415.612 157.714 415.132 157.274C414.652 156.834 414.272 156.3 413.992 155.674C413.712 155.034 413.572 154.307 413.572 153.494ZM421.052 152.554C421.052 151.794 420.852 151.2 420.452 150.774C420.052 150.334 419.458 150.114 418.672 150.114C418.005 150.114 417.412 150.32 416.892 150.734C416.372 151.147 416.045 151.754 415.912 152.554H421.052Z" fill="#6FCF97"/>
<path d="M56 12H478.517V116H56V12Z" fill="#F1F4F8"/>
<path d="M113.216 24.3216H119.776V34.1416H117.476V26.1416H113.216V24.3216ZM118.456 22.6016C117.99 22.6016 117.596 22.4616 117.276 22.1816C116.97 21.9016 116.816 21.5283 116.816 21.0616C116.816 20.595 116.97 20.2216 117.276 19.9416C117.596 19.6483 117.99 19.5016 118.456 19.5016C118.936 19.5016 119.33 19.6483 119.636 19.9416C119.943 20.2216 120.096 20.595 120.096 21.0616C120.096 21.5283 119.943 21.9016 119.636 22.1816C119.33 22.4616 118.936 22.6016 118.456 22.6016ZM134.688 22.0216C134.328 21.875 133.975 21.7683 133.628 21.7016C133.295 21.635 132.928 21.6016 132.528 21.6016C131.768 21.6016 131.215 21.7883 130.868 22.1616C130.535 22.5216 130.368 23.0483 130.368 23.7416V24.3216H134.108V26.1416H130.368V34.1416H128.088V26.1416H125.368V24.4216L128.088 24.3216V23.7816C128.088 23.2083 128.168 22.675 128.328 22.1816C128.488 21.6883 128.735 21.2683 129.068 20.9216C129.415 20.5616 129.848 20.2816 130.368 20.0816C130.902 19.8816 131.528 19.7816 132.248 19.7816C132.782 19.7816 133.288 19.8283 133.768 19.9216C134.262 20.015 134.728 20.1483 135.168 20.3216L134.688 22.0216ZM283.447 25.5616C283.447 24.975 283.634 24.495 284.007 24.1216C284.38 23.735 284.854 23.5416 285.427 23.5416C286 23.5416 286.474 23.735 286.847 24.1216C287.22 24.495 287.407 24.975 287.407 25.5616C287.407 26.1483 287.22 26.635 286.847 27.0216C286.474 27.395 286 27.5816 285.427 27.5816C284.854 27.5816 284.38 27.395 284.007 27.0216C283.634 26.635 283.447 26.1483 283.447 25.5616ZM283.447 32.3616C283.447 31.775 283.634 31.295 284.007 30.9216C284.38 30.535 284.854 30.3416 285.427 30.3416C286 30.3416 286.474 30.535 286.847 30.9216C287.22 31.295 287.407 31.775 287.407 32.3616C287.407 32.9483 287.22 33.435 286.847 33.8216C286.474 34.195 286 34.3816 285.427 34.3816C284.854 34.3816 284.38 34.195 284.007 33.8216C283.634 33.435 283.447 32.9483 283.447 32.3616ZM162.105 49.3216H164.005L164.205 51.5416H164.265C164.772 50.7416 165.378 50.135 166.085 49.7216C166.805 49.295 167.592 49.0816 168.445 49.0816C168.845 49.0816 169.185 49.115 169.465 49.1816C169.758 49.235 170.052 49.335 170.345 49.4816L169.865 51.4216C169.545 51.315 169.258 51.2416 169.005 51.2016C168.765 51.1483 168.458 51.1216 168.085 51.1216C167.405 51.1216 166.752 51.315 166.125 51.7016C165.498 52.0883 164.932 52.7616 164.425 53.7216V59.1416H162.105V49.3216ZM172.737 54.2416C172.737 53.4416 172.877 52.7216 173.157 52.0816C173.45 51.4416 173.83 50.9016 174.297 50.4616C174.764 50.0083 175.297 49.6683 175.897 49.4416C176.51 49.2016 177.137 49.0816 177.777 49.0816C178.51 49.0816 179.157 49.2016 179.717 49.4416C180.29 49.6683 180.77 49.9883 181.157 50.4016C181.544 50.8016 181.837 51.2883 182.037 51.8616C182.237 52.435 182.337 53.0616 182.337 53.7416C182.337 53.9683 182.324 54.1816 182.297 54.3816C182.284 54.5816 182.264 54.7416 182.237 54.8616H175.097C175.177 55.7416 175.524 56.4216 176.137 56.9016C176.75 57.3683 177.504 57.6016 178.397 57.6016C178.904 57.6016 179.377 57.535 179.817 57.4016C180.257 57.255 180.704 57.055 181.157 56.8016L181.937 58.2416C181.404 58.575 180.81 58.8483 180.157 59.0616C179.504 59.275 178.817 59.3816 178.097 59.3816C177.35 59.3816 176.65 59.2683 175.997 59.0416C175.344 58.8016 174.777 58.4616 174.297 58.0216C173.817 57.5816 173.437 57.0483 173.157 56.4216C172.877 55.7816 172.737 55.055 172.737 54.2416ZM180.217 53.3016C180.217 52.5416 180.017 51.9483 179.617 51.5216C179.217 51.0816 178.624 50.8616 177.837 50.8616C177.17 50.8616 176.577 51.0683 176.057 51.4816C175.537 51.895 175.21 52.5016 175.077 53.3016H180.217ZM187.289 51.1416H184.669V49.4216L187.389 49.3216L187.689 46.6416H189.589V49.3216H194.069V51.1416H189.589V55.1816C189.589 55.995 189.756 56.595 190.089 56.9816C190.423 57.355 191.009 57.5416 191.849 57.5416C192.276 57.5416 192.663 57.5083 193.009 57.4416C193.356 57.3616 193.689 57.2616 194.009 57.1416L194.449 58.8216C194.009 58.9683 193.523 59.095 192.989 59.2016C192.456 59.3216 191.889 59.3816 191.289 59.3816C190.543 59.3816 189.916 59.2816 189.409 59.0816C188.903 58.8816 188.489 58.6016 188.169 58.2416C187.863 57.8683 187.636 57.4216 187.489 56.9016C187.356 56.3816 187.289 55.8083 187.289 55.1816V51.1416ZM205.782 59.1416H203.902L203.722 57.5816H203.642C203.175 58.1283 202.662 58.5683 202.102 58.9016C201.542 59.2216 200.895 59.3816 200.162 59.3816C199.015 59.3816 198.182 59.0416 197.662 58.3616C197.142 57.6683 196.882 56.6816 196.882 55.4016V49.3216H199.182V55.1016C199.182 55.9016 199.315 56.4883 199.582 56.8616C199.862 57.2216 200.342 57.4016 201.022 57.4016C201.488 57.4016 201.902 57.295 202.262 57.0816C202.635 56.8683 203.042 56.4883 203.482 55.9416V49.3216H205.782V59.1416ZM210.074 49.3216H211.974L212.174 51.5416H212.234C212.74 50.7416 213.347 50.135 214.054 49.7216C214.774 49.295 215.56 49.0816 216.414 49.0816C216.814 49.0816 217.154 49.115 217.434 49.1816C217.727 49.235 218.02 49.335 218.314 49.4816L217.834 51.4216C217.514 51.315 217.227 51.2416 216.974 51.2016C216.734 51.1483 216.427 51.1216 216.054 51.1216C215.374 51.1216 214.72 51.315 214.094 51.7016C213.467 52.0883 212.9 52.7616 212.394 53.7216V59.1416H210.074V49.3216ZM221.106 49.3216H223.006L223.186 50.8016H223.266C223.733 50.335 224.246 49.935 224.806 49.6016C225.379 49.255 226.046 49.0816 226.806 49.0816C227.939 49.0816 228.773 49.4283 229.306 50.1216C229.839 50.8016 230.106 51.7816 230.106 53.0616V59.1416H227.786V53.3616C227.786 52.5616 227.646 51.9816 227.366 51.6216C227.099 51.2483 226.626 51.0616 225.946 51.0616C225.466 51.0616 225.039 51.175 224.666 51.4016C224.293 51.6283 223.879 51.975 223.426 52.4416V59.1416H221.106V49.3216ZM112.776 79.2416C112.776 78.4416 112.916 77.7216 113.196 77.0816C113.49 76.4416 113.87 75.9016 114.336 75.4616C114.803 75.0083 115.336 74.6683 115.936 74.4416C116.55 74.2016 117.176 74.0816 117.816 74.0816C118.55 74.0816 119.196 74.2016 119.756 74.4416C120.33 74.6683 120.81 74.9883 121.196 75.4016C121.583 75.8016 121.876 76.2883 122.076 76.8616C122.276 77.435 122.376 78.0616 122.376 78.7416C122.376 78.9683 122.363 79.1816 122.336 79.3816C122.323 79.5816 122.303 79.7416 122.276 79.8616H115.136C115.216 80.7416 115.563 81.4216 116.176 81.9016C116.79 82.3683 117.543 82.6016 118.436 82.6016C118.943 82.6016 119.416 82.535 119.856 82.4016C120.296 82.255 120.743 82.055 121.196 81.8016L121.976 83.2416C121.443 83.575 120.85 83.8483 120.196 84.0616C119.543 84.275 118.856 84.3816 118.136 84.3816C117.39 84.3816 116.69 84.2683 116.036 84.0416C115.383 83.8016 114.816 83.4616 114.336 83.0216C113.856 82.5816 113.476 82.0483 113.196 81.4216C112.916 80.7816 112.776 80.055 112.776 79.2416ZM120.256 78.3016C120.256 77.5416 120.056 76.9483 119.656 76.5216C119.256 76.0816 118.663 75.8616 117.876 75.8616C117.21 75.8616 116.616 76.0683 116.096 76.4816C115.576 76.895 115.25 77.5016 115.116 78.3016H120.256ZM124.948 70.0216H130.348V80.6816C130.348 81.3483 130.515 81.8216 130.848 82.1016C131.182 82.3683 131.602 82.5016 132.108 82.5016C132.588 82.5016 133.148 82.375 133.788 82.1216L134.328 83.8216C133.862 83.9816 133.422 84.115 133.008 84.2216C132.608 84.3283 132.122 84.3816 131.548 84.3816C130.388 84.3816 129.515 84.0483 128.928 83.3816C128.342 82.715 128.048 81.775 128.048 80.5616V71.8416H124.948V70.0216ZM137.841 81.4016C138.401 81.7883 138.981 82.095 139.581 82.3216C140.194 82.535 140.881 82.6416 141.641 82.6416C142.414 82.6416 142.981 82.535 143.341 82.3216C143.701 82.095 143.881 81.8083 143.881 81.4616C143.881 81.115 143.647 80.8283 143.181 80.6016C142.714 80.3616 141.981 80.1083 140.981 79.8416C140.514 79.7216 140.061 79.575 139.621 79.4016C139.181 79.2283 138.794 79.0283 138.461 78.8016C138.127 78.575 137.861 78.315 137.661 78.0216C137.461 77.7283 137.361 77.395 137.361 77.0216C137.361 76.155 137.734 75.4483 138.481 74.9016C139.227 74.355 140.301 74.0816 141.701 74.0816C142.501 74.0816 143.254 74.215 143.961 74.4816C144.667 74.7483 145.274 75.0483 145.781 75.3816L144.721 76.8016C144.281 76.5083 143.807 76.275 143.301 76.1016C142.807 75.915 142.281 75.8216 141.721 75.8216C140.961 75.8216 140.427 75.9283 140.121 76.1416C139.814 76.3416 139.661 76.595 139.661 76.9016C139.661 77.075 139.727 77.235 139.861 77.3816C140.007 77.515 140.201 77.6416 140.441 77.7616C140.694 77.8683 140.987 77.975 141.321 78.0816C141.654 78.1883 142.021 78.2883 142.421 78.3816C142.994 78.5283 143.507 78.695 143.961 78.8816C144.427 79.055 144.821 79.255 145.141 79.4816C145.474 79.7083 145.727 79.975 145.901 80.2816C146.087 80.5883 146.181 80.9416 146.181 81.3416C146.181 81.7683 146.081 82.1683 145.881 82.5416C145.681 82.9016 145.387 83.2216 145.001 83.5016C144.614 83.7683 144.134 83.9816 143.561 84.1416C142.987 84.3016 142.327 84.3816 141.581 84.3816C140.661 84.3816 139.781 84.235 138.941 83.9416C138.101 83.6483 137.374 83.2883 136.761 82.8616L137.841 81.4016ZM148.753 79.2416C148.753 78.4416 148.893 77.7216 149.173 77.0816C149.466 76.4416 149.846 75.9016 150.313 75.4616C150.779 75.0083 151.313 74.6683 151.913 74.4416C152.526 74.2016 153.153 74.0816 153.793 74.0816C154.526 74.0816 155.173 74.2016 155.733 74.4416C156.306 74.6683 156.786 74.9883 157.173 75.4016C157.559 75.8016 157.853 76.2883 158.053 76.8616C158.253 77.435 158.353 78.0616 158.353 78.7416C158.353 78.9683 158.339 79.1816 158.313 79.3816C158.299 79.5816 158.279 79.7416 158.253 79.8616H151.113C151.193 80.7416 151.539 81.4216 152.153 81.9016C152.766 82.3683 153.519 82.6016 154.413 82.6016C154.919 82.6016 155.393 82.535 155.833 82.4016C156.273 82.255 156.719 82.055 157.173 81.8016L157.953 83.2416C157.419 83.575 156.826 83.8483 156.173 84.0616C155.519 84.275 154.833 84.3816 154.113 84.3816C153.366 84.3816 152.666 84.2683 152.013 84.0416C151.359 83.8016 150.793 83.4616 150.313 83.0216C149.833 82.5816 149.453 82.0483 149.173 81.4216C148.893 80.7816 148.753 80.055 148.753 79.2416ZM156.233 78.3016C156.233 77.5416 156.033 76.9483 155.633 76.5216C155.233 76.0816 154.639 75.8616 153.853 75.8616C153.186 75.8616 152.593 76.0683 152.073 76.4816C151.553 76.895 151.226 77.5016 151.093 78.3016H156.233ZM163.525 75.5616C163.525 74.975 163.712 74.495 164.085 74.1216C164.458 73.735 164.932 73.5416 165.505 73.5416C166.078 73.5416 166.552 73.735 166.925 74.1216C167.298 74.495 167.485 74.975 167.485 75.5616C167.485 76.1483 167.298 76.635 166.925 77.0216C166.552 77.395 166.078 77.5816 165.505 77.5816C164.932 77.5816 164.458 77.395 164.085 77.0216C163.712 76.635 163.525 76.1483 163.525 75.5616ZM163.525 82.3616C163.525 81.775 163.712 81.295 164.085 80.9216C164.458 80.535 164.932 80.3416 165.505 80.3416C166.078 80.3416 166.552 80.535 166.925 80.9216C167.298 81.295 167.485 81.775 167.485 82.3616C167.485 82.9483 167.298 83.435 166.925 83.8216C166.552 84.195 166.078 84.3816 165.505 84.3816C164.932 84.3816 164.458 84.195 164.085 83.8216C163.712 83.435 163.525 82.9483 163.525 82.3616ZM162.105 99.3216H164.005L164.205 101.542H164.265C164.772 100.742 165.378 100.135 166.085 99.7216C166.805 99.295 167.592 99.0816 168.445 99.0816C168.845 99.0816 169.185 99.115 169.465 99.1816C169.758 99.235 170.052 99.335 170.345 99.4816L169.865 101.422C169.545 101.315 169.258 101.242 169.005 101.202C168.765 101.148 168.458 101.122 168.085 101.122C167.405 101.122 166.752 101.315 166.125 101.702C165.498 102.088 164.932 102.762 164.425 103.722V109.142H162.105V99.3216ZM172.737 104.242C172.737 103.442 172.877 102.722 173.157 102.082C173.45 101.442 173.83 100.902 174.297 100.462C174.764 100.008 175.297 99.6683 175.897 99.4416C176.51 99.2016 177.137 99.0816 177.777 99.0816C178.51 99.0816 179.157 99.2016 179.717 99.4416C180.29 99.6683 180.77 99.9883 181.157 100.402C181.544 100.802 181.837 101.288 182.037 101.862C182.237 102.435 182.337 103.062 182.337 103.742C182.337 103.968 182.324 104.182 182.297 104.382C182.284 104.582 182.264 104.742 182.237 104.862H175.097C175.177 105.742 175.524 106.422 176.137 106.902C176.75 107.368 177.504 107.602 178.397 107.602C178.904 107.602 179.377 107.535 179.817 107.402C180.257 107.255 180.704 107.055 181.157 106.802L181.937 108.242C181.404 108.575 180.81 108.848 180.157 109.062C179.504 109.275 178.817 109.382 178.097 109.382C177.35 109.382 176.65 109.268 175.997 109.042C175.344 108.802 174.777 108.462 174.297 108.022C173.817 107.582 173.437 107.048 173.157 106.422C172.877 105.782 172.737 105.055 172.737 104.242ZM180.217 103.302C180.217 102.542 180.017 101.948 179.617 101.522C179.217 101.082 178.624 100.862 177.837 100.862C177.17 100.862 176.577 101.068 176.057 101.482C175.537 101.895 175.21 102.502 175.077 103.302H180.217ZM187.289 101.142H184.669V99.4216L187.389 99.3216L187.689 96.6416H189.589V99.3216H194.069V101.142H189.589V105.182C189.589 105.995 189.756 106.595 190.089 106.982C190.423 107.355 191.009 107.542 191.849 107.542C192.276 107.542 192.663 107.508 193.009 107.442C193.356 107.362 193.689 107.262 194.009 107.142L194.449 108.822C194.009 108.968 193.523 109.095 192.989 109.202C192.456 109.322 191.889 109.382 191.289 109.382C190.543 109.382 189.916 109.282 189.409 109.082C188.903 108.882 188.489 108.602 188.169 108.242C187.863 107.868 187.636 107.422 187.489 106.902C187.356 106.382 187.289 105.808 187.289 105.182V101.142ZM205.782 109.142H203.902L203.722 107.582H203.642C203.175 108.128 202.662 108.568 202.102 108.902C201.542 109.222 200.895 109.382 200.162 109.382C199.015 109.382 198.182 109.042 197.662 108.362C197.142 107.668 196.882 106.682 196.882 105.402V99.3216H199.182V105.102C199.182 105.902 199.315 106.488 199.582 106.862C199.862 107.222 200.342 107.402 201.022 107.402C201.488 107.402 201.902 107.295 202.262 107.082C202.635 106.868 203.042 106.488 203.482 105.942V99.3216H205.782V109.142ZM210.074 99.3216H211.974L212.174 101.542H212.234C212.74 100.742 213.347 100.135 214.054 99.7216C214.774 99.295 215.56 99.0816 216.414 99.0816C216.814 99.0816 217.154 99.115 217.434 99.1816C217.727 99.235 218.02 99.335 218.314 99.4816L217.834 101.422C217.514 101.315 217.227 101.242 216.974 101.202C216.734 101.148 216.427 101.122 216.054 101.122C215.374 101.122 214.72 101.315 214.094 101.702C213.467 102.088 212.9 102.762 212.394 103.722V109.142H210.074V99.3216ZM221.106 99.3216H223.006L223.186 100.802H223.266C223.733 100.335 224.246 99.935 224.806 99.6016C225.379 99.255 226.046 99.0816 226.806 99.0816C227.939 99.0816 228.773 99.4283 229.306 100.122C229.839 100.802 230.106 101.782 230.106 103.062V109.142H227.786V103.362C227.786 102.562 227.646 101.982 227.366 101.622C227.099 101.248 226.626 101.062 225.946 101.062C225.466 101.062 225.039 101.175 224.666 101.402C224.293 101.628 223.879 101.975 223.426 102.442V109.142H221.106V99.3216Z" fill="#2E383C"/>
<path d="M148.933 20.0216H154.333V30.6816C154.333 31.3483 154.499 31.8216 154.833 32.1016C155.166 32.3683 155.586 32.5016 156.093 32.5016C156.573 32.5016 157.133 32.375 157.773 32.1216L158.313 33.8216C157.846 33.9816 157.406 34.115 156.993 34.2216C156.593 34.3283 156.106 34.3816 155.533 34.3816C154.373 34.3816 153.499 34.0483 152.913 33.3816C152.326 32.715 152.033 31.775 152.033 30.5616V21.8416H148.933V20.0216ZM160.745 29.2416C160.745 28.4416 160.885 27.7216 161.165 27.0816C161.458 26.4416 161.838 25.9016 162.305 25.4616C162.772 25.0083 163.305 24.6683 163.905 24.4416C164.518 24.2016 165.145 24.0816 165.785 24.0816C166.518 24.0816 167.165 24.2016 167.725 24.4416C168.298 24.6683 168.778 24.9883 169.165 25.4016C169.552 25.8016 169.845 26.2883 170.045 26.8616C170.245 27.435 170.345 28.0616 170.345 28.7416C170.345 28.9683 170.332 29.1816 170.305 29.3816C170.292 29.5816 170.272 29.7416 170.245 29.8616H163.105C163.185 30.7416 163.532 31.4216 164.145 31.9016C164.758 32.3683 165.512 32.6016 166.405 32.6016C166.912 32.6016 167.385 32.535 167.825 32.4016C168.265 32.255 168.712 32.055 169.165 31.8016L169.945 33.2416C169.412 33.575 168.818 33.8483 168.165 34.0616C167.512 34.275 166.825 34.3816 166.105 34.3816C165.358 34.3816 164.658 34.2683 164.005 34.0416C163.352 33.8016 162.785 33.4616 162.305 33.0216C161.825 32.5816 161.445 32.0483 161.165 31.4216C160.885 30.7816 160.745 30.055 160.745 29.2416ZM168.225 28.3016C168.225 27.5416 168.025 26.9483 167.625 26.5216C167.225 26.0816 166.632 25.8616 165.845 25.8616C165.178 25.8616 164.585 26.0683 164.065 26.4816C163.545 26.895 163.218 27.5016 163.085 28.3016H168.225ZM173.137 24.3216H175.037L175.217 25.8016H175.297C175.764 25.335 176.277 24.935 176.837 24.6016C177.41 24.255 178.077 24.0816 178.837 24.0816C179.97 24.0816 180.804 24.4283 181.337 25.1216C181.87 25.8016 182.137 26.7816 182.137 28.0616V34.1416H179.817V28.3616C179.817 27.5616 179.677 26.9816 179.397 26.6216C179.13 26.2483 178.657 26.0616 177.977 26.0616C177.497 26.0616 177.07 26.175 176.697 26.4016C176.324 26.6283 175.91 26.975 175.457 27.4416V34.1416H173.137V24.3216ZM191.729 37.6816C190.383 36.5616 189.316 35.2416 188.529 33.7216C187.756 32.2016 187.369 30.4883 187.369 28.5816C187.369 26.675 187.756 24.9616 188.529 23.4416C189.316 21.9216 190.383 20.6016 191.729 19.4816L193.009 20.5416C191.743 21.6883 190.816 22.9083 190.229 24.2016C189.643 25.495 189.349 26.955 189.349 28.5816C189.349 30.2083 189.643 31.6683 190.229 32.9616C190.816 34.255 191.743 35.475 193.009 36.6216L191.729 37.6816ZM196.902 20.0216H202.302V30.6816C202.302 31.3483 202.468 31.8216 202.802 32.1016C203.135 32.3683 203.555 32.5016 204.062 32.5016C204.542 32.5016 205.102 32.375 205.742 32.1216L206.282 33.8216C205.815 33.9816 205.375 34.115 204.962 34.2216C204.562 34.3283 204.075 34.3816 203.502 34.3816C202.342 34.3816 201.468 34.0483 200.882 33.3816C200.295 32.715 200.002 31.775 200.002 30.5616V21.8416H196.902V20.0216ZM209.954 36.6216C211.22 35.475 212.147 34.255 212.734 32.9616C213.32 31.6683 213.614 30.2083 213.614 28.5816C213.614 26.955 213.32 25.495 212.734 24.2016C212.147 22.9083 211.22 21.6883 209.954 20.5416L211.234 19.4816C212.58 20.6016 213.64 21.9216 214.414 23.4416C215.2 24.9616 215.594 26.675 215.594 28.5816C215.594 30.4883 215.2 32.2016 214.414 33.7216C213.64 35.2416 212.58 36.5616 211.234 37.6816L209.954 36.6216ZM233.018 24.4616H241.898V26.1416H233.018V24.4616ZM233.018 28.9216H241.898V30.6016H233.018V28.9216ZM245.01 24.4616H253.89V26.1416H245.01V24.4616ZM245.01 28.9216H253.89V30.6016H245.01V28.9216ZM274.515 29.0816V26.0416C274.528 25.655 274.541 25.235 274.555 24.7816C274.581 24.3283 274.608 23.9083 274.635 23.5216H274.535C274.321 23.855 274.101 24.1883 273.875 24.5216C273.648 24.855 273.421 25.195 273.195 25.5416L270.515 29.0816H274.515ZM278.475 30.8616H276.675V34.1416H274.515V30.8616H268.175V29.3016L274.015 21.4016H276.675V29.0816H278.475V30.8616Z" fill="#EB5757"/>
<path d="M244.87 45.0216H250.27V55.6816C250.27 56.3483 250.437 56.8216 250.77 57.1016C251.104 57.3683 251.524 57.5016 252.03 57.5016C252.51 57.5016 253.07 57.375 253.71 57.1216L254.25 58.8216C253.784 58.9816 253.344 59.115 252.93 59.2216C252.53 59.3283 252.044 59.3816 251.47 59.3816C250.31 59.3816 249.437 59.0483 248.85 58.3816C248.264 57.715 247.97 56.775 247.97 55.5616V46.8416H244.87V45.0216ZM259.702 44.9816H265.422V46.2416H261.482V60.9216H265.422V62.1816H259.702V44.9816ZM268.995 51.7016H277.875V53.3816H268.995V51.7016ZM290.087 57.2616V59.1416H281.227V57.2616H284.667V48.9016H282.007V47.4616C282.727 47.3416 283.34 47.2016 283.847 47.0416C284.367 46.8683 284.847 46.6616 285.287 46.4216H286.967V57.2616H290.087ZM297.379 60.9216V46.2416H293.459V44.9816H299.179V62.1816H293.459V60.9216H297.379Z" fill="#A541F8"/>
<path d="M244.93 96.0616H247.29L250.79 103.422L252.01 106.202H252.07C252.017 105.522 251.95 104.795 251.87 104.022C251.79 103.235 251.75 102.475 251.75 101.742V96.0616H253.97V109.142H251.61L248.11 101.762L246.89 99.0016H246.83C246.884 99.695 246.95 100.422 247.03 101.182C247.11 101.942 247.15 102.688 247.15 103.422V109.142H244.93V96.0616ZM256.502 104.242C256.502 103.428 256.636 102.702 256.902 102.062C257.182 101.422 257.549 100.882 258.002 100.442C258.456 100.002 258.982 99.6683 259.582 99.4416C260.182 99.2016 260.802 99.0816 261.442 99.0816C262.082 99.0816 262.702 99.2016 263.302 99.4416C263.902 99.6683 264.429 100.002 264.882 100.442C265.336 100.882 265.696 101.422 265.962 102.062C266.242 102.702 266.382 103.428 266.382 104.242C266.382 105.055 266.242 105.782 265.962 106.422C265.696 107.062 265.336 107.602 264.882 108.042C264.429 108.482 263.902 108.815 263.302 109.042C262.702 109.268 262.082 109.382 261.442 109.382C260.802 109.382 260.182 109.268 259.582 109.042C258.982 108.815 258.456 108.482 258.002 108.042C257.549 107.602 257.182 107.062 256.902 106.422C256.636 105.782 256.502 105.055 256.502 104.242ZM258.882 104.242C258.882 105.228 259.109 106.022 259.562 106.622C260.016 107.208 260.642 107.502 261.442 107.502C262.242 107.502 262.869 107.208 263.322 106.622C263.776 106.022 264.002 105.228 264.002 104.242C264.002 103.242 263.776 102.448 263.322 101.862C262.869 101.262 262.242 100.962 261.442 100.962C260.642 100.962 260.016 101.262 259.562 101.862C259.109 102.448 258.882 103.242 258.882 104.242ZM269.075 99.3216H270.975L271.155 100.802H271.235C271.701 100.335 272.215 99.935 272.775 99.6016C273.348 99.255 274.015 99.0816 274.775 99.0816C275.908 99.0816 276.741 99.4283 277.275 100.122C277.808 100.802 278.075 101.782 278.075 103.062V109.142H275.755V103.362C275.755 102.562 275.615 101.982 275.335 101.622C275.068 101.248 274.595 101.062 273.915 101.062C273.435 101.062 273.008 101.175 272.635 101.402C272.261 101.628 271.848 101.975 271.395 102.442V109.142H269.075V99.3216ZM280.667 104.242C280.667 103.442 280.807 102.722 281.087 102.082C281.38 101.442 281.76 100.902 282.227 100.462C282.694 100.008 283.227 99.6683 283.827 99.4416C284.44 99.2016 285.067 99.0816 285.707 99.0816C286.44 99.0816 287.087 99.2016 287.647 99.4416C288.22 99.6683 288.7 99.9883 289.087 100.402C289.474 100.802 289.767 101.288 289.967 101.862C290.167 102.435 290.267 103.062 290.267 103.742C290.267 103.968 290.254 104.182 290.227 104.382C290.214 104.582 290.194 104.742 290.167 104.862H283.027C283.107 105.742 283.454 106.422 284.067 106.902C284.68 107.368 285.434 107.602 286.327 107.602C286.834 107.602 287.307 107.535 287.747 107.402C288.187 107.255 288.634 107.055 289.087 106.802L289.867 108.242C289.334 108.575 288.74 108.848 288.087 109.062C287.434 109.275 286.747 109.382 286.027 109.382C285.28 109.382 284.58 109.268 283.927 109.042C283.274 108.802 282.707 108.462 282.227 108.022C281.747 107.582 281.367 107.048 281.087 106.422C280.807 105.782 280.667 105.055 280.667 104.242ZM288.147 103.302C288.147 102.542 287.947 101.948 287.547 101.522C287.147 101.082 286.554 100.862 285.767 100.862C285.1 100.862 284.507 101.068 283.987 101.482C283.467 101.895 283.14 102.502 283.007 103.302H288.147Z" fill="#27AE60"/>
</svg>
