<svg width="1126" height="834" viewBox="0 0 1126 834" version="1.1" xmlns="http://www.w3.org/2000/svg" xmlns:xlink="http://www.w3.org/1999/xlink">
<title>Frame</title>
<desc>Created using Figma</desc>
<g id="Canvas" transform="matrix(2 0 0 2 822 436)">
<clipPath id="clip-0" clip-rule="evenodd">
<path d="M -411 -218L 152 -218L 152 199L -411 199L -411 -218Z" fill="#FFFFFF"/>
</clipPath>
<g id="Frame" clip-path="url(#clip-0)">
<path d="M -411 -218L 152 -218L 152 199L -411 199L -411 -218Z" fill="#FFFFFF"/>
<g id="Rectangle">
<use xlink:href="#path0_stroke" transform="translate(-383 56)"/>
</g>
<g id="Rectangle">
<use xlink:href="#path0_stroke" transform="translate(-350.5 56)"/>
</g>
<g id="Rectangle">
<use xlink:href="#path0_stroke" transform="translate(-318 56)"/>
</g>
<g id="Rectangle">
<use xlink:href="#path0_stroke" transform="translate(-285.5 56)"/>
</g>
<g id="Rectangle">
<use xlink:href="#path1_fill" transform="translate(-253 56)" fill="#EB5757"/>
<use xlink:href="#path0_stroke" transform="translate(-253 56)"/>
</g>
<g id="Rectangle">
<use xlink:href="#path2_stroke" transform="translate(-189 56)"/>
</g>
<g id="Rectangle">
<use xlink:href="#path2_stroke" transform="translate(-157.9 56)"/>
</g>
<g id="Rectangle">
<use xlink:href="#path2_stroke" transform="translate(-126.8 56)"/>
</g>
<g id="Rectangle">
<use xlink:href="#path2_stroke" transform="translate(-95.7 56)"/>
</g>
<g id="Rectangle">
<use xlink:href="#path1_fill" transform="translate(-221 56)" fill="#EB5757"/>
<use xlink:href="#path0_stroke" transform="translate(-221 56)"/>
</g>
<g id="Rectangle">
<use xlink:href="#path0_stroke" transform="translate(-383 31)"/>
</g>
<g id="Rectangle">
<use xlink:href="#path0_stroke" transform="translate(-350.5 31)"/>
</g>
<g id="Rectangle">
<use xlink:href="#path0_stroke" transform="translate(-318 31)"/>
</g>
<g id="Rectangle">
<use xlink:href="#path0_stroke" transform="translate(-285.5 31)"/>
</g>
<g id="Rectangle">
<use xlink:href="#path1_fill" transform="translate(-253 31)" fill="#2F80ED"/>
<use xlink:href="#path0_stroke" transform="translate(-253 31)"/>
</g>
<g id="Rectangle">
<use xlink:href="#path2_stroke" transform="translate(-189 31)"/>
</g>
<g id="Rectangle">
<use xlink:href="#path2_stroke" transform="translate(-157.9 31)"/>
</g>
<g id="Rectangle">
<use xlink:href="#path2_stroke" transform="translate(-126.8 31)"/>
</g>
<g id="Rectangle">
<use xlink:href="#path2_stroke" transform="translate(-95.7 31)"/>
</g>
<g id="Rectangle">
<use xlink:href="#path1_fill" transform="translate(-221 31)" fill="#2F80ED"/>
<use xlink:href="#path0_stroke" transform="translate(-221 31)"/>
</g>
<g id="Rectangle">
<use xlink:href="#path2_stroke" transform="translate(-189 -144)"/>
</g>
<g id="Rectangle">
<use xlink:href="#path2_stroke" transform="translate(-157.9 -144)"/>
</g>
<g id="Rectangle">
<use xlink:href="#path2_stroke" transform="translate(-126.8 -144)"/>
</g>
<g id="Rectangle">
<use xlink:href="#path2_stroke" transform="translate(-95.7 -144)"/>
</g>
<g id="Rectangle">
<use xlink:href="#path0_stroke" transform="translate(-383 -144)"/>
</g>
<g id="Rectangle">
<use xlink:href="#path0_stroke" transform="translate(-350.5 -144)"/>
</g>
<g id="Rectangle">
<use xlink:href="#path0_stroke" transform="translate(-318 -144)"/>
</g>
<g id="Rectangle">
<use xlink:href="#path0_stroke" transform="translate(-285.5 -144)"/>
</g>
<g id="Rectangle">
<use xlink:href="#path1_fill" transform="translate(-253 -144)" fill="#F2994A"/>
<use xlink:href="#path0_stroke" transform="translate(-253 -144)"/>
</g>
<g id="Rectangle">
<use xlink:href="#path1_fill" transform="translate(-221 -144)" fill="#F2994A"/>
<use xlink:href="#path0_stroke" transform="translate(-221 -144)"/>
</g>
<g id="Rectangle">
<use xlink:href="#path2_stroke" transform="translate(-189 -69)"/>
</g>
<g id="Rectangle">
<use xlink:href="#path2_stroke" transform="translate(-157.9 -69)"/>
</g>
<g id="Rectangle">
<use xlink:href="#path2_stroke" transform="translate(-126.8 -69)"/>
</g>
<g id="Rectangle">
<use xlink:href="#path2_stroke" transform="translate(-95.7 -69)"/>
</g>
<g id="Rectangle">
<use xlink:href="#path0_stroke" transform="translate(-383 -69)"/>
</g>
<g id="Rectangle">
<use xlink:href="#path0_stroke" transform="translate(-350.5 -69)"/>
</g>
<g id="Rectangle">
<use xlink:href="#path0_stroke" transform="translate(-318 -69)"/>
</g>
<g id="Rectangle">
<use xlink:href="#path0_stroke" transform="translate(-285.5 -69)"/>
</g>
<g id="Rectangle">
<use xlink:href="#path1_fill" transform="translate(-253 -69)" fill="#56CCF2"/>
<use xlink:href="#path0_stroke" transform="translate(-253 -69)"/>
</g>
<g id="Rectangle">
<use xlink:href="#path1_fill" transform="translate(-221 -69)" fill="#56CCF2"/>
<use xlink:href="#path0_stroke" transform="translate(-221 -69)"/>
</g>
<g id="Rectangle">
<use xlink:href="#path2_stroke" transform="translate(-189 -94)"/>
</g>
<g id="Rectangle">
<use xlink:href="#path2_stroke" transform="translate(-157.9 -94)"/>
</g>
<g id="Rectangle">
<use xlink:href="#path2_stroke" transform="translate(-126.8 -94)"/>
</g>
<g id="Rectangle">
<use xlink:href="#path2_stroke" transform="translate(-95.7 -94)"/>
</g>
<g id="Rectangle">
<use xlink:href="#path0_stroke" transform="translate(-383 -94)"/>
</g>
<g id="Rectangle">
<use xlink:href="#path0_stroke" transform="translate(-350.5 -94)"/>
</g>
<g id="Rectangle">
<use xlink:href="#path0_stroke" transform="translate(-318 -94)"/>
</g>
<g id="Rectangle">
<use xlink:href="#path0_stroke" transform="translate(-285.5 -94)"/>
</g>
<g id="Rectangle">
<use xlink:href="#path0_stroke" transform="translate(-253 -94)"/>
</g>
<g id="Rectangle">
<use xlink:href="#path1_fill" transform="translate(-253 -94)" fill="#4F4F4F"/>
<use xlink:href="#path0_stroke" transform="translate(-253 -94)"/>
</g>
<g id="Rectangle">
<use xlink:href="#path1_fill" transform="translate(-221 -94)" fill="#4F4F4F"/>
<use xlink:href="#path0_stroke" transform="translate(-221 -94)"/>
</g>
<g id="Rectangle">
<use xlink:href="#path2_stroke" transform="translate(-189 -119)"/>
</g>
<g id="Rectangle">
<use xlink:href="#path2_stroke" transform="translate(-157.9 -119)"/>
</g>
<g id="Rectangle">
<use xlink:href="#path2_stroke" transform="translate(-126.8 -119)"/>
</g>
<g id="Rectangle">
<use xlink:href="#path2_stroke" transform="translate(-95.7 -119)"/>
</g>
<g id="Rectangle">
<use xlink:href="#path0_stroke" transform="translate(-383 -119)"/>
</g>
<g id="Rectangle">
<use xlink:href="#path0_stroke" transform="translate(-350.5 -119)"/>
</g>
<g id="Rectangle">
<use xlink:href="#path0_stroke" transform="translate(-318 -119)"/>
</g>
<g id="Rectangle">
<use xlink:href="#path0_stroke" transform="translate(-285.5 -119)"/>
</g>
<g id="Rectangle">
<use xlink:href="#path1_fill" transform="translate(-253 -119)" fill="#6FCF97"/>
<use xlink:href="#path0_stroke" transform="translate(-253 -119)"/>
</g>
<g id="Rectangle">
<use xlink:href="#path1_fill" transform="translate(-221 -119)" fill="#6FCF97"/>
<use xlink:href="#path0_stroke" transform="translate(-221 -119)"/>
</g>
<g id="Rectangle">
<use xlink:href="#path2_stroke" transform="translate(-189 -44)"/>
</g>
<g id="Rectangle">
<use xlink:href="#path2_stroke" transform="translate(-157.9 -44)"/>
</g>
<g id="Rectangle">
<use xlink:href="#path2_stroke" transform="translate(-126.8 -44)"/>
</g>
<g id="Rectangle">
<use xlink:href="#path2_stroke" transform="translate(-95.7 -44)"/>
</g>
<g id="Rectangle">
<use xlink:href="#path0_stroke" transform="translate(-383 -44)"/>
</g>
<g id="Rectangle">
<use xlink:href="#path0_stroke" transform="translate(-350.5 -44)"/>
</g>
<g id="Rectangle">
<use xlink:href="#path0_stroke" transform="translate(-318 -44)"/>
</g>
<g id="Rectangle">
<use xlink:href="#path0_stroke" transform="translate(-285.5 -44)"/>
</g>
<g id="Rectangle">
<use xlink:href="#path1_fill" transform="translate(-253 -44)" fill="#27AE60"/>
<use xlink:href="#path0_stroke" transform="translate(-253 -44)"/>
</g>
<g id="Rectangle">
<use xlink:href="#path1_fill" transform="translate(-221 -44)" fill="#27AE60"/>
<use xlink:href="#path0_stroke" transform="translate(-221 -44)"/>
</g>
<g id="Rectangle">
<use xlink:href="#path2_stroke" transform="translate(-189 -19)"/>
</g>
<g id="Rectangle">
<use xlink:href="#path2_stroke" transform="translate(-157.9 -19)"/>
</g>
<g id="Rectangle">
<use xlink:href="#path2_stroke" transform="translate(-126.8 -19)"/>
</g>
<g id="Rectangle">
<use xlink:href="#path2_stroke" transform="translate(-95.7 -19)"/>
</g>
<g id="Rectangle">
<use xlink:href="#path0_stroke" transform="translate(-383 -19)"/>
</g>
<g id="Rectangle">
<use xlink:href="#path0_stroke" transform="translate(-350.5 -19)"/>
</g>
<g id="Rectangle">
<use xlink:href="#path0_stroke" transform="translate(-318 -19)"/>
</g>
<g id="Rectangle">
<use xlink:href="#path0_stroke" transform="translate(-285.5 -19)"/>
</g>
<g id="Rectangle">
<use xlink:href="#path1_fill" transform="translate(-253 -19)" fill="#F2C94C"/>
<use xlink:href="#path0_stroke" transform="translate(-253 -19)"/>
</g>
<g id="Rectangle">
<use xlink:href="#path1_fill" transform="translate(-221 -19)" fill="#F2C94C"/>
<use xlink:href="#path0_stroke" transform="translate(-221 -19)"/>
</g>
<g id="Rectangle">
<use xlink:href="#path2_stroke" transform="translate(-189 6)"/>
</g>
<g id="Rectangle">
<use xlink:href="#path2_stroke" transform="translate(-157.9 6)"/>
</g>
<g id="Rectangle">
<use xlink:href="#path2_stroke" transform="translate(-126.8 6)"/>
</g>
<g id="Rectangle">
<use xlink:href="#path2_stroke" transform="translate(-95.7 6)"/>
</g>
<g id="Rectangle">
<use xlink:href="#path2_stroke" transform="translate(-13 56)"/>
</g>
<g id="Rectangle">
<use xlink:href="#path2_stroke" transform="translate(18.1 56)"/>
</g>
<g id="Rectangle">
<use xlink:href="#path2_stroke" transform="translate(49.2 56)"/>
</g>
<g id="Rectangle">
<use xlink:href="#path2_stroke" transform="translate(80.3 56)"/>
</g>
<g id="Rectangle">
<use xlink:href="#path2_stroke" transform="translate(-13 31)"/>
</g>
<g id="Rectangle">
<use xlink:href="#path2_stroke" transform="translate(18.1 31)"/>
</g>
<g id="Rectangle">
<use xlink:href="#path2_stroke" transform="translate(49.2 31)"/>
</g>
<g id="Rectangle">
<use xlink:href="#path2_stroke" transform="translate(80.3 31)"/>
</g>
<g id="Rectangle">
<use xlink:href="#path2_stroke" transform="translate(-13 -194)"/>
</g>
<g id="Rectangle">
<use xlink:href="#path2_stroke" transform="translate(18.1 -194)"/>
</g>
<g id="Rectangle">
<use xlink:href="#path2_stroke" transform="translate(49.2 -194)"/>
</g>
<g id="Rectangle">
<use xlink:href="#path2_stroke" transform="translate(80.3 -194)"/>
</g>
<g id="Rectangle">
<use xlink:href="#path2_stroke" transform="translate(-13 -69)"/>
</g>
<g id="Rectangle">
<use xlink:href="#path2_stroke" transform="translate(18.1 -69)"/>
</g>
<g id="Rectangle">
<use xlink:href="#path2_stroke" transform="translate(49.2 -69)"/>
</g>
<g id="Rectangle">
<use xlink:href="#path2_stroke" transform="translate(80.3 -69)"/>
</g>
<g id="Rectangle">
<use xlink:href="#path2_stroke" transform="translate(-13 -94)"/>
</g>
<g id="Rectangle">
<use xlink:href="#path2_stroke" transform="translate(18.1 -94)"/>
</g>
<g id="Rectangle">
<use xlink:href="#path2_stroke" transform="translate(49.2 -94)"/>
</g>
<g id="Rectangle">
<use xlink:href="#path2_stroke" transform="translate(80.3 -94)"/>
</g>
<g id="Rectangle">
<use xlink:href="#path2_stroke" transform="translate(-13 -169)"/>
</g>
<g id="Rectangle">
<use xlink:href="#path2_stroke" transform="translate(18.1 -169)"/>
</g>
<g id="Rectangle">
<use xlink:href="#path2_stroke" transform="translate(49.2 -169)"/>
</g>
<g id="Rectangle">
<use xlink:href="#path2_stroke" transform="translate(80.3 -169)"/>
</g>
<g id="Rectangle">
<use xlink:href="#path2_stroke" transform="translate(-13 -144)"/>
</g>
<g id="Rectangle">
<use xlink:href="#path2_stroke" transform="translate(18.1 -144)"/>
</g>
<g id="Rectangle">
<use xlink:href="#path2_stroke" transform="translate(49.2 -144)"/>
</g>
<g id="Rectangle">
<use xlink:href="#path2_stroke" transform="translate(80.3 -144)"/>
</g>
<g id="Rectangle">
<use xlink:href="#path2_stroke" transform="translate(-13 -119)"/>
</g>
<g id="Rectangle">
<use xlink:href="#path2_stroke" transform="translate(18.1 -119)"/>
</g>
<g id="Rectangle">
<use xlink:href="#path2_stroke" transform="translate(49.2 -119)"/>
</g>
<g id="Rectangle">
<use xlink:href="#path2_stroke" transform="translate(80.3 -119)"/>
</g>
<g id="Rectangle">
<use xlink:href="#path3_fill" transform="translate(-13 -44)" fill="#27AE60"/>
<use xlink:href="#path2_stroke" transform="translate(-13 -44)"/>
</g>
<g id="Rectangle">
<use xlink:href="#path3_fill" transform="translate(18.1 -44)" fill="#2F80ED"/>
<use xlink:href="#path2_stroke" transform="translate(18.1 -44)"/>
</g>
<g id="Rectangle">
<use xlink:href="#path3_fill" transform="translate(49.2 -44)" fill="#F2994A"/>
<use xlink:href="#path2_stroke" transform="translate(49.2 -44)"/>
</g>
<g id="Rectangle">
<use xlink:href="#path3_fill" transform="translate(80.3 -44)" fill="#BB6BD9"/>
<use xlink:href="#path2_stroke" transform="translate(80.3 -44)"/>
</g>
<g id="Rectangle">
<use xlink:href="#path3_fill" transform="translate(-13 -19)" fill="#27AE60"/>
<use xlink:href="#path2_stroke" transform="translate(-13 -19)"/>
</g>
<g id="Rectangle">
<use xlink:href="#path3_fill" transform="translate(18.1 -19)" fill="#2F80ED"/>
<use xlink:href="#path2_stroke" transform="translate(18.1 -19)"/>
</g>
<g id="Rectangle">
<use xlink:href="#path3_fill" transform="translate(49.2 -19)" fill="#F2994A"/>
<use xlink:href="#path2_stroke" transform="translate(49.2 -19)"/>
</g>
<g id="Rectangle">
<use xlink:href="#path3_fill" transform="translate(80.3 -19)" fill="#BB6BD9"/>
<use xlink:href="#path2_stroke" transform="translate(80.3 -19)"/>
</g>
<g id="Rectangle">
<use xlink:href="#path2_stroke" transform="translate(-13 6)"/>
</g>
<g id="Rectangle">
<use xlink:href="#path2_stroke" transform="translate(18.1 6)"/>
</g>
<g id="Rectangle">
<use xlink:href="#path2_stroke" transform="translate(49.2 6)"/>
</g>
<g id="Rectangle">
<use xlink:href="#path2_stroke" transform="translate(80.3 6)"/>
</g>
<g id="Rectangle">
<use xlink:href="#path2_stroke" transform="translate(-13 106)"/>
</g>
<g id="Rectangle">
<use xlink:href="#path2_stroke" transform="translate(18.1 106)"/>
</g>
<g id="Rectangle">
<use xlink:href="#path2_stroke" transform="translate(49.2 106)"/>
</g>
<g id="Rectangle">
<use xlink:href="#path2_stroke" transform="translate(80.3 106)"/>
</g>
<g id="Rectangle">
<use xlink:href="#path2_stroke" transform="translate(-13 81)"/>
</g>
<g id="Rectangle">
<use xlink:href="#path2_stroke" transform="translate(18.1 81)"/>
</g>
<g id="Rectangle">
<use xlink:href="#path2_stroke" transform="translate(49.2 81)"/>
</g>
<g id="Rectangle">
<use xlink:href="#path2_stroke" transform="translate(80.3 81)"/>
</g>
<g id="Rectangle">
<use xlink:href="#path0_stroke" transform="translate(-383 6)"/>
</g>
<g id="Rectangle">
<use xlink:href="#path0_stroke" transform="translate(-350.5 6)"/>
</g>
<g id="Rectangle">
<use xlink:href="#path0_stroke" transform="translate(-318 6)"/>
</g>
<g id="Rectangle">
<use xlink:href="#path0_stroke" transform="translate(-285.5 6)"/>
</g>
<g id="Rectangle">
<use xlink:href="#path1_fill" transform="translate(-253 6)" fill="#BB6BD9"/>
<use xlink:href="#path0_stroke" transform="translate(-253 6)"/>
</g>
<g id="Combining columns with JOIN">
<use xlink:href="#path4_fill" transform="translate(-317 167)"/>
</g>
<g id="Combining rows with UNION">
<use xlink:href="#path5_fill" transform="translate(-40 167)"/>
</g>
<g id="Rectangle">
<use xlink:href="#path1_fill" transform="translate(-221 6)" fill="#BB6BD9"/>
<use xlink:href="#path0_stroke" transform="translate(-221 6)"/>
</g>
</g>
</g>
<defs>
<path id="path0_stroke" d="M 0 0L 0 -0.5L -0.5 -0.5L -0.5 0L 0 0ZM 32.5 0L 33 0L 33 -0.5L 32.5 -0.5L 32.5 0ZM 32.5 25L 32.5 25.5L 33 25.5L 33 25L 32.5 25ZM 0 25L -0.5 25L -0.5 25.5L 0 25.5L 0 25ZM 0 0.5L 32.5 0.5L 32.5 -0.5L 0 -0.5L 0 0.5ZM 32 0L 32 25L 33 25L 33 0L 32 0ZM 32.5 24.5L 0 24.5L 0 25.5L 32.5 25.5L 32.5 24.5ZM 0.5 25L 0.5 0L -0.5 0L -0.5 25L 0.5 25Z"/>
<path id="path1_fill" d="M 0 0L 32.5 0L 32.5 25L 0 25L 0 0Z"/>
<path id="path2_stroke" d="M 0 0L 0 -0.5L -0.5 -0.5L -0.5 0L 0 0ZM 31.1 0L 31.6 0L 31.6 -0.5L 31.1 -0.5L 31.1 0ZM 31.1 25L 31.1 25.5L 31.6 25.5L 31.6 25L 31.1 25ZM 0 25L -0.5 25L -0.5 25.5L 0 25.5L 0 25ZM 0 0.5L 31.1 0.5L 31.1 -0.5L 0 -0.5L 0 0.5ZM 30.6 0L 30.6 25L 31.6 25L 31.6 0L 30.6 0ZM 31.1 24.5L 0 24.5L 0 25.5L 31.1 25.5L 31.1 24.5ZM 0.5 25L 0.5 0L -0.5 0L -0.5 25L 0.5 25Z"/>
<path id="path3_fill" d="M 0 0L 31.1 0L 31.1 25L 0 25L 0 0Z"/>
<path id="path4_fill" d="M 8.85547 10.8418C 8.73242 11.8945 8.34277 12.708 7.68652 13.2822C 7.03483 13.8519 6.16667 14.1367 5.08203 14.1367C 3.90625 14.1367 2.96289 13.7152 2.25195 12.8721C 1.54557 12.029 1.19238 10.901 1.19238 9.48828L 1.19238 8.53125C 1.19238 7.60612 1.35645 6.79264 1.68457 6.09082C 2.01725 5.389 2.48665 4.85124 3.09277 4.47754C 3.69889 4.09928 4.40072 3.91016 5.19824 3.91016C 6.25553 3.91016 7.10319 4.20638 7.74121 4.79883C 8.37923 5.38672 8.75065 6.20247 8.85547 7.24609L 7.53613 7.24609C 7.4222 6.45312 7.17383 5.87891 6.79102 5.52344C 6.41276 5.16797 5.88184 4.99023 5.19824 4.99023C 4.3597 4.99023 3.70117 5.30013 3.22266 5.91992C 2.7487 6.53971 2.51172 7.42155 2.51172 8.56543L 2.51172 9.5293C 2.51172 10.6094 2.7373 11.4684 3.18848 12.1064C 3.63965 12.7445 4.27083 13.0635 5.08203 13.0635C 5.8112 13.0635 6.36947 12.8994 6.75684 12.5713C 7.14876 12.2386 7.40853 11.6621 7.53613 10.8418L 8.85547 10.8418ZM 10.1201 10.2334C 10.1201 9.50879 10.2614 8.8571 10.5439 8.27832C 10.8311 7.69954 11.2275 7.25293 11.7334 6.93848C 12.2438 6.62402 12.8249 6.4668 13.4766 6.4668C 14.4837 6.4668 15.2972 6.81543 15.917 7.5127C 16.5413 8.20996 16.8535 9.13737 16.8535 10.2949L 16.8535 10.3838C 16.8535 11.1038 16.7145 11.751 16.4365 12.3252C 16.1631 12.8949 15.7689 13.3392 15.2539 13.6582C 14.7435 13.9772 14.1556 14.1367 13.4902 14.1367C 12.4876 14.1367 11.6742 13.7881 11.0498 13.0908C 10.43 12.3936 10.1201 11.4707 10.1201 10.3223L 10.1201 10.2334ZM 11.3916 10.3838C 11.3916 11.2041 11.5807 11.8626 11.959 12.3594C 12.3418 12.8561 12.8522 13.1045 13.4902 13.1045C 14.1328 13.1045 14.6432 12.8538 15.0215 12.3525C 15.3997 11.8467 15.5889 11.1403 15.5889 10.2334C 15.5889 9.4222 15.3952 8.76595 15.0078 8.26465C 14.625 7.75879 14.1146 7.50586 13.4766 7.50586C 12.8522 7.50586 12.3486 7.75423 11.9658 8.25098C 11.583 8.74772 11.3916 9.45866 11.3916 10.3838ZM 19.6289 6.60352L 19.6631 7.42383C 20.2054 6.78581 20.9368 6.4668 21.8574 6.4668C 22.8919 6.4668 23.596 6.86328 23.9697 7.65625C 24.2158 7.30078 24.5348 7.01367 24.9268 6.79492C 25.3232 6.57617 25.7904 6.4668 26.3281 6.4668C 27.9505 6.4668 28.7754 7.32585 28.8027 9.04395L 28.8027 14L 27.5381 14L 27.5381 9.11914C 27.5381 8.59049 27.4173 8.19629 27.1758 7.93652C 26.9342 7.6722 26.5286 7.54004 25.959 7.54004C 25.4896 7.54004 25.0999 7.68132 24.79 7.96387C 24.4801 8.24186 24.3001 8.61784 24.25 9.0918L 24.25 14L 22.9785 14L 22.9785 9.15332C 22.9785 8.0778 22.4521 7.54004 21.3994 7.54004C 20.57 7.54004 20.0026 7.89323 19.6973 8.59961L 19.6973 14L 18.4326 14L 18.4326 6.60352L 19.6289 6.60352ZM 36.9785 10.3838C 36.9785 11.514 36.7188 12.4232 36.1992 13.1113C 35.6797 13.7949 34.9824 14.1367 34.1074 14.1367C 33.1732 14.1367 32.4508 13.8063 31.9404 13.1455L 31.8789 14L 30.7168 14L 30.7168 3.5L 31.9814 3.5L 31.9814 7.41699C 32.4919 6.78353 33.196 6.4668 34.0938 6.4668C 34.9915 6.4668 35.6956 6.80632 36.2061 7.48535C 36.721 8.16439 36.9785 9.09408 36.9785 10.2744L 36.9785 10.3838ZM 35.7139 10.2402C 35.7139 9.37891 35.5475 8.71354 35.2148 8.24414C 34.8822 7.77474 34.4036 7.54004 33.7793 7.54004C 32.9453 7.54004 32.346 7.92741 31.9814 8.70215L 31.9814 11.9014C 32.3688 12.6761 32.9727 13.0635 33.793 13.0635C 34.3991 13.0635 34.8708 12.8288 35.208 12.3594C 35.5452 11.89 35.7139 11.1836 35.7139 10.2402ZM 39.9521 14L 38.6875 14L 38.6875 6.60352L 39.9521 6.60352L 39.9521 14ZM 38.585 4.6416C 38.585 4.43652 38.6465 4.26335 38.7695 4.12207C 38.8971 3.98079 39.084 3.91016 39.3301 3.91016C 39.5762 3.91016 39.763 3.98079 39.8906 4.12207C 40.0182 4.26335 40.082 4.43652 40.082 4.6416C 40.082 4.84668 40.0182 5.01758 39.8906 5.1543C 39.763 5.29102 39.5762 5.35938 39.3301 5.35938C 39.084 5.35938 38.8971 5.29102 38.7695 5.1543C 38.6465 5.01758 38.585 4.84668 38.585 4.6416ZM 43.1787 6.60352L 43.2197 7.5332C 43.7848 6.82227 44.5231 6.4668 45.4346 6.4668C 46.9977 6.4668 47.7861 7.34863 47.7998 9.1123L 47.7998 14L 46.5352 14L 46.5352 9.10547C 46.5306 8.57227 46.4076 8.17806 46.166 7.92285C 45.929 7.66764 45.5576 7.54004 45.0518 7.54004C 44.6416 7.54004 44.2816 7.64941 43.9717 7.86816C 43.6618 8.08691 43.4202 8.37402 43.2471 8.72949L 43.2471 14L 41.9824 14L 41.9824 6.60352L 43.1787 6.60352ZM 51.0811 14L 49.8164 14L 49.8164 6.60352L 51.0811 6.60352L 51.0811 14ZM 49.7139 4.6416C 49.7139 4.43652 49.7754 4.26335 49.8984 4.12207C 50.026 3.98079 50.2129 3.91016 50.459 3.91016C 50.7051 3.91016 50.8919 3.98079 51.0195 4.12207C 51.1471 4.26335 51.2109 4.43652 51.2109 4.6416C 51.2109 4.84668 51.1471 5.01758 51.0195 5.1543C 50.8919 5.29102 50.7051 5.35938 50.459 5.35938C 50.2129 5.35938 50.026 5.29102 49.8984 5.1543C 49.7754 5.01758 49.7139 4.84668 49.7139 4.6416ZM 54.3076 6.60352L 54.3486 7.5332C 54.9137 6.82227 55.652 6.4668 56.5635 6.4668C 58.1266 6.4668 58.915 7.34863 58.9287 9.1123L 58.9287 14L 57.6641 14L 57.6641 9.10547C 57.6595 8.57227 57.5365 8.17806 57.2949 7.92285C 57.0579 7.66764 56.6865 7.54004 56.1807 7.54004C 55.7705 7.54004 55.4105 7.64941 55.1006 7.86816C 54.7907 8.08691 54.5492 8.37402 54.376 8.72949L 54.376 14L 53.1113 14L 53.1113 6.60352L 54.3076 6.60352ZM 60.5352 10.2402C 60.5352 9.08724 60.8018 8.17122 61.335 7.49219C 61.8682 6.80859 62.5745 6.4668 63.4541 6.4668C 64.3564 6.4668 65.0605 6.78581 65.5664 7.42383L 65.6279 6.60352L 66.7832 6.60352L 66.7832 13.8223C 66.7832 14.7793 66.4984 15.5335 65.9287 16.085C 65.3636 16.6364 64.6025 16.9121 63.6455 16.9121C 63.1123 16.9121 62.5905 16.7982 62.0801 16.5703C 61.5697 16.3424 61.18 16.0303 60.9111 15.6338L 61.5674 14.875C 62.1097 15.5449 62.7728 15.8799 63.5566 15.8799C 64.1719 15.8799 64.6504 15.7067 64.9922 15.3604C 65.3385 15.014 65.5117 14.5264 65.5117 13.8975L 65.5117 13.2617C 65.0059 13.8451 64.3154 14.1367 63.4404 14.1367C 62.5745 14.1367 61.8727 13.7881 61.335 13.0908C 60.8018 12.3936 60.5352 11.4434 60.5352 10.2402ZM 61.8066 10.3838C 61.8066 11.2178 61.9775 11.874 62.3193 12.3525C 62.6611 12.8265 63.1396 13.0635 63.7549 13.0635C 64.5524 13.0635 65.138 12.7012 65.5117 11.9766L 65.5117 8.59961C 65.1243 7.89323 64.5433 7.54004 63.7686 7.54004C 63.1533 7.54004 62.6725 7.7793 62.3262 8.25781C 61.9798 8.73633 61.8066 9.44499 61.8066 10.3838ZM 75.1367 13.1045C 75.5879 13.1045 75.9821 12.9678 76.3193 12.6943C 76.6566 12.4209 76.8434 12.0791 76.8799 11.6689L 78.0762 11.6689C 78.0534 12.0928 77.9076 12.4961 77.6387 12.8789C 77.3698 13.2617 77.0098 13.5671 76.5586 13.7949C 76.112 14.0228 75.638 14.1367 75.1367 14.1367C 74.1296 14.1367 73.3275 13.8018 72.7305 13.1318C 72.138 12.4574 71.8418 11.5368 71.8418 10.3701L 71.8418 10.1582C 71.8418 9.43815 71.974 8.79785 72.2383 8.2373C 72.5026 7.67676 72.8809 7.24154 73.373 6.93164C 73.8698 6.62174 74.4554 6.4668 75.1299 6.4668C 75.9593 6.4668 76.6475 6.71517 77.1943 7.21191C 77.7458 7.70866 78.0397 8.35352 78.0762 9.14648L 76.8799 9.14648C 76.8434 8.66797 76.6611 8.27604 76.333 7.9707C 76.0094 7.66081 75.6084 7.50586 75.1299 7.50586C 74.4873 7.50586 73.9883 7.73828 73.6328 8.20312C 73.2819 8.66341 73.1064 9.33105 73.1064 10.2061L 73.1064 10.4453C 73.1064 11.2975 73.2819 11.9538 73.6328 12.4141C 73.9837 12.8743 74.485 13.1045 75.1367 13.1045ZM 79.1631 10.2334C 79.1631 9.50879 79.3044 8.8571 79.5869 8.27832C 79.874 7.69954 80.2705 7.25293 80.7764 6.93848C 81.2868 6.62402 81.8678 6.4668 82.5195 6.4668C 83.5267 6.4668 84.3402 6.81543 84.96 7.5127C 85.5843 8.20996 85.8965 9.13737 85.8965 10.2949L 85.8965 10.3838C 85.8965 11.1038 85.7575 11.751 85.4795 12.3252C 85.2061 12.8949 84.8118 13.3392 84.2969 13.6582C 83.7865 13.9772 83.1986 14.1367 82.5332 14.1367C 81.5306 14.1367 80.7171 13.7881 80.0928 13.0908C 79.473 12.3936 79.1631 11.4707 79.1631 10.3223L 79.1631 10.2334ZM 80.4346 10.3838C 80.4346 11.2041 80.6237 11.8626 81.002 12.3594C 81.3848 12.8561 81.8952 13.1045 82.5332 13.1045C 83.1758 13.1045 83.6862 12.8538 84.0645 12.3525C 84.4427 11.8467 84.6318 11.1403 84.6318 10.2334C 84.6318 9.4222 84.4382 8.76595 84.0508 8.26465C 83.668 7.75879 83.1576 7.50586 82.5195 7.50586C 81.8952 7.50586 81.3916 7.75423 81.0088 8.25098C 80.626 8.74772 80.4346 9.45866 80.4346 10.3838ZM 88.8564 14L 87.5918 14L 87.5918 3.5L 88.8564 3.5L 88.8564 14ZM 95.4531 13.2686C 94.9609 13.8473 94.2386 14.1367 93.2861 14.1367C 92.4977 14.1367 91.8962 13.9089 91.4814 13.4531C 91.0713 12.9928 90.8639 12.3138 90.8594 11.416L 90.8594 6.60352L 92.124 6.60352L 92.124 11.3818C 92.124 12.5029 92.5798 13.0635 93.4912 13.0635C 94.4574 13.0635 95.0999 12.7035 95.4189 11.9834L 95.4189 6.60352L 96.6836 6.60352L 96.6836 14L 95.4805 14L 95.4531 13.2686ZM 99.8008 6.60352L 99.835 7.42383C 100.377 6.78581 101.109 6.4668 102.029 6.4668C 103.064 6.4668 103.768 6.86328 104.142 7.65625C 104.388 7.30078 104.707 7.01367 105.099 6.79492C 105.495 6.57617 105.962 6.4668 106.5 6.4668C 108.122 6.4668 108.947 7.32585 108.975 9.04395L 108.975 14L 107.71 14L 107.71 9.11914C 107.71 8.59049 107.589 8.19629 107.348 7.93652C 107.106 7.6722 106.701 7.54004 106.131 7.54004C 105.661 7.54004 105.272 7.68132 104.962 7.96387C 104.652 8.24186 104.472 8.61784 104.422 9.0918L 104.422 14L 103.15 14L 103.15 9.15332C 103.15 8.0778 102.624 7.54004 101.571 7.54004C 100.742 7.54004 100.174 7.89323 99.8691 8.59961L 99.8691 14L 98.6045 14L 98.6045 6.60352L 99.8008 6.60352ZM 112.085 6.60352L 112.126 7.5332C 112.691 6.82227 113.429 6.4668 114.341 6.4668C 115.904 6.4668 116.692 7.34863 116.706 9.1123L 116.706 14L 115.441 14L 115.441 9.10547C 115.437 8.57227 115.314 8.17806 115.072 7.92285C 114.835 7.66764 114.464 7.54004 113.958 7.54004C 113.548 7.54004 113.188 7.64941 112.878 7.86816C 112.568 8.08691 112.326 8.37402 112.153 8.72949L 112.153 14L 110.889 14L 110.889 6.60352L 112.085 6.60352ZM 122.92 12.0381C 122.92 11.6963 122.79 11.432 122.53 11.2451C 122.275 11.0537 121.826 10.8896 121.184 10.7529C 120.546 10.6162 120.037 10.4521 119.659 10.2607C 119.285 10.0693 119.007 9.84147 118.825 9.57715C 118.647 9.31283 118.559 8.99837 118.559 8.63379C 118.559 8.02767 118.814 7.51497 119.324 7.0957C 119.839 6.67643 120.495 6.4668 121.293 6.4668C 122.132 6.4668 122.811 6.68327 123.33 7.11621C 123.854 7.54915 124.116 8.10286 124.116 8.77734L 122.845 8.77734C 122.845 8.43099 122.697 8.13249 122.4 7.88184C 122.109 7.63118 121.74 7.50586 121.293 7.50586C 120.833 7.50586 120.473 7.60612 120.213 7.80664C 119.953 8.00716 119.823 8.26921 119.823 8.59277C 119.823 8.89811 119.944 9.12826 120.186 9.2832C 120.427 9.43815 120.862 9.58626 121.491 9.72754C 122.125 9.86882 122.637 10.0374 123.029 10.2334C 123.421 10.4294 123.711 10.6663 123.897 10.9443C 124.089 11.2178 124.185 11.5527 124.185 11.9492C 124.185 12.61 123.92 13.141 123.392 13.542C 122.863 13.9385 122.177 14.1367 121.334 14.1367C 120.742 14.1367 120.217 14.0319 119.762 13.8223C 119.306 13.6126 118.948 13.321 118.688 12.9473C 118.433 12.569 118.306 12.1611 118.306 11.7236L 119.57 11.7236C 119.593 12.1475 119.762 12.4847 120.076 12.7354C 120.395 12.9814 120.814 13.1045 121.334 13.1045C 121.812 13.1045 122.195 13.0088 122.482 12.8174C 122.774 12.6214 122.92 12.3617 122.92 12.0381ZM 135.854 12.2568L 137.275 6.60352L 138.54 6.60352L 136.387 14L 135.361 14L 133.563 8.39453L 131.813 14L 130.788 14L 128.642 6.60352L 129.899 6.60352L 131.355 12.1406L 133.078 6.60352L 134.097 6.60352L 135.854 12.2568ZM 141.206 14L 139.941 14L 139.941 6.60352L 141.206 6.60352L 141.206 14ZM 139.839 4.6416C 139.839 4.43652 139.9 4.26335 140.023 4.12207C 140.151 3.98079 140.338 3.91016 140.584 3.91016C 140.83 3.91016 141.017 3.98079 141.145 4.12207C 141.272 4.26335 141.336 4.43652 141.336 4.6416C 141.336 4.84668 141.272 5.01758 141.145 5.1543C 141.017 5.29102 140.83 5.35938 140.584 5.35938C 140.338 5.35938 140.151 5.29102 140.023 5.1543C 139.9 5.01758 139.839 4.84668 139.839 4.6416ZM 144.952 4.8125L 144.952 6.60352L 146.333 6.60352L 146.333 7.58105L 144.952 7.58105L 144.952 12.168C 144.952 12.4642 145.014 12.6875 145.137 12.8379C 145.26 12.9837 145.469 13.0566 145.766 13.0566C 145.911 13.0566 146.112 13.0293 146.367 12.9746L 146.367 14C 146.035 14.0911 145.711 14.1367 145.396 14.1367C 144.831 14.1367 144.405 13.9658 144.118 13.624C 143.831 13.2822 143.688 12.7969 143.688 12.168L 143.688 7.58105L 142.341 7.58105L 142.341 6.60352L 143.688 6.60352L 143.688 4.8125L 144.952 4.8125ZM 149.081 7.49902C 149.642 6.81087 150.371 6.4668 151.269 6.4668C 152.832 6.4668 153.62 7.34863 153.634 9.1123L 153.634 14L 152.369 14L 152.369 9.10547C 152.365 8.57227 152.242 8.17806 152 7.92285C 151.763 7.66764 151.392 7.54004 150.886 7.54004C 150.476 7.54004 150.116 7.64941 149.806 7.86816C 149.496 8.08691 149.254 8.37402 149.081 8.72949L 149.081 14L 147.816 14L 147.816 3.5L 149.081 3.5L 149.081 7.49902ZM 160.059 11.382C 160.6 12.054 161.179 12.39 161.795 12.39C 162.271 12.39 162.626 12.2733 162.859 12.04C 163.092 11.7973 163.209 11.3587 163.209 10.724L 163.209 6.594L 159.639 6.594L 159.639 4.872L 165.267 4.872L 165.267 10.892C 165.267 11.34 165.206 11.7647 165.085 12.166C 164.973 12.558 164.782 12.9033 164.511 13.202C 164.24 13.5007 163.886 13.7387 163.447 13.916C 163.018 14.084 162.49 14.168 161.865 14.168C 161.613 14.168 161.352 14.14 161.081 14.084C 160.81 14.0373 160.544 13.9533 160.283 13.832C 160.022 13.7107 159.77 13.5567 159.527 13.37C 159.284 13.174 159.065 12.936 158.869 12.656L 160.059 11.382ZM 170.637 14.168C 170.096 14.168 169.597 14.0607 169.139 13.846C 168.691 13.622 168.304 13.3047 167.977 12.894C 167.66 12.4833 167.413 11.984 167.236 11.396C 167.058 10.808 166.97 10.1407 166.97 9.394C 166.97 8.64733 167.058 7.98467 167.236 7.406C 167.413 6.818 167.66 6.328 167.977 5.936C 168.304 5.53467 168.691 5.23133 169.139 5.026C 169.597 4.81133 170.096 4.704 170.637 4.704C 171.179 4.704 171.673 4.81133 172.121 5.026C 172.579 5.23133 172.966 5.53467 173.284 5.936C 173.61 6.33733 173.862 6.832 174.04 7.42C 174.217 7.99867 174.305 8.65667 174.305 9.394C 174.305 10.1407 174.217 10.808 174.04 11.396C 173.862 11.984 173.61 12.4833 173.284 12.894C 172.966 13.3047 172.579 13.622 172.121 13.846C 171.673 14.0607 171.179 14.168 170.637 14.168ZM 170.637 12.39C 171.113 12.39 171.492 12.124 171.772 11.592C 172.052 11.0507 172.191 10.318 172.191 9.394C 172.191 8.47933 172.052 7.76533 171.772 7.252C 171.492 6.73867 171.113 6.482 170.637 6.482C 170.161 6.482 169.784 6.73867 169.504 7.252C 169.224 7.76533 169.083 8.47933 169.083 9.394C 169.083 10.318 169.224 11.0507 169.504 11.592C 169.784 12.124 170.161 12.39 170.637 12.39ZM 175.868 12.264L 177.996 12.264L 177.996 6.608L 175.868 6.608L 175.868 4.872L 182.196 4.872L 182.196 6.608L 180.068 6.608L 180.068 12.264L 182.196 12.264L 182.196 14L 175.868 14L 175.868 12.264ZM 184.151 4.872L 186.251 4.872L 188.183 9.422L 188.967 11.424L 189.023 11.424C 188.976 10.9387 188.915 10.3973 188.841 9.8C 188.766 9.20267 188.729 8.638 188.729 8.106L 188.729 4.872L 190.703 4.872L 190.703 14L 188.603 14L 186.671 9.45L 185.887 7.462L 185.831 7.462C 185.877 7.966 185.938 8.50733 186.013 9.086C 186.087 9.66467 186.125 10.2247 186.125 10.766L 186.125 14L 184.151 14L 184.151 4.872Z"/>
<path id="path5_fill" d="M 8.82031 10.8418C 8.69727 11.8945 8.30762 12.708 7.65137 13.2822C 6.99967 13.8519 6.13151 14.1367 5.04688 14.1367C 3.87109 14.1367 2.92773 13.7152 2.2168 12.8721C 1.51042 12.029 1.15723 10.901 1.15723 9.48828L 1.15723 8.53125C 1.15723 7.60612 1.32129 6.79264 1.64941 6.09082C 1.9821 5.389 2.4515 4.85124 3.05762 4.47754C 3.66374 4.09928 4.36556 3.91016 5.16309 3.91016C 6.22038 3.91016 7.06803 4.20638 7.70605 4.79883C 8.34408 5.38672 8.71549 6.20247 8.82031 7.24609L 7.50098 7.24609C 7.38704 6.45312 7.13867 5.87891 6.75586 5.52344C 6.3776 5.16797 5.84668 4.99023 5.16309 4.99023C 4.32454 4.99023 3.66602 5.30013 3.1875 5.91992C 2.71354 6.53971 2.47656 7.42155 2.47656 8.56543L 2.47656 9.5293C 2.47656 10.6094 2.70215 11.4684 3.15332 12.1064C 3.60449 12.7445 4.23568 13.0635 5.04688 13.0635C 5.77604 13.0635 6.33431 12.8994 6.72168 12.5713C 7.11361 12.2386 7.37337 11.6621 7.50098 10.8418L 8.82031 10.8418ZM 10.085 10.2334C 10.085 9.50879 10.2262 8.8571 10.5088 8.27832C 10.7959 7.69954 11.1924 7.25293 11.6982 6.93848C 12.2087 6.62402 12.7897 6.4668 13.4414 6.4668C 14.4486 6.4668 15.262 6.81543 15.8818 7.5127C 16.5062 8.20996 16.8184 9.13737 16.8184 10.2949L 16.8184 10.3838C 16.8184 11.1038 16.6794 11.751 16.4014 12.3252C 16.1279 12.8949 15.7337 13.3392 15.2188 13.6582C 14.7083 13.9772 14.1204 14.1367 13.4551 14.1367C 12.4525 14.1367 11.639 13.7881 11.0146 13.0908C 10.3949 12.3936 10.085 11.4707 10.085 10.3223L 10.085 10.2334ZM 11.3564 10.3838C 11.3564 11.2041 11.5456 11.8626 11.9238 12.3594C 12.3066 12.8561 12.8171 13.1045 13.4551 13.1045C 14.0977 13.1045 14.6081 12.8538 14.9863 12.3525C 15.3646 11.8467 15.5537 11.1403 15.5537 10.2334C 15.5537 9.4222 15.36 8.76595 14.9727 8.26465C 14.5898 7.75879 14.0794 7.50586 13.4414 7.50586C 12.8171 7.50586 12.3135 7.75423 11.9307 8.25098C 11.5479 8.74772 11.3564 9.45866 11.3564 10.3838ZM 19.5938 6.60352L 19.6279 7.42383C 20.1702 6.78581 20.9017 6.4668 21.8223 6.4668C 22.8568 6.4668 23.5609 6.86328 23.9346 7.65625C 24.1807 7.30078 24.4997 7.01367 24.8916 6.79492C 25.2881 6.57617 25.7552 6.4668 26.293 6.4668C 27.9154 6.4668 28.7402 7.32585 28.7676 9.04395L 28.7676 14L 27.5029 14L 27.5029 9.11914C 27.5029 8.59049 27.3822 8.19629 27.1406 7.93652C 26.8991 7.6722 26.4935 7.54004 25.9238 7.54004C 25.4544 7.54004 25.0648 7.68132 24.7549 7.96387C 24.445 8.24186 24.265 8.61784 24.2148 9.0918L 24.2148 14L 22.9434 14L 22.9434 9.15332C 22.9434 8.0778 22.417 7.54004 21.3643 7.54004C 20.5348 7.54004 19.9674 7.89323 19.6621 8.59961L 19.6621 14L 18.3975 14L 18.3975 6.60352L 19.5938 6.60352ZM 36.9434 10.3838C 36.9434 11.514 36.6836 12.4232 36.1641 13.1113C 35.6445 13.7949 34.9473 14.1367 34.0723 14.1367C 33.138 14.1367 32.4157 13.8063 31.9053 13.1455L 31.8438 14L 30.6816 14L 30.6816 3.5L 31.9463 3.5L 31.9463 7.41699C 32.4567 6.78353 33.1608 6.4668 34.0586 6.4668C 34.9564 6.4668 35.6605 6.80632 36.1709 7.48535C 36.6859 8.16439 36.9434 9.09408 36.9434 10.2744L 36.9434 10.3838ZM 35.6787 10.2402C 35.6787 9.37891 35.5124 8.71354 35.1797 8.24414C 34.847 7.77474 34.3685 7.54004 33.7441 7.54004C 32.9102 7.54004 32.3109 7.92741 31.9463 8.70215L 31.9463 11.9014C 32.3337 12.6761 32.9375 13.0635 33.7578 13.0635C 34.3639 13.0635 34.8356 12.8288 35.1729 12.3594C 35.5101 11.89 35.6787 11.1836 35.6787 10.2402ZM 39.917 14L 38.6523 14L 38.6523 6.60352L 39.917 6.60352L 39.917 14ZM 38.5498 4.6416C 38.5498 4.43652 38.6113 4.26335 38.7344 4.12207C 38.862 3.98079 39.0488 3.91016 39.2949 3.91016C 39.541 3.91016 39.7279 3.98079 39.8555 4.12207C 39.9831 4.26335 40.0469 4.43652 40.0469 4.6416C 40.0469 4.84668 39.9831 5.01758 39.8555 5.1543C 39.7279 5.29102 39.541 5.35938 39.2949 5.35938C 39.0488 5.35938 38.862 5.29102 38.7344 5.1543C 38.6113 5.01758 38.5498 4.84668 38.5498 4.6416ZM 43.1436 6.60352L 43.1846 7.5332C 43.7497 6.82227 44.488 6.4668 45.3994 6.4668C 46.9626 6.4668 47.751 7.34863 47.7646 9.1123L 47.7646 14L 46.5 14L 46.5 9.10547C 46.4954 8.57227 46.3724 8.17806 46.1309 7.92285C 45.8939 7.66764 45.5225 7.54004 45.0166 7.54004C 44.6064 7.54004 44.2464 7.64941 43.9365 7.86816C 43.6266 8.08691 43.3851 8.37402 43.2119 8.72949L 43.2119 14L 41.9473 14L 41.9473 6.60352L 43.1436 6.60352ZM 51.0459 14L 49.7812 14L 49.7812 6.60352L 51.0459 6.60352L 51.0459 14ZM 49.6787 4.6416C 49.6787 4.43652 49.7402 4.26335 49.8633 4.12207C 49.9909 3.98079 50.1777 3.91016 50.4238 3.91016C 50.6699 3.91016 50.8568 3.98079 50.9844 4.12207C 51.112 4.26335 51.1758 4.43652 51.1758 4.6416C 51.1758 4.84668 51.112 5.01758 50.9844 5.1543C 50.8568 5.29102 50.6699 5.35938 50.4238 5.35938C 50.1777 5.35938 49.9909 5.29102 49.8633 5.1543C 49.7402 5.01758 49.6787 4.84668 49.6787 4.6416ZM 54.2725 6.60352L 54.3135 7.5332C 54.8786 6.82227 55.6169 6.4668 56.5283 6.4668C 58.0915 6.4668 58.8799 7.34863 58.8936 9.1123L 58.8936 14L 57.6289 14L 57.6289 9.10547C 57.6243 8.57227 57.5013 8.17806 57.2598 7.92285C 57.0228 7.66764 56.6514 7.54004 56.1455 7.54004C 55.7354 7.54004 55.3753 7.64941 55.0654 7.86816C 54.7555 8.08691 54.514 8.37402 54.3408 8.72949L 54.3408 14L 53.0762 14L 53.0762 6.60352L 54.2725 6.60352ZM 60.5 10.2402C 60.5 9.08724 60.7666 8.17122 61.2998 7.49219C 61.833 6.80859 62.5394 6.4668 63.4189 6.4668C 64.3213 6.4668 65.0254 6.78581 65.5312 7.42383L 65.5928 6.60352L 66.748 6.60352L 66.748 13.8223C 66.748 14.7793 66.4632 15.5335 65.8936 16.085C 65.3285 16.6364 64.5674 16.9121 63.6104 16.9121C 63.0771 16.9121 62.5553 16.7982 62.0449 16.5703C 61.5345 16.3424 61.1449 16.0303 60.876 15.6338L 61.5322 14.875C 62.0745 15.5449 62.7376 15.8799 63.5215 15.8799C 64.1367 15.8799 64.6152 15.7067 64.957 15.3604C 65.3034 15.014 65.4766 14.5264 65.4766 13.8975L 65.4766 13.2617C 64.9707 13.8451 64.2803 14.1367 63.4053 14.1367C 62.5394 14.1367 61.8376 13.7881 61.2998 13.0908C 60.7666 12.3936 60.5 11.4434 60.5 10.2402ZM 61.7715 10.3838C 61.7715 11.2178 61.9424 11.874 62.2842 12.3525C 62.626 12.8265 63.1045 13.0635 63.7197 13.0635C 64.5173 13.0635 65.1029 12.7012 65.4766 11.9766L 65.4766 8.59961C 65.0892 7.89323 64.5081 7.54004 63.7334 7.54004C 63.1182 7.54004 62.6374 7.7793 62.291 8.25781C 61.9447 8.73633 61.7715 9.44499 61.7715 10.3838ZM 75.71 7.73828C 75.5186 7.70638 75.3112 7.69043 75.0879 7.69043C 74.2585 7.69043 73.6956 8.04362 73.3994 8.75L 73.3994 14L 72.1348 14L 72.1348 6.60352L 73.3652 6.60352L 73.3857 7.45801C 73.8005 6.7972 74.3883 6.4668 75.1494 6.4668C 75.3955 6.4668 75.5824 6.4987 75.71 6.5625L 75.71 7.73828ZM 76.4072 10.2334C 76.4072 9.50879 76.5485 8.8571 76.8311 8.27832C 77.1182 7.69954 77.5146 7.25293 78.0205 6.93848C 78.5309 6.62402 79.112 6.4668 79.7637 6.4668C 80.7708 6.4668 81.5843 6.81543 82.2041 7.5127C 82.8285 8.20996 83.1406 9.13737 83.1406 10.2949L 83.1406 10.3838C 83.1406 11.1038 83.0016 11.751 82.7236 12.3252C 82.4502 12.8949 82.056 13.3392 81.541 13.6582C 81.0306 13.9772 80.4427 14.1367 79.7773 14.1367C 78.7747 14.1367 77.9613 13.7881 77.3369 13.0908C 76.7171 12.3936 76.4072 11.4707 76.4072 10.3223L 76.4072 10.2334ZM 77.6787 10.3838C 77.6787 11.2041 77.8678 11.8626 78.2461 12.3594C 78.6289 12.8561 79.1393 13.1045 79.7773 13.1045C 80.4199 13.1045 80.9303 12.8538 81.3086 12.3525C 81.6868 11.8467 81.876 11.1403 81.876 10.2334C 81.876 9.4222 81.6823 8.76595 81.2949 8.26465C 80.9121 7.75879 80.4017 7.50586 79.7637 7.50586C 79.1393 7.50586 78.6357 7.75423 78.2529 8.25098C 77.8701 8.74772 77.6787 9.45866 77.6787 10.3838ZM 91.2754 12.2568L 92.6973 6.60352L 93.9619 6.60352L 91.8086 14L 90.7832 14L 88.9854 8.39453L 87.2354 14L 86.21 14L 84.0635 6.60352L 85.3213 6.60352L 86.7773 12.1406L 88.5 6.60352L 89.5186 6.60352L 91.2754 12.2568ZM 99.5605 12.0381C 99.5605 11.6963 99.4307 11.432 99.1709 11.2451C 98.9157 11.0537 98.4668 10.8896 97.8242 10.7529C 97.1862 10.6162 96.6781 10.4521 96.2998 10.2607C 95.9261 10.0693 95.6481 9.84147 95.4658 9.57715C 95.2881 9.31283 95.1992 8.99837 95.1992 8.63379C 95.1992 8.02767 95.4544 7.51497 95.9648 7.0957C 96.4798 6.67643 97.1361 6.4668 97.9336 6.4668C 98.7721 6.4668 99.4512 6.68327 99.9707 7.11621C 100.495 7.54915 100.757 8.10286 100.757 8.77734L 99.4854 8.77734C 99.4854 8.43099 99.3372 8.13249 99.041 7.88184C 98.7493 7.63118 98.3802 7.50586 97.9336 7.50586C 97.4733 7.50586 97.1133 7.60612 96.8535 7.80664C 96.5938 8.00716 96.4639 8.26921 96.4639 8.59277C 96.4639 8.89811 96.5846 9.12826 96.8262 9.2832C 97.0677 9.43815 97.5029 9.58626 98.1318 9.72754C 98.7653 9.86882 99.278 10.0374 99.6699 10.2334C 100.062 10.4294 100.351 10.6663 100.538 10.9443C 100.729 11.2178 100.825 11.5527 100.825 11.9492C 100.825 12.61 100.561 13.141 100.032 13.542C 99.5036 13.9385 98.8177 14.1367 97.9746 14.1367C 97.3822 14.1367 96.8581 14.0319 96.4023 13.8223C 95.9466 13.6126 95.5889 13.321 95.3291 12.9473C 95.0739 12.569 94.9463 12.1611 94.9463 11.7236L 96.2109 11.7236C 96.2337 12.1475 96.4023 12.4847 96.7168 12.7354C 97.0358 12.9814 97.4551 13.1045 97.9746 13.1045C 98.4531 13.1045 98.8359 13.0088 99.123 12.8174C 99.4147 12.6214 99.5605 12.3617 99.5605 12.0381ZM 112.494 12.2568L 113.916 6.60352L 115.181 6.60352L 113.027 14L 112.002 14L 110.204 8.39453L 108.454 14L 107.429 14L 105.282 6.60352L 106.54 6.60352L 107.996 12.1406L 109.719 6.60352L 110.737 6.60352L 112.494 12.2568ZM 117.847 14L 116.582 14L 116.582 6.60352L 117.847 6.60352L 117.847 14ZM 116.479 4.6416C 116.479 4.43652 116.541 4.26335 116.664 4.12207C 116.792 3.98079 116.979 3.91016 117.225 3.91016C 117.471 3.91016 117.658 3.98079 117.785 4.12207C 117.913 4.26335 117.977 4.43652 117.977 4.6416C 117.977 4.84668 117.913 5.01758 117.785 5.1543C 117.658 5.29102 117.471 5.35938 117.225 5.35938C 116.979 5.35938 116.792 5.29102 116.664 5.1543C 116.541 5.01758 116.479 4.84668 116.479 4.6416ZM 121.593 4.8125L 121.593 6.60352L 122.974 6.60352L 122.974 7.58105L 121.593 7.58105L 121.593 12.168C 121.593 12.4642 121.654 12.6875 121.777 12.8379C 121.9 12.9837 122.11 13.0566 122.406 13.0566C 122.552 13.0566 122.753 13.0293 123.008 12.9746L 123.008 14C 122.675 14.0911 122.352 14.1367 122.037 14.1367C 121.472 14.1367 121.046 13.9658 120.759 13.624C 120.472 13.2822 120.328 12.7969 120.328 12.168L 120.328 7.58105L 118.981 7.58105L 118.981 6.60352L 120.328 6.60352L 120.328 4.8125L 121.593 4.8125ZM 125.722 7.49902C 126.282 6.81087 127.011 6.4668 127.909 6.4668C 129.472 6.4668 130.261 7.34863 130.274 9.1123L 130.274 14L 129.01 14L 129.01 9.10547C 129.005 8.57227 128.882 8.17806 128.641 7.92285C 128.404 7.66764 128.032 7.54004 127.526 7.54004C 127.116 7.54004 126.756 7.64941 126.446 7.86816C 126.136 8.08691 125.895 8.37402 125.722 8.72949L 125.722 14L 124.457 14L 124.457 3.5L 125.722 3.5L 125.722 7.49902ZM 135.58 4.872L 137.638 4.872L 137.638 10.696C 137.638 11.2467 137.74 11.6667 137.946 11.956C 138.151 12.2453 138.473 12.39 138.912 12.39C 139.35 12.39 139.672 12.2453 139.878 11.956C 140.092 11.6667 140.2 11.2467 140.2 10.696L 140.2 4.872L 142.188 4.872L 142.188 10.486C 142.188 11.6807 141.917 12.5953 141.376 13.23C 140.844 13.8553 140.022 14.168 138.912 14.168C 137.792 14.168 136.956 13.8553 136.406 13.23C 135.855 12.5953 135.58 11.6807 135.58 10.486L 135.58 4.872ZM 144.002 4.872L 146.102 4.872L 148.034 9.422L 148.818 11.424L 148.874 11.424C 148.827 10.9387 148.767 10.3973 148.692 9.8C 148.617 9.20267 148.58 8.638 148.58 8.106L 148.58 4.872L 150.554 4.872L 150.554 14L 148.454 14L 146.522 9.45L 145.738 7.462L 145.682 7.462C 145.729 7.966 145.789 8.50733 145.864 9.086C 145.939 9.66467 145.976 10.2247 145.976 10.766L 145.976 14L 144.002 14L 144.002 4.872ZM 152.509 12.264L 154.637 12.264L 154.637 6.608L 152.509 6.608L 152.509 4.872L 158.837 4.872L 158.837 6.608L 156.709 6.608L 156.709 12.264L 158.837 12.264L 158.837 14L 152.509 14L 152.509 12.264ZM 164.067 14.168C 163.526 14.168 163.027 14.0607 162.569 13.846C 162.121 13.622 161.734 13.3047 161.407 12.894C 161.09 12.4833 160.843 11.984 160.665 11.396C 160.488 10.808 160.399 10.1407 160.399 9.394C 160.399 8.64733 160.488 7.98467 160.665 7.406C 160.843 6.818 161.09 6.328 161.407 5.936C 161.734 5.53467 162.121 5.23133 162.569 5.026C 163.027 4.81133 163.526 4.704 164.067 4.704C 164.609 4.704 165.103 4.81133 165.551 5.026C 166.009 5.23133 166.396 5.53467 166.713 5.936C 167.04 6.33733 167.292 6.832 167.469 7.42C 167.647 7.99867 167.735 8.65667 167.735 9.394C 167.735 10.1407 167.647 10.808 167.469 11.396C 167.292 11.984 167.04 12.4833 166.713 12.894C 166.396 13.3047 166.009 13.622 165.551 13.846C 165.103 14.0607 164.609 14.168 164.067 14.168ZM 164.067 12.39C 164.543 12.39 164.921 12.124 165.201 11.592C 165.481 11.0507 165.621 10.318 165.621 9.394C 165.621 8.47933 165.481 7.76533 165.201 7.252C 164.921 6.73867 164.543 6.482 164.067 6.482C 163.591 6.482 163.213 6.73867 162.933 7.252C 162.653 7.76533 162.513 8.47933 162.513 9.394C 162.513 10.318 162.653 11.0507 162.933 11.592C 163.213 12.124 163.591 12.39 164.067 12.39ZM 169.186 4.872L 171.286 4.872L 173.218 9.422L 174.002 11.424L 174.058 11.424C 174.011 10.9387 173.95 10.3973 173.876 9.8C 173.801 9.20267 173.764 8.638 173.764 8.106L 173.764 4.872L 175.738 4.872L 175.738 14L 173.638 14L 171.706 9.45L 170.922 7.462L 170.866 7.462C 170.912 7.966 170.973 8.50733 171.048 9.086C 171.122 9.66467 171.16 10.2247 171.16 10.766L 171.16 14L 169.186 14L 169.186 4.872Z"/>
</defs>
</svg>
